%TF.GenerationSoftware,KiCad,Pcbnew,7.0.2-6a45011f42~172~ubuntu22.04.1*%
%TF.CreationDate,2023-05-07T16:01:11-05:00*%
%TF.ProjectId,fuente-lineal,6675656e-7465-42d6-9c69-6e65616c2e6b,V1.0.0*%
%TF.SameCoordinates,PX55d4a80PY3750280*%
%TF.FileFunction,AssemblyDrawing,Top*%
%FSLAX46Y46*%
G04 Gerber Fmt 4.6, Leading zero omitted, Abs format (unit mm)*
G04 Created by KiCad (PCBNEW 7.0.2-6a45011f42~172~ubuntu22.04.1) date 2023-05-07 16:01:11*
%MOMM*%
%LPD*%
G01*
G04 APERTURE LIST*
%ADD10C,0.150000*%
%ADD11C,0.100000*%
%ADD12C,0.120000*%
G04 APERTURE END LIST*
D10*
%TO.C,C9*%
X61367380Y-56320487D02*
X61415000Y-56368106D01*
X61415000Y-56368106D02*
X61462619Y-56510963D01*
X61462619Y-56510963D02*
X61462619Y-56606201D01*
X61462619Y-56606201D02*
X61415000Y-56749058D01*
X61415000Y-56749058D02*
X61319761Y-56844296D01*
X61319761Y-56844296D02*
X61224523Y-56891915D01*
X61224523Y-56891915D02*
X61034047Y-56939534D01*
X61034047Y-56939534D02*
X60891190Y-56939534D01*
X60891190Y-56939534D02*
X60700714Y-56891915D01*
X60700714Y-56891915D02*
X60605476Y-56844296D01*
X60605476Y-56844296D02*
X60510238Y-56749058D01*
X60510238Y-56749058D02*
X60462619Y-56606201D01*
X60462619Y-56606201D02*
X60462619Y-56510963D01*
X60462619Y-56510963D02*
X60510238Y-56368106D01*
X60510238Y-56368106D02*
X60557857Y-56320487D01*
X61462619Y-55844296D02*
X61462619Y-55653820D01*
X61462619Y-55653820D02*
X61415000Y-55558582D01*
X61415000Y-55558582D02*
X61367380Y-55510963D01*
X61367380Y-55510963D02*
X61224523Y-55415725D01*
X61224523Y-55415725D02*
X61034047Y-55368106D01*
X61034047Y-55368106D02*
X60653095Y-55368106D01*
X60653095Y-55368106D02*
X60557857Y-55415725D01*
X60557857Y-55415725D02*
X60510238Y-55463344D01*
X60510238Y-55463344D02*
X60462619Y-55558582D01*
X60462619Y-55558582D02*
X60462619Y-55749058D01*
X60462619Y-55749058D02*
X60510238Y-55844296D01*
X60510238Y-55844296D02*
X60557857Y-55891915D01*
X60557857Y-55891915D02*
X60653095Y-55939534D01*
X60653095Y-55939534D02*
X60891190Y-55939534D01*
X60891190Y-55939534D02*
X60986428Y-55891915D01*
X60986428Y-55891915D02*
X61034047Y-55844296D01*
X61034047Y-55844296D02*
X61081666Y-55749058D01*
X61081666Y-55749058D02*
X61081666Y-55558582D01*
X61081666Y-55558582D02*
X61034047Y-55463344D01*
X61034047Y-55463344D02*
X60986428Y-55415725D01*
X60986428Y-55415725D02*
X60891190Y-55368106D01*
%TO.C,H4*%
X100238095Y-75462619D02*
X100238095Y-74462619D01*
X100238095Y-74938809D02*
X100809523Y-74938809D01*
X100809523Y-75462619D02*
X100809523Y-74462619D01*
X101714285Y-74795952D02*
X101714285Y-75462619D01*
X101476190Y-74415000D02*
X101238095Y-75129285D01*
X101238095Y-75129285D02*
X101857142Y-75129285D01*
%TO.C,C3*%
X70867380Y-17394446D02*
X70915000Y-17442065D01*
X70915000Y-17442065D02*
X70962619Y-17584922D01*
X70962619Y-17584922D02*
X70962619Y-17680160D01*
X70962619Y-17680160D02*
X70915000Y-17823017D01*
X70915000Y-17823017D02*
X70819761Y-17918255D01*
X70819761Y-17918255D02*
X70724523Y-17965874D01*
X70724523Y-17965874D02*
X70534047Y-18013493D01*
X70534047Y-18013493D02*
X70391190Y-18013493D01*
X70391190Y-18013493D02*
X70200714Y-17965874D01*
X70200714Y-17965874D02*
X70105476Y-17918255D01*
X70105476Y-17918255D02*
X70010238Y-17823017D01*
X70010238Y-17823017D02*
X69962619Y-17680160D01*
X69962619Y-17680160D02*
X69962619Y-17584922D01*
X69962619Y-17584922D02*
X70010238Y-17442065D01*
X70010238Y-17442065D02*
X70057857Y-17394446D01*
X69962619Y-17061112D02*
X69962619Y-16442065D01*
X69962619Y-16442065D02*
X70343571Y-16775398D01*
X70343571Y-16775398D02*
X70343571Y-16632541D01*
X70343571Y-16632541D02*
X70391190Y-16537303D01*
X70391190Y-16537303D02*
X70438809Y-16489684D01*
X70438809Y-16489684D02*
X70534047Y-16442065D01*
X70534047Y-16442065D02*
X70772142Y-16442065D01*
X70772142Y-16442065D02*
X70867380Y-16489684D01*
X70867380Y-16489684D02*
X70915000Y-16537303D01*
X70915000Y-16537303D02*
X70962619Y-16632541D01*
X70962619Y-16632541D02*
X70962619Y-16918255D01*
X70962619Y-16918255D02*
X70915000Y-17013493D01*
X70915000Y-17013493D02*
X70867380Y-17061112D01*
%TO.C,J4*%
X102166666Y-28540399D02*
X102166666Y-29254684D01*
X102166666Y-29254684D02*
X102119047Y-29397541D01*
X102119047Y-29397541D02*
X102023809Y-29492780D01*
X102023809Y-29492780D02*
X101880952Y-29540399D01*
X101880952Y-29540399D02*
X101785714Y-29540399D01*
X103071428Y-28873732D02*
X103071428Y-29540399D01*
X102833333Y-28492780D02*
X102595238Y-29207065D01*
X102595238Y-29207065D02*
X103214285Y-29207065D01*
%TO.C,J2*%
X12662619Y-59333333D02*
X13376904Y-59333333D01*
X13376904Y-59333333D02*
X13519761Y-59380952D01*
X13519761Y-59380952D02*
X13615000Y-59476190D01*
X13615000Y-59476190D02*
X13662619Y-59619047D01*
X13662619Y-59619047D02*
X13662619Y-59714285D01*
X12757857Y-58904761D02*
X12710238Y-58857142D01*
X12710238Y-58857142D02*
X12662619Y-58761904D01*
X12662619Y-58761904D02*
X12662619Y-58523809D01*
X12662619Y-58523809D02*
X12710238Y-58428571D01*
X12710238Y-58428571D02*
X12757857Y-58380952D01*
X12757857Y-58380952D02*
X12853095Y-58333333D01*
X12853095Y-58333333D02*
X12948333Y-58333333D01*
X12948333Y-58333333D02*
X13091190Y-58380952D01*
X13091190Y-58380952D02*
X13662619Y-58952380D01*
X13662619Y-58952380D02*
X13662619Y-58333333D01*
%TO.C,C11*%
X72367380Y-56892857D02*
X72415000Y-56940476D01*
X72415000Y-56940476D02*
X72462619Y-57083333D01*
X72462619Y-57083333D02*
X72462619Y-57178571D01*
X72462619Y-57178571D02*
X72415000Y-57321428D01*
X72415000Y-57321428D02*
X72319761Y-57416666D01*
X72319761Y-57416666D02*
X72224523Y-57464285D01*
X72224523Y-57464285D02*
X72034047Y-57511904D01*
X72034047Y-57511904D02*
X71891190Y-57511904D01*
X71891190Y-57511904D02*
X71700714Y-57464285D01*
X71700714Y-57464285D02*
X71605476Y-57416666D01*
X71605476Y-57416666D02*
X71510238Y-57321428D01*
X71510238Y-57321428D02*
X71462619Y-57178571D01*
X71462619Y-57178571D02*
X71462619Y-57083333D01*
X71462619Y-57083333D02*
X71510238Y-56940476D01*
X71510238Y-56940476D02*
X71557857Y-56892857D01*
X72462619Y-55940476D02*
X72462619Y-56511904D01*
X72462619Y-56226190D02*
X71462619Y-56226190D01*
X71462619Y-56226190D02*
X71605476Y-56321428D01*
X71605476Y-56321428D02*
X71700714Y-56416666D01*
X71700714Y-56416666D02*
X71748333Y-56511904D01*
X72462619Y-54988095D02*
X72462619Y-55559523D01*
X72462619Y-55273809D02*
X71462619Y-55273809D01*
X71462619Y-55273809D02*
X71605476Y-55369047D01*
X71605476Y-55369047D02*
X71700714Y-55464285D01*
X71700714Y-55464285D02*
X71748333Y-55559523D01*
%TO.C,H1*%
X8238095Y-9462619D02*
X8238095Y-8462619D01*
X8238095Y-8938809D02*
X8809523Y-8938809D01*
X8809523Y-9462619D02*
X8809523Y-8462619D01*
X9809523Y-9462619D02*
X9238095Y-9462619D01*
X9523809Y-9462619D02*
X9523809Y-8462619D01*
X9523809Y-8462619D02*
X9428571Y-8605476D01*
X9428571Y-8605476D02*
X9333333Y-8700714D01*
X9333333Y-8700714D02*
X9238095Y-8748333D01*
%TO.C,D2*%
X37738095Y-25540399D02*
X37738095Y-24540399D01*
X38309523Y-25540399D02*
X37880952Y-24968970D01*
X38309523Y-24540399D02*
X37738095Y-25111827D01*
X26579405Y-22940399D02*
X26579405Y-21940399D01*
X26579405Y-21940399D02*
X26817500Y-21940399D01*
X26817500Y-21940399D02*
X26960357Y-21988018D01*
X26960357Y-21988018D02*
X27055595Y-22083256D01*
X27055595Y-22083256D02*
X27103214Y-22178494D01*
X27103214Y-22178494D02*
X27150833Y-22368970D01*
X27150833Y-22368970D02*
X27150833Y-22511827D01*
X27150833Y-22511827D02*
X27103214Y-22702303D01*
X27103214Y-22702303D02*
X27055595Y-22797541D01*
X27055595Y-22797541D02*
X26960357Y-22892780D01*
X26960357Y-22892780D02*
X26817500Y-22940399D01*
X26817500Y-22940399D02*
X26579405Y-22940399D01*
X27531786Y-22035637D02*
X27579405Y-21988018D01*
X27579405Y-21988018D02*
X27674643Y-21940399D01*
X27674643Y-21940399D02*
X27912738Y-21940399D01*
X27912738Y-21940399D02*
X28007976Y-21988018D01*
X28007976Y-21988018D02*
X28055595Y-22035637D01*
X28055595Y-22035637D02*
X28103214Y-22130875D01*
X28103214Y-22130875D02*
X28103214Y-22226113D01*
X28103214Y-22226113D02*
X28055595Y-22368970D01*
X28055595Y-22368970D02*
X27484167Y-22940399D01*
X27484167Y-22940399D02*
X28103214Y-22940399D01*
%TO.C,J6*%
X101666666Y-49562619D02*
X101666666Y-50276904D01*
X101666666Y-50276904D02*
X101619047Y-50419761D01*
X101619047Y-50419761D02*
X101523809Y-50515000D01*
X101523809Y-50515000D02*
X101380952Y-50562619D01*
X101380952Y-50562619D02*
X101285714Y-50562619D01*
X102571428Y-49562619D02*
X102380952Y-49562619D01*
X102380952Y-49562619D02*
X102285714Y-49610238D01*
X102285714Y-49610238D02*
X102238095Y-49657857D01*
X102238095Y-49657857D02*
X102142857Y-49800714D01*
X102142857Y-49800714D02*
X102095238Y-49991190D01*
X102095238Y-49991190D02*
X102095238Y-50372142D01*
X102095238Y-50372142D02*
X102142857Y-50467380D01*
X102142857Y-50467380D02*
X102190476Y-50515000D01*
X102190476Y-50515000D02*
X102285714Y-50562619D01*
X102285714Y-50562619D02*
X102476190Y-50562619D01*
X102476190Y-50562619D02*
X102571428Y-50515000D01*
X102571428Y-50515000D02*
X102619047Y-50467380D01*
X102619047Y-50467380D02*
X102666666Y-50372142D01*
X102666666Y-50372142D02*
X102666666Y-50134047D01*
X102666666Y-50134047D02*
X102619047Y-50038809D01*
X102619047Y-50038809D02*
X102571428Y-49991190D01*
X102571428Y-49991190D02*
X102476190Y-49943571D01*
X102476190Y-49943571D02*
X102285714Y-49943571D01*
X102285714Y-49943571D02*
X102190476Y-49991190D01*
X102190476Y-49991190D02*
X102142857Y-50038809D01*
X102142857Y-50038809D02*
X102095238Y-50134047D01*
%TO.C,H2*%
X100238095Y-9462619D02*
X100238095Y-8462619D01*
X100238095Y-8938809D02*
X100809523Y-8938809D01*
X100809523Y-9462619D02*
X100809523Y-8462619D01*
X101238095Y-8557857D02*
X101285714Y-8510238D01*
X101285714Y-8510238D02*
X101380952Y-8462619D01*
X101380952Y-8462619D02*
X101619047Y-8462619D01*
X101619047Y-8462619D02*
X101714285Y-8510238D01*
X101714285Y-8510238D02*
X101761904Y-8557857D01*
X101761904Y-8557857D02*
X101809523Y-8653095D01*
X101809523Y-8653095D02*
X101809523Y-8748333D01*
X101809523Y-8748333D02*
X101761904Y-8891190D01*
X101761904Y-8891190D02*
X101190476Y-9462619D01*
X101190476Y-9462619D02*
X101809523Y-9462619D01*
%TO.C,C8*%
X46867380Y-70666666D02*
X46915000Y-70714285D01*
X46915000Y-70714285D02*
X46962619Y-70857142D01*
X46962619Y-70857142D02*
X46962619Y-70952380D01*
X46962619Y-70952380D02*
X46915000Y-71095237D01*
X46915000Y-71095237D02*
X46819761Y-71190475D01*
X46819761Y-71190475D02*
X46724523Y-71238094D01*
X46724523Y-71238094D02*
X46534047Y-71285713D01*
X46534047Y-71285713D02*
X46391190Y-71285713D01*
X46391190Y-71285713D02*
X46200714Y-71238094D01*
X46200714Y-71238094D02*
X46105476Y-71190475D01*
X46105476Y-71190475D02*
X46010238Y-71095237D01*
X46010238Y-71095237D02*
X45962619Y-70952380D01*
X45962619Y-70952380D02*
X45962619Y-70857142D01*
X45962619Y-70857142D02*
X46010238Y-70714285D01*
X46010238Y-70714285D02*
X46057857Y-70666666D01*
X46391190Y-70095237D02*
X46343571Y-70190475D01*
X46343571Y-70190475D02*
X46295952Y-70238094D01*
X46295952Y-70238094D02*
X46200714Y-70285713D01*
X46200714Y-70285713D02*
X46153095Y-70285713D01*
X46153095Y-70285713D02*
X46057857Y-70238094D01*
X46057857Y-70238094D02*
X46010238Y-70190475D01*
X46010238Y-70190475D02*
X45962619Y-70095237D01*
X45962619Y-70095237D02*
X45962619Y-69904761D01*
X45962619Y-69904761D02*
X46010238Y-69809523D01*
X46010238Y-69809523D02*
X46057857Y-69761904D01*
X46057857Y-69761904D02*
X46153095Y-69714285D01*
X46153095Y-69714285D02*
X46200714Y-69714285D01*
X46200714Y-69714285D02*
X46295952Y-69761904D01*
X46295952Y-69761904D02*
X46343571Y-69809523D01*
X46343571Y-69809523D02*
X46391190Y-69904761D01*
X46391190Y-69904761D02*
X46391190Y-70095237D01*
X46391190Y-70095237D02*
X46438809Y-70190475D01*
X46438809Y-70190475D02*
X46486428Y-70238094D01*
X46486428Y-70238094D02*
X46581666Y-70285713D01*
X46581666Y-70285713D02*
X46772142Y-70285713D01*
X46772142Y-70285713D02*
X46867380Y-70238094D01*
X46867380Y-70238094D02*
X46915000Y-70190475D01*
X46915000Y-70190475D02*
X46962619Y-70095237D01*
X46962619Y-70095237D02*
X46962619Y-69904761D01*
X46962619Y-69904761D02*
X46915000Y-69809523D01*
X46915000Y-69809523D02*
X46867380Y-69761904D01*
X46867380Y-69761904D02*
X46772142Y-69714285D01*
X46772142Y-69714285D02*
X46581666Y-69714285D01*
X46581666Y-69714285D02*
X46486428Y-69761904D01*
X46486428Y-69761904D02*
X46438809Y-69809523D01*
X46438809Y-69809523D02*
X46391190Y-69904761D01*
%TO.C,J9*%
X92462619Y-64928333D02*
X93176904Y-64928333D01*
X93176904Y-64928333D02*
X93319761Y-64975952D01*
X93319761Y-64975952D02*
X93415000Y-65071190D01*
X93415000Y-65071190D02*
X93462619Y-65214047D01*
X93462619Y-65214047D02*
X93462619Y-65309285D01*
X93462619Y-64404523D02*
X93462619Y-64214047D01*
X93462619Y-64214047D02*
X93415000Y-64118809D01*
X93415000Y-64118809D02*
X93367380Y-64071190D01*
X93367380Y-64071190D02*
X93224523Y-63975952D01*
X93224523Y-63975952D02*
X93034047Y-63928333D01*
X93034047Y-63928333D02*
X92653095Y-63928333D01*
X92653095Y-63928333D02*
X92557857Y-63975952D01*
X92557857Y-63975952D02*
X92510238Y-64023571D01*
X92510238Y-64023571D02*
X92462619Y-64118809D01*
X92462619Y-64118809D02*
X92462619Y-64309285D01*
X92462619Y-64309285D02*
X92510238Y-64404523D01*
X92510238Y-64404523D02*
X92557857Y-64452142D01*
X92557857Y-64452142D02*
X92653095Y-64499761D01*
X92653095Y-64499761D02*
X92891190Y-64499761D01*
X92891190Y-64499761D02*
X92986428Y-64452142D01*
X92986428Y-64452142D02*
X93034047Y-64404523D01*
X93034047Y-64404523D02*
X93081666Y-64309285D01*
X93081666Y-64309285D02*
X93081666Y-64118809D01*
X93081666Y-64118809D02*
X93034047Y-64023571D01*
X93034047Y-64023571D02*
X92986428Y-63975952D01*
X92986428Y-63975952D02*
X92891190Y-63928333D01*
%TO.C,C10*%
X61367380Y-71142857D02*
X61415000Y-71190476D01*
X61415000Y-71190476D02*
X61462619Y-71333333D01*
X61462619Y-71333333D02*
X61462619Y-71428571D01*
X61462619Y-71428571D02*
X61415000Y-71571428D01*
X61415000Y-71571428D02*
X61319761Y-71666666D01*
X61319761Y-71666666D02*
X61224523Y-71714285D01*
X61224523Y-71714285D02*
X61034047Y-71761904D01*
X61034047Y-71761904D02*
X60891190Y-71761904D01*
X60891190Y-71761904D02*
X60700714Y-71714285D01*
X60700714Y-71714285D02*
X60605476Y-71666666D01*
X60605476Y-71666666D02*
X60510238Y-71571428D01*
X60510238Y-71571428D02*
X60462619Y-71428571D01*
X60462619Y-71428571D02*
X60462619Y-71333333D01*
X60462619Y-71333333D02*
X60510238Y-71190476D01*
X60510238Y-71190476D02*
X60557857Y-71142857D01*
X61462619Y-70190476D02*
X61462619Y-70761904D01*
X61462619Y-70476190D02*
X60462619Y-70476190D01*
X60462619Y-70476190D02*
X60605476Y-70571428D01*
X60605476Y-70571428D02*
X60700714Y-70666666D01*
X60700714Y-70666666D02*
X60748333Y-70761904D01*
X60462619Y-69571428D02*
X60462619Y-69476190D01*
X60462619Y-69476190D02*
X60510238Y-69380952D01*
X60510238Y-69380952D02*
X60557857Y-69333333D01*
X60557857Y-69333333D02*
X60653095Y-69285714D01*
X60653095Y-69285714D02*
X60843571Y-69238095D01*
X60843571Y-69238095D02*
X61081666Y-69238095D01*
X61081666Y-69238095D02*
X61272142Y-69285714D01*
X61272142Y-69285714D02*
X61367380Y-69333333D01*
X61367380Y-69333333D02*
X61415000Y-69380952D01*
X61415000Y-69380952D02*
X61462619Y-69476190D01*
X61462619Y-69476190D02*
X61462619Y-69571428D01*
X61462619Y-69571428D02*
X61415000Y-69666666D01*
X61415000Y-69666666D02*
X61367380Y-69714285D01*
X61367380Y-69714285D02*
X61272142Y-69761904D01*
X61272142Y-69761904D02*
X61081666Y-69809523D01*
X61081666Y-69809523D02*
X60843571Y-69809523D01*
X60843571Y-69809523D02*
X60653095Y-69761904D01*
X60653095Y-69761904D02*
X60557857Y-69714285D01*
X60557857Y-69714285D02*
X60510238Y-69666666D01*
X60510238Y-69666666D02*
X60462619Y-69571428D01*
%TO.C,D6*%
X28975905Y-67116440D02*
X28975905Y-66116440D01*
X28975905Y-66116440D02*
X29214000Y-66116440D01*
X29214000Y-66116440D02*
X29356857Y-66164059D01*
X29356857Y-66164059D02*
X29452095Y-66259297D01*
X29452095Y-66259297D02*
X29499714Y-66354535D01*
X29499714Y-66354535D02*
X29547333Y-66545011D01*
X29547333Y-66545011D02*
X29547333Y-66687868D01*
X29547333Y-66687868D02*
X29499714Y-66878344D01*
X29499714Y-66878344D02*
X29452095Y-66973582D01*
X29452095Y-66973582D02*
X29356857Y-67068821D01*
X29356857Y-67068821D02*
X29214000Y-67116440D01*
X29214000Y-67116440D02*
X28975905Y-67116440D01*
X30404476Y-66116440D02*
X30214000Y-66116440D01*
X30214000Y-66116440D02*
X30118762Y-66164059D01*
X30118762Y-66164059D02*
X30071143Y-66211678D01*
X30071143Y-66211678D02*
X29975905Y-66354535D01*
X29975905Y-66354535D02*
X29928286Y-66545011D01*
X29928286Y-66545011D02*
X29928286Y-66925963D01*
X29928286Y-66925963D02*
X29975905Y-67021201D01*
X29975905Y-67021201D02*
X30023524Y-67068821D01*
X30023524Y-67068821D02*
X30118762Y-67116440D01*
X30118762Y-67116440D02*
X30309238Y-67116440D01*
X30309238Y-67116440D02*
X30404476Y-67068821D01*
X30404476Y-67068821D02*
X30452095Y-67021201D01*
X30452095Y-67021201D02*
X30499714Y-66925963D01*
X30499714Y-66925963D02*
X30499714Y-66687868D01*
X30499714Y-66687868D02*
X30452095Y-66592630D01*
X30452095Y-66592630D02*
X30404476Y-66545011D01*
X30404476Y-66545011D02*
X30309238Y-66497392D01*
X30309238Y-66497392D02*
X30118762Y-66497392D01*
X30118762Y-66497392D02*
X30023524Y-66545011D01*
X30023524Y-66545011D02*
X29975905Y-66592630D01*
X29975905Y-66592630D02*
X29928286Y-66687868D01*
X21118095Y-64916440D02*
X21118095Y-63916440D01*
X21689523Y-64916440D02*
X21260952Y-64345011D01*
X21689523Y-63916440D02*
X21118095Y-64487868D01*
%TO.C,C6*%
X89867380Y-36416666D02*
X89915000Y-36464285D01*
X89915000Y-36464285D02*
X89962619Y-36607142D01*
X89962619Y-36607142D02*
X89962619Y-36702380D01*
X89962619Y-36702380D02*
X89915000Y-36845237D01*
X89915000Y-36845237D02*
X89819761Y-36940475D01*
X89819761Y-36940475D02*
X89724523Y-36988094D01*
X89724523Y-36988094D02*
X89534047Y-37035713D01*
X89534047Y-37035713D02*
X89391190Y-37035713D01*
X89391190Y-37035713D02*
X89200714Y-36988094D01*
X89200714Y-36988094D02*
X89105476Y-36940475D01*
X89105476Y-36940475D02*
X89010238Y-36845237D01*
X89010238Y-36845237D02*
X88962619Y-36702380D01*
X88962619Y-36702380D02*
X88962619Y-36607142D01*
X88962619Y-36607142D02*
X89010238Y-36464285D01*
X89010238Y-36464285D02*
X89057857Y-36416666D01*
X88962619Y-35559523D02*
X88962619Y-35749999D01*
X88962619Y-35749999D02*
X89010238Y-35845237D01*
X89010238Y-35845237D02*
X89057857Y-35892856D01*
X89057857Y-35892856D02*
X89200714Y-35988094D01*
X89200714Y-35988094D02*
X89391190Y-36035713D01*
X89391190Y-36035713D02*
X89772142Y-36035713D01*
X89772142Y-36035713D02*
X89867380Y-35988094D01*
X89867380Y-35988094D02*
X89915000Y-35940475D01*
X89915000Y-35940475D02*
X89962619Y-35845237D01*
X89962619Y-35845237D02*
X89962619Y-35654761D01*
X89962619Y-35654761D02*
X89915000Y-35559523D01*
X89915000Y-35559523D02*
X89867380Y-35511904D01*
X89867380Y-35511904D02*
X89772142Y-35464285D01*
X89772142Y-35464285D02*
X89534047Y-35464285D01*
X89534047Y-35464285D02*
X89438809Y-35511904D01*
X89438809Y-35511904D02*
X89391190Y-35559523D01*
X89391190Y-35559523D02*
X89343571Y-35654761D01*
X89343571Y-35654761D02*
X89343571Y-35845237D01*
X89343571Y-35845237D02*
X89391190Y-35940475D01*
X89391190Y-35940475D02*
X89438809Y-35988094D01*
X89438809Y-35988094D02*
X89534047Y-36035713D01*
%TO.C,D8*%
X28975905Y-73116440D02*
X28975905Y-72116440D01*
X28975905Y-72116440D02*
X29214000Y-72116440D01*
X29214000Y-72116440D02*
X29356857Y-72164059D01*
X29356857Y-72164059D02*
X29452095Y-72259297D01*
X29452095Y-72259297D02*
X29499714Y-72354535D01*
X29499714Y-72354535D02*
X29547333Y-72545011D01*
X29547333Y-72545011D02*
X29547333Y-72687868D01*
X29547333Y-72687868D02*
X29499714Y-72878344D01*
X29499714Y-72878344D02*
X29452095Y-72973582D01*
X29452095Y-72973582D02*
X29356857Y-73068821D01*
X29356857Y-73068821D02*
X29214000Y-73116440D01*
X29214000Y-73116440D02*
X28975905Y-73116440D01*
X30118762Y-72545011D02*
X30023524Y-72497392D01*
X30023524Y-72497392D02*
X29975905Y-72449773D01*
X29975905Y-72449773D02*
X29928286Y-72354535D01*
X29928286Y-72354535D02*
X29928286Y-72306916D01*
X29928286Y-72306916D02*
X29975905Y-72211678D01*
X29975905Y-72211678D02*
X30023524Y-72164059D01*
X30023524Y-72164059D02*
X30118762Y-72116440D01*
X30118762Y-72116440D02*
X30309238Y-72116440D01*
X30309238Y-72116440D02*
X30404476Y-72164059D01*
X30404476Y-72164059D02*
X30452095Y-72211678D01*
X30452095Y-72211678D02*
X30499714Y-72306916D01*
X30499714Y-72306916D02*
X30499714Y-72354535D01*
X30499714Y-72354535D02*
X30452095Y-72449773D01*
X30452095Y-72449773D02*
X30404476Y-72497392D01*
X30404476Y-72497392D02*
X30309238Y-72545011D01*
X30309238Y-72545011D02*
X30118762Y-72545011D01*
X30118762Y-72545011D02*
X30023524Y-72592630D01*
X30023524Y-72592630D02*
X29975905Y-72640249D01*
X29975905Y-72640249D02*
X29928286Y-72735487D01*
X29928286Y-72735487D02*
X29928286Y-72925963D01*
X29928286Y-72925963D02*
X29975905Y-73021201D01*
X29975905Y-73021201D02*
X30023524Y-73068821D01*
X30023524Y-73068821D02*
X30118762Y-73116440D01*
X30118762Y-73116440D02*
X30309238Y-73116440D01*
X30309238Y-73116440D02*
X30404476Y-73068821D01*
X30404476Y-73068821D02*
X30452095Y-73021201D01*
X30452095Y-73021201D02*
X30499714Y-72925963D01*
X30499714Y-72925963D02*
X30499714Y-72735487D01*
X30499714Y-72735487D02*
X30452095Y-72640249D01*
X30452095Y-72640249D02*
X30404476Y-72592630D01*
X30404476Y-72592630D02*
X30309238Y-72545011D01*
X21118095Y-70916440D02*
X21118095Y-69916440D01*
X21689523Y-70916440D02*
X21260952Y-70345011D01*
X21689523Y-69916440D02*
X21118095Y-70487868D01*
%TO.C,C2*%
X51867380Y-37416666D02*
X51915000Y-37464285D01*
X51915000Y-37464285D02*
X51962619Y-37607142D01*
X51962619Y-37607142D02*
X51962619Y-37702380D01*
X51962619Y-37702380D02*
X51915000Y-37845237D01*
X51915000Y-37845237D02*
X51819761Y-37940475D01*
X51819761Y-37940475D02*
X51724523Y-37988094D01*
X51724523Y-37988094D02*
X51534047Y-38035713D01*
X51534047Y-38035713D02*
X51391190Y-38035713D01*
X51391190Y-38035713D02*
X51200714Y-37988094D01*
X51200714Y-37988094D02*
X51105476Y-37940475D01*
X51105476Y-37940475D02*
X51010238Y-37845237D01*
X51010238Y-37845237D02*
X50962619Y-37702380D01*
X50962619Y-37702380D02*
X50962619Y-37607142D01*
X50962619Y-37607142D02*
X51010238Y-37464285D01*
X51010238Y-37464285D02*
X51057857Y-37416666D01*
X51057857Y-37035713D02*
X51010238Y-36988094D01*
X51010238Y-36988094D02*
X50962619Y-36892856D01*
X50962619Y-36892856D02*
X50962619Y-36654761D01*
X50962619Y-36654761D02*
X51010238Y-36559523D01*
X51010238Y-36559523D02*
X51057857Y-36511904D01*
X51057857Y-36511904D02*
X51153095Y-36464285D01*
X51153095Y-36464285D02*
X51248333Y-36464285D01*
X51248333Y-36464285D02*
X51391190Y-36511904D01*
X51391190Y-36511904D02*
X51962619Y-37083332D01*
X51962619Y-37083332D02*
X51962619Y-36464285D01*
%TO.C,J8*%
X101666666Y-65762619D02*
X101666666Y-66476904D01*
X101666666Y-66476904D02*
X101619047Y-66619761D01*
X101619047Y-66619761D02*
X101523809Y-66715000D01*
X101523809Y-66715000D02*
X101380952Y-66762619D01*
X101380952Y-66762619D02*
X101285714Y-66762619D01*
X102285714Y-66191190D02*
X102190476Y-66143571D01*
X102190476Y-66143571D02*
X102142857Y-66095952D01*
X102142857Y-66095952D02*
X102095238Y-66000714D01*
X102095238Y-66000714D02*
X102095238Y-65953095D01*
X102095238Y-65953095D02*
X102142857Y-65857857D01*
X102142857Y-65857857D02*
X102190476Y-65810238D01*
X102190476Y-65810238D02*
X102285714Y-65762619D01*
X102285714Y-65762619D02*
X102476190Y-65762619D01*
X102476190Y-65762619D02*
X102571428Y-65810238D01*
X102571428Y-65810238D02*
X102619047Y-65857857D01*
X102619047Y-65857857D02*
X102666666Y-65953095D01*
X102666666Y-65953095D02*
X102666666Y-66000714D01*
X102666666Y-66000714D02*
X102619047Y-66095952D01*
X102619047Y-66095952D02*
X102571428Y-66143571D01*
X102571428Y-66143571D02*
X102476190Y-66191190D01*
X102476190Y-66191190D02*
X102285714Y-66191190D01*
X102285714Y-66191190D02*
X102190476Y-66238809D01*
X102190476Y-66238809D02*
X102142857Y-66286428D01*
X102142857Y-66286428D02*
X102095238Y-66381666D01*
X102095238Y-66381666D02*
X102095238Y-66572142D01*
X102095238Y-66572142D02*
X102142857Y-66667380D01*
X102142857Y-66667380D02*
X102190476Y-66715000D01*
X102190476Y-66715000D02*
X102285714Y-66762619D01*
X102285714Y-66762619D02*
X102476190Y-66762619D01*
X102476190Y-66762619D02*
X102571428Y-66715000D01*
X102571428Y-66715000D02*
X102619047Y-66667380D01*
X102619047Y-66667380D02*
X102666666Y-66572142D01*
X102666666Y-66572142D02*
X102666666Y-66381666D01*
X102666666Y-66381666D02*
X102619047Y-66286428D01*
X102619047Y-66286428D02*
X102571428Y-66238809D01*
X102571428Y-66238809D02*
X102476190Y-66191190D01*
%TO.C,C4*%
X70867380Y-37416666D02*
X70915000Y-37464285D01*
X70915000Y-37464285D02*
X70962619Y-37607142D01*
X70962619Y-37607142D02*
X70962619Y-37702380D01*
X70962619Y-37702380D02*
X70915000Y-37845237D01*
X70915000Y-37845237D02*
X70819761Y-37940475D01*
X70819761Y-37940475D02*
X70724523Y-37988094D01*
X70724523Y-37988094D02*
X70534047Y-38035713D01*
X70534047Y-38035713D02*
X70391190Y-38035713D01*
X70391190Y-38035713D02*
X70200714Y-37988094D01*
X70200714Y-37988094D02*
X70105476Y-37940475D01*
X70105476Y-37940475D02*
X70010238Y-37845237D01*
X70010238Y-37845237D02*
X69962619Y-37702380D01*
X69962619Y-37702380D02*
X69962619Y-37607142D01*
X69962619Y-37607142D02*
X70010238Y-37464285D01*
X70010238Y-37464285D02*
X70057857Y-37416666D01*
X70295952Y-36559523D02*
X70962619Y-36559523D01*
X69915000Y-36797618D02*
X70629285Y-37035713D01*
X70629285Y-37035713D02*
X70629285Y-36416666D01*
%TO.C,D1*%
X27944405Y-42940399D02*
X27944405Y-41940399D01*
X27944405Y-41940399D02*
X28182500Y-41940399D01*
X28182500Y-41940399D02*
X28325357Y-41988018D01*
X28325357Y-41988018D02*
X28420595Y-42083256D01*
X28420595Y-42083256D02*
X28468214Y-42178494D01*
X28468214Y-42178494D02*
X28515833Y-42368970D01*
X28515833Y-42368970D02*
X28515833Y-42511827D01*
X28515833Y-42511827D02*
X28468214Y-42702303D01*
X28468214Y-42702303D02*
X28420595Y-42797541D01*
X28420595Y-42797541D02*
X28325357Y-42892780D01*
X28325357Y-42892780D02*
X28182500Y-42940399D01*
X28182500Y-42940399D02*
X27944405Y-42940399D01*
X29468214Y-42940399D02*
X28896786Y-42940399D01*
X29182500Y-42940399D02*
X29182500Y-41940399D01*
X29182500Y-41940399D02*
X29087262Y-42083256D01*
X29087262Y-42083256D02*
X28992024Y-42178494D01*
X28992024Y-42178494D02*
X28896786Y-42226113D01*
X17738095Y-40340399D02*
X17738095Y-39340399D01*
X18309523Y-40340399D02*
X17880952Y-39768970D01*
X18309523Y-39340399D02*
X17738095Y-39911827D01*
%TO.C,D4*%
X26579405Y-12940399D02*
X26579405Y-11940399D01*
X26579405Y-11940399D02*
X26817500Y-11940399D01*
X26817500Y-11940399D02*
X26960357Y-11988018D01*
X26960357Y-11988018D02*
X27055595Y-12083256D01*
X27055595Y-12083256D02*
X27103214Y-12178494D01*
X27103214Y-12178494D02*
X27150833Y-12368970D01*
X27150833Y-12368970D02*
X27150833Y-12511827D01*
X27150833Y-12511827D02*
X27103214Y-12702303D01*
X27103214Y-12702303D02*
X27055595Y-12797541D01*
X27055595Y-12797541D02*
X26960357Y-12892780D01*
X26960357Y-12892780D02*
X26817500Y-12940399D01*
X26817500Y-12940399D02*
X26579405Y-12940399D01*
X28007976Y-12273732D02*
X28007976Y-12940399D01*
X27769881Y-11892780D02*
X27531786Y-12607065D01*
X27531786Y-12607065D02*
X28150833Y-12607065D01*
X37738095Y-15540399D02*
X37738095Y-14540399D01*
X38309523Y-15540399D02*
X37880952Y-14968970D01*
X38309523Y-14540399D02*
X37738095Y-15111827D01*
%TO.C,C1*%
X51867380Y-17394446D02*
X51915000Y-17442065D01*
X51915000Y-17442065D02*
X51962619Y-17584922D01*
X51962619Y-17584922D02*
X51962619Y-17680160D01*
X51962619Y-17680160D02*
X51915000Y-17823017D01*
X51915000Y-17823017D02*
X51819761Y-17918255D01*
X51819761Y-17918255D02*
X51724523Y-17965874D01*
X51724523Y-17965874D02*
X51534047Y-18013493D01*
X51534047Y-18013493D02*
X51391190Y-18013493D01*
X51391190Y-18013493D02*
X51200714Y-17965874D01*
X51200714Y-17965874D02*
X51105476Y-17918255D01*
X51105476Y-17918255D02*
X51010238Y-17823017D01*
X51010238Y-17823017D02*
X50962619Y-17680160D01*
X50962619Y-17680160D02*
X50962619Y-17584922D01*
X50962619Y-17584922D02*
X51010238Y-17442065D01*
X51010238Y-17442065D02*
X51057857Y-17394446D01*
X51962619Y-16442065D02*
X51962619Y-17013493D01*
X51962619Y-16727779D02*
X50962619Y-16727779D01*
X50962619Y-16727779D02*
X51105476Y-16823017D01*
X51105476Y-16823017D02*
X51200714Y-16918255D01*
X51200714Y-16918255D02*
X51248333Y-17013493D01*
%TO.C,C5*%
X89867380Y-17416666D02*
X89915000Y-17464285D01*
X89915000Y-17464285D02*
X89962619Y-17607142D01*
X89962619Y-17607142D02*
X89962619Y-17702380D01*
X89962619Y-17702380D02*
X89915000Y-17845237D01*
X89915000Y-17845237D02*
X89819761Y-17940475D01*
X89819761Y-17940475D02*
X89724523Y-17988094D01*
X89724523Y-17988094D02*
X89534047Y-18035713D01*
X89534047Y-18035713D02*
X89391190Y-18035713D01*
X89391190Y-18035713D02*
X89200714Y-17988094D01*
X89200714Y-17988094D02*
X89105476Y-17940475D01*
X89105476Y-17940475D02*
X89010238Y-17845237D01*
X89010238Y-17845237D02*
X88962619Y-17702380D01*
X88962619Y-17702380D02*
X88962619Y-17607142D01*
X88962619Y-17607142D02*
X89010238Y-17464285D01*
X89010238Y-17464285D02*
X89057857Y-17416666D01*
X88962619Y-16511904D02*
X88962619Y-16988094D01*
X88962619Y-16988094D02*
X89438809Y-17035713D01*
X89438809Y-17035713D02*
X89391190Y-16988094D01*
X89391190Y-16988094D02*
X89343571Y-16892856D01*
X89343571Y-16892856D02*
X89343571Y-16654761D01*
X89343571Y-16654761D02*
X89391190Y-16559523D01*
X89391190Y-16559523D02*
X89438809Y-16511904D01*
X89438809Y-16511904D02*
X89534047Y-16464285D01*
X89534047Y-16464285D02*
X89772142Y-16464285D01*
X89772142Y-16464285D02*
X89867380Y-16511904D01*
X89867380Y-16511904D02*
X89915000Y-16559523D01*
X89915000Y-16559523D02*
X89962619Y-16654761D01*
X89962619Y-16654761D02*
X89962619Y-16892856D01*
X89962619Y-16892856D02*
X89915000Y-16988094D01*
X89915000Y-16988094D02*
X89867380Y-17035713D01*
%TO.C,J1*%
X12662619Y-23333333D02*
X13376904Y-23333333D01*
X13376904Y-23333333D02*
X13519761Y-23380952D01*
X13519761Y-23380952D02*
X13615000Y-23476190D01*
X13615000Y-23476190D02*
X13662619Y-23619047D01*
X13662619Y-23619047D02*
X13662619Y-23714285D01*
X13662619Y-22333333D02*
X13662619Y-22904761D01*
X13662619Y-22619047D02*
X12662619Y-22619047D01*
X12662619Y-22619047D02*
X12805476Y-22714285D01*
X12805476Y-22714285D02*
X12900714Y-22809523D01*
X12900714Y-22809523D02*
X12948333Y-22904761D01*
%TO.C,D7*%
X36358095Y-63316440D02*
X36358095Y-62316440D01*
X36929523Y-63316440D02*
X36500952Y-62745011D01*
X36929523Y-62316440D02*
X36358095Y-62887868D01*
X27547905Y-61116440D02*
X27547905Y-60116440D01*
X27547905Y-60116440D02*
X27786000Y-60116440D01*
X27786000Y-60116440D02*
X27928857Y-60164059D01*
X27928857Y-60164059D02*
X28024095Y-60259297D01*
X28024095Y-60259297D02*
X28071714Y-60354535D01*
X28071714Y-60354535D02*
X28119333Y-60545011D01*
X28119333Y-60545011D02*
X28119333Y-60687868D01*
X28119333Y-60687868D02*
X28071714Y-60878344D01*
X28071714Y-60878344D02*
X28024095Y-60973582D01*
X28024095Y-60973582D02*
X27928857Y-61068821D01*
X27928857Y-61068821D02*
X27786000Y-61116440D01*
X27786000Y-61116440D02*
X27547905Y-61116440D01*
X28452667Y-60116440D02*
X29119333Y-60116440D01*
X29119333Y-60116440D02*
X28690762Y-61116440D01*
%TO.C,U1*%
X81608095Y-71752619D02*
X81608095Y-72562142D01*
X81608095Y-72562142D02*
X81655714Y-72657380D01*
X81655714Y-72657380D02*
X81703333Y-72705000D01*
X81703333Y-72705000D02*
X81798571Y-72752619D01*
X81798571Y-72752619D02*
X81989047Y-72752619D01*
X81989047Y-72752619D02*
X82084285Y-72705000D01*
X82084285Y-72705000D02*
X82131904Y-72657380D01*
X82131904Y-72657380D02*
X82179523Y-72562142D01*
X82179523Y-72562142D02*
X82179523Y-71752619D01*
X83179523Y-72752619D02*
X82608095Y-72752619D01*
X82893809Y-72752619D02*
X82893809Y-71752619D01*
X82893809Y-71752619D02*
X82798571Y-71895476D01*
X82798571Y-71895476D02*
X82703333Y-71990714D01*
X82703333Y-71990714D02*
X82608095Y-72038333D01*
%TO.C,D3*%
X17738095Y-30340399D02*
X17738095Y-29340399D01*
X18309523Y-30340399D02*
X17880952Y-29768970D01*
X18309523Y-29340399D02*
X17738095Y-29911827D01*
X27944405Y-32940399D02*
X27944405Y-31940399D01*
X27944405Y-31940399D02*
X28182500Y-31940399D01*
X28182500Y-31940399D02*
X28325357Y-31988018D01*
X28325357Y-31988018D02*
X28420595Y-32083256D01*
X28420595Y-32083256D02*
X28468214Y-32178494D01*
X28468214Y-32178494D02*
X28515833Y-32368970D01*
X28515833Y-32368970D02*
X28515833Y-32511827D01*
X28515833Y-32511827D02*
X28468214Y-32702303D01*
X28468214Y-32702303D02*
X28420595Y-32797541D01*
X28420595Y-32797541D02*
X28325357Y-32892780D01*
X28325357Y-32892780D02*
X28182500Y-32940399D01*
X28182500Y-32940399D02*
X27944405Y-32940399D01*
X28849167Y-31940399D02*
X29468214Y-31940399D01*
X29468214Y-31940399D02*
X29134881Y-32321351D01*
X29134881Y-32321351D02*
X29277738Y-32321351D01*
X29277738Y-32321351D02*
X29372976Y-32368970D01*
X29372976Y-32368970D02*
X29420595Y-32416589D01*
X29420595Y-32416589D02*
X29468214Y-32511827D01*
X29468214Y-32511827D02*
X29468214Y-32749922D01*
X29468214Y-32749922D02*
X29420595Y-32845160D01*
X29420595Y-32845160D02*
X29372976Y-32892780D01*
X29372976Y-32892780D02*
X29277738Y-32940399D01*
X29277738Y-32940399D02*
X28992024Y-32940399D01*
X28992024Y-32940399D02*
X28896786Y-32892780D01*
X28896786Y-32892780D02*
X28849167Y-32845160D01*
%TO.C,J5*%
X102166666Y-37562619D02*
X102166666Y-38276904D01*
X102166666Y-38276904D02*
X102119047Y-38419761D01*
X102119047Y-38419761D02*
X102023809Y-38515000D01*
X102023809Y-38515000D02*
X101880952Y-38562619D01*
X101880952Y-38562619D02*
X101785714Y-38562619D01*
X103119047Y-37562619D02*
X102642857Y-37562619D01*
X102642857Y-37562619D02*
X102595238Y-38038809D01*
X102595238Y-38038809D02*
X102642857Y-37991190D01*
X102642857Y-37991190D02*
X102738095Y-37943571D01*
X102738095Y-37943571D02*
X102976190Y-37943571D01*
X102976190Y-37943571D02*
X103071428Y-37991190D01*
X103071428Y-37991190D02*
X103119047Y-38038809D01*
X103119047Y-38038809D02*
X103166666Y-38134047D01*
X103166666Y-38134047D02*
X103166666Y-38372142D01*
X103166666Y-38372142D02*
X103119047Y-38467380D01*
X103119047Y-38467380D02*
X103071428Y-38515000D01*
X103071428Y-38515000D02*
X102976190Y-38562619D01*
X102976190Y-38562619D02*
X102738095Y-38562619D01*
X102738095Y-38562619D02*
X102642857Y-38515000D01*
X102642857Y-38515000D02*
X102595238Y-38467380D01*
%TO.C,C7*%
X46867380Y-56320487D02*
X46915000Y-56368106D01*
X46915000Y-56368106D02*
X46962619Y-56510963D01*
X46962619Y-56510963D02*
X46962619Y-56606201D01*
X46962619Y-56606201D02*
X46915000Y-56749058D01*
X46915000Y-56749058D02*
X46819761Y-56844296D01*
X46819761Y-56844296D02*
X46724523Y-56891915D01*
X46724523Y-56891915D02*
X46534047Y-56939534D01*
X46534047Y-56939534D02*
X46391190Y-56939534D01*
X46391190Y-56939534D02*
X46200714Y-56891915D01*
X46200714Y-56891915D02*
X46105476Y-56844296D01*
X46105476Y-56844296D02*
X46010238Y-56749058D01*
X46010238Y-56749058D02*
X45962619Y-56606201D01*
X45962619Y-56606201D02*
X45962619Y-56510963D01*
X45962619Y-56510963D02*
X46010238Y-56368106D01*
X46010238Y-56368106D02*
X46057857Y-56320487D01*
X45962619Y-55987153D02*
X45962619Y-55320487D01*
X45962619Y-55320487D02*
X46962619Y-55749058D01*
%TO.C,J3*%
X102166666Y-19562619D02*
X102166666Y-20276904D01*
X102166666Y-20276904D02*
X102119047Y-20419761D01*
X102119047Y-20419761D02*
X102023809Y-20515000D01*
X102023809Y-20515000D02*
X101880952Y-20562619D01*
X101880952Y-20562619D02*
X101785714Y-20562619D01*
X102547619Y-19562619D02*
X103166666Y-19562619D01*
X103166666Y-19562619D02*
X102833333Y-19943571D01*
X102833333Y-19943571D02*
X102976190Y-19943571D01*
X102976190Y-19943571D02*
X103071428Y-19991190D01*
X103071428Y-19991190D02*
X103119047Y-20038809D01*
X103119047Y-20038809D02*
X103166666Y-20134047D01*
X103166666Y-20134047D02*
X103166666Y-20372142D01*
X103166666Y-20372142D02*
X103119047Y-20467380D01*
X103119047Y-20467380D02*
X103071428Y-20515000D01*
X103071428Y-20515000D02*
X102976190Y-20562619D01*
X102976190Y-20562619D02*
X102690476Y-20562619D01*
X102690476Y-20562619D02*
X102595238Y-20515000D01*
X102595238Y-20515000D02*
X102547619Y-20467380D01*
%TO.C,J7*%
X101666666Y-57562619D02*
X101666666Y-58276904D01*
X101666666Y-58276904D02*
X101619047Y-58419761D01*
X101619047Y-58419761D02*
X101523809Y-58515000D01*
X101523809Y-58515000D02*
X101380952Y-58562619D01*
X101380952Y-58562619D02*
X101285714Y-58562619D01*
X102047619Y-57562619D02*
X102714285Y-57562619D01*
X102714285Y-57562619D02*
X102285714Y-58562619D01*
%TO.C,H3*%
X8238095Y-75462619D02*
X8238095Y-74462619D01*
X8238095Y-74938809D02*
X8809523Y-74938809D01*
X8809523Y-75462619D02*
X8809523Y-74462619D01*
X9190476Y-74462619D02*
X9809523Y-74462619D01*
X9809523Y-74462619D02*
X9476190Y-74843571D01*
X9476190Y-74843571D02*
X9619047Y-74843571D01*
X9619047Y-74843571D02*
X9714285Y-74891190D01*
X9714285Y-74891190D02*
X9761904Y-74938809D01*
X9761904Y-74938809D02*
X9809523Y-75034047D01*
X9809523Y-75034047D02*
X9809523Y-75272142D01*
X9809523Y-75272142D02*
X9761904Y-75367380D01*
X9761904Y-75367380D02*
X9714285Y-75415000D01*
X9714285Y-75415000D02*
X9619047Y-75462619D01*
X9619047Y-75462619D02*
X9333333Y-75462619D01*
X9333333Y-75462619D02*
X9238095Y-75415000D01*
X9238095Y-75415000D02*
X9190476Y-75367380D01*
%TO.C,D5*%
X36358095Y-57316440D02*
X36358095Y-56316440D01*
X36929523Y-57316440D02*
X36500952Y-56745011D01*
X36929523Y-56316440D02*
X36358095Y-56887868D01*
X27547905Y-55116440D02*
X27547905Y-54116440D01*
X27547905Y-54116440D02*
X27786000Y-54116440D01*
X27786000Y-54116440D02*
X27928857Y-54164059D01*
X27928857Y-54164059D02*
X28024095Y-54259297D01*
X28024095Y-54259297D02*
X28071714Y-54354535D01*
X28071714Y-54354535D02*
X28119333Y-54545011D01*
X28119333Y-54545011D02*
X28119333Y-54687868D01*
X28119333Y-54687868D02*
X28071714Y-54878344D01*
X28071714Y-54878344D02*
X28024095Y-54973582D01*
X28024095Y-54973582D02*
X27928857Y-55068821D01*
X27928857Y-55068821D02*
X27786000Y-55116440D01*
X27786000Y-55116440D02*
X27547905Y-55116440D01*
X29024095Y-54116440D02*
X28547905Y-54116440D01*
X28547905Y-54116440D02*
X28500286Y-54592630D01*
X28500286Y-54592630D02*
X28547905Y-54545011D01*
X28547905Y-54545011D02*
X28643143Y-54497392D01*
X28643143Y-54497392D02*
X28881238Y-54497392D01*
X28881238Y-54497392D02*
X28976476Y-54545011D01*
X28976476Y-54545011D02*
X29024095Y-54592630D01*
X29024095Y-54592630D02*
X29071714Y-54687868D01*
X29071714Y-54687868D02*
X29071714Y-54925963D01*
X29071714Y-54925963D02*
X29024095Y-55021201D01*
X29024095Y-55021201D02*
X28976476Y-55068821D01*
X28976476Y-55068821D02*
X28881238Y-55116440D01*
X28881238Y-55116440D02*
X28643143Y-55116440D01*
X28643143Y-55116440D02*
X28547905Y-55068821D01*
X28547905Y-55068821D02*
X28500286Y-55021201D01*
%TO.C,C12*%
X92087380Y-54682857D02*
X92135000Y-54730476D01*
X92135000Y-54730476D02*
X92182619Y-54873333D01*
X92182619Y-54873333D02*
X92182619Y-54968571D01*
X92182619Y-54968571D02*
X92135000Y-55111428D01*
X92135000Y-55111428D02*
X92039761Y-55206666D01*
X92039761Y-55206666D02*
X91944523Y-55254285D01*
X91944523Y-55254285D02*
X91754047Y-55301904D01*
X91754047Y-55301904D02*
X91611190Y-55301904D01*
X91611190Y-55301904D02*
X91420714Y-55254285D01*
X91420714Y-55254285D02*
X91325476Y-55206666D01*
X91325476Y-55206666D02*
X91230238Y-55111428D01*
X91230238Y-55111428D02*
X91182619Y-54968571D01*
X91182619Y-54968571D02*
X91182619Y-54873333D01*
X91182619Y-54873333D02*
X91230238Y-54730476D01*
X91230238Y-54730476D02*
X91277857Y-54682857D01*
X92182619Y-53730476D02*
X92182619Y-54301904D01*
X92182619Y-54016190D02*
X91182619Y-54016190D01*
X91182619Y-54016190D02*
X91325476Y-54111428D01*
X91325476Y-54111428D02*
X91420714Y-54206666D01*
X91420714Y-54206666D02*
X91468333Y-54301904D01*
X91277857Y-53349523D02*
X91230238Y-53301904D01*
X91230238Y-53301904D02*
X91182619Y-53206666D01*
X91182619Y-53206666D02*
X91182619Y-52968571D01*
X91182619Y-52968571D02*
X91230238Y-52873333D01*
X91230238Y-52873333D02*
X91277857Y-52825714D01*
X91277857Y-52825714D02*
X91373095Y-52778095D01*
X91373095Y-52778095D02*
X91468333Y-52778095D01*
X91468333Y-52778095D02*
X91611190Y-52825714D01*
X91611190Y-52825714D02*
X92182619Y-53397142D01*
X92182619Y-53397142D02*
X92182619Y-52778095D01*
D11*
%TO.C,C9*%
X63847500Y-50571806D02*
X63847500Y-51871806D01*
X64497500Y-51221806D02*
X63197500Y-51221806D01*
X67500000Y-56153821D02*
G75*
G03*
X67500000Y-56153821I-6500000J0D01*
G01*
%TO.C,C3*%
X74007500Y-10352612D02*
X74007500Y-11952612D01*
X74807500Y-11152612D02*
X73207500Y-11152612D01*
X78500000Y-17227780D02*
G75*
G03*
X78500000Y-17227780I-8000000J0D01*
G01*
D12*
%TO.C,J4*%
X101250000Y-26727780D02*
X101250000Y-27227780D01*
X101250000Y-27227780D02*
X103750000Y-27227780D01*
X103750000Y-26727780D02*
X101250000Y-26727780D01*
X103750000Y-27227780D02*
X103750000Y-26727780D01*
D11*
%TO.C,J2*%
X8400000Y-52800000D02*
X6100000Y-52800000D01*
X6100000Y-52800000D02*
X6100000Y-55100000D01*
X10069000Y-54369000D02*
X10069000Y-55400000D01*
X9931000Y-54369000D02*
X10069000Y-54369000D01*
X6100000Y-55100000D02*
X8400000Y-52800000D01*
X11100000Y-55400000D02*
X11100000Y-55538000D01*
X10069000Y-55400000D02*
X11100000Y-55400000D01*
X9931000Y-55400000D02*
X9931000Y-54369000D01*
X8900000Y-55400000D02*
X9931000Y-55400000D01*
X11100000Y-55538000D02*
X10069000Y-55538000D01*
X10069000Y-55538000D02*
X10069000Y-56569000D01*
X9931000Y-55538000D02*
X8900000Y-55538000D01*
X8900000Y-55538000D02*
X8900000Y-55400000D01*
X10069000Y-56569000D02*
X9931000Y-56569000D01*
X9931000Y-56569000D02*
X9931000Y-55538000D01*
X10069000Y-57869000D02*
X10069000Y-58900000D01*
X9931000Y-57869000D02*
X10069000Y-57869000D01*
X11100000Y-58900000D02*
X11100000Y-59038000D01*
X10069000Y-58900000D02*
X11100000Y-58900000D01*
X9931000Y-58900000D02*
X9931000Y-57869000D01*
X8900000Y-58900000D02*
X9931000Y-58900000D01*
X11100000Y-59038000D02*
X10069000Y-59038000D01*
X10069000Y-59038000D02*
X10069000Y-60069000D01*
X9931000Y-59038000D02*
X8900000Y-59038000D01*
X8900000Y-59038000D02*
X8900000Y-58900000D01*
X10069000Y-60069000D02*
X9931000Y-60069000D01*
X9931000Y-60069000D02*
X9931000Y-59038000D01*
X10069000Y-61369000D02*
X10069000Y-62400000D01*
X9931000Y-61369000D02*
X10069000Y-61369000D01*
X11100000Y-62400000D02*
X11100000Y-62538000D01*
X10069000Y-62400000D02*
X11100000Y-62400000D01*
X9931000Y-62400000D02*
X9931000Y-61369000D01*
X8900000Y-62400000D02*
X9931000Y-62400000D01*
X11100000Y-62538000D02*
X10069000Y-62538000D01*
X10069000Y-62538000D02*
X10069000Y-63569000D01*
X9931000Y-62538000D02*
X8900000Y-62538000D01*
X8900000Y-62538000D02*
X8900000Y-62400000D01*
X10069000Y-63569000D02*
X9931000Y-63569000D01*
X9931000Y-63569000D02*
X9931000Y-62538000D01*
X15900000Y-52800000D02*
X6100000Y-52800000D01*
X6100000Y-52800000D02*
X6100000Y-65200000D01*
X6100000Y-65200000D02*
X15900000Y-65200000D01*
X15900000Y-65200000D02*
X15900000Y-52800000D01*
%TO.C,C11*%
X73373500Y-53556028D02*
X73373500Y-54186028D01*
X73688500Y-53871028D02*
X73058500Y-53871028D01*
X75150000Y-56250000D02*
G75*
G03*
X75150000Y-56250000I-3150000J0D01*
G01*
%TO.C,D2*%
X38000000Y-22477780D02*
X32550000Y-22477780D01*
X32550000Y-27027780D02*
X32550000Y-17927780D01*
X32550000Y-17927780D02*
X23450000Y-17927780D01*
X31285000Y-27027780D02*
X31285000Y-17927780D01*
X31185000Y-27027780D02*
X31185000Y-17927780D01*
X31085000Y-27027780D02*
X31085000Y-17927780D01*
X23450000Y-27027780D02*
X32550000Y-27027780D01*
X23450000Y-17927780D02*
X23450000Y-27027780D01*
X18000000Y-22477780D02*
X23450000Y-22477780D01*
D12*
%TO.C,J6*%
X100750000Y-47750000D02*
X100750000Y-48250000D01*
X100750000Y-48250000D02*
X103250000Y-48250000D01*
X103250000Y-47750000D02*
X100750000Y-47750000D01*
X103250000Y-48250000D02*
X103250000Y-47750000D01*
D11*
%TO.C,C8*%
X49347500Y-64917985D02*
X49347500Y-66217985D01*
X49997500Y-65567985D02*
X48697500Y-65567985D01*
X53000000Y-70500000D02*
G75*
G03*
X53000000Y-70500000I-6500000J0D01*
G01*
%TO.C,J9*%
X91730000Y-62690000D02*
X92365000Y-62055000D01*
X91730000Y-67135000D02*
X91730000Y-62690000D01*
X92365000Y-62055000D02*
X94270000Y-62055000D01*
X94270000Y-62055000D02*
X94270000Y-67135000D01*
X94270000Y-67135000D02*
X91730000Y-67135000D01*
%TO.C,C10*%
X63847500Y-64917985D02*
X63847500Y-66217985D01*
X64497500Y-65567985D02*
X63197500Y-65567985D01*
X67500000Y-70500000D02*
G75*
G03*
X67500000Y-70500000I-6500000J0D01*
G01*
%TO.C,D6*%
X21380000Y-66653821D02*
X24240000Y-66653821D01*
X24240000Y-63988821D02*
X24240000Y-69318821D01*
X24240000Y-69318821D02*
X33760000Y-69318821D01*
X25568000Y-63988821D02*
X25568000Y-69318821D01*
X25668000Y-63988821D02*
X25668000Y-69318821D01*
X25768000Y-63988821D02*
X25768000Y-69318821D01*
X33760000Y-63988821D02*
X24240000Y-63988821D01*
X33760000Y-69318821D02*
X33760000Y-63988821D01*
X36620000Y-66653821D02*
X33760000Y-66653821D01*
%TO.C,C6*%
X93007500Y-29374832D02*
X93007500Y-30974832D01*
X93807500Y-30174832D02*
X92207500Y-30174832D01*
X97500000Y-36250000D02*
G75*
G03*
X97500000Y-36250000I-8000000J0D01*
G01*
%TO.C,D8*%
X21380000Y-72653821D02*
X24240000Y-72653821D01*
X24240000Y-69988821D02*
X24240000Y-75318821D01*
X24240000Y-75318821D02*
X33760000Y-75318821D01*
X25568000Y-69988821D02*
X25568000Y-75318821D01*
X25668000Y-69988821D02*
X25668000Y-75318821D01*
X25768000Y-69988821D02*
X25768000Y-75318821D01*
X33760000Y-69988821D02*
X24240000Y-69988821D01*
X33760000Y-75318821D02*
X33760000Y-69988821D01*
X36620000Y-72653821D02*
X33760000Y-72653821D01*
%TO.C,C2*%
X55007500Y-30374832D02*
X55007500Y-31974832D01*
X55807500Y-31174832D02*
X54207500Y-31174832D01*
X59500000Y-37250000D02*
G75*
G03*
X59500000Y-37250000I-8000000J0D01*
G01*
D12*
%TO.C,J8*%
X100750000Y-63950000D02*
X100750000Y-64450000D01*
X100750000Y-64450000D02*
X103250000Y-64450000D01*
X103250000Y-63950000D02*
X100750000Y-63950000D01*
X103250000Y-64450000D02*
X103250000Y-63950000D01*
D11*
%TO.C,C4*%
X74007500Y-30374832D02*
X74007500Y-31974832D01*
X74807500Y-31174832D02*
X73207500Y-31174832D01*
X78500000Y-37250000D02*
G75*
G03*
X78500000Y-37250000I-8000000J0D01*
G01*
%TO.C,D1*%
X18000000Y-42477780D02*
X23450000Y-42477780D01*
X23450000Y-37927780D02*
X23450000Y-47027780D01*
X23450000Y-47027780D02*
X32550000Y-47027780D01*
X24715000Y-37927780D02*
X24715000Y-47027780D01*
X24815000Y-37927780D02*
X24815000Y-47027780D01*
X24915000Y-37927780D02*
X24915000Y-47027780D01*
X32550000Y-37927780D02*
X23450000Y-37927780D01*
X32550000Y-47027780D02*
X32550000Y-37927780D01*
X38000000Y-42477780D02*
X32550000Y-42477780D01*
%TO.C,D4*%
X38000000Y-12477780D02*
X32550000Y-12477780D01*
X32550000Y-17027780D02*
X32550000Y-7927780D01*
X32550000Y-7927780D02*
X23450000Y-7927780D01*
X31285000Y-17027780D02*
X31285000Y-7927780D01*
X31185000Y-17027780D02*
X31185000Y-7927780D01*
X31085000Y-17027780D02*
X31085000Y-7927780D01*
X23450000Y-17027780D02*
X32550000Y-17027780D01*
X23450000Y-7927780D02*
X23450000Y-17027780D01*
X18000000Y-12477780D02*
X23450000Y-12477780D01*
%TO.C,C1*%
X55007500Y-10352612D02*
X55007500Y-11952612D01*
X55807500Y-11152612D02*
X54207500Y-11152612D01*
X59500000Y-17227780D02*
G75*
G03*
X59500000Y-17227780I-8000000J0D01*
G01*
%TO.C,C5*%
X93007500Y-10374832D02*
X93007500Y-11974832D01*
X93807500Y-11174832D02*
X92207500Y-11174832D01*
X97500000Y-17250000D02*
G75*
G03*
X97500000Y-17250000I-8000000J0D01*
G01*
%TO.C,J1*%
X8400000Y-16800000D02*
X6100000Y-16800000D01*
X6100000Y-16800000D02*
X6100000Y-19100000D01*
X10069000Y-18369000D02*
X10069000Y-19400000D01*
X9931000Y-18369000D02*
X10069000Y-18369000D01*
X6100000Y-19100000D02*
X8400000Y-16800000D01*
X11100000Y-19400000D02*
X11100000Y-19538000D01*
X10069000Y-19400000D02*
X11100000Y-19400000D01*
X9931000Y-19400000D02*
X9931000Y-18369000D01*
X8900000Y-19400000D02*
X9931000Y-19400000D01*
X11100000Y-19538000D02*
X10069000Y-19538000D01*
X10069000Y-19538000D02*
X10069000Y-20569000D01*
X9931000Y-19538000D02*
X8900000Y-19538000D01*
X8900000Y-19538000D02*
X8900000Y-19400000D01*
X10069000Y-20569000D02*
X9931000Y-20569000D01*
X9931000Y-20569000D02*
X9931000Y-19538000D01*
X10069000Y-21869000D02*
X10069000Y-22900000D01*
X9931000Y-21869000D02*
X10069000Y-21869000D01*
X11100000Y-22900000D02*
X11100000Y-23038000D01*
X10069000Y-22900000D02*
X11100000Y-22900000D01*
X9931000Y-22900000D02*
X9931000Y-21869000D01*
X8900000Y-22900000D02*
X9931000Y-22900000D01*
X11100000Y-23038000D02*
X10069000Y-23038000D01*
X10069000Y-23038000D02*
X10069000Y-24069000D01*
X9931000Y-23038000D02*
X8900000Y-23038000D01*
X8900000Y-23038000D02*
X8900000Y-22900000D01*
X10069000Y-24069000D02*
X9931000Y-24069000D01*
X9931000Y-24069000D02*
X9931000Y-23038000D01*
X10069000Y-25369000D02*
X10069000Y-26400000D01*
X9931000Y-25369000D02*
X10069000Y-25369000D01*
X11100000Y-26400000D02*
X11100000Y-26538000D01*
X10069000Y-26400000D02*
X11100000Y-26400000D01*
X9931000Y-26400000D02*
X9931000Y-25369000D01*
X8900000Y-26400000D02*
X9931000Y-26400000D01*
X11100000Y-26538000D02*
X10069000Y-26538000D01*
X10069000Y-26538000D02*
X10069000Y-27569000D01*
X9931000Y-26538000D02*
X8900000Y-26538000D01*
X8900000Y-26538000D02*
X8900000Y-26400000D01*
X10069000Y-27569000D02*
X9931000Y-27569000D01*
X9931000Y-27569000D02*
X9931000Y-26538000D01*
X15900000Y-16800000D02*
X6100000Y-16800000D01*
X6100000Y-16800000D02*
X6100000Y-29200000D01*
X6100000Y-29200000D02*
X15900000Y-29200000D01*
X15900000Y-29200000D02*
X15900000Y-16800000D01*
%TO.C,D7*%
X36620000Y-60653821D02*
X33760000Y-60653821D01*
X33760000Y-63318821D02*
X33760000Y-57988821D01*
X33760000Y-57988821D02*
X24240000Y-57988821D01*
X32432000Y-63318821D02*
X32432000Y-57988821D01*
X32332000Y-63318821D02*
X32332000Y-57988821D01*
X32232000Y-63318821D02*
X32232000Y-57988821D01*
X24240000Y-63318821D02*
X33760000Y-63318821D01*
X24240000Y-57988821D02*
X24240000Y-63318821D01*
X21380000Y-60653821D02*
X24240000Y-60653821D01*
%TO.C,U1*%
X77370000Y-55520000D02*
X77370000Y-64770000D01*
X77370000Y-64770000D02*
X77370000Y-71170000D01*
X77370000Y-64770000D02*
X87370000Y-64770000D01*
X77370000Y-71170000D02*
X87370000Y-71170000D01*
X79830000Y-55520000D02*
X79830000Y-51710000D01*
X82370000Y-55520000D02*
X82370000Y-51710000D01*
X84910000Y-55520000D02*
X84910000Y-51710000D01*
X87370000Y-55520000D02*
X77370000Y-55520000D01*
X87370000Y-64770000D02*
X77370000Y-64770000D01*
X87370000Y-64770000D02*
X87370000Y-55520000D01*
X87370000Y-71170000D02*
X87370000Y-64770000D01*
X84220000Y-68370000D02*
G75*
G03*
X84220000Y-68370000I-1850000J0D01*
G01*
%TO.C,D3*%
X18000000Y-32477780D02*
X23450000Y-32477780D01*
X23450000Y-27927780D02*
X23450000Y-37027780D01*
X23450000Y-37027780D02*
X32550000Y-37027780D01*
X24715000Y-27927780D02*
X24715000Y-37027780D01*
X24815000Y-27927780D02*
X24815000Y-37027780D01*
X24915000Y-27927780D02*
X24915000Y-37027780D01*
X32550000Y-27927780D02*
X23450000Y-27927780D01*
X32550000Y-37027780D02*
X32550000Y-27927780D01*
X38000000Y-32477780D02*
X32550000Y-32477780D01*
D12*
%TO.C,J5*%
X101250000Y-35750000D02*
X101250000Y-36250000D01*
X101250000Y-36250000D02*
X103750000Y-36250000D01*
X103750000Y-35750000D02*
X101250000Y-35750000D01*
X103750000Y-36250000D02*
X103750000Y-35750000D01*
D11*
%TO.C,C7*%
X49347500Y-50571806D02*
X49347500Y-51871806D01*
X49997500Y-51221806D02*
X48697500Y-51221806D01*
X53000000Y-56153821D02*
G75*
G03*
X53000000Y-56153821I-6500000J0D01*
G01*
D12*
%TO.C,J3*%
X101250000Y-17750000D02*
X101250000Y-18250000D01*
X101250000Y-18250000D02*
X103750000Y-18250000D01*
X103750000Y-17750000D02*
X101250000Y-17750000D01*
X103750000Y-18250000D02*
X103750000Y-17750000D01*
%TO.C,J7*%
X100750000Y-55750000D02*
X100750000Y-56250000D01*
X100750000Y-56250000D02*
X103250000Y-56250000D01*
X103250000Y-55750000D02*
X100750000Y-55750000D01*
X103250000Y-56250000D02*
X103250000Y-55750000D01*
D11*
%TO.C,D5*%
X36620000Y-54653821D02*
X33760000Y-54653821D01*
X33760000Y-57318821D02*
X33760000Y-51988821D01*
X33760000Y-51988821D02*
X24240000Y-51988821D01*
X32432000Y-57318821D02*
X32432000Y-51988821D01*
X32332000Y-57318821D02*
X32332000Y-51988821D01*
X32232000Y-57318821D02*
X32232000Y-51988821D01*
X24240000Y-57318821D02*
X33760000Y-57318821D01*
X24240000Y-51988821D02*
X24240000Y-57318821D01*
X21380000Y-54653821D02*
X24240000Y-54653821D01*
%TO.C,C12*%
X92970000Y-51040000D02*
X90470000Y-51040000D01*
X90470000Y-51040000D02*
X90470000Y-57040000D01*
X92970000Y-57040000D02*
X92970000Y-51040000D01*
X90470000Y-57040000D02*
X92970000Y-57040000D01*
%TD*%
M02*
