%TF.GenerationSoftware,KiCad,Pcbnew,7.0.2-6a45011f42~172~ubuntu22.04.1*%
%TF.CreationDate,2023-05-07T16:01:11-05:00*%
%TF.ProjectId,fuente-lineal,6675656e-7465-42d6-9c69-6e65616c2e6b,V1.0.0*%
%TF.SameCoordinates,PX55d4a80PY3750280*%
%TF.FileFunction,Legend,Top*%
%TF.FilePolarity,Positive*%
%FSLAX46Y46*%
G04 Gerber Fmt 4.6, Leading zero omitted, Abs format (unit mm)*
G04 Created by KiCad (PCBNEW 7.0.2-6a45011f42~172~ubuntu22.04.1) date 2023-05-07 16:01:11*
%MOMM*%
%LPD*%
G01*
G04 APERTURE LIST*
%ADD10C,0.500000*%
%ADD11C,0.300000*%
%ADD12C,0.200000*%
%ADD13C,0.150000*%
%ADD14C,0.120000*%
G04 APERTURE END LIST*
D10*
X101600000Y-15000000D02*
X103400000Y-15000000D01*
X102500000Y-14100000D02*
X102500000Y-15900000D01*
X102400000Y-38500000D02*
X102400000Y-40300000D01*
D11*
X9844761Y-33876190D02*
X11844761Y-33876190D01*
X11844761Y-33876190D02*
X10416190Y-34542857D01*
X10416190Y-34542857D02*
X11844761Y-35209523D01*
X11844761Y-35209523D02*
X9844761Y-35209523D01*
X9844761Y-37304761D02*
X10797142Y-36638094D01*
X9844761Y-36161904D02*
X11844761Y-36161904D01*
X11844761Y-36161904D02*
X11844761Y-36923809D01*
X11844761Y-36923809D02*
X11749523Y-37114285D01*
X11749523Y-37114285D02*
X11654285Y-37209523D01*
X11654285Y-37209523D02*
X11463809Y-37304761D01*
X11463809Y-37304761D02*
X11178095Y-37304761D01*
X11178095Y-37304761D02*
X10987619Y-37209523D01*
X10987619Y-37209523D02*
X10892380Y-37114285D01*
X10892380Y-37114285D02*
X10797142Y-36923809D01*
X10797142Y-36923809D02*
X10797142Y-36161904D01*
X11844761Y-39400000D02*
X9844761Y-40066666D01*
X9844761Y-40066666D02*
X11844761Y-40733333D01*
X9844761Y-42447619D02*
X9844761Y-41304762D01*
X9844761Y-41876190D02*
X11844761Y-41876190D01*
X11844761Y-41876190D02*
X11559047Y-41685714D01*
X11559047Y-41685714D02*
X11368571Y-41495238D01*
X11368571Y-41495238D02*
X11273333Y-41304762D01*
X10035238Y-43304762D02*
X9940000Y-43400000D01*
X9940000Y-43400000D02*
X9844761Y-43304762D01*
X9844761Y-43304762D02*
X9940000Y-43209524D01*
X9940000Y-43209524D02*
X10035238Y-43304762D01*
X10035238Y-43304762D02*
X9844761Y-43304762D01*
X11844761Y-44638095D02*
X11844761Y-44828572D01*
X11844761Y-44828572D02*
X11749523Y-45019048D01*
X11749523Y-45019048D02*
X11654285Y-45114286D01*
X11654285Y-45114286D02*
X11463809Y-45209524D01*
X11463809Y-45209524D02*
X11082857Y-45304762D01*
X11082857Y-45304762D02*
X10606666Y-45304762D01*
X10606666Y-45304762D02*
X10225714Y-45209524D01*
X10225714Y-45209524D02*
X10035238Y-45114286D01*
X10035238Y-45114286D02*
X9940000Y-45019048D01*
X9940000Y-45019048D02*
X9844761Y-44828572D01*
X9844761Y-44828572D02*
X9844761Y-44638095D01*
X9844761Y-44638095D02*
X9940000Y-44447619D01*
X9940000Y-44447619D02*
X10035238Y-44352381D01*
X10035238Y-44352381D02*
X10225714Y-44257143D01*
X10225714Y-44257143D02*
X10606666Y-44161905D01*
X10606666Y-44161905D02*
X11082857Y-44161905D01*
X11082857Y-44161905D02*
X11463809Y-44257143D01*
X11463809Y-44257143D02*
X11654285Y-44352381D01*
X11654285Y-44352381D02*
X11749523Y-44447619D01*
X11749523Y-44447619D02*
X11844761Y-44638095D01*
X10035238Y-46161905D02*
X9940000Y-46257143D01*
X9940000Y-46257143D02*
X9844761Y-46161905D01*
X9844761Y-46161905D02*
X9940000Y-46066667D01*
X9940000Y-46066667D02*
X10035238Y-46161905D01*
X10035238Y-46161905D02*
X9844761Y-46161905D01*
X11844761Y-47495238D02*
X11844761Y-47685715D01*
X11844761Y-47685715D02*
X11749523Y-47876191D01*
X11749523Y-47876191D02*
X11654285Y-47971429D01*
X11654285Y-47971429D02*
X11463809Y-48066667D01*
X11463809Y-48066667D02*
X11082857Y-48161905D01*
X11082857Y-48161905D02*
X10606666Y-48161905D01*
X10606666Y-48161905D02*
X10225714Y-48066667D01*
X10225714Y-48066667D02*
X10035238Y-47971429D01*
X10035238Y-47971429D02*
X9940000Y-47876191D01*
X9940000Y-47876191D02*
X9844761Y-47685715D01*
X9844761Y-47685715D02*
X9844761Y-47495238D01*
X9844761Y-47495238D02*
X9940000Y-47304762D01*
X9940000Y-47304762D02*
X10035238Y-47209524D01*
X10035238Y-47209524D02*
X10225714Y-47114286D01*
X10225714Y-47114286D02*
X10606666Y-47019048D01*
X10606666Y-47019048D02*
X11082857Y-47019048D01*
X11082857Y-47019048D02*
X11463809Y-47114286D01*
X11463809Y-47114286D02*
X11654285Y-47209524D01*
X11654285Y-47209524D02*
X11749523Y-47304762D01*
X11749523Y-47304762D02*
X11844761Y-47495238D01*
D10*
X92300000Y-60200000D02*
X94100000Y-60200000D01*
X101200000Y-45000000D02*
X103000000Y-45000000D01*
X102100000Y-65900000D02*
X102100000Y-67700000D01*
X102100000Y-44100000D02*
X102100000Y-45900000D01*
X93200000Y-59300000D02*
X93200000Y-61100000D01*
D12*
X95355238Y-64971428D02*
X95355238Y-65923809D01*
X95355238Y-65923809D02*
X96307619Y-66019047D01*
X96307619Y-66019047D02*
X96212380Y-65923809D01*
X96212380Y-65923809D02*
X96117142Y-65733333D01*
X96117142Y-65733333D02*
X96117142Y-65257142D01*
X96117142Y-65257142D02*
X96212380Y-65066666D01*
X96212380Y-65066666D02*
X96307619Y-64971428D01*
X96307619Y-64971428D02*
X96498095Y-64876190D01*
X96498095Y-64876190D02*
X96974285Y-64876190D01*
X96974285Y-64876190D02*
X97164761Y-64971428D01*
X97164761Y-64971428D02*
X97260000Y-65066666D01*
X97260000Y-65066666D02*
X97355238Y-65257142D01*
X97355238Y-65257142D02*
X97355238Y-65733333D01*
X97355238Y-65733333D02*
X97260000Y-65923809D01*
X97260000Y-65923809D02*
X97164761Y-66019047D01*
X95355238Y-64304761D02*
X97355238Y-63638095D01*
X97355238Y-63638095D02*
X95355238Y-62971428D01*
D13*
%TO.C,C9*%
X69117380Y-56320487D02*
X69165000Y-56368106D01*
X69165000Y-56368106D02*
X69212619Y-56510963D01*
X69212619Y-56510963D02*
X69212619Y-56606201D01*
X69212619Y-56606201D02*
X69165000Y-56749058D01*
X69165000Y-56749058D02*
X69069761Y-56844296D01*
X69069761Y-56844296D02*
X68974523Y-56891915D01*
X68974523Y-56891915D02*
X68784047Y-56939534D01*
X68784047Y-56939534D02*
X68641190Y-56939534D01*
X68641190Y-56939534D02*
X68450714Y-56891915D01*
X68450714Y-56891915D02*
X68355476Y-56844296D01*
X68355476Y-56844296D02*
X68260238Y-56749058D01*
X68260238Y-56749058D02*
X68212619Y-56606201D01*
X68212619Y-56606201D02*
X68212619Y-56510963D01*
X68212619Y-56510963D02*
X68260238Y-56368106D01*
X68260238Y-56368106D02*
X68307857Y-56320487D01*
X69212619Y-55844296D02*
X69212619Y-55653820D01*
X69212619Y-55653820D02*
X69165000Y-55558582D01*
X69165000Y-55558582D02*
X69117380Y-55510963D01*
X69117380Y-55510963D02*
X68974523Y-55415725D01*
X68974523Y-55415725D02*
X68784047Y-55368106D01*
X68784047Y-55368106D02*
X68403095Y-55368106D01*
X68403095Y-55368106D02*
X68307857Y-55415725D01*
X68307857Y-55415725D02*
X68260238Y-55463344D01*
X68260238Y-55463344D02*
X68212619Y-55558582D01*
X68212619Y-55558582D02*
X68212619Y-55749058D01*
X68212619Y-55749058D02*
X68260238Y-55844296D01*
X68260238Y-55844296D02*
X68307857Y-55891915D01*
X68307857Y-55891915D02*
X68403095Y-55939534D01*
X68403095Y-55939534D02*
X68641190Y-55939534D01*
X68641190Y-55939534D02*
X68736428Y-55891915D01*
X68736428Y-55891915D02*
X68784047Y-55844296D01*
X68784047Y-55844296D02*
X68831666Y-55749058D01*
X68831666Y-55749058D02*
X68831666Y-55558582D01*
X68831666Y-55558582D02*
X68784047Y-55463344D01*
X68784047Y-55463344D02*
X68736428Y-55415725D01*
X68736428Y-55415725D02*
X68641190Y-55368106D01*
%TO.C,C3*%
X80117380Y-17394446D02*
X80165000Y-17442065D01*
X80165000Y-17442065D02*
X80212619Y-17584922D01*
X80212619Y-17584922D02*
X80212619Y-17680160D01*
X80212619Y-17680160D02*
X80165000Y-17823017D01*
X80165000Y-17823017D02*
X80069761Y-17918255D01*
X80069761Y-17918255D02*
X79974523Y-17965874D01*
X79974523Y-17965874D02*
X79784047Y-18013493D01*
X79784047Y-18013493D02*
X79641190Y-18013493D01*
X79641190Y-18013493D02*
X79450714Y-17965874D01*
X79450714Y-17965874D02*
X79355476Y-17918255D01*
X79355476Y-17918255D02*
X79260238Y-17823017D01*
X79260238Y-17823017D02*
X79212619Y-17680160D01*
X79212619Y-17680160D02*
X79212619Y-17584922D01*
X79212619Y-17584922D02*
X79260238Y-17442065D01*
X79260238Y-17442065D02*
X79307857Y-17394446D01*
X79212619Y-17061112D02*
X79212619Y-16442065D01*
X79212619Y-16442065D02*
X79593571Y-16775398D01*
X79593571Y-16775398D02*
X79593571Y-16632541D01*
X79593571Y-16632541D02*
X79641190Y-16537303D01*
X79641190Y-16537303D02*
X79688809Y-16489684D01*
X79688809Y-16489684D02*
X79784047Y-16442065D01*
X79784047Y-16442065D02*
X80022142Y-16442065D01*
X80022142Y-16442065D02*
X80117380Y-16489684D01*
X80117380Y-16489684D02*
X80165000Y-16537303D01*
X80165000Y-16537303D02*
X80212619Y-16632541D01*
X80212619Y-16632541D02*
X80212619Y-16918255D01*
X80212619Y-16918255D02*
X80165000Y-17013493D01*
X80165000Y-17013493D02*
X80117380Y-17061112D01*
%TO.C,J4*%
X99466666Y-26462619D02*
X99466666Y-27176904D01*
X99466666Y-27176904D02*
X99419047Y-27319761D01*
X99419047Y-27319761D02*
X99323809Y-27415000D01*
X99323809Y-27415000D02*
X99180952Y-27462619D01*
X99180952Y-27462619D02*
X99085714Y-27462619D01*
X100371428Y-26795952D02*
X100371428Y-27462619D01*
X100133333Y-26415000D02*
X99895238Y-27129285D01*
X99895238Y-27129285D02*
X100514285Y-27129285D01*
%TO.C,J2*%
X13922619Y-59302333D02*
X14636904Y-59302333D01*
X14636904Y-59302333D02*
X14779761Y-59349952D01*
X14779761Y-59349952D02*
X14875000Y-59445190D01*
X14875000Y-59445190D02*
X14922619Y-59588047D01*
X14922619Y-59588047D02*
X14922619Y-59683285D01*
X14017857Y-58873761D02*
X13970238Y-58826142D01*
X13970238Y-58826142D02*
X13922619Y-58730904D01*
X13922619Y-58730904D02*
X13922619Y-58492809D01*
X13922619Y-58492809D02*
X13970238Y-58397571D01*
X13970238Y-58397571D02*
X14017857Y-58349952D01*
X14017857Y-58349952D02*
X14113095Y-58302333D01*
X14113095Y-58302333D02*
X14208333Y-58302333D01*
X14208333Y-58302333D02*
X14351190Y-58349952D01*
X14351190Y-58349952D02*
X14922619Y-58921380D01*
X14922619Y-58921380D02*
X14922619Y-58302333D01*
%TO.C,C11*%
X76767380Y-56892857D02*
X76815000Y-56940476D01*
X76815000Y-56940476D02*
X76862619Y-57083333D01*
X76862619Y-57083333D02*
X76862619Y-57178571D01*
X76862619Y-57178571D02*
X76815000Y-57321428D01*
X76815000Y-57321428D02*
X76719761Y-57416666D01*
X76719761Y-57416666D02*
X76624523Y-57464285D01*
X76624523Y-57464285D02*
X76434047Y-57511904D01*
X76434047Y-57511904D02*
X76291190Y-57511904D01*
X76291190Y-57511904D02*
X76100714Y-57464285D01*
X76100714Y-57464285D02*
X76005476Y-57416666D01*
X76005476Y-57416666D02*
X75910238Y-57321428D01*
X75910238Y-57321428D02*
X75862619Y-57178571D01*
X75862619Y-57178571D02*
X75862619Y-57083333D01*
X75862619Y-57083333D02*
X75910238Y-56940476D01*
X75910238Y-56940476D02*
X75957857Y-56892857D01*
X76862619Y-55940476D02*
X76862619Y-56511904D01*
X76862619Y-56226190D02*
X75862619Y-56226190D01*
X75862619Y-56226190D02*
X76005476Y-56321428D01*
X76005476Y-56321428D02*
X76100714Y-56416666D01*
X76100714Y-56416666D02*
X76148333Y-56511904D01*
X76862619Y-54988095D02*
X76862619Y-55559523D01*
X76862619Y-55273809D02*
X75862619Y-55273809D01*
X75862619Y-55273809D02*
X76005476Y-55369047D01*
X76005476Y-55369047D02*
X76100714Y-55464285D01*
X76100714Y-55464285D02*
X76148333Y-55559523D01*
%TO.C,D2*%
X34061905Y-19462619D02*
X34061905Y-18462619D01*
X34061905Y-18462619D02*
X34300000Y-18462619D01*
X34300000Y-18462619D02*
X34442857Y-18510238D01*
X34442857Y-18510238D02*
X34538095Y-18605476D01*
X34538095Y-18605476D02*
X34585714Y-18700714D01*
X34585714Y-18700714D02*
X34633333Y-18891190D01*
X34633333Y-18891190D02*
X34633333Y-19034047D01*
X34633333Y-19034047D02*
X34585714Y-19224523D01*
X34585714Y-19224523D02*
X34538095Y-19319761D01*
X34538095Y-19319761D02*
X34442857Y-19415000D01*
X34442857Y-19415000D02*
X34300000Y-19462619D01*
X34300000Y-19462619D02*
X34061905Y-19462619D01*
X35014286Y-18557857D02*
X35061905Y-18510238D01*
X35061905Y-18510238D02*
X35157143Y-18462619D01*
X35157143Y-18462619D02*
X35395238Y-18462619D01*
X35395238Y-18462619D02*
X35490476Y-18510238D01*
X35490476Y-18510238D02*
X35538095Y-18557857D01*
X35538095Y-18557857D02*
X35585714Y-18653095D01*
X35585714Y-18653095D02*
X35585714Y-18748333D01*
X35585714Y-18748333D02*
X35538095Y-18891190D01*
X35538095Y-18891190D02*
X34966667Y-19462619D01*
X34966667Y-19462619D02*
X35585714Y-19462619D01*
X37738095Y-25540399D02*
X37738095Y-24540399D01*
X38309523Y-25540399D02*
X37880952Y-24968970D01*
X38309523Y-24540399D02*
X37738095Y-25111827D01*
%TO.C,J6*%
X98866666Y-47462619D02*
X98866666Y-48176904D01*
X98866666Y-48176904D02*
X98819047Y-48319761D01*
X98819047Y-48319761D02*
X98723809Y-48415000D01*
X98723809Y-48415000D02*
X98580952Y-48462619D01*
X98580952Y-48462619D02*
X98485714Y-48462619D01*
X99771428Y-47462619D02*
X99580952Y-47462619D01*
X99580952Y-47462619D02*
X99485714Y-47510238D01*
X99485714Y-47510238D02*
X99438095Y-47557857D01*
X99438095Y-47557857D02*
X99342857Y-47700714D01*
X99342857Y-47700714D02*
X99295238Y-47891190D01*
X99295238Y-47891190D02*
X99295238Y-48272142D01*
X99295238Y-48272142D02*
X99342857Y-48367380D01*
X99342857Y-48367380D02*
X99390476Y-48415000D01*
X99390476Y-48415000D02*
X99485714Y-48462619D01*
X99485714Y-48462619D02*
X99676190Y-48462619D01*
X99676190Y-48462619D02*
X99771428Y-48415000D01*
X99771428Y-48415000D02*
X99819047Y-48367380D01*
X99819047Y-48367380D02*
X99866666Y-48272142D01*
X99866666Y-48272142D02*
X99866666Y-48034047D01*
X99866666Y-48034047D02*
X99819047Y-47938809D01*
X99819047Y-47938809D02*
X99771428Y-47891190D01*
X99771428Y-47891190D02*
X99676190Y-47843571D01*
X99676190Y-47843571D02*
X99485714Y-47843571D01*
X99485714Y-47843571D02*
X99390476Y-47891190D01*
X99390476Y-47891190D02*
X99342857Y-47938809D01*
X99342857Y-47938809D02*
X99295238Y-48034047D01*
%TO.C,C8*%
X54617380Y-70666666D02*
X54665000Y-70714285D01*
X54665000Y-70714285D02*
X54712619Y-70857142D01*
X54712619Y-70857142D02*
X54712619Y-70952380D01*
X54712619Y-70952380D02*
X54665000Y-71095237D01*
X54665000Y-71095237D02*
X54569761Y-71190475D01*
X54569761Y-71190475D02*
X54474523Y-71238094D01*
X54474523Y-71238094D02*
X54284047Y-71285713D01*
X54284047Y-71285713D02*
X54141190Y-71285713D01*
X54141190Y-71285713D02*
X53950714Y-71238094D01*
X53950714Y-71238094D02*
X53855476Y-71190475D01*
X53855476Y-71190475D02*
X53760238Y-71095237D01*
X53760238Y-71095237D02*
X53712619Y-70952380D01*
X53712619Y-70952380D02*
X53712619Y-70857142D01*
X53712619Y-70857142D02*
X53760238Y-70714285D01*
X53760238Y-70714285D02*
X53807857Y-70666666D01*
X54141190Y-70095237D02*
X54093571Y-70190475D01*
X54093571Y-70190475D02*
X54045952Y-70238094D01*
X54045952Y-70238094D02*
X53950714Y-70285713D01*
X53950714Y-70285713D02*
X53903095Y-70285713D01*
X53903095Y-70285713D02*
X53807857Y-70238094D01*
X53807857Y-70238094D02*
X53760238Y-70190475D01*
X53760238Y-70190475D02*
X53712619Y-70095237D01*
X53712619Y-70095237D02*
X53712619Y-69904761D01*
X53712619Y-69904761D02*
X53760238Y-69809523D01*
X53760238Y-69809523D02*
X53807857Y-69761904D01*
X53807857Y-69761904D02*
X53903095Y-69714285D01*
X53903095Y-69714285D02*
X53950714Y-69714285D01*
X53950714Y-69714285D02*
X54045952Y-69761904D01*
X54045952Y-69761904D02*
X54093571Y-69809523D01*
X54093571Y-69809523D02*
X54141190Y-69904761D01*
X54141190Y-69904761D02*
X54141190Y-70095237D01*
X54141190Y-70095237D02*
X54188809Y-70190475D01*
X54188809Y-70190475D02*
X54236428Y-70238094D01*
X54236428Y-70238094D02*
X54331666Y-70285713D01*
X54331666Y-70285713D02*
X54522142Y-70285713D01*
X54522142Y-70285713D02*
X54617380Y-70238094D01*
X54617380Y-70238094D02*
X54665000Y-70190475D01*
X54665000Y-70190475D02*
X54712619Y-70095237D01*
X54712619Y-70095237D02*
X54712619Y-69904761D01*
X54712619Y-69904761D02*
X54665000Y-69809523D01*
X54665000Y-69809523D02*
X54617380Y-69761904D01*
X54617380Y-69761904D02*
X54522142Y-69714285D01*
X54522142Y-69714285D02*
X54331666Y-69714285D01*
X54331666Y-69714285D02*
X54236428Y-69761904D01*
X54236428Y-69761904D02*
X54188809Y-69809523D01*
X54188809Y-69809523D02*
X54141190Y-69904761D01*
%TO.C,J9*%
X89666666Y-64062619D02*
X89666666Y-64776904D01*
X89666666Y-64776904D02*
X89619047Y-64919761D01*
X89619047Y-64919761D02*
X89523809Y-65015000D01*
X89523809Y-65015000D02*
X89380952Y-65062619D01*
X89380952Y-65062619D02*
X89285714Y-65062619D01*
X90190476Y-65062619D02*
X90380952Y-65062619D01*
X90380952Y-65062619D02*
X90476190Y-65015000D01*
X90476190Y-65015000D02*
X90523809Y-64967380D01*
X90523809Y-64967380D02*
X90619047Y-64824523D01*
X90619047Y-64824523D02*
X90666666Y-64634047D01*
X90666666Y-64634047D02*
X90666666Y-64253095D01*
X90666666Y-64253095D02*
X90619047Y-64157857D01*
X90619047Y-64157857D02*
X90571428Y-64110238D01*
X90571428Y-64110238D02*
X90476190Y-64062619D01*
X90476190Y-64062619D02*
X90285714Y-64062619D01*
X90285714Y-64062619D02*
X90190476Y-64110238D01*
X90190476Y-64110238D02*
X90142857Y-64157857D01*
X90142857Y-64157857D02*
X90095238Y-64253095D01*
X90095238Y-64253095D02*
X90095238Y-64491190D01*
X90095238Y-64491190D02*
X90142857Y-64586428D01*
X90142857Y-64586428D02*
X90190476Y-64634047D01*
X90190476Y-64634047D02*
X90285714Y-64681666D01*
X90285714Y-64681666D02*
X90476190Y-64681666D01*
X90476190Y-64681666D02*
X90571428Y-64634047D01*
X90571428Y-64634047D02*
X90619047Y-64586428D01*
X90619047Y-64586428D02*
X90666666Y-64491190D01*
%TO.C,C10*%
X69117380Y-71142857D02*
X69165000Y-71190476D01*
X69165000Y-71190476D02*
X69212619Y-71333333D01*
X69212619Y-71333333D02*
X69212619Y-71428571D01*
X69212619Y-71428571D02*
X69165000Y-71571428D01*
X69165000Y-71571428D02*
X69069761Y-71666666D01*
X69069761Y-71666666D02*
X68974523Y-71714285D01*
X68974523Y-71714285D02*
X68784047Y-71761904D01*
X68784047Y-71761904D02*
X68641190Y-71761904D01*
X68641190Y-71761904D02*
X68450714Y-71714285D01*
X68450714Y-71714285D02*
X68355476Y-71666666D01*
X68355476Y-71666666D02*
X68260238Y-71571428D01*
X68260238Y-71571428D02*
X68212619Y-71428571D01*
X68212619Y-71428571D02*
X68212619Y-71333333D01*
X68212619Y-71333333D02*
X68260238Y-71190476D01*
X68260238Y-71190476D02*
X68307857Y-71142857D01*
X69212619Y-70190476D02*
X69212619Y-70761904D01*
X69212619Y-70476190D02*
X68212619Y-70476190D01*
X68212619Y-70476190D02*
X68355476Y-70571428D01*
X68355476Y-70571428D02*
X68450714Y-70666666D01*
X68450714Y-70666666D02*
X68498333Y-70761904D01*
X68212619Y-69571428D02*
X68212619Y-69476190D01*
X68212619Y-69476190D02*
X68260238Y-69380952D01*
X68260238Y-69380952D02*
X68307857Y-69333333D01*
X68307857Y-69333333D02*
X68403095Y-69285714D01*
X68403095Y-69285714D02*
X68593571Y-69238095D01*
X68593571Y-69238095D02*
X68831666Y-69238095D01*
X68831666Y-69238095D02*
X69022142Y-69285714D01*
X69022142Y-69285714D02*
X69117380Y-69333333D01*
X69117380Y-69333333D02*
X69165000Y-69380952D01*
X69165000Y-69380952D02*
X69212619Y-69476190D01*
X69212619Y-69476190D02*
X69212619Y-69571428D01*
X69212619Y-69571428D02*
X69165000Y-69666666D01*
X69165000Y-69666666D02*
X69117380Y-69714285D01*
X69117380Y-69714285D02*
X69022142Y-69761904D01*
X69022142Y-69761904D02*
X68831666Y-69809523D01*
X68831666Y-69809523D02*
X68593571Y-69809523D01*
X68593571Y-69809523D02*
X68403095Y-69761904D01*
X68403095Y-69761904D02*
X68307857Y-69714285D01*
X68307857Y-69714285D02*
X68260238Y-69666666D01*
X68260238Y-69666666D02*
X68212619Y-69571428D01*
%TO.C,D6*%
X17061905Y-67262619D02*
X17061905Y-66262619D01*
X17061905Y-66262619D02*
X17300000Y-66262619D01*
X17300000Y-66262619D02*
X17442857Y-66310238D01*
X17442857Y-66310238D02*
X17538095Y-66405476D01*
X17538095Y-66405476D02*
X17585714Y-66500714D01*
X17585714Y-66500714D02*
X17633333Y-66691190D01*
X17633333Y-66691190D02*
X17633333Y-66834047D01*
X17633333Y-66834047D02*
X17585714Y-67024523D01*
X17585714Y-67024523D02*
X17538095Y-67119761D01*
X17538095Y-67119761D02*
X17442857Y-67215000D01*
X17442857Y-67215000D02*
X17300000Y-67262619D01*
X17300000Y-67262619D02*
X17061905Y-67262619D01*
X18490476Y-66262619D02*
X18300000Y-66262619D01*
X18300000Y-66262619D02*
X18204762Y-66310238D01*
X18204762Y-66310238D02*
X18157143Y-66357857D01*
X18157143Y-66357857D02*
X18061905Y-66500714D01*
X18061905Y-66500714D02*
X18014286Y-66691190D01*
X18014286Y-66691190D02*
X18014286Y-67072142D01*
X18014286Y-67072142D02*
X18061905Y-67167380D01*
X18061905Y-67167380D02*
X18109524Y-67215000D01*
X18109524Y-67215000D02*
X18204762Y-67262619D01*
X18204762Y-67262619D02*
X18395238Y-67262619D01*
X18395238Y-67262619D02*
X18490476Y-67215000D01*
X18490476Y-67215000D02*
X18538095Y-67167380D01*
X18538095Y-67167380D02*
X18585714Y-67072142D01*
X18585714Y-67072142D02*
X18585714Y-66834047D01*
X18585714Y-66834047D02*
X18538095Y-66738809D01*
X18538095Y-66738809D02*
X18490476Y-66691190D01*
X18490476Y-66691190D02*
X18395238Y-66643571D01*
X18395238Y-66643571D02*
X18204762Y-66643571D01*
X18204762Y-66643571D02*
X18109524Y-66691190D01*
X18109524Y-66691190D02*
X18061905Y-66738809D01*
X18061905Y-66738809D02*
X18014286Y-66834047D01*
X21118095Y-64916440D02*
X21118095Y-63916440D01*
X21689523Y-64916440D02*
X21260952Y-64345011D01*
X21689523Y-63916440D02*
X21118095Y-64487868D01*
%TO.C,C6*%
X96767380Y-29766666D02*
X96815000Y-29814285D01*
X96815000Y-29814285D02*
X96862619Y-29957142D01*
X96862619Y-29957142D02*
X96862619Y-30052380D01*
X96862619Y-30052380D02*
X96815000Y-30195237D01*
X96815000Y-30195237D02*
X96719761Y-30290475D01*
X96719761Y-30290475D02*
X96624523Y-30338094D01*
X96624523Y-30338094D02*
X96434047Y-30385713D01*
X96434047Y-30385713D02*
X96291190Y-30385713D01*
X96291190Y-30385713D02*
X96100714Y-30338094D01*
X96100714Y-30338094D02*
X96005476Y-30290475D01*
X96005476Y-30290475D02*
X95910238Y-30195237D01*
X95910238Y-30195237D02*
X95862619Y-30052380D01*
X95862619Y-30052380D02*
X95862619Y-29957142D01*
X95862619Y-29957142D02*
X95910238Y-29814285D01*
X95910238Y-29814285D02*
X95957857Y-29766666D01*
X95862619Y-28909523D02*
X95862619Y-29099999D01*
X95862619Y-29099999D02*
X95910238Y-29195237D01*
X95910238Y-29195237D02*
X95957857Y-29242856D01*
X95957857Y-29242856D02*
X96100714Y-29338094D01*
X96100714Y-29338094D02*
X96291190Y-29385713D01*
X96291190Y-29385713D02*
X96672142Y-29385713D01*
X96672142Y-29385713D02*
X96767380Y-29338094D01*
X96767380Y-29338094D02*
X96815000Y-29290475D01*
X96815000Y-29290475D02*
X96862619Y-29195237D01*
X96862619Y-29195237D02*
X96862619Y-29004761D01*
X96862619Y-29004761D02*
X96815000Y-28909523D01*
X96815000Y-28909523D02*
X96767380Y-28861904D01*
X96767380Y-28861904D02*
X96672142Y-28814285D01*
X96672142Y-28814285D02*
X96434047Y-28814285D01*
X96434047Y-28814285D02*
X96338809Y-28861904D01*
X96338809Y-28861904D02*
X96291190Y-28909523D01*
X96291190Y-28909523D02*
X96243571Y-29004761D01*
X96243571Y-29004761D02*
X96243571Y-29195237D01*
X96243571Y-29195237D02*
X96291190Y-29290475D01*
X96291190Y-29290475D02*
X96338809Y-29338094D01*
X96338809Y-29338094D02*
X96434047Y-29385713D01*
%TO.C,D8*%
X17061905Y-73262619D02*
X17061905Y-72262619D01*
X17061905Y-72262619D02*
X17300000Y-72262619D01*
X17300000Y-72262619D02*
X17442857Y-72310238D01*
X17442857Y-72310238D02*
X17538095Y-72405476D01*
X17538095Y-72405476D02*
X17585714Y-72500714D01*
X17585714Y-72500714D02*
X17633333Y-72691190D01*
X17633333Y-72691190D02*
X17633333Y-72834047D01*
X17633333Y-72834047D02*
X17585714Y-73024523D01*
X17585714Y-73024523D02*
X17538095Y-73119761D01*
X17538095Y-73119761D02*
X17442857Y-73215000D01*
X17442857Y-73215000D02*
X17300000Y-73262619D01*
X17300000Y-73262619D02*
X17061905Y-73262619D01*
X18204762Y-72691190D02*
X18109524Y-72643571D01*
X18109524Y-72643571D02*
X18061905Y-72595952D01*
X18061905Y-72595952D02*
X18014286Y-72500714D01*
X18014286Y-72500714D02*
X18014286Y-72453095D01*
X18014286Y-72453095D02*
X18061905Y-72357857D01*
X18061905Y-72357857D02*
X18109524Y-72310238D01*
X18109524Y-72310238D02*
X18204762Y-72262619D01*
X18204762Y-72262619D02*
X18395238Y-72262619D01*
X18395238Y-72262619D02*
X18490476Y-72310238D01*
X18490476Y-72310238D02*
X18538095Y-72357857D01*
X18538095Y-72357857D02*
X18585714Y-72453095D01*
X18585714Y-72453095D02*
X18585714Y-72500714D01*
X18585714Y-72500714D02*
X18538095Y-72595952D01*
X18538095Y-72595952D02*
X18490476Y-72643571D01*
X18490476Y-72643571D02*
X18395238Y-72691190D01*
X18395238Y-72691190D02*
X18204762Y-72691190D01*
X18204762Y-72691190D02*
X18109524Y-72738809D01*
X18109524Y-72738809D02*
X18061905Y-72786428D01*
X18061905Y-72786428D02*
X18014286Y-72881666D01*
X18014286Y-72881666D02*
X18014286Y-73072142D01*
X18014286Y-73072142D02*
X18061905Y-73167380D01*
X18061905Y-73167380D02*
X18109524Y-73215000D01*
X18109524Y-73215000D02*
X18204762Y-73262619D01*
X18204762Y-73262619D02*
X18395238Y-73262619D01*
X18395238Y-73262619D02*
X18490476Y-73215000D01*
X18490476Y-73215000D02*
X18538095Y-73167380D01*
X18538095Y-73167380D02*
X18585714Y-73072142D01*
X18585714Y-73072142D02*
X18585714Y-72881666D01*
X18585714Y-72881666D02*
X18538095Y-72786428D01*
X18538095Y-72786428D02*
X18490476Y-72738809D01*
X18490476Y-72738809D02*
X18395238Y-72691190D01*
X21118095Y-70916440D02*
X21118095Y-69916440D01*
X21689523Y-70916440D02*
X21260952Y-70345011D01*
X21689523Y-69916440D02*
X21118095Y-70487868D01*
%TO.C,C2*%
X61117380Y-37416666D02*
X61165000Y-37464285D01*
X61165000Y-37464285D02*
X61212619Y-37607142D01*
X61212619Y-37607142D02*
X61212619Y-37702380D01*
X61212619Y-37702380D02*
X61165000Y-37845237D01*
X61165000Y-37845237D02*
X61069761Y-37940475D01*
X61069761Y-37940475D02*
X60974523Y-37988094D01*
X60974523Y-37988094D02*
X60784047Y-38035713D01*
X60784047Y-38035713D02*
X60641190Y-38035713D01*
X60641190Y-38035713D02*
X60450714Y-37988094D01*
X60450714Y-37988094D02*
X60355476Y-37940475D01*
X60355476Y-37940475D02*
X60260238Y-37845237D01*
X60260238Y-37845237D02*
X60212619Y-37702380D01*
X60212619Y-37702380D02*
X60212619Y-37607142D01*
X60212619Y-37607142D02*
X60260238Y-37464285D01*
X60260238Y-37464285D02*
X60307857Y-37416666D01*
X60307857Y-37035713D02*
X60260238Y-36988094D01*
X60260238Y-36988094D02*
X60212619Y-36892856D01*
X60212619Y-36892856D02*
X60212619Y-36654761D01*
X60212619Y-36654761D02*
X60260238Y-36559523D01*
X60260238Y-36559523D02*
X60307857Y-36511904D01*
X60307857Y-36511904D02*
X60403095Y-36464285D01*
X60403095Y-36464285D02*
X60498333Y-36464285D01*
X60498333Y-36464285D02*
X60641190Y-36511904D01*
X60641190Y-36511904D02*
X61212619Y-37083332D01*
X61212619Y-37083332D02*
X61212619Y-36464285D01*
%TO.C,J8*%
X98866666Y-63662619D02*
X98866666Y-64376904D01*
X98866666Y-64376904D02*
X98819047Y-64519761D01*
X98819047Y-64519761D02*
X98723809Y-64615000D01*
X98723809Y-64615000D02*
X98580952Y-64662619D01*
X98580952Y-64662619D02*
X98485714Y-64662619D01*
X99485714Y-64091190D02*
X99390476Y-64043571D01*
X99390476Y-64043571D02*
X99342857Y-63995952D01*
X99342857Y-63995952D02*
X99295238Y-63900714D01*
X99295238Y-63900714D02*
X99295238Y-63853095D01*
X99295238Y-63853095D02*
X99342857Y-63757857D01*
X99342857Y-63757857D02*
X99390476Y-63710238D01*
X99390476Y-63710238D02*
X99485714Y-63662619D01*
X99485714Y-63662619D02*
X99676190Y-63662619D01*
X99676190Y-63662619D02*
X99771428Y-63710238D01*
X99771428Y-63710238D02*
X99819047Y-63757857D01*
X99819047Y-63757857D02*
X99866666Y-63853095D01*
X99866666Y-63853095D02*
X99866666Y-63900714D01*
X99866666Y-63900714D02*
X99819047Y-63995952D01*
X99819047Y-63995952D02*
X99771428Y-64043571D01*
X99771428Y-64043571D02*
X99676190Y-64091190D01*
X99676190Y-64091190D02*
X99485714Y-64091190D01*
X99485714Y-64091190D02*
X99390476Y-64138809D01*
X99390476Y-64138809D02*
X99342857Y-64186428D01*
X99342857Y-64186428D02*
X99295238Y-64281666D01*
X99295238Y-64281666D02*
X99295238Y-64472142D01*
X99295238Y-64472142D02*
X99342857Y-64567380D01*
X99342857Y-64567380D02*
X99390476Y-64615000D01*
X99390476Y-64615000D02*
X99485714Y-64662619D01*
X99485714Y-64662619D02*
X99676190Y-64662619D01*
X99676190Y-64662619D02*
X99771428Y-64615000D01*
X99771428Y-64615000D02*
X99819047Y-64567380D01*
X99819047Y-64567380D02*
X99866666Y-64472142D01*
X99866666Y-64472142D02*
X99866666Y-64281666D01*
X99866666Y-64281666D02*
X99819047Y-64186428D01*
X99819047Y-64186428D02*
X99771428Y-64138809D01*
X99771428Y-64138809D02*
X99676190Y-64091190D01*
%TO.C,C4*%
X80117380Y-37416666D02*
X80165000Y-37464285D01*
X80165000Y-37464285D02*
X80212619Y-37607142D01*
X80212619Y-37607142D02*
X80212619Y-37702380D01*
X80212619Y-37702380D02*
X80165000Y-37845237D01*
X80165000Y-37845237D02*
X80069761Y-37940475D01*
X80069761Y-37940475D02*
X79974523Y-37988094D01*
X79974523Y-37988094D02*
X79784047Y-38035713D01*
X79784047Y-38035713D02*
X79641190Y-38035713D01*
X79641190Y-38035713D02*
X79450714Y-37988094D01*
X79450714Y-37988094D02*
X79355476Y-37940475D01*
X79355476Y-37940475D02*
X79260238Y-37845237D01*
X79260238Y-37845237D02*
X79212619Y-37702380D01*
X79212619Y-37702380D02*
X79212619Y-37607142D01*
X79212619Y-37607142D02*
X79260238Y-37464285D01*
X79260238Y-37464285D02*
X79307857Y-37416666D01*
X79545952Y-36559523D02*
X80212619Y-36559523D01*
X79165000Y-36797618D02*
X79879285Y-37035713D01*
X79879285Y-37035713D02*
X79879285Y-36416666D01*
%TO.C,D1*%
X20861905Y-46662619D02*
X20861905Y-45662619D01*
X20861905Y-45662619D02*
X21100000Y-45662619D01*
X21100000Y-45662619D02*
X21242857Y-45710238D01*
X21242857Y-45710238D02*
X21338095Y-45805476D01*
X21338095Y-45805476D02*
X21385714Y-45900714D01*
X21385714Y-45900714D02*
X21433333Y-46091190D01*
X21433333Y-46091190D02*
X21433333Y-46234047D01*
X21433333Y-46234047D02*
X21385714Y-46424523D01*
X21385714Y-46424523D02*
X21338095Y-46519761D01*
X21338095Y-46519761D02*
X21242857Y-46615000D01*
X21242857Y-46615000D02*
X21100000Y-46662619D01*
X21100000Y-46662619D02*
X20861905Y-46662619D01*
X22385714Y-46662619D02*
X21814286Y-46662619D01*
X22100000Y-46662619D02*
X22100000Y-45662619D01*
X22100000Y-45662619D02*
X22004762Y-45805476D01*
X22004762Y-45805476D02*
X21909524Y-45900714D01*
X21909524Y-45900714D02*
X21814286Y-45948333D01*
X17738095Y-40340399D02*
X17738095Y-39340399D01*
X18309523Y-40340399D02*
X17880952Y-39768970D01*
X18309523Y-39340399D02*
X17738095Y-39911827D01*
%TO.C,D4*%
X34061905Y-9462619D02*
X34061905Y-8462619D01*
X34061905Y-8462619D02*
X34300000Y-8462619D01*
X34300000Y-8462619D02*
X34442857Y-8510238D01*
X34442857Y-8510238D02*
X34538095Y-8605476D01*
X34538095Y-8605476D02*
X34585714Y-8700714D01*
X34585714Y-8700714D02*
X34633333Y-8891190D01*
X34633333Y-8891190D02*
X34633333Y-9034047D01*
X34633333Y-9034047D02*
X34585714Y-9224523D01*
X34585714Y-9224523D02*
X34538095Y-9319761D01*
X34538095Y-9319761D02*
X34442857Y-9415000D01*
X34442857Y-9415000D02*
X34300000Y-9462619D01*
X34300000Y-9462619D02*
X34061905Y-9462619D01*
X35490476Y-8795952D02*
X35490476Y-9462619D01*
X35252381Y-8415000D02*
X35014286Y-9129285D01*
X35014286Y-9129285D02*
X35633333Y-9129285D01*
X37738095Y-15540399D02*
X37738095Y-14540399D01*
X38309523Y-15540399D02*
X37880952Y-14968970D01*
X38309523Y-14540399D02*
X37738095Y-15111827D01*
%TO.C,C1*%
X61117380Y-17394446D02*
X61165000Y-17442065D01*
X61165000Y-17442065D02*
X61212619Y-17584922D01*
X61212619Y-17584922D02*
X61212619Y-17680160D01*
X61212619Y-17680160D02*
X61165000Y-17823017D01*
X61165000Y-17823017D02*
X61069761Y-17918255D01*
X61069761Y-17918255D02*
X60974523Y-17965874D01*
X60974523Y-17965874D02*
X60784047Y-18013493D01*
X60784047Y-18013493D02*
X60641190Y-18013493D01*
X60641190Y-18013493D02*
X60450714Y-17965874D01*
X60450714Y-17965874D02*
X60355476Y-17918255D01*
X60355476Y-17918255D02*
X60260238Y-17823017D01*
X60260238Y-17823017D02*
X60212619Y-17680160D01*
X60212619Y-17680160D02*
X60212619Y-17584922D01*
X60212619Y-17584922D02*
X60260238Y-17442065D01*
X60260238Y-17442065D02*
X60307857Y-17394446D01*
X61212619Y-16442065D02*
X61212619Y-17013493D01*
X61212619Y-16727779D02*
X60212619Y-16727779D01*
X60212619Y-16727779D02*
X60355476Y-16823017D01*
X60355476Y-16823017D02*
X60450714Y-16918255D01*
X60450714Y-16918255D02*
X60498333Y-17013493D01*
%TO.C,C5*%
X98967380Y-13966666D02*
X99015000Y-14014285D01*
X99015000Y-14014285D02*
X99062619Y-14157142D01*
X99062619Y-14157142D02*
X99062619Y-14252380D01*
X99062619Y-14252380D02*
X99015000Y-14395237D01*
X99015000Y-14395237D02*
X98919761Y-14490475D01*
X98919761Y-14490475D02*
X98824523Y-14538094D01*
X98824523Y-14538094D02*
X98634047Y-14585713D01*
X98634047Y-14585713D02*
X98491190Y-14585713D01*
X98491190Y-14585713D02*
X98300714Y-14538094D01*
X98300714Y-14538094D02*
X98205476Y-14490475D01*
X98205476Y-14490475D02*
X98110238Y-14395237D01*
X98110238Y-14395237D02*
X98062619Y-14252380D01*
X98062619Y-14252380D02*
X98062619Y-14157142D01*
X98062619Y-14157142D02*
X98110238Y-14014285D01*
X98110238Y-14014285D02*
X98157857Y-13966666D01*
X98062619Y-13061904D02*
X98062619Y-13538094D01*
X98062619Y-13538094D02*
X98538809Y-13585713D01*
X98538809Y-13585713D02*
X98491190Y-13538094D01*
X98491190Y-13538094D02*
X98443571Y-13442856D01*
X98443571Y-13442856D02*
X98443571Y-13204761D01*
X98443571Y-13204761D02*
X98491190Y-13109523D01*
X98491190Y-13109523D02*
X98538809Y-13061904D01*
X98538809Y-13061904D02*
X98634047Y-13014285D01*
X98634047Y-13014285D02*
X98872142Y-13014285D01*
X98872142Y-13014285D02*
X98967380Y-13061904D01*
X98967380Y-13061904D02*
X99015000Y-13109523D01*
X99015000Y-13109523D02*
X99062619Y-13204761D01*
X99062619Y-13204761D02*
X99062619Y-13442856D01*
X99062619Y-13442856D02*
X99015000Y-13538094D01*
X99015000Y-13538094D02*
X98967380Y-13585713D01*
%TO.C,J1*%
X13922619Y-23302333D02*
X14636904Y-23302333D01*
X14636904Y-23302333D02*
X14779761Y-23349952D01*
X14779761Y-23349952D02*
X14875000Y-23445190D01*
X14875000Y-23445190D02*
X14922619Y-23588047D01*
X14922619Y-23588047D02*
X14922619Y-23683285D01*
X14922619Y-22302333D02*
X14922619Y-22873761D01*
X14922619Y-22588047D02*
X13922619Y-22588047D01*
X13922619Y-22588047D02*
X14065476Y-22683285D01*
X14065476Y-22683285D02*
X14160714Y-22778523D01*
X14160714Y-22778523D02*
X14208333Y-22873761D01*
%TO.C,D7*%
X17461905Y-60862619D02*
X17461905Y-59862619D01*
X17461905Y-59862619D02*
X17700000Y-59862619D01*
X17700000Y-59862619D02*
X17842857Y-59910238D01*
X17842857Y-59910238D02*
X17938095Y-60005476D01*
X17938095Y-60005476D02*
X17985714Y-60100714D01*
X17985714Y-60100714D02*
X18033333Y-60291190D01*
X18033333Y-60291190D02*
X18033333Y-60434047D01*
X18033333Y-60434047D02*
X17985714Y-60624523D01*
X17985714Y-60624523D02*
X17938095Y-60719761D01*
X17938095Y-60719761D02*
X17842857Y-60815000D01*
X17842857Y-60815000D02*
X17700000Y-60862619D01*
X17700000Y-60862619D02*
X17461905Y-60862619D01*
X18366667Y-59862619D02*
X19033333Y-59862619D01*
X19033333Y-59862619D02*
X18604762Y-60862619D01*
X36358095Y-63316440D02*
X36358095Y-62316440D01*
X36929523Y-63316440D02*
X36500952Y-62745011D01*
X36929523Y-62316440D02*
X36358095Y-62887868D01*
%TO.C,U1*%
X81608095Y-71752619D02*
X81608095Y-72562142D01*
X81608095Y-72562142D02*
X81655714Y-72657380D01*
X81655714Y-72657380D02*
X81703333Y-72705000D01*
X81703333Y-72705000D02*
X81798571Y-72752619D01*
X81798571Y-72752619D02*
X81989047Y-72752619D01*
X81989047Y-72752619D02*
X82084285Y-72705000D01*
X82084285Y-72705000D02*
X82131904Y-72657380D01*
X82131904Y-72657380D02*
X82179523Y-72562142D01*
X82179523Y-72562142D02*
X82179523Y-71752619D01*
X83179523Y-72752619D02*
X82608095Y-72752619D01*
X82893809Y-72752619D02*
X82893809Y-71752619D01*
X82893809Y-71752619D02*
X82798571Y-71895476D01*
X82798571Y-71895476D02*
X82703333Y-71990714D01*
X82703333Y-71990714D02*
X82608095Y-72038333D01*
%TO.C,D3*%
X20861905Y-36262619D02*
X20861905Y-35262619D01*
X20861905Y-35262619D02*
X21100000Y-35262619D01*
X21100000Y-35262619D02*
X21242857Y-35310238D01*
X21242857Y-35310238D02*
X21338095Y-35405476D01*
X21338095Y-35405476D02*
X21385714Y-35500714D01*
X21385714Y-35500714D02*
X21433333Y-35691190D01*
X21433333Y-35691190D02*
X21433333Y-35834047D01*
X21433333Y-35834047D02*
X21385714Y-36024523D01*
X21385714Y-36024523D02*
X21338095Y-36119761D01*
X21338095Y-36119761D02*
X21242857Y-36215000D01*
X21242857Y-36215000D02*
X21100000Y-36262619D01*
X21100000Y-36262619D02*
X20861905Y-36262619D01*
X21766667Y-35262619D02*
X22385714Y-35262619D01*
X22385714Y-35262619D02*
X22052381Y-35643571D01*
X22052381Y-35643571D02*
X22195238Y-35643571D01*
X22195238Y-35643571D02*
X22290476Y-35691190D01*
X22290476Y-35691190D02*
X22338095Y-35738809D01*
X22338095Y-35738809D02*
X22385714Y-35834047D01*
X22385714Y-35834047D02*
X22385714Y-36072142D01*
X22385714Y-36072142D02*
X22338095Y-36167380D01*
X22338095Y-36167380D02*
X22290476Y-36215000D01*
X22290476Y-36215000D02*
X22195238Y-36262619D01*
X22195238Y-36262619D02*
X21909524Y-36262619D01*
X21909524Y-36262619D02*
X21814286Y-36215000D01*
X21814286Y-36215000D02*
X21766667Y-36167380D01*
X17738095Y-30340399D02*
X17738095Y-29340399D01*
X18309523Y-30340399D02*
X17880952Y-29768970D01*
X18309523Y-29340399D02*
X17738095Y-29911827D01*
%TO.C,J5*%
X99266666Y-35462619D02*
X99266666Y-36176904D01*
X99266666Y-36176904D02*
X99219047Y-36319761D01*
X99219047Y-36319761D02*
X99123809Y-36415000D01*
X99123809Y-36415000D02*
X98980952Y-36462619D01*
X98980952Y-36462619D02*
X98885714Y-36462619D01*
X100219047Y-35462619D02*
X99742857Y-35462619D01*
X99742857Y-35462619D02*
X99695238Y-35938809D01*
X99695238Y-35938809D02*
X99742857Y-35891190D01*
X99742857Y-35891190D02*
X99838095Y-35843571D01*
X99838095Y-35843571D02*
X100076190Y-35843571D01*
X100076190Y-35843571D02*
X100171428Y-35891190D01*
X100171428Y-35891190D02*
X100219047Y-35938809D01*
X100219047Y-35938809D02*
X100266666Y-36034047D01*
X100266666Y-36034047D02*
X100266666Y-36272142D01*
X100266666Y-36272142D02*
X100219047Y-36367380D01*
X100219047Y-36367380D02*
X100171428Y-36415000D01*
X100171428Y-36415000D02*
X100076190Y-36462619D01*
X100076190Y-36462619D02*
X99838095Y-36462619D01*
X99838095Y-36462619D02*
X99742857Y-36415000D01*
X99742857Y-36415000D02*
X99695238Y-36367380D01*
%TO.C,C7*%
X54617380Y-56320487D02*
X54665000Y-56368106D01*
X54665000Y-56368106D02*
X54712619Y-56510963D01*
X54712619Y-56510963D02*
X54712619Y-56606201D01*
X54712619Y-56606201D02*
X54665000Y-56749058D01*
X54665000Y-56749058D02*
X54569761Y-56844296D01*
X54569761Y-56844296D02*
X54474523Y-56891915D01*
X54474523Y-56891915D02*
X54284047Y-56939534D01*
X54284047Y-56939534D02*
X54141190Y-56939534D01*
X54141190Y-56939534D02*
X53950714Y-56891915D01*
X53950714Y-56891915D02*
X53855476Y-56844296D01*
X53855476Y-56844296D02*
X53760238Y-56749058D01*
X53760238Y-56749058D02*
X53712619Y-56606201D01*
X53712619Y-56606201D02*
X53712619Y-56510963D01*
X53712619Y-56510963D02*
X53760238Y-56368106D01*
X53760238Y-56368106D02*
X53807857Y-56320487D01*
X53712619Y-55987153D02*
X53712619Y-55320487D01*
X53712619Y-55320487D02*
X54712619Y-55749058D01*
%TO.C,J3*%
X99466666Y-18462619D02*
X99466666Y-19176904D01*
X99466666Y-19176904D02*
X99419047Y-19319761D01*
X99419047Y-19319761D02*
X99323809Y-19415000D01*
X99323809Y-19415000D02*
X99180952Y-19462619D01*
X99180952Y-19462619D02*
X99085714Y-19462619D01*
X99847619Y-18462619D02*
X100466666Y-18462619D01*
X100466666Y-18462619D02*
X100133333Y-18843571D01*
X100133333Y-18843571D02*
X100276190Y-18843571D01*
X100276190Y-18843571D02*
X100371428Y-18891190D01*
X100371428Y-18891190D02*
X100419047Y-18938809D01*
X100419047Y-18938809D02*
X100466666Y-19034047D01*
X100466666Y-19034047D02*
X100466666Y-19272142D01*
X100466666Y-19272142D02*
X100419047Y-19367380D01*
X100419047Y-19367380D02*
X100371428Y-19415000D01*
X100371428Y-19415000D02*
X100276190Y-19462619D01*
X100276190Y-19462619D02*
X99990476Y-19462619D01*
X99990476Y-19462619D02*
X99895238Y-19415000D01*
X99895238Y-19415000D02*
X99847619Y-19367380D01*
%TO.C,J7*%
X98866666Y-55462619D02*
X98866666Y-56176904D01*
X98866666Y-56176904D02*
X98819047Y-56319761D01*
X98819047Y-56319761D02*
X98723809Y-56415000D01*
X98723809Y-56415000D02*
X98580952Y-56462619D01*
X98580952Y-56462619D02*
X98485714Y-56462619D01*
X99247619Y-55462619D02*
X99914285Y-55462619D01*
X99914285Y-55462619D02*
X99485714Y-56462619D01*
%TO.C,D5*%
X34861905Y-51862619D02*
X34861905Y-50862619D01*
X34861905Y-50862619D02*
X35100000Y-50862619D01*
X35100000Y-50862619D02*
X35242857Y-50910238D01*
X35242857Y-50910238D02*
X35338095Y-51005476D01*
X35338095Y-51005476D02*
X35385714Y-51100714D01*
X35385714Y-51100714D02*
X35433333Y-51291190D01*
X35433333Y-51291190D02*
X35433333Y-51434047D01*
X35433333Y-51434047D02*
X35385714Y-51624523D01*
X35385714Y-51624523D02*
X35338095Y-51719761D01*
X35338095Y-51719761D02*
X35242857Y-51815000D01*
X35242857Y-51815000D02*
X35100000Y-51862619D01*
X35100000Y-51862619D02*
X34861905Y-51862619D01*
X36338095Y-50862619D02*
X35861905Y-50862619D01*
X35861905Y-50862619D02*
X35814286Y-51338809D01*
X35814286Y-51338809D02*
X35861905Y-51291190D01*
X35861905Y-51291190D02*
X35957143Y-51243571D01*
X35957143Y-51243571D02*
X36195238Y-51243571D01*
X36195238Y-51243571D02*
X36290476Y-51291190D01*
X36290476Y-51291190D02*
X36338095Y-51338809D01*
X36338095Y-51338809D02*
X36385714Y-51434047D01*
X36385714Y-51434047D02*
X36385714Y-51672142D01*
X36385714Y-51672142D02*
X36338095Y-51767380D01*
X36338095Y-51767380D02*
X36290476Y-51815000D01*
X36290476Y-51815000D02*
X36195238Y-51862619D01*
X36195238Y-51862619D02*
X35957143Y-51862619D01*
X35957143Y-51862619D02*
X35861905Y-51815000D01*
X35861905Y-51815000D02*
X35814286Y-51767380D01*
X36358095Y-57316440D02*
X36358095Y-56316440D01*
X36929523Y-57316440D02*
X36500952Y-56745011D01*
X36929523Y-56316440D02*
X36358095Y-56887868D01*
%TO.C,C12*%
X94587380Y-54682857D02*
X94635000Y-54730476D01*
X94635000Y-54730476D02*
X94682619Y-54873333D01*
X94682619Y-54873333D02*
X94682619Y-54968571D01*
X94682619Y-54968571D02*
X94635000Y-55111428D01*
X94635000Y-55111428D02*
X94539761Y-55206666D01*
X94539761Y-55206666D02*
X94444523Y-55254285D01*
X94444523Y-55254285D02*
X94254047Y-55301904D01*
X94254047Y-55301904D02*
X94111190Y-55301904D01*
X94111190Y-55301904D02*
X93920714Y-55254285D01*
X93920714Y-55254285D02*
X93825476Y-55206666D01*
X93825476Y-55206666D02*
X93730238Y-55111428D01*
X93730238Y-55111428D02*
X93682619Y-54968571D01*
X93682619Y-54968571D02*
X93682619Y-54873333D01*
X93682619Y-54873333D02*
X93730238Y-54730476D01*
X93730238Y-54730476D02*
X93777857Y-54682857D01*
X94682619Y-53730476D02*
X94682619Y-54301904D01*
X94682619Y-54016190D02*
X93682619Y-54016190D01*
X93682619Y-54016190D02*
X93825476Y-54111428D01*
X93825476Y-54111428D02*
X93920714Y-54206666D01*
X93920714Y-54206666D02*
X93968333Y-54301904D01*
X93777857Y-53349523D02*
X93730238Y-53301904D01*
X93730238Y-53301904D02*
X93682619Y-53206666D01*
X93682619Y-53206666D02*
X93682619Y-52968571D01*
X93682619Y-52968571D02*
X93730238Y-52873333D01*
X93730238Y-52873333D02*
X93777857Y-52825714D01*
X93777857Y-52825714D02*
X93873095Y-52778095D01*
X93873095Y-52778095D02*
X93968333Y-52778095D01*
X93968333Y-52778095D02*
X94111190Y-52825714D01*
X94111190Y-52825714D02*
X94682619Y-53397142D01*
X94682619Y-53397142D02*
X94682619Y-52778095D01*
D14*
%TO.C,C9*%
X64715000Y-49069252D02*
X64715000Y-50369252D01*
X65365000Y-49719252D02*
X64065000Y-49719252D01*
X67580000Y-56153821D02*
X54420000Y-56153821D01*
X67580000Y-56193821D02*
X54420000Y-56193821D01*
X67580000Y-56233821D02*
X54420000Y-56233821D01*
X67579000Y-56273821D02*
X54421000Y-56273821D01*
X67579000Y-56313821D02*
X54421000Y-56313821D01*
X67577000Y-56353821D02*
X54423000Y-56353821D01*
X67576000Y-56393821D02*
X54424000Y-56393821D01*
X67575000Y-56433821D02*
X54425000Y-56433821D01*
X67573000Y-56473821D02*
X54427000Y-56473821D01*
X67571000Y-56513821D02*
X54429000Y-56513821D01*
X67568000Y-56553821D02*
X54432000Y-56553821D01*
X67566000Y-56593821D02*
X54434000Y-56593821D01*
X67563000Y-56633821D02*
X54437000Y-56633821D01*
X67560000Y-56673821D02*
X54440000Y-56673821D01*
X67557000Y-56713821D02*
X54443000Y-56713821D01*
X67553000Y-56753821D02*
X54447000Y-56753821D01*
X67549000Y-56793821D02*
X54451000Y-56793821D01*
X67545000Y-56833821D02*
X54455000Y-56833821D01*
X67541000Y-56874821D02*
X54459000Y-56874821D01*
X67537000Y-56914821D02*
X54463000Y-56914821D01*
X67532000Y-56954821D02*
X54468000Y-56954821D01*
X67527000Y-56994821D02*
X54473000Y-56994821D01*
X67522000Y-57034821D02*
X54478000Y-57034821D01*
X67516000Y-57074821D02*
X54484000Y-57074821D01*
X67511000Y-57114821D02*
X54489000Y-57114821D01*
X67505000Y-57154821D02*
X54495000Y-57154821D01*
X67498000Y-57194821D02*
X54502000Y-57194821D01*
X67492000Y-57234821D02*
X62440000Y-57234821D01*
X59560000Y-57234821D02*
X54508000Y-57234821D01*
X67485000Y-57274821D02*
X62440000Y-57274821D01*
X59560000Y-57274821D02*
X54515000Y-57274821D01*
X67478000Y-57314821D02*
X62440000Y-57314821D01*
X59560000Y-57314821D02*
X54522000Y-57314821D01*
X67471000Y-57354821D02*
X62440000Y-57354821D01*
X59560000Y-57354821D02*
X54529000Y-57354821D01*
X67463000Y-57394821D02*
X62440000Y-57394821D01*
X59560000Y-57394821D02*
X54537000Y-57394821D01*
X67456000Y-57434821D02*
X62440000Y-57434821D01*
X59560000Y-57434821D02*
X54544000Y-57434821D01*
X67448000Y-57474821D02*
X62440000Y-57474821D01*
X59560000Y-57474821D02*
X54552000Y-57474821D01*
X67439000Y-57514821D02*
X62440000Y-57514821D01*
X59560000Y-57514821D02*
X54561000Y-57514821D01*
X67431000Y-57554821D02*
X62440000Y-57554821D01*
X59560000Y-57554821D02*
X54569000Y-57554821D01*
X67422000Y-57594821D02*
X62440000Y-57594821D01*
X59560000Y-57594821D02*
X54578000Y-57594821D01*
X67413000Y-57634821D02*
X62440000Y-57634821D01*
X59560000Y-57634821D02*
X54587000Y-57634821D01*
X67404000Y-57674821D02*
X62440000Y-57674821D01*
X59560000Y-57674821D02*
X54596000Y-57674821D01*
X67394000Y-57714821D02*
X62440000Y-57714821D01*
X59560000Y-57714821D02*
X54606000Y-57714821D01*
X67384000Y-57754821D02*
X62440000Y-57754821D01*
X59560000Y-57754821D02*
X54616000Y-57754821D01*
X67374000Y-57794821D02*
X62440000Y-57794821D01*
X59560000Y-57794821D02*
X54626000Y-57794821D01*
X67364000Y-57834821D02*
X62440000Y-57834821D01*
X59560000Y-57834821D02*
X54636000Y-57834821D01*
X67353000Y-57874821D02*
X62440000Y-57874821D01*
X59560000Y-57874821D02*
X54647000Y-57874821D01*
X67342000Y-57914821D02*
X62440000Y-57914821D01*
X59560000Y-57914821D02*
X54658000Y-57914821D01*
X67331000Y-57954821D02*
X62440000Y-57954821D01*
X59560000Y-57954821D02*
X54669000Y-57954821D01*
X67320000Y-57994821D02*
X62440000Y-57994821D01*
X59560000Y-57994821D02*
X54680000Y-57994821D01*
X67308000Y-58034821D02*
X62440000Y-58034821D01*
X59560000Y-58034821D02*
X54692000Y-58034821D01*
X67296000Y-58074821D02*
X62440000Y-58074821D01*
X59560000Y-58074821D02*
X54704000Y-58074821D01*
X67284000Y-58114821D02*
X62440000Y-58114821D01*
X59560000Y-58114821D02*
X54716000Y-58114821D01*
X67271000Y-58154821D02*
X62440000Y-58154821D01*
X59560000Y-58154821D02*
X54729000Y-58154821D01*
X67258000Y-58194821D02*
X62440000Y-58194821D01*
X59560000Y-58194821D02*
X54742000Y-58194821D01*
X67245000Y-58234821D02*
X62440000Y-58234821D01*
X59560000Y-58234821D02*
X54755000Y-58234821D01*
X67232000Y-58274821D02*
X62440000Y-58274821D01*
X59560000Y-58274821D02*
X54768000Y-58274821D01*
X67218000Y-58314821D02*
X62440000Y-58314821D01*
X59560000Y-58314821D02*
X54782000Y-58314821D01*
X67204000Y-58354821D02*
X62440000Y-58354821D01*
X59560000Y-58354821D02*
X54796000Y-58354821D01*
X67190000Y-58394821D02*
X62440000Y-58394821D01*
X59560000Y-58394821D02*
X54810000Y-58394821D01*
X67175000Y-58434821D02*
X62440000Y-58434821D01*
X59560000Y-58434821D02*
X54825000Y-58434821D01*
X67161000Y-58474821D02*
X62440000Y-58474821D01*
X59560000Y-58474821D02*
X54839000Y-58474821D01*
X67146000Y-58514821D02*
X62440000Y-58514821D01*
X59560000Y-58514821D02*
X54854000Y-58514821D01*
X67130000Y-58554821D02*
X62440000Y-58554821D01*
X59560000Y-58554821D02*
X54870000Y-58554821D01*
X67114000Y-58594821D02*
X62440000Y-58594821D01*
X59560000Y-58594821D02*
X54886000Y-58594821D01*
X67098000Y-58634821D02*
X62440000Y-58634821D01*
X59560000Y-58634821D02*
X54902000Y-58634821D01*
X67082000Y-58674821D02*
X62440000Y-58674821D01*
X59560000Y-58674821D02*
X54918000Y-58674821D01*
X67065000Y-58714821D02*
X62440000Y-58714821D01*
X59560000Y-58714821D02*
X54935000Y-58714821D01*
X67049000Y-58754821D02*
X62440000Y-58754821D01*
X59560000Y-58754821D02*
X54951000Y-58754821D01*
X67031000Y-58794821D02*
X62440000Y-58794821D01*
X59560000Y-58794821D02*
X54969000Y-58794821D01*
X67014000Y-58834821D02*
X62440000Y-58834821D01*
X59560000Y-58834821D02*
X54986000Y-58834821D01*
X66996000Y-58874821D02*
X62440000Y-58874821D01*
X59560000Y-58874821D02*
X55004000Y-58874821D01*
X66978000Y-58914821D02*
X62440000Y-58914821D01*
X59560000Y-58914821D02*
X55022000Y-58914821D01*
X66959000Y-58954821D02*
X62440000Y-58954821D01*
X59560000Y-58954821D02*
X55041000Y-58954821D01*
X66940000Y-58994821D02*
X62440000Y-58994821D01*
X59560000Y-58994821D02*
X55060000Y-58994821D01*
X66921000Y-59034821D02*
X62440000Y-59034821D01*
X59560000Y-59034821D02*
X55079000Y-59034821D01*
X66902000Y-59074821D02*
X62440000Y-59074821D01*
X59560000Y-59074821D02*
X55098000Y-59074821D01*
X66882000Y-59114821D02*
X62440000Y-59114821D01*
X59560000Y-59114821D02*
X55118000Y-59114821D01*
X66862000Y-59154821D02*
X62440000Y-59154821D01*
X59560000Y-59154821D02*
X55138000Y-59154821D01*
X66841000Y-59194821D02*
X62440000Y-59194821D01*
X59560000Y-59194821D02*
X55159000Y-59194821D01*
X66820000Y-59234821D02*
X62440000Y-59234821D01*
X59560000Y-59234821D02*
X55180000Y-59234821D01*
X66799000Y-59274821D02*
X62440000Y-59274821D01*
X59560000Y-59274821D02*
X55201000Y-59274821D01*
X66778000Y-59314821D02*
X62440000Y-59314821D01*
X59560000Y-59314821D02*
X55222000Y-59314821D01*
X66756000Y-59354821D02*
X62440000Y-59354821D01*
X59560000Y-59354821D02*
X55244000Y-59354821D01*
X66733000Y-59394821D02*
X62440000Y-59394821D01*
X59560000Y-59394821D02*
X55267000Y-59394821D01*
X66711000Y-59434821D02*
X62440000Y-59434821D01*
X59560000Y-59434821D02*
X55289000Y-59434821D01*
X66688000Y-59474821D02*
X62440000Y-59474821D01*
X59560000Y-59474821D02*
X55312000Y-59474821D01*
X66664000Y-59514821D02*
X62440000Y-59514821D01*
X59560000Y-59514821D02*
X55336000Y-59514821D01*
X66641000Y-59554821D02*
X62440000Y-59554821D01*
X59560000Y-59554821D02*
X55359000Y-59554821D01*
X66617000Y-59594821D02*
X62440000Y-59594821D01*
X59560000Y-59594821D02*
X55383000Y-59594821D01*
X66592000Y-59634821D02*
X62440000Y-59634821D01*
X59560000Y-59634821D02*
X55408000Y-59634821D01*
X66567000Y-59674821D02*
X62440000Y-59674821D01*
X59560000Y-59674821D02*
X55433000Y-59674821D01*
X66542000Y-59714821D02*
X62440000Y-59714821D01*
X59560000Y-59714821D02*
X55458000Y-59714821D01*
X66516000Y-59754821D02*
X62440000Y-59754821D01*
X59560000Y-59754821D02*
X55484000Y-59754821D01*
X66490000Y-59794821D02*
X62440000Y-59794821D01*
X59560000Y-59794821D02*
X55510000Y-59794821D01*
X66463000Y-59834821D02*
X62440000Y-59834821D01*
X59560000Y-59834821D02*
X55537000Y-59834821D01*
X66436000Y-59874821D02*
X62440000Y-59874821D01*
X59560000Y-59874821D02*
X55564000Y-59874821D01*
X66409000Y-59914821D02*
X62440000Y-59914821D01*
X59560000Y-59914821D02*
X55591000Y-59914821D01*
X66381000Y-59954821D02*
X62440000Y-59954821D01*
X59560000Y-59954821D02*
X55619000Y-59954821D01*
X66353000Y-59994821D02*
X62440000Y-59994821D01*
X59560000Y-59994821D02*
X55647000Y-59994821D01*
X66324000Y-60034821D02*
X62440000Y-60034821D01*
X59560000Y-60034821D02*
X55676000Y-60034821D01*
X66295000Y-60074821D02*
X62440000Y-60074821D01*
X59560000Y-60074821D02*
X55705000Y-60074821D01*
X66265000Y-60114821D02*
X55735000Y-60114821D01*
X66235000Y-60154821D02*
X55765000Y-60154821D01*
X66205000Y-60194821D02*
X55795000Y-60194821D01*
X66174000Y-60234821D02*
X55826000Y-60234821D01*
X66142000Y-60274821D02*
X55858000Y-60274821D01*
X66110000Y-60314821D02*
X55890000Y-60314821D01*
X66078000Y-60354821D02*
X55922000Y-60354821D01*
X66044000Y-60394821D02*
X55956000Y-60394821D01*
X66011000Y-60434821D02*
X55989000Y-60434821D01*
X65977000Y-60474821D02*
X56023000Y-60474821D01*
X65942000Y-60514821D02*
X56058000Y-60514821D01*
X65907000Y-60554821D02*
X56093000Y-60554821D01*
X65871000Y-60594821D02*
X56129000Y-60594821D01*
X65834000Y-60634821D02*
X56166000Y-60634821D01*
X65797000Y-60674821D02*
X56203000Y-60674821D01*
X65760000Y-60714821D02*
X56240000Y-60714821D01*
X65721000Y-60754821D02*
X56279000Y-60754821D01*
X65682000Y-60794821D02*
X56318000Y-60794821D01*
X65643000Y-60834821D02*
X56357000Y-60834821D01*
X65602000Y-60874821D02*
X56398000Y-60874821D01*
X65561000Y-60914821D02*
X56439000Y-60914821D01*
X65519000Y-60954821D02*
X56481000Y-60954821D01*
X65477000Y-60994821D02*
X56523000Y-60994821D01*
X65434000Y-61034821D02*
X56566000Y-61034821D01*
X65390000Y-61074821D02*
X56610000Y-61074821D01*
X65345000Y-61114821D02*
X56655000Y-61114821D01*
X65299000Y-61154821D02*
X56701000Y-61154821D01*
X65253000Y-61194821D02*
X56747000Y-61194821D01*
X65205000Y-61234821D02*
X56795000Y-61234821D01*
X65157000Y-61274821D02*
X56843000Y-61274821D01*
X65108000Y-61314821D02*
X56892000Y-61314821D01*
X65057000Y-61354821D02*
X56943000Y-61354821D01*
X65006000Y-61394821D02*
X56994000Y-61394821D01*
X64954000Y-61434821D02*
X57046000Y-61434821D01*
X64900000Y-61474821D02*
X57100000Y-61474821D01*
X64846000Y-61514821D02*
X57154000Y-61514821D01*
X64790000Y-61554821D02*
X57210000Y-61554821D01*
X64733000Y-61594821D02*
X57267000Y-61594821D01*
X64675000Y-61634821D02*
X57325000Y-61634821D01*
X64615000Y-61674821D02*
X57385000Y-61674821D01*
X64554000Y-61714821D02*
X57446000Y-61714821D01*
X64491000Y-61754821D02*
X57509000Y-61754821D01*
X64427000Y-61794821D02*
X57573000Y-61794821D01*
X64361000Y-61834821D02*
X57639000Y-61834821D01*
X64293000Y-61874821D02*
X57707000Y-61874821D01*
X64223000Y-61914821D02*
X57777000Y-61914821D01*
X64152000Y-61954821D02*
X57848000Y-61954821D01*
X64078000Y-61994821D02*
X57922000Y-61994821D01*
X64002000Y-62034821D02*
X57998000Y-62034821D01*
X63923000Y-62074821D02*
X58077000Y-62074821D01*
X63842000Y-62114821D02*
X58158000Y-62114821D01*
X63758000Y-62154821D02*
X58242000Y-62154821D01*
X63670000Y-62194821D02*
X58330000Y-62194821D01*
X63579000Y-62234821D02*
X58421000Y-62234821D01*
X63484000Y-62274821D02*
X58516000Y-62274821D01*
X63385000Y-62314821D02*
X58615000Y-62314821D01*
X63281000Y-62354821D02*
X58719000Y-62354821D01*
X63171000Y-62394821D02*
X58829000Y-62394821D01*
X63055000Y-62434821D02*
X58945000Y-62434821D01*
X62931000Y-62474821D02*
X59069000Y-62474821D01*
X62798000Y-62514821D02*
X59202000Y-62514821D01*
X62653000Y-62554821D02*
X59347000Y-62554821D01*
X62494000Y-62594821D02*
X59506000Y-62594821D01*
X62315000Y-62634821D02*
X59685000Y-62634821D01*
X62107000Y-62674821D02*
X59893000Y-62674821D01*
X61850000Y-62714821D02*
X60150000Y-62714821D01*
X61475000Y-62754821D02*
X60525000Y-62754821D01*
X67620000Y-56153821D02*
G75*
G03*
X67620000Y-56153821I-6620000J0D01*
G01*
%TO.C,C3*%
X75055000Y-8538289D02*
X75055000Y-10138289D01*
X75855000Y-9338289D02*
X74255000Y-9338289D01*
X78581000Y-17227780D02*
X62419000Y-17227780D01*
X78580000Y-17267780D02*
X62420000Y-17267780D01*
X78580000Y-17307780D02*
X62420000Y-17307780D01*
X78580000Y-17347780D02*
X62420000Y-17347780D01*
X78579000Y-17387780D02*
X62421000Y-17387780D01*
X78578000Y-17427780D02*
X62422000Y-17427780D01*
X78577000Y-17467780D02*
X62423000Y-17467780D01*
X78576000Y-17507780D02*
X62424000Y-17507780D01*
X78574000Y-17547780D02*
X62426000Y-17547780D01*
X78573000Y-17587780D02*
X62427000Y-17587780D01*
X78571000Y-17627780D02*
X62429000Y-17627780D01*
X78569000Y-17667780D02*
X62431000Y-17667780D01*
X78566000Y-17707780D02*
X62434000Y-17707780D01*
X78564000Y-17747780D02*
X62436000Y-17747780D01*
X78561000Y-17787780D02*
X62439000Y-17787780D01*
X78558000Y-17827780D02*
X62442000Y-17827780D01*
X78555000Y-17867780D02*
X62445000Y-17867780D01*
X78552000Y-17907780D02*
X62448000Y-17907780D01*
X78549000Y-17948780D02*
X62451000Y-17948780D01*
X78545000Y-17988780D02*
X62455000Y-17988780D01*
X78541000Y-18028780D02*
X62459000Y-18028780D01*
X78537000Y-18068780D02*
X62463000Y-18068780D01*
X78533000Y-18108780D02*
X62467000Y-18108780D01*
X78528000Y-18148780D02*
X62472000Y-18148780D01*
X78524000Y-18188780D02*
X62476000Y-18188780D01*
X78519000Y-18228780D02*
X62481000Y-18228780D01*
X78514000Y-18268780D02*
X62486000Y-18268780D01*
X78508000Y-18308780D02*
X62492000Y-18308780D01*
X78503000Y-18348780D02*
X62497000Y-18348780D01*
X78497000Y-18388780D02*
X62503000Y-18388780D01*
X78491000Y-18428780D02*
X62509000Y-18428780D01*
X78485000Y-18468780D02*
X62515000Y-18468780D01*
X78479000Y-18508780D02*
X62521000Y-18508780D01*
X78472000Y-18548780D02*
X62528000Y-18548780D01*
X78466000Y-18588780D02*
X62534000Y-18588780D01*
X78459000Y-18628780D02*
X62541000Y-18628780D01*
X78452000Y-18668780D02*
X62548000Y-18668780D01*
X78444000Y-18708780D02*
X62556000Y-18708780D01*
X78437000Y-18748780D02*
X62563000Y-18748780D01*
X78429000Y-18788780D02*
X62571000Y-18788780D01*
X78421000Y-18828780D02*
X62579000Y-18828780D01*
X78413000Y-18868780D02*
X62587000Y-18868780D01*
X78405000Y-18908780D02*
X62595000Y-18908780D01*
X78396000Y-18948780D02*
X62604000Y-18948780D01*
X78387000Y-18988780D02*
X62613000Y-18988780D01*
X78378000Y-19028780D02*
X62622000Y-19028780D01*
X78369000Y-19068780D02*
X62631000Y-19068780D01*
X78360000Y-19108780D02*
X62640000Y-19108780D01*
X78350000Y-19148780D02*
X62650000Y-19148780D01*
X78340000Y-19188780D02*
X62660000Y-19188780D01*
X78330000Y-19228780D02*
X62670000Y-19228780D01*
X78320000Y-19268780D02*
X62680000Y-19268780D01*
X78310000Y-19308780D02*
X62690000Y-19308780D01*
X78299000Y-19348780D02*
X62701000Y-19348780D01*
X78288000Y-19388780D02*
X62712000Y-19388780D01*
X78277000Y-19428780D02*
X62723000Y-19428780D01*
X78265000Y-19468780D02*
X62735000Y-19468780D01*
X78254000Y-19508780D02*
X62746000Y-19508780D01*
X78242000Y-19548780D02*
X71940000Y-19548780D01*
X69060000Y-19548780D02*
X62758000Y-19548780D01*
X78230000Y-19588780D02*
X71940000Y-19588780D01*
X69060000Y-19588780D02*
X62770000Y-19588780D01*
X78218000Y-19628780D02*
X71940000Y-19628780D01*
X69060000Y-19628780D02*
X62782000Y-19628780D01*
X78205000Y-19668780D02*
X71940000Y-19668780D01*
X69060000Y-19668780D02*
X62795000Y-19668780D01*
X78193000Y-19708780D02*
X71940000Y-19708780D01*
X69060000Y-19708780D02*
X62807000Y-19708780D01*
X78180000Y-19748780D02*
X71940000Y-19748780D01*
X69060000Y-19748780D02*
X62820000Y-19748780D01*
X78166000Y-19788780D02*
X71940000Y-19788780D01*
X69060000Y-19788780D02*
X62834000Y-19788780D01*
X78153000Y-19828780D02*
X71940000Y-19828780D01*
X69060000Y-19828780D02*
X62847000Y-19828780D01*
X78139000Y-19868780D02*
X71940000Y-19868780D01*
X69060000Y-19868780D02*
X62861000Y-19868780D01*
X78125000Y-19908780D02*
X71940000Y-19908780D01*
X69060000Y-19908780D02*
X62875000Y-19908780D01*
X78111000Y-19948780D02*
X71940000Y-19948780D01*
X69060000Y-19948780D02*
X62889000Y-19948780D01*
X78097000Y-19988780D02*
X71940000Y-19988780D01*
X69060000Y-19988780D02*
X62903000Y-19988780D01*
X78082000Y-20028780D02*
X71940000Y-20028780D01*
X69060000Y-20028780D02*
X62918000Y-20028780D01*
X78068000Y-20068780D02*
X71940000Y-20068780D01*
X69060000Y-20068780D02*
X62932000Y-20068780D01*
X78053000Y-20108780D02*
X71940000Y-20108780D01*
X69060000Y-20108780D02*
X62947000Y-20108780D01*
X78037000Y-20148780D02*
X71940000Y-20148780D01*
X69060000Y-20148780D02*
X62963000Y-20148780D01*
X78022000Y-20188780D02*
X71940000Y-20188780D01*
X69060000Y-20188780D02*
X62978000Y-20188780D01*
X78006000Y-20228780D02*
X71940000Y-20228780D01*
X69060000Y-20228780D02*
X62994000Y-20228780D01*
X77990000Y-20268780D02*
X71940000Y-20268780D01*
X69060000Y-20268780D02*
X63010000Y-20268780D01*
X77974000Y-20308780D02*
X71940000Y-20308780D01*
X69060000Y-20308780D02*
X63026000Y-20308780D01*
X77957000Y-20348780D02*
X71940000Y-20348780D01*
X69060000Y-20348780D02*
X63043000Y-20348780D01*
X77940000Y-20388780D02*
X71940000Y-20388780D01*
X69060000Y-20388780D02*
X63060000Y-20388780D01*
X77923000Y-20428780D02*
X71940000Y-20428780D01*
X69060000Y-20428780D02*
X63077000Y-20428780D01*
X77906000Y-20468780D02*
X71940000Y-20468780D01*
X69060000Y-20468780D02*
X63094000Y-20468780D01*
X77889000Y-20508780D02*
X71940000Y-20508780D01*
X69060000Y-20508780D02*
X63111000Y-20508780D01*
X77871000Y-20548780D02*
X71940000Y-20548780D01*
X69060000Y-20548780D02*
X63129000Y-20548780D01*
X77853000Y-20588780D02*
X71940000Y-20588780D01*
X69060000Y-20588780D02*
X63147000Y-20588780D01*
X77834000Y-20628780D02*
X71940000Y-20628780D01*
X69060000Y-20628780D02*
X63166000Y-20628780D01*
X77816000Y-20668780D02*
X71940000Y-20668780D01*
X69060000Y-20668780D02*
X63184000Y-20668780D01*
X77797000Y-20708780D02*
X71940000Y-20708780D01*
X69060000Y-20708780D02*
X63203000Y-20708780D01*
X77778000Y-20748780D02*
X71940000Y-20748780D01*
X69060000Y-20748780D02*
X63222000Y-20748780D01*
X77758000Y-20788780D02*
X71940000Y-20788780D01*
X69060000Y-20788780D02*
X63242000Y-20788780D01*
X77739000Y-20828780D02*
X71940000Y-20828780D01*
X69060000Y-20828780D02*
X63261000Y-20828780D01*
X77719000Y-20868780D02*
X71940000Y-20868780D01*
X69060000Y-20868780D02*
X63281000Y-20868780D01*
X77699000Y-20908780D02*
X71940000Y-20908780D01*
X69060000Y-20908780D02*
X63301000Y-20908780D01*
X77678000Y-20948780D02*
X71940000Y-20948780D01*
X69060000Y-20948780D02*
X63322000Y-20948780D01*
X77657000Y-20988780D02*
X71940000Y-20988780D01*
X69060000Y-20988780D02*
X63343000Y-20988780D01*
X77636000Y-21028780D02*
X71940000Y-21028780D01*
X69060000Y-21028780D02*
X63364000Y-21028780D01*
X77615000Y-21068780D02*
X71940000Y-21068780D01*
X69060000Y-21068780D02*
X63385000Y-21068780D01*
X77594000Y-21108780D02*
X71940000Y-21108780D01*
X69060000Y-21108780D02*
X63406000Y-21108780D01*
X77572000Y-21148780D02*
X71940000Y-21148780D01*
X69060000Y-21148780D02*
X63428000Y-21148780D01*
X77549000Y-21188780D02*
X71940000Y-21188780D01*
X69060000Y-21188780D02*
X63451000Y-21188780D01*
X77527000Y-21228780D02*
X71940000Y-21228780D01*
X69060000Y-21228780D02*
X63473000Y-21228780D01*
X77504000Y-21268780D02*
X71940000Y-21268780D01*
X69060000Y-21268780D02*
X63496000Y-21268780D01*
X77481000Y-21308780D02*
X71940000Y-21308780D01*
X69060000Y-21308780D02*
X63519000Y-21308780D01*
X77458000Y-21348780D02*
X71940000Y-21348780D01*
X69060000Y-21348780D02*
X63542000Y-21348780D01*
X77434000Y-21388780D02*
X71940000Y-21388780D01*
X69060000Y-21388780D02*
X63566000Y-21388780D01*
X77410000Y-21428780D02*
X71940000Y-21428780D01*
X69060000Y-21428780D02*
X63590000Y-21428780D01*
X77386000Y-21468780D02*
X71940000Y-21468780D01*
X69060000Y-21468780D02*
X63614000Y-21468780D01*
X77361000Y-21508780D02*
X71940000Y-21508780D01*
X69060000Y-21508780D02*
X63639000Y-21508780D01*
X77336000Y-21548780D02*
X71940000Y-21548780D01*
X69060000Y-21548780D02*
X63664000Y-21548780D01*
X77311000Y-21588780D02*
X71940000Y-21588780D01*
X69060000Y-21588780D02*
X63689000Y-21588780D01*
X77285000Y-21628780D02*
X71940000Y-21628780D01*
X69060000Y-21628780D02*
X63715000Y-21628780D01*
X77259000Y-21668780D02*
X71940000Y-21668780D01*
X69060000Y-21668780D02*
X63741000Y-21668780D01*
X77233000Y-21708780D02*
X71940000Y-21708780D01*
X69060000Y-21708780D02*
X63767000Y-21708780D01*
X77206000Y-21748780D02*
X71940000Y-21748780D01*
X69060000Y-21748780D02*
X63794000Y-21748780D01*
X77179000Y-21788780D02*
X71940000Y-21788780D01*
X69060000Y-21788780D02*
X63821000Y-21788780D01*
X77152000Y-21828780D02*
X71940000Y-21828780D01*
X69060000Y-21828780D02*
X63848000Y-21828780D01*
X77124000Y-21868780D02*
X71940000Y-21868780D01*
X69060000Y-21868780D02*
X63876000Y-21868780D01*
X77096000Y-21908780D02*
X71940000Y-21908780D01*
X69060000Y-21908780D02*
X63904000Y-21908780D01*
X77068000Y-21948780D02*
X71940000Y-21948780D01*
X69060000Y-21948780D02*
X63932000Y-21948780D01*
X77039000Y-21988780D02*
X71940000Y-21988780D01*
X69060000Y-21988780D02*
X63961000Y-21988780D01*
X77010000Y-22028780D02*
X71940000Y-22028780D01*
X69060000Y-22028780D02*
X63990000Y-22028780D01*
X76980000Y-22068780D02*
X71940000Y-22068780D01*
X69060000Y-22068780D02*
X64020000Y-22068780D01*
X76950000Y-22108780D02*
X71940000Y-22108780D01*
X69060000Y-22108780D02*
X64050000Y-22108780D01*
X76920000Y-22148780D02*
X71940000Y-22148780D01*
X69060000Y-22148780D02*
X64080000Y-22148780D01*
X76890000Y-22188780D02*
X71940000Y-22188780D01*
X69060000Y-22188780D02*
X64110000Y-22188780D01*
X76858000Y-22228780D02*
X71940000Y-22228780D01*
X69060000Y-22228780D02*
X64142000Y-22228780D01*
X76827000Y-22268780D02*
X71940000Y-22268780D01*
X69060000Y-22268780D02*
X64173000Y-22268780D01*
X76795000Y-22308780D02*
X71940000Y-22308780D01*
X69060000Y-22308780D02*
X64205000Y-22308780D01*
X76763000Y-22348780D02*
X71940000Y-22348780D01*
X69060000Y-22348780D02*
X64237000Y-22348780D01*
X76730000Y-22388780D02*
X71940000Y-22388780D01*
X69060000Y-22388780D02*
X64270000Y-22388780D01*
X76697000Y-22428780D02*
X64303000Y-22428780D01*
X76663000Y-22468780D02*
X64337000Y-22468780D01*
X76629000Y-22508780D02*
X64371000Y-22508780D01*
X76595000Y-22548780D02*
X64405000Y-22548780D01*
X76560000Y-22588780D02*
X64440000Y-22588780D01*
X76525000Y-22628780D02*
X64475000Y-22628780D01*
X76489000Y-22668780D02*
X64511000Y-22668780D01*
X76452000Y-22708780D02*
X64548000Y-22708780D01*
X76416000Y-22748780D02*
X64584000Y-22748780D01*
X76378000Y-22788780D02*
X64622000Y-22788780D01*
X76340000Y-22828780D02*
X64660000Y-22828780D01*
X76302000Y-22868780D02*
X64698000Y-22868780D01*
X76263000Y-22908780D02*
X64737000Y-22908780D01*
X76224000Y-22948780D02*
X64776000Y-22948780D01*
X76184000Y-22988780D02*
X64816000Y-22988780D01*
X76143000Y-23028780D02*
X64857000Y-23028780D01*
X76102000Y-23068780D02*
X64898000Y-23068780D01*
X76060000Y-23108780D02*
X64940000Y-23108780D01*
X76018000Y-23148780D02*
X64982000Y-23148780D01*
X75975000Y-23188780D02*
X65025000Y-23188780D01*
X75932000Y-23228780D02*
X65068000Y-23228780D01*
X75888000Y-23268780D02*
X65112000Y-23268780D01*
X75843000Y-23308780D02*
X65157000Y-23308780D01*
X75797000Y-23348780D02*
X65203000Y-23348780D01*
X75751000Y-23388780D02*
X65249000Y-23388780D01*
X75704000Y-23428780D02*
X65296000Y-23428780D01*
X75656000Y-23468780D02*
X65344000Y-23468780D01*
X75608000Y-23508780D02*
X65392000Y-23508780D01*
X75559000Y-23548780D02*
X65441000Y-23548780D01*
X75509000Y-23588780D02*
X65491000Y-23588780D01*
X75458000Y-23628780D02*
X65542000Y-23628780D01*
X75406000Y-23668780D02*
X65594000Y-23668780D01*
X75354000Y-23708780D02*
X65646000Y-23708780D01*
X75300000Y-23748780D02*
X65700000Y-23748780D01*
X75246000Y-23788780D02*
X65754000Y-23788780D01*
X75191000Y-23828780D02*
X65809000Y-23828780D01*
X75134000Y-23868780D02*
X65866000Y-23868780D01*
X75077000Y-23908780D02*
X65923000Y-23908780D01*
X75019000Y-23948780D02*
X65981000Y-23948780D01*
X74959000Y-23988780D02*
X66041000Y-23988780D01*
X74898000Y-24028780D02*
X66102000Y-24028780D01*
X74836000Y-24068780D02*
X66164000Y-24068780D01*
X74773000Y-24108780D02*
X66227000Y-24108780D01*
X74709000Y-24148780D02*
X66291000Y-24148780D01*
X74643000Y-24188780D02*
X66357000Y-24188780D01*
X74576000Y-24228780D02*
X66424000Y-24228780D01*
X74507000Y-24268780D02*
X66493000Y-24268780D01*
X74436000Y-24308780D02*
X66564000Y-24308780D01*
X74364000Y-24348780D02*
X66636000Y-24348780D01*
X74290000Y-24388780D02*
X66710000Y-24388780D01*
X74215000Y-24428780D02*
X66785000Y-24428780D01*
X74137000Y-24468780D02*
X66863000Y-24468780D01*
X74057000Y-24508780D02*
X66943000Y-24508780D01*
X73975000Y-24548780D02*
X67025000Y-24548780D01*
X73890000Y-24588780D02*
X67110000Y-24588780D01*
X73803000Y-24628780D02*
X67197000Y-24628780D01*
X73713000Y-24668780D02*
X67287000Y-24668780D01*
X73620000Y-24708780D02*
X67380000Y-24708780D01*
X73524000Y-24748780D02*
X67476000Y-24748780D01*
X73424000Y-24788780D02*
X67576000Y-24788780D01*
X73320000Y-24828780D02*
X67680000Y-24828780D01*
X73211000Y-24868780D02*
X67789000Y-24868780D01*
X73097000Y-24908780D02*
X67903000Y-24908780D01*
X72978000Y-24948780D02*
X68022000Y-24948780D01*
X72851000Y-24988780D02*
X68149000Y-24988780D01*
X72718000Y-25028780D02*
X68282000Y-25028780D01*
X72574000Y-25068780D02*
X68426000Y-25068780D01*
X72420000Y-25108780D02*
X68580000Y-25108780D01*
X72252000Y-25148780D02*
X68748000Y-25148780D01*
X72064000Y-25188780D02*
X68936000Y-25188780D01*
X71851000Y-25228780D02*
X69149000Y-25228780D01*
X71598000Y-25268780D02*
X69402000Y-25268780D01*
X71265000Y-25308780D02*
X69735000Y-25308780D01*
X78620000Y-17227780D02*
G75*
G03*
X78620000Y-17227780I-8120000J0D01*
G01*
%TO.C,J4*%
X101200000Y-25677780D02*
X103800000Y-25677780D01*
X101200000Y-28277780D02*
X101200000Y-25677780D01*
X101200000Y-28277780D02*
X103800000Y-28277780D01*
X103800000Y-25677780D02*
X103800000Y-28277780D01*
%TO.C,J2*%
X7840000Y-52700000D02*
X6100000Y-52700000D01*
X6100000Y-52700000D02*
X6100000Y-54569000D01*
X15620000Y-53000000D02*
X6340000Y-53000000D01*
X15620000Y-53000000D02*
X15620000Y-65000000D01*
X7900000Y-53000000D02*
X7900000Y-65000000D01*
X6340000Y-53000000D02*
X6340000Y-65000000D01*
X15620000Y-65000000D02*
X6340000Y-65000000D01*
%TO.C,C11*%
X73839000Y-52749759D02*
X73839000Y-53379759D01*
X74154000Y-53064759D02*
X73524000Y-53064759D01*
X75230000Y-56250000D02*
X68770000Y-56250000D01*
X75230000Y-56290000D02*
X68770000Y-56290000D01*
X75230000Y-56330000D02*
X68770000Y-56330000D01*
X75228000Y-56370000D02*
X68772000Y-56370000D01*
X75227000Y-56410000D02*
X68773000Y-56410000D01*
X75224000Y-56450000D02*
X68776000Y-56450000D01*
X75222000Y-56490000D02*
X73040000Y-56490000D01*
X70960000Y-56490000D02*
X68778000Y-56490000D01*
X75218000Y-56530000D02*
X73040000Y-56530000D01*
X70960000Y-56530000D02*
X68782000Y-56530000D01*
X75215000Y-56570000D02*
X73040000Y-56570000D01*
X70960000Y-56570000D02*
X68785000Y-56570000D01*
X75211000Y-56610000D02*
X73040000Y-56610000D01*
X70960000Y-56610000D02*
X68789000Y-56610000D01*
X75206000Y-56650000D02*
X73040000Y-56650000D01*
X70960000Y-56650000D02*
X68794000Y-56650000D01*
X75201000Y-56690000D02*
X73040000Y-56690000D01*
X70960000Y-56690000D02*
X68799000Y-56690000D01*
X75195000Y-56730000D02*
X73040000Y-56730000D01*
X70960000Y-56730000D02*
X68805000Y-56730000D01*
X75189000Y-56770000D02*
X73040000Y-56770000D01*
X70960000Y-56770000D02*
X68811000Y-56770000D01*
X75182000Y-56810000D02*
X73040000Y-56810000D01*
X70960000Y-56810000D02*
X68818000Y-56810000D01*
X75175000Y-56850000D02*
X73040000Y-56850000D01*
X70960000Y-56850000D02*
X68825000Y-56850000D01*
X75167000Y-56890000D02*
X73040000Y-56890000D01*
X70960000Y-56890000D02*
X68833000Y-56890000D01*
X75159000Y-56930000D02*
X73040000Y-56930000D01*
X70960000Y-56930000D02*
X68841000Y-56930000D01*
X75150000Y-56971000D02*
X73040000Y-56971000D01*
X70960000Y-56971000D02*
X68850000Y-56971000D01*
X75141000Y-57011000D02*
X73040000Y-57011000D01*
X70960000Y-57011000D02*
X68859000Y-57011000D01*
X75131000Y-57051000D02*
X73040000Y-57051000D01*
X70960000Y-57051000D02*
X68869000Y-57051000D01*
X75121000Y-57091000D02*
X73040000Y-57091000D01*
X70960000Y-57091000D02*
X68879000Y-57091000D01*
X75110000Y-57131000D02*
X73040000Y-57131000D01*
X70960000Y-57131000D02*
X68890000Y-57131000D01*
X75098000Y-57171000D02*
X73040000Y-57171000D01*
X70960000Y-57171000D02*
X68902000Y-57171000D01*
X75086000Y-57211000D02*
X73040000Y-57211000D01*
X70960000Y-57211000D02*
X68914000Y-57211000D01*
X75074000Y-57251000D02*
X73040000Y-57251000D01*
X70960000Y-57251000D02*
X68926000Y-57251000D01*
X75061000Y-57291000D02*
X73040000Y-57291000D01*
X70960000Y-57291000D02*
X68939000Y-57291000D01*
X75047000Y-57331000D02*
X73040000Y-57331000D01*
X70960000Y-57331000D02*
X68953000Y-57331000D01*
X75033000Y-57371000D02*
X73040000Y-57371000D01*
X70960000Y-57371000D02*
X68967000Y-57371000D01*
X75018000Y-57411000D02*
X73040000Y-57411000D01*
X70960000Y-57411000D02*
X68982000Y-57411000D01*
X75002000Y-57451000D02*
X73040000Y-57451000D01*
X70960000Y-57451000D02*
X68998000Y-57451000D01*
X74986000Y-57491000D02*
X73040000Y-57491000D01*
X70960000Y-57491000D02*
X69014000Y-57491000D01*
X74970000Y-57531000D02*
X73040000Y-57531000D01*
X70960000Y-57531000D02*
X69030000Y-57531000D01*
X74952000Y-57571000D02*
X73040000Y-57571000D01*
X70960000Y-57571000D02*
X69048000Y-57571000D01*
X74934000Y-57611000D02*
X73040000Y-57611000D01*
X70960000Y-57611000D02*
X69066000Y-57611000D01*
X74916000Y-57651000D02*
X73040000Y-57651000D01*
X70960000Y-57651000D02*
X69084000Y-57651000D01*
X74896000Y-57691000D02*
X73040000Y-57691000D01*
X70960000Y-57691000D02*
X69104000Y-57691000D01*
X74876000Y-57731000D02*
X73040000Y-57731000D01*
X70960000Y-57731000D02*
X69124000Y-57731000D01*
X74856000Y-57771000D02*
X73040000Y-57771000D01*
X70960000Y-57771000D02*
X69144000Y-57771000D01*
X74834000Y-57811000D02*
X73040000Y-57811000D01*
X70960000Y-57811000D02*
X69166000Y-57811000D01*
X74812000Y-57851000D02*
X73040000Y-57851000D01*
X70960000Y-57851000D02*
X69188000Y-57851000D01*
X74790000Y-57891000D02*
X73040000Y-57891000D01*
X70960000Y-57891000D02*
X69210000Y-57891000D01*
X74766000Y-57931000D02*
X73040000Y-57931000D01*
X70960000Y-57931000D02*
X69234000Y-57931000D01*
X74742000Y-57971000D02*
X73040000Y-57971000D01*
X70960000Y-57971000D02*
X69258000Y-57971000D01*
X74716000Y-58011000D02*
X73040000Y-58011000D01*
X70960000Y-58011000D02*
X69284000Y-58011000D01*
X74690000Y-58051000D02*
X73040000Y-58051000D01*
X70960000Y-58051000D02*
X69310000Y-58051000D01*
X74664000Y-58091000D02*
X73040000Y-58091000D01*
X70960000Y-58091000D02*
X69336000Y-58091000D01*
X74636000Y-58131000D02*
X73040000Y-58131000D01*
X70960000Y-58131000D02*
X69364000Y-58131000D01*
X74607000Y-58171000D02*
X73040000Y-58171000D01*
X70960000Y-58171000D02*
X69393000Y-58171000D01*
X74578000Y-58211000D02*
X73040000Y-58211000D01*
X70960000Y-58211000D02*
X69422000Y-58211000D01*
X74548000Y-58251000D02*
X73040000Y-58251000D01*
X70960000Y-58251000D02*
X69452000Y-58251000D01*
X74516000Y-58291000D02*
X73040000Y-58291000D01*
X70960000Y-58291000D02*
X69484000Y-58291000D01*
X74484000Y-58331000D02*
X73040000Y-58331000D01*
X70960000Y-58331000D02*
X69516000Y-58331000D01*
X74450000Y-58371000D02*
X73040000Y-58371000D01*
X70960000Y-58371000D02*
X69550000Y-58371000D01*
X74416000Y-58411000D02*
X73040000Y-58411000D01*
X70960000Y-58411000D02*
X69584000Y-58411000D01*
X74380000Y-58451000D02*
X73040000Y-58451000D01*
X70960000Y-58451000D02*
X69620000Y-58451000D01*
X74343000Y-58491000D02*
X73040000Y-58491000D01*
X70960000Y-58491000D02*
X69657000Y-58491000D01*
X74305000Y-58531000D02*
X73040000Y-58531000D01*
X70960000Y-58531000D02*
X69695000Y-58531000D01*
X74265000Y-58571000D02*
X69735000Y-58571000D01*
X74224000Y-58611000D02*
X69776000Y-58611000D01*
X74182000Y-58651000D02*
X69818000Y-58651000D01*
X74137000Y-58691000D02*
X69863000Y-58691000D01*
X74092000Y-58731000D02*
X69908000Y-58731000D01*
X74044000Y-58771000D02*
X69956000Y-58771000D01*
X73995000Y-58811000D02*
X70005000Y-58811000D01*
X73944000Y-58851000D02*
X70056000Y-58851000D01*
X73890000Y-58891000D02*
X70110000Y-58891000D01*
X73834000Y-58931000D02*
X70166000Y-58931000D01*
X73776000Y-58971000D02*
X70224000Y-58971000D01*
X73714000Y-59011000D02*
X70286000Y-59011000D01*
X73650000Y-59051000D02*
X70350000Y-59051000D01*
X73581000Y-59091000D02*
X70419000Y-59091000D01*
X73509000Y-59131000D02*
X70491000Y-59131000D01*
X73432000Y-59171000D02*
X70568000Y-59171000D01*
X73350000Y-59211000D02*
X70650000Y-59211000D01*
X73262000Y-59251000D02*
X70738000Y-59251000D01*
X73165000Y-59291000D02*
X70835000Y-59291000D01*
X73059000Y-59331000D02*
X70941000Y-59331000D01*
X72940000Y-59371000D02*
X71060000Y-59371000D01*
X72802000Y-59411000D02*
X71198000Y-59411000D01*
X72633000Y-59451000D02*
X71367000Y-59451000D01*
X72402000Y-59491000D02*
X71598000Y-59491000D01*
X75270000Y-56250000D02*
G75*
G03*
X75270000Y-56250000I-3270000J0D01*
G01*
%TO.C,D2*%
X36160000Y-22477780D02*
X32670000Y-22477780D01*
X32670000Y-27147780D02*
X32670000Y-17807780D01*
X32670000Y-17807780D02*
X23330000Y-17807780D01*
X31305000Y-27147780D02*
X31305000Y-17807780D01*
X31185000Y-27147780D02*
X31185000Y-17807780D01*
X31065000Y-27147780D02*
X31065000Y-17807780D01*
X23330000Y-27147780D02*
X32670000Y-27147780D01*
X23330000Y-17807780D02*
X23330000Y-27147780D01*
X19840000Y-22477780D02*
X23330000Y-22477780D01*
%TO.C,J6*%
X100700000Y-46700000D02*
X103300000Y-46700000D01*
X100700000Y-49300000D02*
X100700000Y-46700000D01*
X100700000Y-49300000D02*
X103300000Y-49300000D01*
X103300000Y-46700000D02*
X103300000Y-49300000D01*
%TO.C,C8*%
X50215000Y-63415431D02*
X50215000Y-64715431D01*
X50865000Y-64065431D02*
X49565000Y-64065431D01*
X53080000Y-70500000D02*
X39920000Y-70500000D01*
X53080000Y-70540000D02*
X39920000Y-70540000D01*
X53080000Y-70580000D02*
X39920000Y-70580000D01*
X53079000Y-70620000D02*
X39921000Y-70620000D01*
X53079000Y-70660000D02*
X39921000Y-70660000D01*
X53077000Y-70700000D02*
X39923000Y-70700000D01*
X53076000Y-70740000D02*
X39924000Y-70740000D01*
X53075000Y-70780000D02*
X39925000Y-70780000D01*
X53073000Y-70820000D02*
X39927000Y-70820000D01*
X53071000Y-70860000D02*
X39929000Y-70860000D01*
X53068000Y-70900000D02*
X39932000Y-70900000D01*
X53066000Y-70940000D02*
X39934000Y-70940000D01*
X53063000Y-70980000D02*
X39937000Y-70980000D01*
X53060000Y-71020000D02*
X39940000Y-71020000D01*
X53057000Y-71060000D02*
X39943000Y-71060000D01*
X53053000Y-71100000D02*
X39947000Y-71100000D01*
X53049000Y-71140000D02*
X39951000Y-71140000D01*
X53045000Y-71180000D02*
X39955000Y-71180000D01*
X53041000Y-71221000D02*
X39959000Y-71221000D01*
X53037000Y-71261000D02*
X39963000Y-71261000D01*
X53032000Y-71301000D02*
X39968000Y-71301000D01*
X53027000Y-71341000D02*
X39973000Y-71341000D01*
X53022000Y-71381000D02*
X39978000Y-71381000D01*
X53016000Y-71421000D02*
X39984000Y-71421000D01*
X53011000Y-71461000D02*
X39989000Y-71461000D01*
X53005000Y-71501000D02*
X39995000Y-71501000D01*
X52998000Y-71541000D02*
X40002000Y-71541000D01*
X52992000Y-71581000D02*
X47940000Y-71581000D01*
X45060000Y-71581000D02*
X40008000Y-71581000D01*
X52985000Y-71621000D02*
X47940000Y-71621000D01*
X45060000Y-71621000D02*
X40015000Y-71621000D01*
X52978000Y-71661000D02*
X47940000Y-71661000D01*
X45060000Y-71661000D02*
X40022000Y-71661000D01*
X52971000Y-71701000D02*
X47940000Y-71701000D01*
X45060000Y-71701000D02*
X40029000Y-71701000D01*
X52963000Y-71741000D02*
X47940000Y-71741000D01*
X45060000Y-71741000D02*
X40037000Y-71741000D01*
X52956000Y-71781000D02*
X47940000Y-71781000D01*
X45060000Y-71781000D02*
X40044000Y-71781000D01*
X52948000Y-71821000D02*
X47940000Y-71821000D01*
X45060000Y-71821000D02*
X40052000Y-71821000D01*
X52939000Y-71861000D02*
X47940000Y-71861000D01*
X45060000Y-71861000D02*
X40061000Y-71861000D01*
X52931000Y-71901000D02*
X47940000Y-71901000D01*
X45060000Y-71901000D02*
X40069000Y-71901000D01*
X52922000Y-71941000D02*
X47940000Y-71941000D01*
X45060000Y-71941000D02*
X40078000Y-71941000D01*
X52913000Y-71981000D02*
X47940000Y-71981000D01*
X45060000Y-71981000D02*
X40087000Y-71981000D01*
X52904000Y-72021000D02*
X47940000Y-72021000D01*
X45060000Y-72021000D02*
X40096000Y-72021000D01*
X52894000Y-72061000D02*
X47940000Y-72061000D01*
X45060000Y-72061000D02*
X40106000Y-72061000D01*
X52884000Y-72101000D02*
X47940000Y-72101000D01*
X45060000Y-72101000D02*
X40116000Y-72101000D01*
X52874000Y-72141000D02*
X47940000Y-72141000D01*
X45060000Y-72141000D02*
X40126000Y-72141000D01*
X52864000Y-72181000D02*
X47940000Y-72181000D01*
X45060000Y-72181000D02*
X40136000Y-72181000D01*
X52853000Y-72221000D02*
X47940000Y-72221000D01*
X45060000Y-72221000D02*
X40147000Y-72221000D01*
X52842000Y-72261000D02*
X47940000Y-72261000D01*
X45060000Y-72261000D02*
X40158000Y-72261000D01*
X52831000Y-72301000D02*
X47940000Y-72301000D01*
X45060000Y-72301000D02*
X40169000Y-72301000D01*
X52820000Y-72341000D02*
X47940000Y-72341000D01*
X45060000Y-72341000D02*
X40180000Y-72341000D01*
X52808000Y-72381000D02*
X47940000Y-72381000D01*
X45060000Y-72381000D02*
X40192000Y-72381000D01*
X52796000Y-72421000D02*
X47940000Y-72421000D01*
X45060000Y-72421000D02*
X40204000Y-72421000D01*
X52784000Y-72461000D02*
X47940000Y-72461000D01*
X45060000Y-72461000D02*
X40216000Y-72461000D01*
X52771000Y-72501000D02*
X47940000Y-72501000D01*
X45060000Y-72501000D02*
X40229000Y-72501000D01*
X52758000Y-72541000D02*
X47940000Y-72541000D01*
X45060000Y-72541000D02*
X40242000Y-72541000D01*
X52745000Y-72581000D02*
X47940000Y-72581000D01*
X45060000Y-72581000D02*
X40255000Y-72581000D01*
X52732000Y-72621000D02*
X47940000Y-72621000D01*
X45060000Y-72621000D02*
X40268000Y-72621000D01*
X52718000Y-72661000D02*
X47940000Y-72661000D01*
X45060000Y-72661000D02*
X40282000Y-72661000D01*
X52704000Y-72701000D02*
X47940000Y-72701000D01*
X45060000Y-72701000D02*
X40296000Y-72701000D01*
X52690000Y-72741000D02*
X47940000Y-72741000D01*
X45060000Y-72741000D02*
X40310000Y-72741000D01*
X52675000Y-72781000D02*
X47940000Y-72781000D01*
X45060000Y-72781000D02*
X40325000Y-72781000D01*
X52661000Y-72821000D02*
X47940000Y-72821000D01*
X45060000Y-72821000D02*
X40339000Y-72821000D01*
X52646000Y-72861000D02*
X47940000Y-72861000D01*
X45060000Y-72861000D02*
X40354000Y-72861000D01*
X52630000Y-72901000D02*
X47940000Y-72901000D01*
X45060000Y-72901000D02*
X40370000Y-72901000D01*
X52614000Y-72941000D02*
X47940000Y-72941000D01*
X45060000Y-72941000D02*
X40386000Y-72941000D01*
X52598000Y-72981000D02*
X47940000Y-72981000D01*
X45060000Y-72981000D02*
X40402000Y-72981000D01*
X52582000Y-73021000D02*
X47940000Y-73021000D01*
X45060000Y-73021000D02*
X40418000Y-73021000D01*
X52565000Y-73061000D02*
X47940000Y-73061000D01*
X45060000Y-73061000D02*
X40435000Y-73061000D01*
X52549000Y-73101000D02*
X47940000Y-73101000D01*
X45060000Y-73101000D02*
X40451000Y-73101000D01*
X52531000Y-73141000D02*
X47940000Y-73141000D01*
X45060000Y-73141000D02*
X40469000Y-73141000D01*
X52514000Y-73181000D02*
X47940000Y-73181000D01*
X45060000Y-73181000D02*
X40486000Y-73181000D01*
X52496000Y-73221000D02*
X47940000Y-73221000D01*
X45060000Y-73221000D02*
X40504000Y-73221000D01*
X52478000Y-73261000D02*
X47940000Y-73261000D01*
X45060000Y-73261000D02*
X40522000Y-73261000D01*
X52459000Y-73301000D02*
X47940000Y-73301000D01*
X45060000Y-73301000D02*
X40541000Y-73301000D01*
X52440000Y-73341000D02*
X47940000Y-73341000D01*
X45060000Y-73341000D02*
X40560000Y-73341000D01*
X52421000Y-73381000D02*
X47940000Y-73381000D01*
X45060000Y-73381000D02*
X40579000Y-73381000D01*
X52402000Y-73421000D02*
X47940000Y-73421000D01*
X45060000Y-73421000D02*
X40598000Y-73421000D01*
X52382000Y-73461000D02*
X47940000Y-73461000D01*
X45060000Y-73461000D02*
X40618000Y-73461000D01*
X52362000Y-73501000D02*
X47940000Y-73501000D01*
X45060000Y-73501000D02*
X40638000Y-73501000D01*
X52341000Y-73541000D02*
X47940000Y-73541000D01*
X45060000Y-73541000D02*
X40659000Y-73541000D01*
X52320000Y-73581000D02*
X47940000Y-73581000D01*
X45060000Y-73581000D02*
X40680000Y-73581000D01*
X52299000Y-73621000D02*
X47940000Y-73621000D01*
X45060000Y-73621000D02*
X40701000Y-73621000D01*
X52278000Y-73661000D02*
X47940000Y-73661000D01*
X45060000Y-73661000D02*
X40722000Y-73661000D01*
X52256000Y-73701000D02*
X47940000Y-73701000D01*
X45060000Y-73701000D02*
X40744000Y-73701000D01*
X52233000Y-73741000D02*
X47940000Y-73741000D01*
X45060000Y-73741000D02*
X40767000Y-73741000D01*
X52211000Y-73781000D02*
X47940000Y-73781000D01*
X45060000Y-73781000D02*
X40789000Y-73781000D01*
X52188000Y-73821000D02*
X47940000Y-73821000D01*
X45060000Y-73821000D02*
X40812000Y-73821000D01*
X52164000Y-73861000D02*
X47940000Y-73861000D01*
X45060000Y-73861000D02*
X40836000Y-73861000D01*
X52141000Y-73901000D02*
X47940000Y-73901000D01*
X45060000Y-73901000D02*
X40859000Y-73901000D01*
X52117000Y-73941000D02*
X47940000Y-73941000D01*
X45060000Y-73941000D02*
X40883000Y-73941000D01*
X52092000Y-73981000D02*
X47940000Y-73981000D01*
X45060000Y-73981000D02*
X40908000Y-73981000D01*
X52067000Y-74021000D02*
X47940000Y-74021000D01*
X45060000Y-74021000D02*
X40933000Y-74021000D01*
X52042000Y-74061000D02*
X47940000Y-74061000D01*
X45060000Y-74061000D02*
X40958000Y-74061000D01*
X52016000Y-74101000D02*
X47940000Y-74101000D01*
X45060000Y-74101000D02*
X40984000Y-74101000D01*
X51990000Y-74141000D02*
X47940000Y-74141000D01*
X45060000Y-74141000D02*
X41010000Y-74141000D01*
X51963000Y-74181000D02*
X47940000Y-74181000D01*
X45060000Y-74181000D02*
X41037000Y-74181000D01*
X51936000Y-74221000D02*
X47940000Y-74221000D01*
X45060000Y-74221000D02*
X41064000Y-74221000D01*
X51909000Y-74261000D02*
X47940000Y-74261000D01*
X45060000Y-74261000D02*
X41091000Y-74261000D01*
X51881000Y-74301000D02*
X47940000Y-74301000D01*
X45060000Y-74301000D02*
X41119000Y-74301000D01*
X51853000Y-74341000D02*
X47940000Y-74341000D01*
X45060000Y-74341000D02*
X41147000Y-74341000D01*
X51824000Y-74381000D02*
X47940000Y-74381000D01*
X45060000Y-74381000D02*
X41176000Y-74381000D01*
X51795000Y-74421000D02*
X47940000Y-74421000D01*
X45060000Y-74421000D02*
X41205000Y-74421000D01*
X51765000Y-74461000D02*
X41235000Y-74461000D01*
X51735000Y-74501000D02*
X41265000Y-74501000D01*
X51705000Y-74541000D02*
X41295000Y-74541000D01*
X51674000Y-74581000D02*
X41326000Y-74581000D01*
X51642000Y-74621000D02*
X41358000Y-74621000D01*
X51610000Y-74661000D02*
X41390000Y-74661000D01*
X51578000Y-74701000D02*
X41422000Y-74701000D01*
X51544000Y-74741000D02*
X41456000Y-74741000D01*
X51511000Y-74781000D02*
X41489000Y-74781000D01*
X51477000Y-74821000D02*
X41523000Y-74821000D01*
X51442000Y-74861000D02*
X41558000Y-74861000D01*
X51407000Y-74901000D02*
X41593000Y-74901000D01*
X51371000Y-74941000D02*
X41629000Y-74941000D01*
X51334000Y-74981000D02*
X41666000Y-74981000D01*
X51297000Y-75021000D02*
X41703000Y-75021000D01*
X51260000Y-75061000D02*
X41740000Y-75061000D01*
X51221000Y-75101000D02*
X41779000Y-75101000D01*
X51182000Y-75141000D02*
X41818000Y-75141000D01*
X51143000Y-75181000D02*
X41857000Y-75181000D01*
X51102000Y-75221000D02*
X41898000Y-75221000D01*
X51061000Y-75261000D02*
X41939000Y-75261000D01*
X51019000Y-75301000D02*
X41981000Y-75301000D01*
X50977000Y-75341000D02*
X42023000Y-75341000D01*
X50934000Y-75381000D02*
X42066000Y-75381000D01*
X50890000Y-75421000D02*
X42110000Y-75421000D01*
X50845000Y-75461000D02*
X42155000Y-75461000D01*
X50799000Y-75501000D02*
X42201000Y-75501000D01*
X50753000Y-75541000D02*
X42247000Y-75541000D01*
X50705000Y-75581000D02*
X42295000Y-75581000D01*
X50657000Y-75621000D02*
X42343000Y-75621000D01*
X50608000Y-75661000D02*
X42392000Y-75661000D01*
X50557000Y-75701000D02*
X42443000Y-75701000D01*
X50506000Y-75741000D02*
X42494000Y-75741000D01*
X50454000Y-75781000D02*
X42546000Y-75781000D01*
X50400000Y-75821000D02*
X42600000Y-75821000D01*
X50346000Y-75861000D02*
X42654000Y-75861000D01*
X50290000Y-75901000D02*
X42710000Y-75901000D01*
X50233000Y-75941000D02*
X42767000Y-75941000D01*
X50175000Y-75981000D02*
X42825000Y-75981000D01*
X50115000Y-76021000D02*
X42885000Y-76021000D01*
X50054000Y-76061000D02*
X42946000Y-76061000D01*
X49991000Y-76101000D02*
X43009000Y-76101000D01*
X49927000Y-76141000D02*
X43073000Y-76141000D01*
X49861000Y-76181000D02*
X43139000Y-76181000D01*
X49793000Y-76221000D02*
X43207000Y-76221000D01*
X49723000Y-76261000D02*
X43277000Y-76261000D01*
X49652000Y-76301000D02*
X43348000Y-76301000D01*
X49578000Y-76341000D02*
X43422000Y-76341000D01*
X49502000Y-76381000D02*
X43498000Y-76381000D01*
X49423000Y-76421000D02*
X43577000Y-76421000D01*
X49342000Y-76461000D02*
X43658000Y-76461000D01*
X49258000Y-76501000D02*
X43742000Y-76501000D01*
X49170000Y-76541000D02*
X43830000Y-76541000D01*
X49079000Y-76581000D02*
X43921000Y-76581000D01*
X48984000Y-76621000D02*
X44016000Y-76621000D01*
X48885000Y-76661000D02*
X44115000Y-76661000D01*
X48781000Y-76701000D02*
X44219000Y-76701000D01*
X48671000Y-76741000D02*
X44329000Y-76741000D01*
X48555000Y-76781000D02*
X44445000Y-76781000D01*
X48431000Y-76821000D02*
X44569000Y-76821000D01*
X48298000Y-76861000D02*
X44702000Y-76861000D01*
X48153000Y-76901000D02*
X44847000Y-76901000D01*
X47994000Y-76941000D02*
X45006000Y-76941000D01*
X47815000Y-76981000D02*
X45185000Y-76981000D01*
X47607000Y-77021000D02*
X45393000Y-77021000D01*
X47350000Y-77061000D02*
X45650000Y-77061000D01*
X46975000Y-77101000D02*
X46025000Y-77101000D01*
X53120000Y-70500000D02*
G75*
G03*
X53120000Y-70500000I-6620000J0D01*
G01*
%TO.C,J9*%
X91670000Y-61995000D02*
X93000000Y-61995000D01*
X91670000Y-63325000D02*
X91670000Y-61995000D01*
X91670000Y-64595000D02*
X91670000Y-67195000D01*
X91670000Y-64595000D02*
X94330000Y-64595000D01*
X91670000Y-67195000D02*
X94330000Y-67195000D01*
X94330000Y-64595000D02*
X94330000Y-67195000D01*
%TO.C,C10*%
X64715000Y-63415431D02*
X64715000Y-64715431D01*
X65365000Y-64065431D02*
X64065000Y-64065431D01*
X67580000Y-70500000D02*
X54420000Y-70500000D01*
X67580000Y-70540000D02*
X54420000Y-70540000D01*
X67580000Y-70580000D02*
X54420000Y-70580000D01*
X67579000Y-70620000D02*
X54421000Y-70620000D01*
X67579000Y-70660000D02*
X54421000Y-70660000D01*
X67577000Y-70700000D02*
X54423000Y-70700000D01*
X67576000Y-70740000D02*
X54424000Y-70740000D01*
X67575000Y-70780000D02*
X54425000Y-70780000D01*
X67573000Y-70820000D02*
X54427000Y-70820000D01*
X67571000Y-70860000D02*
X54429000Y-70860000D01*
X67568000Y-70900000D02*
X54432000Y-70900000D01*
X67566000Y-70940000D02*
X54434000Y-70940000D01*
X67563000Y-70980000D02*
X54437000Y-70980000D01*
X67560000Y-71020000D02*
X54440000Y-71020000D01*
X67557000Y-71060000D02*
X54443000Y-71060000D01*
X67553000Y-71100000D02*
X54447000Y-71100000D01*
X67549000Y-71140000D02*
X54451000Y-71140000D01*
X67545000Y-71180000D02*
X54455000Y-71180000D01*
X67541000Y-71221000D02*
X54459000Y-71221000D01*
X67537000Y-71261000D02*
X54463000Y-71261000D01*
X67532000Y-71301000D02*
X54468000Y-71301000D01*
X67527000Y-71341000D02*
X54473000Y-71341000D01*
X67522000Y-71381000D02*
X54478000Y-71381000D01*
X67516000Y-71421000D02*
X54484000Y-71421000D01*
X67511000Y-71461000D02*
X54489000Y-71461000D01*
X67505000Y-71501000D02*
X54495000Y-71501000D01*
X67498000Y-71541000D02*
X54502000Y-71541000D01*
X67492000Y-71581000D02*
X62440000Y-71581000D01*
X59560000Y-71581000D02*
X54508000Y-71581000D01*
X67485000Y-71621000D02*
X62440000Y-71621000D01*
X59560000Y-71621000D02*
X54515000Y-71621000D01*
X67478000Y-71661000D02*
X62440000Y-71661000D01*
X59560000Y-71661000D02*
X54522000Y-71661000D01*
X67471000Y-71701000D02*
X62440000Y-71701000D01*
X59560000Y-71701000D02*
X54529000Y-71701000D01*
X67463000Y-71741000D02*
X62440000Y-71741000D01*
X59560000Y-71741000D02*
X54537000Y-71741000D01*
X67456000Y-71781000D02*
X62440000Y-71781000D01*
X59560000Y-71781000D02*
X54544000Y-71781000D01*
X67448000Y-71821000D02*
X62440000Y-71821000D01*
X59560000Y-71821000D02*
X54552000Y-71821000D01*
X67439000Y-71861000D02*
X62440000Y-71861000D01*
X59560000Y-71861000D02*
X54561000Y-71861000D01*
X67431000Y-71901000D02*
X62440000Y-71901000D01*
X59560000Y-71901000D02*
X54569000Y-71901000D01*
X67422000Y-71941000D02*
X62440000Y-71941000D01*
X59560000Y-71941000D02*
X54578000Y-71941000D01*
X67413000Y-71981000D02*
X62440000Y-71981000D01*
X59560000Y-71981000D02*
X54587000Y-71981000D01*
X67404000Y-72021000D02*
X62440000Y-72021000D01*
X59560000Y-72021000D02*
X54596000Y-72021000D01*
X67394000Y-72061000D02*
X62440000Y-72061000D01*
X59560000Y-72061000D02*
X54606000Y-72061000D01*
X67384000Y-72101000D02*
X62440000Y-72101000D01*
X59560000Y-72101000D02*
X54616000Y-72101000D01*
X67374000Y-72141000D02*
X62440000Y-72141000D01*
X59560000Y-72141000D02*
X54626000Y-72141000D01*
X67364000Y-72181000D02*
X62440000Y-72181000D01*
X59560000Y-72181000D02*
X54636000Y-72181000D01*
X67353000Y-72221000D02*
X62440000Y-72221000D01*
X59560000Y-72221000D02*
X54647000Y-72221000D01*
X67342000Y-72261000D02*
X62440000Y-72261000D01*
X59560000Y-72261000D02*
X54658000Y-72261000D01*
X67331000Y-72301000D02*
X62440000Y-72301000D01*
X59560000Y-72301000D02*
X54669000Y-72301000D01*
X67320000Y-72341000D02*
X62440000Y-72341000D01*
X59560000Y-72341000D02*
X54680000Y-72341000D01*
X67308000Y-72381000D02*
X62440000Y-72381000D01*
X59560000Y-72381000D02*
X54692000Y-72381000D01*
X67296000Y-72421000D02*
X62440000Y-72421000D01*
X59560000Y-72421000D02*
X54704000Y-72421000D01*
X67284000Y-72461000D02*
X62440000Y-72461000D01*
X59560000Y-72461000D02*
X54716000Y-72461000D01*
X67271000Y-72501000D02*
X62440000Y-72501000D01*
X59560000Y-72501000D02*
X54729000Y-72501000D01*
X67258000Y-72541000D02*
X62440000Y-72541000D01*
X59560000Y-72541000D02*
X54742000Y-72541000D01*
X67245000Y-72581000D02*
X62440000Y-72581000D01*
X59560000Y-72581000D02*
X54755000Y-72581000D01*
X67232000Y-72621000D02*
X62440000Y-72621000D01*
X59560000Y-72621000D02*
X54768000Y-72621000D01*
X67218000Y-72661000D02*
X62440000Y-72661000D01*
X59560000Y-72661000D02*
X54782000Y-72661000D01*
X67204000Y-72701000D02*
X62440000Y-72701000D01*
X59560000Y-72701000D02*
X54796000Y-72701000D01*
X67190000Y-72741000D02*
X62440000Y-72741000D01*
X59560000Y-72741000D02*
X54810000Y-72741000D01*
X67175000Y-72781000D02*
X62440000Y-72781000D01*
X59560000Y-72781000D02*
X54825000Y-72781000D01*
X67161000Y-72821000D02*
X62440000Y-72821000D01*
X59560000Y-72821000D02*
X54839000Y-72821000D01*
X67146000Y-72861000D02*
X62440000Y-72861000D01*
X59560000Y-72861000D02*
X54854000Y-72861000D01*
X67130000Y-72901000D02*
X62440000Y-72901000D01*
X59560000Y-72901000D02*
X54870000Y-72901000D01*
X67114000Y-72941000D02*
X62440000Y-72941000D01*
X59560000Y-72941000D02*
X54886000Y-72941000D01*
X67098000Y-72981000D02*
X62440000Y-72981000D01*
X59560000Y-72981000D02*
X54902000Y-72981000D01*
X67082000Y-73021000D02*
X62440000Y-73021000D01*
X59560000Y-73021000D02*
X54918000Y-73021000D01*
X67065000Y-73061000D02*
X62440000Y-73061000D01*
X59560000Y-73061000D02*
X54935000Y-73061000D01*
X67049000Y-73101000D02*
X62440000Y-73101000D01*
X59560000Y-73101000D02*
X54951000Y-73101000D01*
X67031000Y-73141000D02*
X62440000Y-73141000D01*
X59560000Y-73141000D02*
X54969000Y-73141000D01*
X67014000Y-73181000D02*
X62440000Y-73181000D01*
X59560000Y-73181000D02*
X54986000Y-73181000D01*
X66996000Y-73221000D02*
X62440000Y-73221000D01*
X59560000Y-73221000D02*
X55004000Y-73221000D01*
X66978000Y-73261000D02*
X62440000Y-73261000D01*
X59560000Y-73261000D02*
X55022000Y-73261000D01*
X66959000Y-73301000D02*
X62440000Y-73301000D01*
X59560000Y-73301000D02*
X55041000Y-73301000D01*
X66940000Y-73341000D02*
X62440000Y-73341000D01*
X59560000Y-73341000D02*
X55060000Y-73341000D01*
X66921000Y-73381000D02*
X62440000Y-73381000D01*
X59560000Y-73381000D02*
X55079000Y-73381000D01*
X66902000Y-73421000D02*
X62440000Y-73421000D01*
X59560000Y-73421000D02*
X55098000Y-73421000D01*
X66882000Y-73461000D02*
X62440000Y-73461000D01*
X59560000Y-73461000D02*
X55118000Y-73461000D01*
X66862000Y-73501000D02*
X62440000Y-73501000D01*
X59560000Y-73501000D02*
X55138000Y-73501000D01*
X66841000Y-73541000D02*
X62440000Y-73541000D01*
X59560000Y-73541000D02*
X55159000Y-73541000D01*
X66820000Y-73581000D02*
X62440000Y-73581000D01*
X59560000Y-73581000D02*
X55180000Y-73581000D01*
X66799000Y-73621000D02*
X62440000Y-73621000D01*
X59560000Y-73621000D02*
X55201000Y-73621000D01*
X66778000Y-73661000D02*
X62440000Y-73661000D01*
X59560000Y-73661000D02*
X55222000Y-73661000D01*
X66756000Y-73701000D02*
X62440000Y-73701000D01*
X59560000Y-73701000D02*
X55244000Y-73701000D01*
X66733000Y-73741000D02*
X62440000Y-73741000D01*
X59560000Y-73741000D02*
X55267000Y-73741000D01*
X66711000Y-73781000D02*
X62440000Y-73781000D01*
X59560000Y-73781000D02*
X55289000Y-73781000D01*
X66688000Y-73821000D02*
X62440000Y-73821000D01*
X59560000Y-73821000D02*
X55312000Y-73821000D01*
X66664000Y-73861000D02*
X62440000Y-73861000D01*
X59560000Y-73861000D02*
X55336000Y-73861000D01*
X66641000Y-73901000D02*
X62440000Y-73901000D01*
X59560000Y-73901000D02*
X55359000Y-73901000D01*
X66617000Y-73941000D02*
X62440000Y-73941000D01*
X59560000Y-73941000D02*
X55383000Y-73941000D01*
X66592000Y-73981000D02*
X62440000Y-73981000D01*
X59560000Y-73981000D02*
X55408000Y-73981000D01*
X66567000Y-74021000D02*
X62440000Y-74021000D01*
X59560000Y-74021000D02*
X55433000Y-74021000D01*
X66542000Y-74061000D02*
X62440000Y-74061000D01*
X59560000Y-74061000D02*
X55458000Y-74061000D01*
X66516000Y-74101000D02*
X62440000Y-74101000D01*
X59560000Y-74101000D02*
X55484000Y-74101000D01*
X66490000Y-74141000D02*
X62440000Y-74141000D01*
X59560000Y-74141000D02*
X55510000Y-74141000D01*
X66463000Y-74181000D02*
X62440000Y-74181000D01*
X59560000Y-74181000D02*
X55537000Y-74181000D01*
X66436000Y-74221000D02*
X62440000Y-74221000D01*
X59560000Y-74221000D02*
X55564000Y-74221000D01*
X66409000Y-74261000D02*
X62440000Y-74261000D01*
X59560000Y-74261000D02*
X55591000Y-74261000D01*
X66381000Y-74301000D02*
X62440000Y-74301000D01*
X59560000Y-74301000D02*
X55619000Y-74301000D01*
X66353000Y-74341000D02*
X62440000Y-74341000D01*
X59560000Y-74341000D02*
X55647000Y-74341000D01*
X66324000Y-74381000D02*
X62440000Y-74381000D01*
X59560000Y-74381000D02*
X55676000Y-74381000D01*
X66295000Y-74421000D02*
X62440000Y-74421000D01*
X59560000Y-74421000D02*
X55705000Y-74421000D01*
X66265000Y-74461000D02*
X55735000Y-74461000D01*
X66235000Y-74501000D02*
X55765000Y-74501000D01*
X66205000Y-74541000D02*
X55795000Y-74541000D01*
X66174000Y-74581000D02*
X55826000Y-74581000D01*
X66142000Y-74621000D02*
X55858000Y-74621000D01*
X66110000Y-74661000D02*
X55890000Y-74661000D01*
X66078000Y-74701000D02*
X55922000Y-74701000D01*
X66044000Y-74741000D02*
X55956000Y-74741000D01*
X66011000Y-74781000D02*
X55989000Y-74781000D01*
X65977000Y-74821000D02*
X56023000Y-74821000D01*
X65942000Y-74861000D02*
X56058000Y-74861000D01*
X65907000Y-74901000D02*
X56093000Y-74901000D01*
X65871000Y-74941000D02*
X56129000Y-74941000D01*
X65834000Y-74981000D02*
X56166000Y-74981000D01*
X65797000Y-75021000D02*
X56203000Y-75021000D01*
X65760000Y-75061000D02*
X56240000Y-75061000D01*
X65721000Y-75101000D02*
X56279000Y-75101000D01*
X65682000Y-75141000D02*
X56318000Y-75141000D01*
X65643000Y-75181000D02*
X56357000Y-75181000D01*
X65602000Y-75221000D02*
X56398000Y-75221000D01*
X65561000Y-75261000D02*
X56439000Y-75261000D01*
X65519000Y-75301000D02*
X56481000Y-75301000D01*
X65477000Y-75341000D02*
X56523000Y-75341000D01*
X65434000Y-75381000D02*
X56566000Y-75381000D01*
X65390000Y-75421000D02*
X56610000Y-75421000D01*
X65345000Y-75461000D02*
X56655000Y-75461000D01*
X65299000Y-75501000D02*
X56701000Y-75501000D01*
X65253000Y-75541000D02*
X56747000Y-75541000D01*
X65205000Y-75581000D02*
X56795000Y-75581000D01*
X65157000Y-75621000D02*
X56843000Y-75621000D01*
X65108000Y-75661000D02*
X56892000Y-75661000D01*
X65057000Y-75701000D02*
X56943000Y-75701000D01*
X65006000Y-75741000D02*
X56994000Y-75741000D01*
X64954000Y-75781000D02*
X57046000Y-75781000D01*
X64900000Y-75821000D02*
X57100000Y-75821000D01*
X64846000Y-75861000D02*
X57154000Y-75861000D01*
X64790000Y-75901000D02*
X57210000Y-75901000D01*
X64733000Y-75941000D02*
X57267000Y-75941000D01*
X64675000Y-75981000D02*
X57325000Y-75981000D01*
X64615000Y-76021000D02*
X57385000Y-76021000D01*
X64554000Y-76061000D02*
X57446000Y-76061000D01*
X64491000Y-76101000D02*
X57509000Y-76101000D01*
X64427000Y-76141000D02*
X57573000Y-76141000D01*
X64361000Y-76181000D02*
X57639000Y-76181000D01*
X64293000Y-76221000D02*
X57707000Y-76221000D01*
X64223000Y-76261000D02*
X57777000Y-76261000D01*
X64152000Y-76301000D02*
X57848000Y-76301000D01*
X64078000Y-76341000D02*
X57922000Y-76341000D01*
X64002000Y-76381000D02*
X57998000Y-76381000D01*
X63923000Y-76421000D02*
X58077000Y-76421000D01*
X63842000Y-76461000D02*
X58158000Y-76461000D01*
X63758000Y-76501000D02*
X58242000Y-76501000D01*
X63670000Y-76541000D02*
X58330000Y-76541000D01*
X63579000Y-76581000D02*
X58421000Y-76581000D01*
X63484000Y-76621000D02*
X58516000Y-76621000D01*
X63385000Y-76661000D02*
X58615000Y-76661000D01*
X63281000Y-76701000D02*
X58719000Y-76701000D01*
X63171000Y-76741000D02*
X58829000Y-76741000D01*
X63055000Y-76781000D02*
X58945000Y-76781000D01*
X62931000Y-76821000D02*
X59069000Y-76821000D01*
X62798000Y-76861000D02*
X59202000Y-76861000D01*
X62653000Y-76901000D02*
X59347000Y-76901000D01*
X62494000Y-76941000D02*
X59506000Y-76941000D01*
X62315000Y-76981000D02*
X59685000Y-76981000D01*
X62107000Y-77021000D02*
X59893000Y-77021000D01*
X61850000Y-77061000D02*
X60150000Y-77061000D01*
X61475000Y-77101000D02*
X60525000Y-77101000D01*
X67620000Y-70500000D02*
G75*
G03*
X67620000Y-70500000I-6620000J0D01*
G01*
%TO.C,D6*%
X22820000Y-66653821D02*
X24120000Y-66653821D01*
X24120000Y-63868821D02*
X24120000Y-69438821D01*
X24120000Y-69438821D02*
X33880000Y-69438821D01*
X25548000Y-63868821D02*
X25548000Y-69438821D01*
X25668000Y-63868821D02*
X25668000Y-69438821D01*
X25788000Y-63868821D02*
X25788000Y-69438821D01*
X33880000Y-63868821D02*
X24120000Y-63868821D01*
X33880000Y-69438821D02*
X33880000Y-63868821D01*
X35180000Y-66653821D02*
X33880000Y-66653821D01*
%TO.C,C6*%
X94055000Y-27560509D02*
X94055000Y-29160509D01*
X94855000Y-28360509D02*
X93255000Y-28360509D01*
X97581000Y-36250000D02*
X81419000Y-36250000D01*
X97580000Y-36290000D02*
X81420000Y-36290000D01*
X97580000Y-36330000D02*
X81420000Y-36330000D01*
X97580000Y-36370000D02*
X81420000Y-36370000D01*
X97579000Y-36410000D02*
X81421000Y-36410000D01*
X97578000Y-36450000D02*
X81422000Y-36450000D01*
X97577000Y-36490000D02*
X81423000Y-36490000D01*
X97576000Y-36530000D02*
X81424000Y-36530000D01*
X97574000Y-36570000D02*
X81426000Y-36570000D01*
X97573000Y-36610000D02*
X81427000Y-36610000D01*
X97571000Y-36650000D02*
X81429000Y-36650000D01*
X97569000Y-36690000D02*
X81431000Y-36690000D01*
X97566000Y-36730000D02*
X81434000Y-36730000D01*
X97564000Y-36770000D02*
X81436000Y-36770000D01*
X97561000Y-36810000D02*
X81439000Y-36810000D01*
X97558000Y-36850000D02*
X81442000Y-36850000D01*
X97555000Y-36890000D02*
X81445000Y-36890000D01*
X97552000Y-36930000D02*
X81448000Y-36930000D01*
X97549000Y-36971000D02*
X81451000Y-36971000D01*
X97545000Y-37011000D02*
X81455000Y-37011000D01*
X97541000Y-37051000D02*
X81459000Y-37051000D01*
X97537000Y-37091000D02*
X81463000Y-37091000D01*
X97533000Y-37131000D02*
X81467000Y-37131000D01*
X97528000Y-37171000D02*
X81472000Y-37171000D01*
X97524000Y-37211000D02*
X81476000Y-37211000D01*
X97519000Y-37251000D02*
X81481000Y-37251000D01*
X97514000Y-37291000D02*
X81486000Y-37291000D01*
X97508000Y-37331000D02*
X81492000Y-37331000D01*
X97503000Y-37371000D02*
X81497000Y-37371000D01*
X97497000Y-37411000D02*
X81503000Y-37411000D01*
X97491000Y-37451000D02*
X81509000Y-37451000D01*
X97485000Y-37491000D02*
X81515000Y-37491000D01*
X97479000Y-37531000D02*
X81521000Y-37531000D01*
X97472000Y-37571000D02*
X81528000Y-37571000D01*
X97466000Y-37611000D02*
X81534000Y-37611000D01*
X97459000Y-37651000D02*
X81541000Y-37651000D01*
X97452000Y-37691000D02*
X81548000Y-37691000D01*
X97444000Y-37731000D02*
X81556000Y-37731000D01*
X97437000Y-37771000D02*
X81563000Y-37771000D01*
X97429000Y-37811000D02*
X81571000Y-37811000D01*
X97421000Y-37851000D02*
X81579000Y-37851000D01*
X97413000Y-37891000D02*
X81587000Y-37891000D01*
X97405000Y-37931000D02*
X81595000Y-37931000D01*
X97396000Y-37971000D02*
X81604000Y-37971000D01*
X97387000Y-38011000D02*
X81613000Y-38011000D01*
X97378000Y-38051000D02*
X81622000Y-38051000D01*
X97369000Y-38091000D02*
X81631000Y-38091000D01*
X97360000Y-38131000D02*
X81640000Y-38131000D01*
X97350000Y-38171000D02*
X81650000Y-38171000D01*
X97340000Y-38211000D02*
X81660000Y-38211000D01*
X97330000Y-38251000D02*
X81670000Y-38251000D01*
X97320000Y-38291000D02*
X81680000Y-38291000D01*
X97310000Y-38331000D02*
X81690000Y-38331000D01*
X97299000Y-38371000D02*
X81701000Y-38371000D01*
X97288000Y-38411000D02*
X81712000Y-38411000D01*
X97277000Y-38451000D02*
X81723000Y-38451000D01*
X97265000Y-38491000D02*
X81735000Y-38491000D01*
X97254000Y-38531000D02*
X81746000Y-38531000D01*
X97242000Y-38571000D02*
X90940000Y-38571000D01*
X88060000Y-38571000D02*
X81758000Y-38571000D01*
X97230000Y-38611000D02*
X90940000Y-38611000D01*
X88060000Y-38611000D02*
X81770000Y-38611000D01*
X97218000Y-38651000D02*
X90940000Y-38651000D01*
X88060000Y-38651000D02*
X81782000Y-38651000D01*
X97205000Y-38691000D02*
X90940000Y-38691000D01*
X88060000Y-38691000D02*
X81795000Y-38691000D01*
X97193000Y-38731000D02*
X90940000Y-38731000D01*
X88060000Y-38731000D02*
X81807000Y-38731000D01*
X97180000Y-38771000D02*
X90940000Y-38771000D01*
X88060000Y-38771000D02*
X81820000Y-38771000D01*
X97166000Y-38811000D02*
X90940000Y-38811000D01*
X88060000Y-38811000D02*
X81834000Y-38811000D01*
X97153000Y-38851000D02*
X90940000Y-38851000D01*
X88060000Y-38851000D02*
X81847000Y-38851000D01*
X97139000Y-38891000D02*
X90940000Y-38891000D01*
X88060000Y-38891000D02*
X81861000Y-38891000D01*
X97125000Y-38931000D02*
X90940000Y-38931000D01*
X88060000Y-38931000D02*
X81875000Y-38931000D01*
X97111000Y-38971000D02*
X90940000Y-38971000D01*
X88060000Y-38971000D02*
X81889000Y-38971000D01*
X97097000Y-39011000D02*
X90940000Y-39011000D01*
X88060000Y-39011000D02*
X81903000Y-39011000D01*
X97082000Y-39051000D02*
X90940000Y-39051000D01*
X88060000Y-39051000D02*
X81918000Y-39051000D01*
X97068000Y-39091000D02*
X90940000Y-39091000D01*
X88060000Y-39091000D02*
X81932000Y-39091000D01*
X97053000Y-39131000D02*
X90940000Y-39131000D01*
X88060000Y-39131000D02*
X81947000Y-39131000D01*
X97037000Y-39171000D02*
X90940000Y-39171000D01*
X88060000Y-39171000D02*
X81963000Y-39171000D01*
X97022000Y-39211000D02*
X90940000Y-39211000D01*
X88060000Y-39211000D02*
X81978000Y-39211000D01*
X97006000Y-39251000D02*
X90940000Y-39251000D01*
X88060000Y-39251000D02*
X81994000Y-39251000D01*
X96990000Y-39291000D02*
X90940000Y-39291000D01*
X88060000Y-39291000D02*
X82010000Y-39291000D01*
X96974000Y-39331000D02*
X90940000Y-39331000D01*
X88060000Y-39331000D02*
X82026000Y-39331000D01*
X96957000Y-39371000D02*
X90940000Y-39371000D01*
X88060000Y-39371000D02*
X82043000Y-39371000D01*
X96940000Y-39411000D02*
X90940000Y-39411000D01*
X88060000Y-39411000D02*
X82060000Y-39411000D01*
X96923000Y-39451000D02*
X90940000Y-39451000D01*
X88060000Y-39451000D02*
X82077000Y-39451000D01*
X96906000Y-39491000D02*
X90940000Y-39491000D01*
X88060000Y-39491000D02*
X82094000Y-39491000D01*
X96889000Y-39531000D02*
X90940000Y-39531000D01*
X88060000Y-39531000D02*
X82111000Y-39531000D01*
X96871000Y-39571000D02*
X90940000Y-39571000D01*
X88060000Y-39571000D02*
X82129000Y-39571000D01*
X96853000Y-39611000D02*
X90940000Y-39611000D01*
X88060000Y-39611000D02*
X82147000Y-39611000D01*
X96834000Y-39651000D02*
X90940000Y-39651000D01*
X88060000Y-39651000D02*
X82166000Y-39651000D01*
X96816000Y-39691000D02*
X90940000Y-39691000D01*
X88060000Y-39691000D02*
X82184000Y-39691000D01*
X96797000Y-39731000D02*
X90940000Y-39731000D01*
X88060000Y-39731000D02*
X82203000Y-39731000D01*
X96778000Y-39771000D02*
X90940000Y-39771000D01*
X88060000Y-39771000D02*
X82222000Y-39771000D01*
X96758000Y-39811000D02*
X90940000Y-39811000D01*
X88060000Y-39811000D02*
X82242000Y-39811000D01*
X96739000Y-39851000D02*
X90940000Y-39851000D01*
X88060000Y-39851000D02*
X82261000Y-39851000D01*
X96719000Y-39891000D02*
X90940000Y-39891000D01*
X88060000Y-39891000D02*
X82281000Y-39891000D01*
X96699000Y-39931000D02*
X90940000Y-39931000D01*
X88060000Y-39931000D02*
X82301000Y-39931000D01*
X96678000Y-39971000D02*
X90940000Y-39971000D01*
X88060000Y-39971000D02*
X82322000Y-39971000D01*
X96657000Y-40011000D02*
X90940000Y-40011000D01*
X88060000Y-40011000D02*
X82343000Y-40011000D01*
X96636000Y-40051000D02*
X90940000Y-40051000D01*
X88060000Y-40051000D02*
X82364000Y-40051000D01*
X96615000Y-40091000D02*
X90940000Y-40091000D01*
X88060000Y-40091000D02*
X82385000Y-40091000D01*
X96594000Y-40131000D02*
X90940000Y-40131000D01*
X88060000Y-40131000D02*
X82406000Y-40131000D01*
X96572000Y-40171000D02*
X90940000Y-40171000D01*
X88060000Y-40171000D02*
X82428000Y-40171000D01*
X96549000Y-40211000D02*
X90940000Y-40211000D01*
X88060000Y-40211000D02*
X82451000Y-40211000D01*
X96527000Y-40251000D02*
X90940000Y-40251000D01*
X88060000Y-40251000D02*
X82473000Y-40251000D01*
X96504000Y-40291000D02*
X90940000Y-40291000D01*
X88060000Y-40291000D02*
X82496000Y-40291000D01*
X96481000Y-40331000D02*
X90940000Y-40331000D01*
X88060000Y-40331000D02*
X82519000Y-40331000D01*
X96458000Y-40371000D02*
X90940000Y-40371000D01*
X88060000Y-40371000D02*
X82542000Y-40371000D01*
X96434000Y-40411000D02*
X90940000Y-40411000D01*
X88060000Y-40411000D02*
X82566000Y-40411000D01*
X96410000Y-40451000D02*
X90940000Y-40451000D01*
X88060000Y-40451000D02*
X82590000Y-40451000D01*
X96386000Y-40491000D02*
X90940000Y-40491000D01*
X88060000Y-40491000D02*
X82614000Y-40491000D01*
X96361000Y-40531000D02*
X90940000Y-40531000D01*
X88060000Y-40531000D02*
X82639000Y-40531000D01*
X96336000Y-40571000D02*
X90940000Y-40571000D01*
X88060000Y-40571000D02*
X82664000Y-40571000D01*
X96311000Y-40611000D02*
X90940000Y-40611000D01*
X88060000Y-40611000D02*
X82689000Y-40611000D01*
X96285000Y-40651000D02*
X90940000Y-40651000D01*
X88060000Y-40651000D02*
X82715000Y-40651000D01*
X96259000Y-40691000D02*
X90940000Y-40691000D01*
X88060000Y-40691000D02*
X82741000Y-40691000D01*
X96233000Y-40731000D02*
X90940000Y-40731000D01*
X88060000Y-40731000D02*
X82767000Y-40731000D01*
X96206000Y-40771000D02*
X90940000Y-40771000D01*
X88060000Y-40771000D02*
X82794000Y-40771000D01*
X96179000Y-40811000D02*
X90940000Y-40811000D01*
X88060000Y-40811000D02*
X82821000Y-40811000D01*
X96152000Y-40851000D02*
X90940000Y-40851000D01*
X88060000Y-40851000D02*
X82848000Y-40851000D01*
X96124000Y-40891000D02*
X90940000Y-40891000D01*
X88060000Y-40891000D02*
X82876000Y-40891000D01*
X96096000Y-40931000D02*
X90940000Y-40931000D01*
X88060000Y-40931000D02*
X82904000Y-40931000D01*
X96068000Y-40971000D02*
X90940000Y-40971000D01*
X88060000Y-40971000D02*
X82932000Y-40971000D01*
X96039000Y-41011000D02*
X90940000Y-41011000D01*
X88060000Y-41011000D02*
X82961000Y-41011000D01*
X96010000Y-41051000D02*
X90940000Y-41051000D01*
X88060000Y-41051000D02*
X82990000Y-41051000D01*
X95980000Y-41091000D02*
X90940000Y-41091000D01*
X88060000Y-41091000D02*
X83020000Y-41091000D01*
X95950000Y-41131000D02*
X90940000Y-41131000D01*
X88060000Y-41131000D02*
X83050000Y-41131000D01*
X95920000Y-41171000D02*
X90940000Y-41171000D01*
X88060000Y-41171000D02*
X83080000Y-41171000D01*
X95890000Y-41211000D02*
X90940000Y-41211000D01*
X88060000Y-41211000D02*
X83110000Y-41211000D01*
X95858000Y-41251000D02*
X90940000Y-41251000D01*
X88060000Y-41251000D02*
X83142000Y-41251000D01*
X95827000Y-41291000D02*
X90940000Y-41291000D01*
X88060000Y-41291000D02*
X83173000Y-41291000D01*
X95795000Y-41331000D02*
X90940000Y-41331000D01*
X88060000Y-41331000D02*
X83205000Y-41331000D01*
X95763000Y-41371000D02*
X90940000Y-41371000D01*
X88060000Y-41371000D02*
X83237000Y-41371000D01*
X95730000Y-41411000D02*
X90940000Y-41411000D01*
X88060000Y-41411000D02*
X83270000Y-41411000D01*
X95697000Y-41451000D02*
X83303000Y-41451000D01*
X95663000Y-41491000D02*
X83337000Y-41491000D01*
X95629000Y-41531000D02*
X83371000Y-41531000D01*
X95595000Y-41571000D02*
X83405000Y-41571000D01*
X95560000Y-41611000D02*
X83440000Y-41611000D01*
X95525000Y-41651000D02*
X83475000Y-41651000D01*
X95489000Y-41691000D02*
X83511000Y-41691000D01*
X95452000Y-41731000D02*
X83548000Y-41731000D01*
X95416000Y-41771000D02*
X83584000Y-41771000D01*
X95378000Y-41811000D02*
X83622000Y-41811000D01*
X95340000Y-41851000D02*
X83660000Y-41851000D01*
X95302000Y-41891000D02*
X83698000Y-41891000D01*
X95263000Y-41931000D02*
X83737000Y-41931000D01*
X95224000Y-41971000D02*
X83776000Y-41971000D01*
X95184000Y-42011000D02*
X83816000Y-42011000D01*
X95143000Y-42051000D02*
X83857000Y-42051000D01*
X95102000Y-42091000D02*
X83898000Y-42091000D01*
X95060000Y-42131000D02*
X83940000Y-42131000D01*
X95018000Y-42171000D02*
X83982000Y-42171000D01*
X94975000Y-42211000D02*
X84025000Y-42211000D01*
X94932000Y-42251000D02*
X84068000Y-42251000D01*
X94888000Y-42291000D02*
X84112000Y-42291000D01*
X94843000Y-42331000D02*
X84157000Y-42331000D01*
X94797000Y-42371000D02*
X84203000Y-42371000D01*
X94751000Y-42411000D02*
X84249000Y-42411000D01*
X94704000Y-42451000D02*
X84296000Y-42451000D01*
X94656000Y-42491000D02*
X84344000Y-42491000D01*
X94608000Y-42531000D02*
X84392000Y-42531000D01*
X94559000Y-42571000D02*
X84441000Y-42571000D01*
X94509000Y-42611000D02*
X84491000Y-42611000D01*
X94458000Y-42651000D02*
X84542000Y-42651000D01*
X94406000Y-42691000D02*
X84594000Y-42691000D01*
X94354000Y-42731000D02*
X84646000Y-42731000D01*
X94300000Y-42771000D02*
X84700000Y-42771000D01*
X94246000Y-42811000D02*
X84754000Y-42811000D01*
X94191000Y-42851000D02*
X84809000Y-42851000D01*
X94134000Y-42891000D02*
X84866000Y-42891000D01*
X94077000Y-42931000D02*
X84923000Y-42931000D01*
X94019000Y-42971000D02*
X84981000Y-42971000D01*
X93959000Y-43011000D02*
X85041000Y-43011000D01*
X93898000Y-43051000D02*
X85102000Y-43051000D01*
X93836000Y-43091000D02*
X85164000Y-43091000D01*
X93773000Y-43131000D02*
X85227000Y-43131000D01*
X93709000Y-43171000D02*
X85291000Y-43171000D01*
X93643000Y-43211000D02*
X85357000Y-43211000D01*
X93576000Y-43251000D02*
X85424000Y-43251000D01*
X93507000Y-43291000D02*
X85493000Y-43291000D01*
X93436000Y-43331000D02*
X85564000Y-43331000D01*
X93364000Y-43371000D02*
X85636000Y-43371000D01*
X93290000Y-43411000D02*
X85710000Y-43411000D01*
X93215000Y-43451000D02*
X85785000Y-43451000D01*
X93137000Y-43491000D02*
X85863000Y-43491000D01*
X93057000Y-43531000D02*
X85943000Y-43531000D01*
X92975000Y-43571000D02*
X86025000Y-43571000D01*
X92890000Y-43611000D02*
X86110000Y-43611000D01*
X92803000Y-43651000D02*
X86197000Y-43651000D01*
X92713000Y-43691000D02*
X86287000Y-43691000D01*
X92620000Y-43731000D02*
X86380000Y-43731000D01*
X92524000Y-43771000D02*
X86476000Y-43771000D01*
X92424000Y-43811000D02*
X86576000Y-43811000D01*
X92320000Y-43851000D02*
X86680000Y-43851000D01*
X92211000Y-43891000D02*
X86789000Y-43891000D01*
X92097000Y-43931000D02*
X86903000Y-43931000D01*
X91978000Y-43971000D02*
X87022000Y-43971000D01*
X91851000Y-44011000D02*
X87149000Y-44011000D01*
X91718000Y-44051000D02*
X87282000Y-44051000D01*
X91574000Y-44091000D02*
X87426000Y-44091000D01*
X91420000Y-44131000D02*
X87580000Y-44131000D01*
X91252000Y-44171000D02*
X87748000Y-44171000D01*
X91064000Y-44211000D02*
X87936000Y-44211000D01*
X90851000Y-44251000D02*
X88149000Y-44251000D01*
X90598000Y-44291000D02*
X88402000Y-44291000D01*
X90265000Y-44331000D02*
X88735000Y-44331000D01*
X97620000Y-36250000D02*
G75*
G03*
X97620000Y-36250000I-8120000J0D01*
G01*
%TO.C,D8*%
X22820000Y-72653821D02*
X24120000Y-72653821D01*
X24120000Y-69868821D02*
X24120000Y-75438821D01*
X24120000Y-75438821D02*
X33880000Y-75438821D01*
X25548000Y-69868821D02*
X25548000Y-75438821D01*
X25668000Y-69868821D02*
X25668000Y-75438821D01*
X25788000Y-69868821D02*
X25788000Y-75438821D01*
X33880000Y-69868821D02*
X24120000Y-69868821D01*
X33880000Y-75438821D02*
X33880000Y-69868821D01*
X35180000Y-72653821D02*
X33880000Y-72653821D01*
%TO.C,C2*%
X56055000Y-28560509D02*
X56055000Y-30160509D01*
X56855000Y-29360509D02*
X55255000Y-29360509D01*
X59581000Y-37250000D02*
X43419000Y-37250000D01*
X59580000Y-37290000D02*
X43420000Y-37290000D01*
X59580000Y-37330000D02*
X43420000Y-37330000D01*
X59580000Y-37370000D02*
X43420000Y-37370000D01*
X59579000Y-37410000D02*
X43421000Y-37410000D01*
X59578000Y-37450000D02*
X43422000Y-37450000D01*
X59577000Y-37490000D02*
X43423000Y-37490000D01*
X59576000Y-37530000D02*
X43424000Y-37530000D01*
X59574000Y-37570000D02*
X43426000Y-37570000D01*
X59573000Y-37610000D02*
X43427000Y-37610000D01*
X59571000Y-37650000D02*
X43429000Y-37650000D01*
X59569000Y-37690000D02*
X43431000Y-37690000D01*
X59566000Y-37730000D02*
X43434000Y-37730000D01*
X59564000Y-37770000D02*
X43436000Y-37770000D01*
X59561000Y-37810000D02*
X43439000Y-37810000D01*
X59558000Y-37850000D02*
X43442000Y-37850000D01*
X59555000Y-37890000D02*
X43445000Y-37890000D01*
X59552000Y-37930000D02*
X43448000Y-37930000D01*
X59549000Y-37971000D02*
X43451000Y-37971000D01*
X59545000Y-38011000D02*
X43455000Y-38011000D01*
X59541000Y-38051000D02*
X43459000Y-38051000D01*
X59537000Y-38091000D02*
X43463000Y-38091000D01*
X59533000Y-38131000D02*
X43467000Y-38131000D01*
X59528000Y-38171000D02*
X43472000Y-38171000D01*
X59524000Y-38211000D02*
X43476000Y-38211000D01*
X59519000Y-38251000D02*
X43481000Y-38251000D01*
X59514000Y-38291000D02*
X43486000Y-38291000D01*
X59508000Y-38331000D02*
X43492000Y-38331000D01*
X59503000Y-38371000D02*
X43497000Y-38371000D01*
X59497000Y-38411000D02*
X43503000Y-38411000D01*
X59491000Y-38451000D02*
X43509000Y-38451000D01*
X59485000Y-38491000D02*
X43515000Y-38491000D01*
X59479000Y-38531000D02*
X43521000Y-38531000D01*
X59472000Y-38571000D02*
X43528000Y-38571000D01*
X59466000Y-38611000D02*
X43534000Y-38611000D01*
X59459000Y-38651000D02*
X43541000Y-38651000D01*
X59452000Y-38691000D02*
X43548000Y-38691000D01*
X59444000Y-38731000D02*
X43556000Y-38731000D01*
X59437000Y-38771000D02*
X43563000Y-38771000D01*
X59429000Y-38811000D02*
X43571000Y-38811000D01*
X59421000Y-38851000D02*
X43579000Y-38851000D01*
X59413000Y-38891000D02*
X43587000Y-38891000D01*
X59405000Y-38931000D02*
X43595000Y-38931000D01*
X59396000Y-38971000D02*
X43604000Y-38971000D01*
X59387000Y-39011000D02*
X43613000Y-39011000D01*
X59378000Y-39051000D02*
X43622000Y-39051000D01*
X59369000Y-39091000D02*
X43631000Y-39091000D01*
X59360000Y-39131000D02*
X43640000Y-39131000D01*
X59350000Y-39171000D02*
X43650000Y-39171000D01*
X59340000Y-39211000D02*
X43660000Y-39211000D01*
X59330000Y-39251000D02*
X43670000Y-39251000D01*
X59320000Y-39291000D02*
X43680000Y-39291000D01*
X59310000Y-39331000D02*
X43690000Y-39331000D01*
X59299000Y-39371000D02*
X43701000Y-39371000D01*
X59288000Y-39411000D02*
X43712000Y-39411000D01*
X59277000Y-39451000D02*
X43723000Y-39451000D01*
X59265000Y-39491000D02*
X43735000Y-39491000D01*
X59254000Y-39531000D02*
X43746000Y-39531000D01*
X59242000Y-39571000D02*
X52940000Y-39571000D01*
X50060000Y-39571000D02*
X43758000Y-39571000D01*
X59230000Y-39611000D02*
X52940000Y-39611000D01*
X50060000Y-39611000D02*
X43770000Y-39611000D01*
X59218000Y-39651000D02*
X52940000Y-39651000D01*
X50060000Y-39651000D02*
X43782000Y-39651000D01*
X59205000Y-39691000D02*
X52940000Y-39691000D01*
X50060000Y-39691000D02*
X43795000Y-39691000D01*
X59193000Y-39731000D02*
X52940000Y-39731000D01*
X50060000Y-39731000D02*
X43807000Y-39731000D01*
X59180000Y-39771000D02*
X52940000Y-39771000D01*
X50060000Y-39771000D02*
X43820000Y-39771000D01*
X59166000Y-39811000D02*
X52940000Y-39811000D01*
X50060000Y-39811000D02*
X43834000Y-39811000D01*
X59153000Y-39851000D02*
X52940000Y-39851000D01*
X50060000Y-39851000D02*
X43847000Y-39851000D01*
X59139000Y-39891000D02*
X52940000Y-39891000D01*
X50060000Y-39891000D02*
X43861000Y-39891000D01*
X59125000Y-39931000D02*
X52940000Y-39931000D01*
X50060000Y-39931000D02*
X43875000Y-39931000D01*
X59111000Y-39971000D02*
X52940000Y-39971000D01*
X50060000Y-39971000D02*
X43889000Y-39971000D01*
X59097000Y-40011000D02*
X52940000Y-40011000D01*
X50060000Y-40011000D02*
X43903000Y-40011000D01*
X59082000Y-40051000D02*
X52940000Y-40051000D01*
X50060000Y-40051000D02*
X43918000Y-40051000D01*
X59068000Y-40091000D02*
X52940000Y-40091000D01*
X50060000Y-40091000D02*
X43932000Y-40091000D01*
X59053000Y-40131000D02*
X52940000Y-40131000D01*
X50060000Y-40131000D02*
X43947000Y-40131000D01*
X59037000Y-40171000D02*
X52940000Y-40171000D01*
X50060000Y-40171000D02*
X43963000Y-40171000D01*
X59022000Y-40211000D02*
X52940000Y-40211000D01*
X50060000Y-40211000D02*
X43978000Y-40211000D01*
X59006000Y-40251000D02*
X52940000Y-40251000D01*
X50060000Y-40251000D02*
X43994000Y-40251000D01*
X58990000Y-40291000D02*
X52940000Y-40291000D01*
X50060000Y-40291000D02*
X44010000Y-40291000D01*
X58974000Y-40331000D02*
X52940000Y-40331000D01*
X50060000Y-40331000D02*
X44026000Y-40331000D01*
X58957000Y-40371000D02*
X52940000Y-40371000D01*
X50060000Y-40371000D02*
X44043000Y-40371000D01*
X58940000Y-40411000D02*
X52940000Y-40411000D01*
X50060000Y-40411000D02*
X44060000Y-40411000D01*
X58923000Y-40451000D02*
X52940000Y-40451000D01*
X50060000Y-40451000D02*
X44077000Y-40451000D01*
X58906000Y-40491000D02*
X52940000Y-40491000D01*
X50060000Y-40491000D02*
X44094000Y-40491000D01*
X58889000Y-40531000D02*
X52940000Y-40531000D01*
X50060000Y-40531000D02*
X44111000Y-40531000D01*
X58871000Y-40571000D02*
X52940000Y-40571000D01*
X50060000Y-40571000D02*
X44129000Y-40571000D01*
X58853000Y-40611000D02*
X52940000Y-40611000D01*
X50060000Y-40611000D02*
X44147000Y-40611000D01*
X58834000Y-40651000D02*
X52940000Y-40651000D01*
X50060000Y-40651000D02*
X44166000Y-40651000D01*
X58816000Y-40691000D02*
X52940000Y-40691000D01*
X50060000Y-40691000D02*
X44184000Y-40691000D01*
X58797000Y-40731000D02*
X52940000Y-40731000D01*
X50060000Y-40731000D02*
X44203000Y-40731000D01*
X58778000Y-40771000D02*
X52940000Y-40771000D01*
X50060000Y-40771000D02*
X44222000Y-40771000D01*
X58758000Y-40811000D02*
X52940000Y-40811000D01*
X50060000Y-40811000D02*
X44242000Y-40811000D01*
X58739000Y-40851000D02*
X52940000Y-40851000D01*
X50060000Y-40851000D02*
X44261000Y-40851000D01*
X58719000Y-40891000D02*
X52940000Y-40891000D01*
X50060000Y-40891000D02*
X44281000Y-40891000D01*
X58699000Y-40931000D02*
X52940000Y-40931000D01*
X50060000Y-40931000D02*
X44301000Y-40931000D01*
X58678000Y-40971000D02*
X52940000Y-40971000D01*
X50060000Y-40971000D02*
X44322000Y-40971000D01*
X58657000Y-41011000D02*
X52940000Y-41011000D01*
X50060000Y-41011000D02*
X44343000Y-41011000D01*
X58636000Y-41051000D02*
X52940000Y-41051000D01*
X50060000Y-41051000D02*
X44364000Y-41051000D01*
X58615000Y-41091000D02*
X52940000Y-41091000D01*
X50060000Y-41091000D02*
X44385000Y-41091000D01*
X58594000Y-41131000D02*
X52940000Y-41131000D01*
X50060000Y-41131000D02*
X44406000Y-41131000D01*
X58572000Y-41171000D02*
X52940000Y-41171000D01*
X50060000Y-41171000D02*
X44428000Y-41171000D01*
X58549000Y-41211000D02*
X52940000Y-41211000D01*
X50060000Y-41211000D02*
X44451000Y-41211000D01*
X58527000Y-41251000D02*
X52940000Y-41251000D01*
X50060000Y-41251000D02*
X44473000Y-41251000D01*
X58504000Y-41291000D02*
X52940000Y-41291000D01*
X50060000Y-41291000D02*
X44496000Y-41291000D01*
X58481000Y-41331000D02*
X52940000Y-41331000D01*
X50060000Y-41331000D02*
X44519000Y-41331000D01*
X58458000Y-41371000D02*
X52940000Y-41371000D01*
X50060000Y-41371000D02*
X44542000Y-41371000D01*
X58434000Y-41411000D02*
X52940000Y-41411000D01*
X50060000Y-41411000D02*
X44566000Y-41411000D01*
X58410000Y-41451000D02*
X52940000Y-41451000D01*
X50060000Y-41451000D02*
X44590000Y-41451000D01*
X58386000Y-41491000D02*
X52940000Y-41491000D01*
X50060000Y-41491000D02*
X44614000Y-41491000D01*
X58361000Y-41531000D02*
X52940000Y-41531000D01*
X50060000Y-41531000D02*
X44639000Y-41531000D01*
X58336000Y-41571000D02*
X52940000Y-41571000D01*
X50060000Y-41571000D02*
X44664000Y-41571000D01*
X58311000Y-41611000D02*
X52940000Y-41611000D01*
X50060000Y-41611000D02*
X44689000Y-41611000D01*
X58285000Y-41651000D02*
X52940000Y-41651000D01*
X50060000Y-41651000D02*
X44715000Y-41651000D01*
X58259000Y-41691000D02*
X52940000Y-41691000D01*
X50060000Y-41691000D02*
X44741000Y-41691000D01*
X58233000Y-41731000D02*
X52940000Y-41731000D01*
X50060000Y-41731000D02*
X44767000Y-41731000D01*
X58206000Y-41771000D02*
X52940000Y-41771000D01*
X50060000Y-41771000D02*
X44794000Y-41771000D01*
X58179000Y-41811000D02*
X52940000Y-41811000D01*
X50060000Y-41811000D02*
X44821000Y-41811000D01*
X58152000Y-41851000D02*
X52940000Y-41851000D01*
X50060000Y-41851000D02*
X44848000Y-41851000D01*
X58124000Y-41891000D02*
X52940000Y-41891000D01*
X50060000Y-41891000D02*
X44876000Y-41891000D01*
X58096000Y-41931000D02*
X52940000Y-41931000D01*
X50060000Y-41931000D02*
X44904000Y-41931000D01*
X58068000Y-41971000D02*
X52940000Y-41971000D01*
X50060000Y-41971000D02*
X44932000Y-41971000D01*
X58039000Y-42011000D02*
X52940000Y-42011000D01*
X50060000Y-42011000D02*
X44961000Y-42011000D01*
X58010000Y-42051000D02*
X52940000Y-42051000D01*
X50060000Y-42051000D02*
X44990000Y-42051000D01*
X57980000Y-42091000D02*
X52940000Y-42091000D01*
X50060000Y-42091000D02*
X45020000Y-42091000D01*
X57950000Y-42131000D02*
X52940000Y-42131000D01*
X50060000Y-42131000D02*
X45050000Y-42131000D01*
X57920000Y-42171000D02*
X52940000Y-42171000D01*
X50060000Y-42171000D02*
X45080000Y-42171000D01*
X57890000Y-42211000D02*
X52940000Y-42211000D01*
X50060000Y-42211000D02*
X45110000Y-42211000D01*
X57858000Y-42251000D02*
X52940000Y-42251000D01*
X50060000Y-42251000D02*
X45142000Y-42251000D01*
X57827000Y-42291000D02*
X52940000Y-42291000D01*
X50060000Y-42291000D02*
X45173000Y-42291000D01*
X57795000Y-42331000D02*
X52940000Y-42331000D01*
X50060000Y-42331000D02*
X45205000Y-42331000D01*
X57763000Y-42371000D02*
X52940000Y-42371000D01*
X50060000Y-42371000D02*
X45237000Y-42371000D01*
X57730000Y-42411000D02*
X52940000Y-42411000D01*
X50060000Y-42411000D02*
X45270000Y-42411000D01*
X57697000Y-42451000D02*
X45303000Y-42451000D01*
X57663000Y-42491000D02*
X45337000Y-42491000D01*
X57629000Y-42531000D02*
X45371000Y-42531000D01*
X57595000Y-42571000D02*
X45405000Y-42571000D01*
X57560000Y-42611000D02*
X45440000Y-42611000D01*
X57525000Y-42651000D02*
X45475000Y-42651000D01*
X57489000Y-42691000D02*
X45511000Y-42691000D01*
X57452000Y-42731000D02*
X45548000Y-42731000D01*
X57416000Y-42771000D02*
X45584000Y-42771000D01*
X57378000Y-42811000D02*
X45622000Y-42811000D01*
X57340000Y-42851000D02*
X45660000Y-42851000D01*
X57302000Y-42891000D02*
X45698000Y-42891000D01*
X57263000Y-42931000D02*
X45737000Y-42931000D01*
X57224000Y-42971000D02*
X45776000Y-42971000D01*
X57184000Y-43011000D02*
X45816000Y-43011000D01*
X57143000Y-43051000D02*
X45857000Y-43051000D01*
X57102000Y-43091000D02*
X45898000Y-43091000D01*
X57060000Y-43131000D02*
X45940000Y-43131000D01*
X57018000Y-43171000D02*
X45982000Y-43171000D01*
X56975000Y-43211000D02*
X46025000Y-43211000D01*
X56932000Y-43251000D02*
X46068000Y-43251000D01*
X56888000Y-43291000D02*
X46112000Y-43291000D01*
X56843000Y-43331000D02*
X46157000Y-43331000D01*
X56797000Y-43371000D02*
X46203000Y-43371000D01*
X56751000Y-43411000D02*
X46249000Y-43411000D01*
X56704000Y-43451000D02*
X46296000Y-43451000D01*
X56656000Y-43491000D02*
X46344000Y-43491000D01*
X56608000Y-43531000D02*
X46392000Y-43531000D01*
X56559000Y-43571000D02*
X46441000Y-43571000D01*
X56509000Y-43611000D02*
X46491000Y-43611000D01*
X56458000Y-43651000D02*
X46542000Y-43651000D01*
X56406000Y-43691000D02*
X46594000Y-43691000D01*
X56354000Y-43731000D02*
X46646000Y-43731000D01*
X56300000Y-43771000D02*
X46700000Y-43771000D01*
X56246000Y-43811000D02*
X46754000Y-43811000D01*
X56191000Y-43851000D02*
X46809000Y-43851000D01*
X56134000Y-43891000D02*
X46866000Y-43891000D01*
X56077000Y-43931000D02*
X46923000Y-43931000D01*
X56019000Y-43971000D02*
X46981000Y-43971000D01*
X55959000Y-44011000D02*
X47041000Y-44011000D01*
X55898000Y-44051000D02*
X47102000Y-44051000D01*
X55836000Y-44091000D02*
X47164000Y-44091000D01*
X55773000Y-44131000D02*
X47227000Y-44131000D01*
X55709000Y-44171000D02*
X47291000Y-44171000D01*
X55643000Y-44211000D02*
X47357000Y-44211000D01*
X55576000Y-44251000D02*
X47424000Y-44251000D01*
X55507000Y-44291000D02*
X47493000Y-44291000D01*
X55436000Y-44331000D02*
X47564000Y-44331000D01*
X55364000Y-44371000D02*
X47636000Y-44371000D01*
X55290000Y-44411000D02*
X47710000Y-44411000D01*
X55215000Y-44451000D02*
X47785000Y-44451000D01*
X55137000Y-44491000D02*
X47863000Y-44491000D01*
X55057000Y-44531000D02*
X47943000Y-44531000D01*
X54975000Y-44571000D02*
X48025000Y-44571000D01*
X54890000Y-44611000D02*
X48110000Y-44611000D01*
X54803000Y-44651000D02*
X48197000Y-44651000D01*
X54713000Y-44691000D02*
X48287000Y-44691000D01*
X54620000Y-44731000D02*
X48380000Y-44731000D01*
X54524000Y-44771000D02*
X48476000Y-44771000D01*
X54424000Y-44811000D02*
X48576000Y-44811000D01*
X54320000Y-44851000D02*
X48680000Y-44851000D01*
X54211000Y-44891000D02*
X48789000Y-44891000D01*
X54097000Y-44931000D02*
X48903000Y-44931000D01*
X53978000Y-44971000D02*
X49022000Y-44971000D01*
X53851000Y-45011000D02*
X49149000Y-45011000D01*
X53718000Y-45051000D02*
X49282000Y-45051000D01*
X53574000Y-45091000D02*
X49426000Y-45091000D01*
X53420000Y-45131000D02*
X49580000Y-45131000D01*
X53252000Y-45171000D02*
X49748000Y-45171000D01*
X53064000Y-45211000D02*
X49936000Y-45211000D01*
X52851000Y-45251000D02*
X50149000Y-45251000D01*
X52598000Y-45291000D02*
X50402000Y-45291000D01*
X52265000Y-45331000D02*
X50735000Y-45331000D01*
X59620000Y-37250000D02*
G75*
G03*
X59620000Y-37250000I-8120000J0D01*
G01*
%TO.C,J8*%
X100700000Y-62900000D02*
X103300000Y-62900000D01*
X100700000Y-65500000D02*
X100700000Y-62900000D01*
X100700000Y-65500000D02*
X103300000Y-65500000D01*
X103300000Y-62900000D02*
X103300000Y-65500000D01*
%TO.C,C4*%
X75055000Y-28560509D02*
X75055000Y-30160509D01*
X75855000Y-29360509D02*
X74255000Y-29360509D01*
X78581000Y-37250000D02*
X62419000Y-37250000D01*
X78580000Y-37290000D02*
X62420000Y-37290000D01*
X78580000Y-37330000D02*
X62420000Y-37330000D01*
X78580000Y-37370000D02*
X62420000Y-37370000D01*
X78579000Y-37410000D02*
X62421000Y-37410000D01*
X78578000Y-37450000D02*
X62422000Y-37450000D01*
X78577000Y-37490000D02*
X62423000Y-37490000D01*
X78576000Y-37530000D02*
X62424000Y-37530000D01*
X78574000Y-37570000D02*
X62426000Y-37570000D01*
X78573000Y-37610000D02*
X62427000Y-37610000D01*
X78571000Y-37650000D02*
X62429000Y-37650000D01*
X78569000Y-37690000D02*
X62431000Y-37690000D01*
X78566000Y-37730000D02*
X62434000Y-37730000D01*
X78564000Y-37770000D02*
X62436000Y-37770000D01*
X78561000Y-37810000D02*
X62439000Y-37810000D01*
X78558000Y-37850000D02*
X62442000Y-37850000D01*
X78555000Y-37890000D02*
X62445000Y-37890000D01*
X78552000Y-37930000D02*
X62448000Y-37930000D01*
X78549000Y-37971000D02*
X62451000Y-37971000D01*
X78545000Y-38011000D02*
X62455000Y-38011000D01*
X78541000Y-38051000D02*
X62459000Y-38051000D01*
X78537000Y-38091000D02*
X62463000Y-38091000D01*
X78533000Y-38131000D02*
X62467000Y-38131000D01*
X78528000Y-38171000D02*
X62472000Y-38171000D01*
X78524000Y-38211000D02*
X62476000Y-38211000D01*
X78519000Y-38251000D02*
X62481000Y-38251000D01*
X78514000Y-38291000D02*
X62486000Y-38291000D01*
X78508000Y-38331000D02*
X62492000Y-38331000D01*
X78503000Y-38371000D02*
X62497000Y-38371000D01*
X78497000Y-38411000D02*
X62503000Y-38411000D01*
X78491000Y-38451000D02*
X62509000Y-38451000D01*
X78485000Y-38491000D02*
X62515000Y-38491000D01*
X78479000Y-38531000D02*
X62521000Y-38531000D01*
X78472000Y-38571000D02*
X62528000Y-38571000D01*
X78466000Y-38611000D02*
X62534000Y-38611000D01*
X78459000Y-38651000D02*
X62541000Y-38651000D01*
X78452000Y-38691000D02*
X62548000Y-38691000D01*
X78444000Y-38731000D02*
X62556000Y-38731000D01*
X78437000Y-38771000D02*
X62563000Y-38771000D01*
X78429000Y-38811000D02*
X62571000Y-38811000D01*
X78421000Y-38851000D02*
X62579000Y-38851000D01*
X78413000Y-38891000D02*
X62587000Y-38891000D01*
X78405000Y-38931000D02*
X62595000Y-38931000D01*
X78396000Y-38971000D02*
X62604000Y-38971000D01*
X78387000Y-39011000D02*
X62613000Y-39011000D01*
X78378000Y-39051000D02*
X62622000Y-39051000D01*
X78369000Y-39091000D02*
X62631000Y-39091000D01*
X78360000Y-39131000D02*
X62640000Y-39131000D01*
X78350000Y-39171000D02*
X62650000Y-39171000D01*
X78340000Y-39211000D02*
X62660000Y-39211000D01*
X78330000Y-39251000D02*
X62670000Y-39251000D01*
X78320000Y-39291000D02*
X62680000Y-39291000D01*
X78310000Y-39331000D02*
X62690000Y-39331000D01*
X78299000Y-39371000D02*
X62701000Y-39371000D01*
X78288000Y-39411000D02*
X62712000Y-39411000D01*
X78277000Y-39451000D02*
X62723000Y-39451000D01*
X78265000Y-39491000D02*
X62735000Y-39491000D01*
X78254000Y-39531000D02*
X62746000Y-39531000D01*
X78242000Y-39571000D02*
X71940000Y-39571000D01*
X69060000Y-39571000D02*
X62758000Y-39571000D01*
X78230000Y-39611000D02*
X71940000Y-39611000D01*
X69060000Y-39611000D02*
X62770000Y-39611000D01*
X78218000Y-39651000D02*
X71940000Y-39651000D01*
X69060000Y-39651000D02*
X62782000Y-39651000D01*
X78205000Y-39691000D02*
X71940000Y-39691000D01*
X69060000Y-39691000D02*
X62795000Y-39691000D01*
X78193000Y-39731000D02*
X71940000Y-39731000D01*
X69060000Y-39731000D02*
X62807000Y-39731000D01*
X78180000Y-39771000D02*
X71940000Y-39771000D01*
X69060000Y-39771000D02*
X62820000Y-39771000D01*
X78166000Y-39811000D02*
X71940000Y-39811000D01*
X69060000Y-39811000D02*
X62834000Y-39811000D01*
X78153000Y-39851000D02*
X71940000Y-39851000D01*
X69060000Y-39851000D02*
X62847000Y-39851000D01*
X78139000Y-39891000D02*
X71940000Y-39891000D01*
X69060000Y-39891000D02*
X62861000Y-39891000D01*
X78125000Y-39931000D02*
X71940000Y-39931000D01*
X69060000Y-39931000D02*
X62875000Y-39931000D01*
X78111000Y-39971000D02*
X71940000Y-39971000D01*
X69060000Y-39971000D02*
X62889000Y-39971000D01*
X78097000Y-40011000D02*
X71940000Y-40011000D01*
X69060000Y-40011000D02*
X62903000Y-40011000D01*
X78082000Y-40051000D02*
X71940000Y-40051000D01*
X69060000Y-40051000D02*
X62918000Y-40051000D01*
X78068000Y-40091000D02*
X71940000Y-40091000D01*
X69060000Y-40091000D02*
X62932000Y-40091000D01*
X78053000Y-40131000D02*
X71940000Y-40131000D01*
X69060000Y-40131000D02*
X62947000Y-40131000D01*
X78037000Y-40171000D02*
X71940000Y-40171000D01*
X69060000Y-40171000D02*
X62963000Y-40171000D01*
X78022000Y-40211000D02*
X71940000Y-40211000D01*
X69060000Y-40211000D02*
X62978000Y-40211000D01*
X78006000Y-40251000D02*
X71940000Y-40251000D01*
X69060000Y-40251000D02*
X62994000Y-40251000D01*
X77990000Y-40291000D02*
X71940000Y-40291000D01*
X69060000Y-40291000D02*
X63010000Y-40291000D01*
X77974000Y-40331000D02*
X71940000Y-40331000D01*
X69060000Y-40331000D02*
X63026000Y-40331000D01*
X77957000Y-40371000D02*
X71940000Y-40371000D01*
X69060000Y-40371000D02*
X63043000Y-40371000D01*
X77940000Y-40411000D02*
X71940000Y-40411000D01*
X69060000Y-40411000D02*
X63060000Y-40411000D01*
X77923000Y-40451000D02*
X71940000Y-40451000D01*
X69060000Y-40451000D02*
X63077000Y-40451000D01*
X77906000Y-40491000D02*
X71940000Y-40491000D01*
X69060000Y-40491000D02*
X63094000Y-40491000D01*
X77889000Y-40531000D02*
X71940000Y-40531000D01*
X69060000Y-40531000D02*
X63111000Y-40531000D01*
X77871000Y-40571000D02*
X71940000Y-40571000D01*
X69060000Y-40571000D02*
X63129000Y-40571000D01*
X77853000Y-40611000D02*
X71940000Y-40611000D01*
X69060000Y-40611000D02*
X63147000Y-40611000D01*
X77834000Y-40651000D02*
X71940000Y-40651000D01*
X69060000Y-40651000D02*
X63166000Y-40651000D01*
X77816000Y-40691000D02*
X71940000Y-40691000D01*
X69060000Y-40691000D02*
X63184000Y-40691000D01*
X77797000Y-40731000D02*
X71940000Y-40731000D01*
X69060000Y-40731000D02*
X63203000Y-40731000D01*
X77778000Y-40771000D02*
X71940000Y-40771000D01*
X69060000Y-40771000D02*
X63222000Y-40771000D01*
X77758000Y-40811000D02*
X71940000Y-40811000D01*
X69060000Y-40811000D02*
X63242000Y-40811000D01*
X77739000Y-40851000D02*
X71940000Y-40851000D01*
X69060000Y-40851000D02*
X63261000Y-40851000D01*
X77719000Y-40891000D02*
X71940000Y-40891000D01*
X69060000Y-40891000D02*
X63281000Y-40891000D01*
X77699000Y-40931000D02*
X71940000Y-40931000D01*
X69060000Y-40931000D02*
X63301000Y-40931000D01*
X77678000Y-40971000D02*
X71940000Y-40971000D01*
X69060000Y-40971000D02*
X63322000Y-40971000D01*
X77657000Y-41011000D02*
X71940000Y-41011000D01*
X69060000Y-41011000D02*
X63343000Y-41011000D01*
X77636000Y-41051000D02*
X71940000Y-41051000D01*
X69060000Y-41051000D02*
X63364000Y-41051000D01*
X77615000Y-41091000D02*
X71940000Y-41091000D01*
X69060000Y-41091000D02*
X63385000Y-41091000D01*
X77594000Y-41131000D02*
X71940000Y-41131000D01*
X69060000Y-41131000D02*
X63406000Y-41131000D01*
X77572000Y-41171000D02*
X71940000Y-41171000D01*
X69060000Y-41171000D02*
X63428000Y-41171000D01*
X77549000Y-41211000D02*
X71940000Y-41211000D01*
X69060000Y-41211000D02*
X63451000Y-41211000D01*
X77527000Y-41251000D02*
X71940000Y-41251000D01*
X69060000Y-41251000D02*
X63473000Y-41251000D01*
X77504000Y-41291000D02*
X71940000Y-41291000D01*
X69060000Y-41291000D02*
X63496000Y-41291000D01*
X77481000Y-41331000D02*
X71940000Y-41331000D01*
X69060000Y-41331000D02*
X63519000Y-41331000D01*
X77458000Y-41371000D02*
X71940000Y-41371000D01*
X69060000Y-41371000D02*
X63542000Y-41371000D01*
X77434000Y-41411000D02*
X71940000Y-41411000D01*
X69060000Y-41411000D02*
X63566000Y-41411000D01*
X77410000Y-41451000D02*
X71940000Y-41451000D01*
X69060000Y-41451000D02*
X63590000Y-41451000D01*
X77386000Y-41491000D02*
X71940000Y-41491000D01*
X69060000Y-41491000D02*
X63614000Y-41491000D01*
X77361000Y-41531000D02*
X71940000Y-41531000D01*
X69060000Y-41531000D02*
X63639000Y-41531000D01*
X77336000Y-41571000D02*
X71940000Y-41571000D01*
X69060000Y-41571000D02*
X63664000Y-41571000D01*
X77311000Y-41611000D02*
X71940000Y-41611000D01*
X69060000Y-41611000D02*
X63689000Y-41611000D01*
X77285000Y-41651000D02*
X71940000Y-41651000D01*
X69060000Y-41651000D02*
X63715000Y-41651000D01*
X77259000Y-41691000D02*
X71940000Y-41691000D01*
X69060000Y-41691000D02*
X63741000Y-41691000D01*
X77233000Y-41731000D02*
X71940000Y-41731000D01*
X69060000Y-41731000D02*
X63767000Y-41731000D01*
X77206000Y-41771000D02*
X71940000Y-41771000D01*
X69060000Y-41771000D02*
X63794000Y-41771000D01*
X77179000Y-41811000D02*
X71940000Y-41811000D01*
X69060000Y-41811000D02*
X63821000Y-41811000D01*
X77152000Y-41851000D02*
X71940000Y-41851000D01*
X69060000Y-41851000D02*
X63848000Y-41851000D01*
X77124000Y-41891000D02*
X71940000Y-41891000D01*
X69060000Y-41891000D02*
X63876000Y-41891000D01*
X77096000Y-41931000D02*
X71940000Y-41931000D01*
X69060000Y-41931000D02*
X63904000Y-41931000D01*
X77068000Y-41971000D02*
X71940000Y-41971000D01*
X69060000Y-41971000D02*
X63932000Y-41971000D01*
X77039000Y-42011000D02*
X71940000Y-42011000D01*
X69060000Y-42011000D02*
X63961000Y-42011000D01*
X77010000Y-42051000D02*
X71940000Y-42051000D01*
X69060000Y-42051000D02*
X63990000Y-42051000D01*
X76980000Y-42091000D02*
X71940000Y-42091000D01*
X69060000Y-42091000D02*
X64020000Y-42091000D01*
X76950000Y-42131000D02*
X71940000Y-42131000D01*
X69060000Y-42131000D02*
X64050000Y-42131000D01*
X76920000Y-42171000D02*
X71940000Y-42171000D01*
X69060000Y-42171000D02*
X64080000Y-42171000D01*
X76890000Y-42211000D02*
X71940000Y-42211000D01*
X69060000Y-42211000D02*
X64110000Y-42211000D01*
X76858000Y-42251000D02*
X71940000Y-42251000D01*
X69060000Y-42251000D02*
X64142000Y-42251000D01*
X76827000Y-42291000D02*
X71940000Y-42291000D01*
X69060000Y-42291000D02*
X64173000Y-42291000D01*
X76795000Y-42331000D02*
X71940000Y-42331000D01*
X69060000Y-42331000D02*
X64205000Y-42331000D01*
X76763000Y-42371000D02*
X71940000Y-42371000D01*
X69060000Y-42371000D02*
X64237000Y-42371000D01*
X76730000Y-42411000D02*
X71940000Y-42411000D01*
X69060000Y-42411000D02*
X64270000Y-42411000D01*
X76697000Y-42451000D02*
X64303000Y-42451000D01*
X76663000Y-42491000D02*
X64337000Y-42491000D01*
X76629000Y-42531000D02*
X64371000Y-42531000D01*
X76595000Y-42571000D02*
X64405000Y-42571000D01*
X76560000Y-42611000D02*
X64440000Y-42611000D01*
X76525000Y-42651000D02*
X64475000Y-42651000D01*
X76489000Y-42691000D02*
X64511000Y-42691000D01*
X76452000Y-42731000D02*
X64548000Y-42731000D01*
X76416000Y-42771000D02*
X64584000Y-42771000D01*
X76378000Y-42811000D02*
X64622000Y-42811000D01*
X76340000Y-42851000D02*
X64660000Y-42851000D01*
X76302000Y-42891000D02*
X64698000Y-42891000D01*
X76263000Y-42931000D02*
X64737000Y-42931000D01*
X76224000Y-42971000D02*
X64776000Y-42971000D01*
X76184000Y-43011000D02*
X64816000Y-43011000D01*
X76143000Y-43051000D02*
X64857000Y-43051000D01*
X76102000Y-43091000D02*
X64898000Y-43091000D01*
X76060000Y-43131000D02*
X64940000Y-43131000D01*
X76018000Y-43171000D02*
X64982000Y-43171000D01*
X75975000Y-43211000D02*
X65025000Y-43211000D01*
X75932000Y-43251000D02*
X65068000Y-43251000D01*
X75888000Y-43291000D02*
X65112000Y-43291000D01*
X75843000Y-43331000D02*
X65157000Y-43331000D01*
X75797000Y-43371000D02*
X65203000Y-43371000D01*
X75751000Y-43411000D02*
X65249000Y-43411000D01*
X75704000Y-43451000D02*
X65296000Y-43451000D01*
X75656000Y-43491000D02*
X65344000Y-43491000D01*
X75608000Y-43531000D02*
X65392000Y-43531000D01*
X75559000Y-43571000D02*
X65441000Y-43571000D01*
X75509000Y-43611000D02*
X65491000Y-43611000D01*
X75458000Y-43651000D02*
X65542000Y-43651000D01*
X75406000Y-43691000D02*
X65594000Y-43691000D01*
X75354000Y-43731000D02*
X65646000Y-43731000D01*
X75300000Y-43771000D02*
X65700000Y-43771000D01*
X75246000Y-43811000D02*
X65754000Y-43811000D01*
X75191000Y-43851000D02*
X65809000Y-43851000D01*
X75134000Y-43891000D02*
X65866000Y-43891000D01*
X75077000Y-43931000D02*
X65923000Y-43931000D01*
X75019000Y-43971000D02*
X65981000Y-43971000D01*
X74959000Y-44011000D02*
X66041000Y-44011000D01*
X74898000Y-44051000D02*
X66102000Y-44051000D01*
X74836000Y-44091000D02*
X66164000Y-44091000D01*
X74773000Y-44131000D02*
X66227000Y-44131000D01*
X74709000Y-44171000D02*
X66291000Y-44171000D01*
X74643000Y-44211000D02*
X66357000Y-44211000D01*
X74576000Y-44251000D02*
X66424000Y-44251000D01*
X74507000Y-44291000D02*
X66493000Y-44291000D01*
X74436000Y-44331000D02*
X66564000Y-44331000D01*
X74364000Y-44371000D02*
X66636000Y-44371000D01*
X74290000Y-44411000D02*
X66710000Y-44411000D01*
X74215000Y-44451000D02*
X66785000Y-44451000D01*
X74137000Y-44491000D02*
X66863000Y-44491000D01*
X74057000Y-44531000D02*
X66943000Y-44531000D01*
X73975000Y-44571000D02*
X67025000Y-44571000D01*
X73890000Y-44611000D02*
X67110000Y-44611000D01*
X73803000Y-44651000D02*
X67197000Y-44651000D01*
X73713000Y-44691000D02*
X67287000Y-44691000D01*
X73620000Y-44731000D02*
X67380000Y-44731000D01*
X73524000Y-44771000D02*
X67476000Y-44771000D01*
X73424000Y-44811000D02*
X67576000Y-44811000D01*
X73320000Y-44851000D02*
X67680000Y-44851000D01*
X73211000Y-44891000D02*
X67789000Y-44891000D01*
X73097000Y-44931000D02*
X67903000Y-44931000D01*
X72978000Y-44971000D02*
X68022000Y-44971000D01*
X72851000Y-45011000D02*
X68149000Y-45011000D01*
X72718000Y-45051000D02*
X68282000Y-45051000D01*
X72574000Y-45091000D02*
X68426000Y-45091000D01*
X72420000Y-45131000D02*
X68580000Y-45131000D01*
X72252000Y-45171000D02*
X68748000Y-45171000D01*
X72064000Y-45211000D02*
X68936000Y-45211000D01*
X71851000Y-45251000D02*
X69149000Y-45251000D01*
X71598000Y-45291000D02*
X69402000Y-45291000D01*
X71265000Y-45331000D02*
X69735000Y-45331000D01*
X78620000Y-37250000D02*
G75*
G03*
X78620000Y-37250000I-8120000J0D01*
G01*
%TO.C,D1*%
X19840000Y-42477780D02*
X23330000Y-42477780D01*
X23330000Y-37807780D02*
X23330000Y-47147780D01*
X23330000Y-47147780D02*
X32670000Y-47147780D01*
X24695000Y-37807780D02*
X24695000Y-47147780D01*
X24815000Y-37807780D02*
X24815000Y-47147780D01*
X24935000Y-37807780D02*
X24935000Y-47147780D01*
X32670000Y-37807780D02*
X23330000Y-37807780D01*
X32670000Y-47147780D02*
X32670000Y-37807780D01*
X36160000Y-42477780D02*
X32670000Y-42477780D01*
%TO.C,D4*%
X36160000Y-12477780D02*
X32670000Y-12477780D01*
X32670000Y-17147780D02*
X32670000Y-7807780D01*
X32670000Y-7807780D02*
X23330000Y-7807780D01*
X31305000Y-17147780D02*
X31305000Y-7807780D01*
X31185000Y-17147780D02*
X31185000Y-7807780D01*
X31065000Y-17147780D02*
X31065000Y-7807780D01*
X23330000Y-17147780D02*
X32670000Y-17147780D01*
X23330000Y-7807780D02*
X23330000Y-17147780D01*
X19840000Y-12477780D02*
X23330000Y-12477780D01*
%TO.C,C1*%
X56055000Y-8538289D02*
X56055000Y-10138289D01*
X56855000Y-9338289D02*
X55255000Y-9338289D01*
X59581000Y-17227780D02*
X43419000Y-17227780D01*
X59580000Y-17267780D02*
X43420000Y-17267780D01*
X59580000Y-17307780D02*
X43420000Y-17307780D01*
X59580000Y-17347780D02*
X43420000Y-17347780D01*
X59579000Y-17387780D02*
X43421000Y-17387780D01*
X59578000Y-17427780D02*
X43422000Y-17427780D01*
X59577000Y-17467780D02*
X43423000Y-17467780D01*
X59576000Y-17507780D02*
X43424000Y-17507780D01*
X59574000Y-17547780D02*
X43426000Y-17547780D01*
X59573000Y-17587780D02*
X43427000Y-17587780D01*
X59571000Y-17627780D02*
X43429000Y-17627780D01*
X59569000Y-17667780D02*
X43431000Y-17667780D01*
X59566000Y-17707780D02*
X43434000Y-17707780D01*
X59564000Y-17747780D02*
X43436000Y-17747780D01*
X59561000Y-17787780D02*
X43439000Y-17787780D01*
X59558000Y-17827780D02*
X43442000Y-17827780D01*
X59555000Y-17867780D02*
X43445000Y-17867780D01*
X59552000Y-17907780D02*
X43448000Y-17907780D01*
X59549000Y-17948780D02*
X43451000Y-17948780D01*
X59545000Y-17988780D02*
X43455000Y-17988780D01*
X59541000Y-18028780D02*
X43459000Y-18028780D01*
X59537000Y-18068780D02*
X43463000Y-18068780D01*
X59533000Y-18108780D02*
X43467000Y-18108780D01*
X59528000Y-18148780D02*
X43472000Y-18148780D01*
X59524000Y-18188780D02*
X43476000Y-18188780D01*
X59519000Y-18228780D02*
X43481000Y-18228780D01*
X59514000Y-18268780D02*
X43486000Y-18268780D01*
X59508000Y-18308780D02*
X43492000Y-18308780D01*
X59503000Y-18348780D02*
X43497000Y-18348780D01*
X59497000Y-18388780D02*
X43503000Y-18388780D01*
X59491000Y-18428780D02*
X43509000Y-18428780D01*
X59485000Y-18468780D02*
X43515000Y-18468780D01*
X59479000Y-18508780D02*
X43521000Y-18508780D01*
X59472000Y-18548780D02*
X43528000Y-18548780D01*
X59466000Y-18588780D02*
X43534000Y-18588780D01*
X59459000Y-18628780D02*
X43541000Y-18628780D01*
X59452000Y-18668780D02*
X43548000Y-18668780D01*
X59444000Y-18708780D02*
X43556000Y-18708780D01*
X59437000Y-18748780D02*
X43563000Y-18748780D01*
X59429000Y-18788780D02*
X43571000Y-18788780D01*
X59421000Y-18828780D02*
X43579000Y-18828780D01*
X59413000Y-18868780D02*
X43587000Y-18868780D01*
X59405000Y-18908780D02*
X43595000Y-18908780D01*
X59396000Y-18948780D02*
X43604000Y-18948780D01*
X59387000Y-18988780D02*
X43613000Y-18988780D01*
X59378000Y-19028780D02*
X43622000Y-19028780D01*
X59369000Y-19068780D02*
X43631000Y-19068780D01*
X59360000Y-19108780D02*
X43640000Y-19108780D01*
X59350000Y-19148780D02*
X43650000Y-19148780D01*
X59340000Y-19188780D02*
X43660000Y-19188780D01*
X59330000Y-19228780D02*
X43670000Y-19228780D01*
X59320000Y-19268780D02*
X43680000Y-19268780D01*
X59310000Y-19308780D02*
X43690000Y-19308780D01*
X59299000Y-19348780D02*
X43701000Y-19348780D01*
X59288000Y-19388780D02*
X43712000Y-19388780D01*
X59277000Y-19428780D02*
X43723000Y-19428780D01*
X59265000Y-19468780D02*
X43735000Y-19468780D01*
X59254000Y-19508780D02*
X43746000Y-19508780D01*
X59242000Y-19548780D02*
X52940000Y-19548780D01*
X50060000Y-19548780D02*
X43758000Y-19548780D01*
X59230000Y-19588780D02*
X52940000Y-19588780D01*
X50060000Y-19588780D02*
X43770000Y-19588780D01*
X59218000Y-19628780D02*
X52940000Y-19628780D01*
X50060000Y-19628780D02*
X43782000Y-19628780D01*
X59205000Y-19668780D02*
X52940000Y-19668780D01*
X50060000Y-19668780D02*
X43795000Y-19668780D01*
X59193000Y-19708780D02*
X52940000Y-19708780D01*
X50060000Y-19708780D02*
X43807000Y-19708780D01*
X59180000Y-19748780D02*
X52940000Y-19748780D01*
X50060000Y-19748780D02*
X43820000Y-19748780D01*
X59166000Y-19788780D02*
X52940000Y-19788780D01*
X50060000Y-19788780D02*
X43834000Y-19788780D01*
X59153000Y-19828780D02*
X52940000Y-19828780D01*
X50060000Y-19828780D02*
X43847000Y-19828780D01*
X59139000Y-19868780D02*
X52940000Y-19868780D01*
X50060000Y-19868780D02*
X43861000Y-19868780D01*
X59125000Y-19908780D02*
X52940000Y-19908780D01*
X50060000Y-19908780D02*
X43875000Y-19908780D01*
X59111000Y-19948780D02*
X52940000Y-19948780D01*
X50060000Y-19948780D02*
X43889000Y-19948780D01*
X59097000Y-19988780D02*
X52940000Y-19988780D01*
X50060000Y-19988780D02*
X43903000Y-19988780D01*
X59082000Y-20028780D02*
X52940000Y-20028780D01*
X50060000Y-20028780D02*
X43918000Y-20028780D01*
X59068000Y-20068780D02*
X52940000Y-20068780D01*
X50060000Y-20068780D02*
X43932000Y-20068780D01*
X59053000Y-20108780D02*
X52940000Y-20108780D01*
X50060000Y-20108780D02*
X43947000Y-20108780D01*
X59037000Y-20148780D02*
X52940000Y-20148780D01*
X50060000Y-20148780D02*
X43963000Y-20148780D01*
X59022000Y-20188780D02*
X52940000Y-20188780D01*
X50060000Y-20188780D02*
X43978000Y-20188780D01*
X59006000Y-20228780D02*
X52940000Y-20228780D01*
X50060000Y-20228780D02*
X43994000Y-20228780D01*
X58990000Y-20268780D02*
X52940000Y-20268780D01*
X50060000Y-20268780D02*
X44010000Y-20268780D01*
X58974000Y-20308780D02*
X52940000Y-20308780D01*
X50060000Y-20308780D02*
X44026000Y-20308780D01*
X58957000Y-20348780D02*
X52940000Y-20348780D01*
X50060000Y-20348780D02*
X44043000Y-20348780D01*
X58940000Y-20388780D02*
X52940000Y-20388780D01*
X50060000Y-20388780D02*
X44060000Y-20388780D01*
X58923000Y-20428780D02*
X52940000Y-20428780D01*
X50060000Y-20428780D02*
X44077000Y-20428780D01*
X58906000Y-20468780D02*
X52940000Y-20468780D01*
X50060000Y-20468780D02*
X44094000Y-20468780D01*
X58889000Y-20508780D02*
X52940000Y-20508780D01*
X50060000Y-20508780D02*
X44111000Y-20508780D01*
X58871000Y-20548780D02*
X52940000Y-20548780D01*
X50060000Y-20548780D02*
X44129000Y-20548780D01*
X58853000Y-20588780D02*
X52940000Y-20588780D01*
X50060000Y-20588780D02*
X44147000Y-20588780D01*
X58834000Y-20628780D02*
X52940000Y-20628780D01*
X50060000Y-20628780D02*
X44166000Y-20628780D01*
X58816000Y-20668780D02*
X52940000Y-20668780D01*
X50060000Y-20668780D02*
X44184000Y-20668780D01*
X58797000Y-20708780D02*
X52940000Y-20708780D01*
X50060000Y-20708780D02*
X44203000Y-20708780D01*
X58778000Y-20748780D02*
X52940000Y-20748780D01*
X50060000Y-20748780D02*
X44222000Y-20748780D01*
X58758000Y-20788780D02*
X52940000Y-20788780D01*
X50060000Y-20788780D02*
X44242000Y-20788780D01*
X58739000Y-20828780D02*
X52940000Y-20828780D01*
X50060000Y-20828780D02*
X44261000Y-20828780D01*
X58719000Y-20868780D02*
X52940000Y-20868780D01*
X50060000Y-20868780D02*
X44281000Y-20868780D01*
X58699000Y-20908780D02*
X52940000Y-20908780D01*
X50060000Y-20908780D02*
X44301000Y-20908780D01*
X58678000Y-20948780D02*
X52940000Y-20948780D01*
X50060000Y-20948780D02*
X44322000Y-20948780D01*
X58657000Y-20988780D02*
X52940000Y-20988780D01*
X50060000Y-20988780D02*
X44343000Y-20988780D01*
X58636000Y-21028780D02*
X52940000Y-21028780D01*
X50060000Y-21028780D02*
X44364000Y-21028780D01*
X58615000Y-21068780D02*
X52940000Y-21068780D01*
X50060000Y-21068780D02*
X44385000Y-21068780D01*
X58594000Y-21108780D02*
X52940000Y-21108780D01*
X50060000Y-21108780D02*
X44406000Y-21108780D01*
X58572000Y-21148780D02*
X52940000Y-21148780D01*
X50060000Y-21148780D02*
X44428000Y-21148780D01*
X58549000Y-21188780D02*
X52940000Y-21188780D01*
X50060000Y-21188780D02*
X44451000Y-21188780D01*
X58527000Y-21228780D02*
X52940000Y-21228780D01*
X50060000Y-21228780D02*
X44473000Y-21228780D01*
X58504000Y-21268780D02*
X52940000Y-21268780D01*
X50060000Y-21268780D02*
X44496000Y-21268780D01*
X58481000Y-21308780D02*
X52940000Y-21308780D01*
X50060000Y-21308780D02*
X44519000Y-21308780D01*
X58458000Y-21348780D02*
X52940000Y-21348780D01*
X50060000Y-21348780D02*
X44542000Y-21348780D01*
X58434000Y-21388780D02*
X52940000Y-21388780D01*
X50060000Y-21388780D02*
X44566000Y-21388780D01*
X58410000Y-21428780D02*
X52940000Y-21428780D01*
X50060000Y-21428780D02*
X44590000Y-21428780D01*
X58386000Y-21468780D02*
X52940000Y-21468780D01*
X50060000Y-21468780D02*
X44614000Y-21468780D01*
X58361000Y-21508780D02*
X52940000Y-21508780D01*
X50060000Y-21508780D02*
X44639000Y-21508780D01*
X58336000Y-21548780D02*
X52940000Y-21548780D01*
X50060000Y-21548780D02*
X44664000Y-21548780D01*
X58311000Y-21588780D02*
X52940000Y-21588780D01*
X50060000Y-21588780D02*
X44689000Y-21588780D01*
X58285000Y-21628780D02*
X52940000Y-21628780D01*
X50060000Y-21628780D02*
X44715000Y-21628780D01*
X58259000Y-21668780D02*
X52940000Y-21668780D01*
X50060000Y-21668780D02*
X44741000Y-21668780D01*
X58233000Y-21708780D02*
X52940000Y-21708780D01*
X50060000Y-21708780D02*
X44767000Y-21708780D01*
X58206000Y-21748780D02*
X52940000Y-21748780D01*
X50060000Y-21748780D02*
X44794000Y-21748780D01*
X58179000Y-21788780D02*
X52940000Y-21788780D01*
X50060000Y-21788780D02*
X44821000Y-21788780D01*
X58152000Y-21828780D02*
X52940000Y-21828780D01*
X50060000Y-21828780D02*
X44848000Y-21828780D01*
X58124000Y-21868780D02*
X52940000Y-21868780D01*
X50060000Y-21868780D02*
X44876000Y-21868780D01*
X58096000Y-21908780D02*
X52940000Y-21908780D01*
X50060000Y-21908780D02*
X44904000Y-21908780D01*
X58068000Y-21948780D02*
X52940000Y-21948780D01*
X50060000Y-21948780D02*
X44932000Y-21948780D01*
X58039000Y-21988780D02*
X52940000Y-21988780D01*
X50060000Y-21988780D02*
X44961000Y-21988780D01*
X58010000Y-22028780D02*
X52940000Y-22028780D01*
X50060000Y-22028780D02*
X44990000Y-22028780D01*
X57980000Y-22068780D02*
X52940000Y-22068780D01*
X50060000Y-22068780D02*
X45020000Y-22068780D01*
X57950000Y-22108780D02*
X52940000Y-22108780D01*
X50060000Y-22108780D02*
X45050000Y-22108780D01*
X57920000Y-22148780D02*
X52940000Y-22148780D01*
X50060000Y-22148780D02*
X45080000Y-22148780D01*
X57890000Y-22188780D02*
X52940000Y-22188780D01*
X50060000Y-22188780D02*
X45110000Y-22188780D01*
X57858000Y-22228780D02*
X52940000Y-22228780D01*
X50060000Y-22228780D02*
X45142000Y-22228780D01*
X57827000Y-22268780D02*
X52940000Y-22268780D01*
X50060000Y-22268780D02*
X45173000Y-22268780D01*
X57795000Y-22308780D02*
X52940000Y-22308780D01*
X50060000Y-22308780D02*
X45205000Y-22308780D01*
X57763000Y-22348780D02*
X52940000Y-22348780D01*
X50060000Y-22348780D02*
X45237000Y-22348780D01*
X57730000Y-22388780D02*
X52940000Y-22388780D01*
X50060000Y-22388780D02*
X45270000Y-22388780D01*
X57697000Y-22428780D02*
X45303000Y-22428780D01*
X57663000Y-22468780D02*
X45337000Y-22468780D01*
X57629000Y-22508780D02*
X45371000Y-22508780D01*
X57595000Y-22548780D02*
X45405000Y-22548780D01*
X57560000Y-22588780D02*
X45440000Y-22588780D01*
X57525000Y-22628780D02*
X45475000Y-22628780D01*
X57489000Y-22668780D02*
X45511000Y-22668780D01*
X57452000Y-22708780D02*
X45548000Y-22708780D01*
X57416000Y-22748780D02*
X45584000Y-22748780D01*
X57378000Y-22788780D02*
X45622000Y-22788780D01*
X57340000Y-22828780D02*
X45660000Y-22828780D01*
X57302000Y-22868780D02*
X45698000Y-22868780D01*
X57263000Y-22908780D02*
X45737000Y-22908780D01*
X57224000Y-22948780D02*
X45776000Y-22948780D01*
X57184000Y-22988780D02*
X45816000Y-22988780D01*
X57143000Y-23028780D02*
X45857000Y-23028780D01*
X57102000Y-23068780D02*
X45898000Y-23068780D01*
X57060000Y-23108780D02*
X45940000Y-23108780D01*
X57018000Y-23148780D02*
X45982000Y-23148780D01*
X56975000Y-23188780D02*
X46025000Y-23188780D01*
X56932000Y-23228780D02*
X46068000Y-23228780D01*
X56888000Y-23268780D02*
X46112000Y-23268780D01*
X56843000Y-23308780D02*
X46157000Y-23308780D01*
X56797000Y-23348780D02*
X46203000Y-23348780D01*
X56751000Y-23388780D02*
X46249000Y-23388780D01*
X56704000Y-23428780D02*
X46296000Y-23428780D01*
X56656000Y-23468780D02*
X46344000Y-23468780D01*
X56608000Y-23508780D02*
X46392000Y-23508780D01*
X56559000Y-23548780D02*
X46441000Y-23548780D01*
X56509000Y-23588780D02*
X46491000Y-23588780D01*
X56458000Y-23628780D02*
X46542000Y-23628780D01*
X56406000Y-23668780D02*
X46594000Y-23668780D01*
X56354000Y-23708780D02*
X46646000Y-23708780D01*
X56300000Y-23748780D02*
X46700000Y-23748780D01*
X56246000Y-23788780D02*
X46754000Y-23788780D01*
X56191000Y-23828780D02*
X46809000Y-23828780D01*
X56134000Y-23868780D02*
X46866000Y-23868780D01*
X56077000Y-23908780D02*
X46923000Y-23908780D01*
X56019000Y-23948780D02*
X46981000Y-23948780D01*
X55959000Y-23988780D02*
X47041000Y-23988780D01*
X55898000Y-24028780D02*
X47102000Y-24028780D01*
X55836000Y-24068780D02*
X47164000Y-24068780D01*
X55773000Y-24108780D02*
X47227000Y-24108780D01*
X55709000Y-24148780D02*
X47291000Y-24148780D01*
X55643000Y-24188780D02*
X47357000Y-24188780D01*
X55576000Y-24228780D02*
X47424000Y-24228780D01*
X55507000Y-24268780D02*
X47493000Y-24268780D01*
X55436000Y-24308780D02*
X47564000Y-24308780D01*
X55364000Y-24348780D02*
X47636000Y-24348780D01*
X55290000Y-24388780D02*
X47710000Y-24388780D01*
X55215000Y-24428780D02*
X47785000Y-24428780D01*
X55137000Y-24468780D02*
X47863000Y-24468780D01*
X55057000Y-24508780D02*
X47943000Y-24508780D01*
X54975000Y-24548780D02*
X48025000Y-24548780D01*
X54890000Y-24588780D02*
X48110000Y-24588780D01*
X54803000Y-24628780D02*
X48197000Y-24628780D01*
X54713000Y-24668780D02*
X48287000Y-24668780D01*
X54620000Y-24708780D02*
X48380000Y-24708780D01*
X54524000Y-24748780D02*
X48476000Y-24748780D01*
X54424000Y-24788780D02*
X48576000Y-24788780D01*
X54320000Y-24828780D02*
X48680000Y-24828780D01*
X54211000Y-24868780D02*
X48789000Y-24868780D01*
X54097000Y-24908780D02*
X48903000Y-24908780D01*
X53978000Y-24948780D02*
X49022000Y-24948780D01*
X53851000Y-24988780D02*
X49149000Y-24988780D01*
X53718000Y-25028780D02*
X49282000Y-25028780D01*
X53574000Y-25068780D02*
X49426000Y-25068780D01*
X53420000Y-25108780D02*
X49580000Y-25108780D01*
X53252000Y-25148780D02*
X49748000Y-25148780D01*
X53064000Y-25188780D02*
X49936000Y-25188780D01*
X52851000Y-25228780D02*
X50149000Y-25228780D01*
X52598000Y-25268780D02*
X50402000Y-25268780D01*
X52265000Y-25308780D02*
X50735000Y-25308780D01*
X59620000Y-17227780D02*
G75*
G03*
X59620000Y-17227780I-8120000J0D01*
G01*
%TO.C,C5*%
X94055000Y-8560509D02*
X94055000Y-10160509D01*
X94855000Y-9360509D02*
X93255000Y-9360509D01*
X97581000Y-17250000D02*
X81419000Y-17250000D01*
X97580000Y-17290000D02*
X81420000Y-17290000D01*
X97580000Y-17330000D02*
X81420000Y-17330000D01*
X97580000Y-17370000D02*
X81420000Y-17370000D01*
X97579000Y-17410000D02*
X81421000Y-17410000D01*
X97578000Y-17450000D02*
X81422000Y-17450000D01*
X97577000Y-17490000D02*
X81423000Y-17490000D01*
X97576000Y-17530000D02*
X81424000Y-17530000D01*
X97574000Y-17570000D02*
X81426000Y-17570000D01*
X97573000Y-17610000D02*
X81427000Y-17610000D01*
X97571000Y-17650000D02*
X81429000Y-17650000D01*
X97569000Y-17690000D02*
X81431000Y-17690000D01*
X97566000Y-17730000D02*
X81434000Y-17730000D01*
X97564000Y-17770000D02*
X81436000Y-17770000D01*
X97561000Y-17810000D02*
X81439000Y-17810000D01*
X97558000Y-17850000D02*
X81442000Y-17850000D01*
X97555000Y-17890000D02*
X81445000Y-17890000D01*
X97552000Y-17930000D02*
X81448000Y-17930000D01*
X97549000Y-17971000D02*
X81451000Y-17971000D01*
X97545000Y-18011000D02*
X81455000Y-18011000D01*
X97541000Y-18051000D02*
X81459000Y-18051000D01*
X97537000Y-18091000D02*
X81463000Y-18091000D01*
X97533000Y-18131000D02*
X81467000Y-18131000D01*
X97528000Y-18171000D02*
X81472000Y-18171000D01*
X97524000Y-18211000D02*
X81476000Y-18211000D01*
X97519000Y-18251000D02*
X81481000Y-18251000D01*
X97514000Y-18291000D02*
X81486000Y-18291000D01*
X97508000Y-18331000D02*
X81492000Y-18331000D01*
X97503000Y-18371000D02*
X81497000Y-18371000D01*
X97497000Y-18411000D02*
X81503000Y-18411000D01*
X97491000Y-18451000D02*
X81509000Y-18451000D01*
X97485000Y-18491000D02*
X81515000Y-18491000D01*
X97479000Y-18531000D02*
X81521000Y-18531000D01*
X97472000Y-18571000D02*
X81528000Y-18571000D01*
X97466000Y-18611000D02*
X81534000Y-18611000D01*
X97459000Y-18651000D02*
X81541000Y-18651000D01*
X97452000Y-18691000D02*
X81548000Y-18691000D01*
X97444000Y-18731000D02*
X81556000Y-18731000D01*
X97437000Y-18771000D02*
X81563000Y-18771000D01*
X97429000Y-18811000D02*
X81571000Y-18811000D01*
X97421000Y-18851000D02*
X81579000Y-18851000D01*
X97413000Y-18891000D02*
X81587000Y-18891000D01*
X97405000Y-18931000D02*
X81595000Y-18931000D01*
X97396000Y-18971000D02*
X81604000Y-18971000D01*
X97387000Y-19011000D02*
X81613000Y-19011000D01*
X97378000Y-19051000D02*
X81622000Y-19051000D01*
X97369000Y-19091000D02*
X81631000Y-19091000D01*
X97360000Y-19131000D02*
X81640000Y-19131000D01*
X97350000Y-19171000D02*
X81650000Y-19171000D01*
X97340000Y-19211000D02*
X81660000Y-19211000D01*
X97330000Y-19251000D02*
X81670000Y-19251000D01*
X97320000Y-19291000D02*
X81680000Y-19291000D01*
X97310000Y-19331000D02*
X81690000Y-19331000D01*
X97299000Y-19371000D02*
X81701000Y-19371000D01*
X97288000Y-19411000D02*
X81712000Y-19411000D01*
X97277000Y-19451000D02*
X81723000Y-19451000D01*
X97265000Y-19491000D02*
X81735000Y-19491000D01*
X97254000Y-19531000D02*
X81746000Y-19531000D01*
X97242000Y-19571000D02*
X90940000Y-19571000D01*
X88060000Y-19571000D02*
X81758000Y-19571000D01*
X97230000Y-19611000D02*
X90940000Y-19611000D01*
X88060000Y-19611000D02*
X81770000Y-19611000D01*
X97218000Y-19651000D02*
X90940000Y-19651000D01*
X88060000Y-19651000D02*
X81782000Y-19651000D01*
X97205000Y-19691000D02*
X90940000Y-19691000D01*
X88060000Y-19691000D02*
X81795000Y-19691000D01*
X97193000Y-19731000D02*
X90940000Y-19731000D01*
X88060000Y-19731000D02*
X81807000Y-19731000D01*
X97180000Y-19771000D02*
X90940000Y-19771000D01*
X88060000Y-19771000D02*
X81820000Y-19771000D01*
X97166000Y-19811000D02*
X90940000Y-19811000D01*
X88060000Y-19811000D02*
X81834000Y-19811000D01*
X97153000Y-19851000D02*
X90940000Y-19851000D01*
X88060000Y-19851000D02*
X81847000Y-19851000D01*
X97139000Y-19891000D02*
X90940000Y-19891000D01*
X88060000Y-19891000D02*
X81861000Y-19891000D01*
X97125000Y-19931000D02*
X90940000Y-19931000D01*
X88060000Y-19931000D02*
X81875000Y-19931000D01*
X97111000Y-19971000D02*
X90940000Y-19971000D01*
X88060000Y-19971000D02*
X81889000Y-19971000D01*
X97097000Y-20011000D02*
X90940000Y-20011000D01*
X88060000Y-20011000D02*
X81903000Y-20011000D01*
X97082000Y-20051000D02*
X90940000Y-20051000D01*
X88060000Y-20051000D02*
X81918000Y-20051000D01*
X97068000Y-20091000D02*
X90940000Y-20091000D01*
X88060000Y-20091000D02*
X81932000Y-20091000D01*
X97053000Y-20131000D02*
X90940000Y-20131000D01*
X88060000Y-20131000D02*
X81947000Y-20131000D01*
X97037000Y-20171000D02*
X90940000Y-20171000D01*
X88060000Y-20171000D02*
X81963000Y-20171000D01*
X97022000Y-20211000D02*
X90940000Y-20211000D01*
X88060000Y-20211000D02*
X81978000Y-20211000D01*
X97006000Y-20251000D02*
X90940000Y-20251000D01*
X88060000Y-20251000D02*
X81994000Y-20251000D01*
X96990000Y-20291000D02*
X90940000Y-20291000D01*
X88060000Y-20291000D02*
X82010000Y-20291000D01*
X96974000Y-20331000D02*
X90940000Y-20331000D01*
X88060000Y-20331000D02*
X82026000Y-20331000D01*
X96957000Y-20371000D02*
X90940000Y-20371000D01*
X88060000Y-20371000D02*
X82043000Y-20371000D01*
X96940000Y-20411000D02*
X90940000Y-20411000D01*
X88060000Y-20411000D02*
X82060000Y-20411000D01*
X96923000Y-20451000D02*
X90940000Y-20451000D01*
X88060000Y-20451000D02*
X82077000Y-20451000D01*
X96906000Y-20491000D02*
X90940000Y-20491000D01*
X88060000Y-20491000D02*
X82094000Y-20491000D01*
X96889000Y-20531000D02*
X90940000Y-20531000D01*
X88060000Y-20531000D02*
X82111000Y-20531000D01*
X96871000Y-20571000D02*
X90940000Y-20571000D01*
X88060000Y-20571000D02*
X82129000Y-20571000D01*
X96853000Y-20611000D02*
X90940000Y-20611000D01*
X88060000Y-20611000D02*
X82147000Y-20611000D01*
X96834000Y-20651000D02*
X90940000Y-20651000D01*
X88060000Y-20651000D02*
X82166000Y-20651000D01*
X96816000Y-20691000D02*
X90940000Y-20691000D01*
X88060000Y-20691000D02*
X82184000Y-20691000D01*
X96797000Y-20731000D02*
X90940000Y-20731000D01*
X88060000Y-20731000D02*
X82203000Y-20731000D01*
X96778000Y-20771000D02*
X90940000Y-20771000D01*
X88060000Y-20771000D02*
X82222000Y-20771000D01*
X96758000Y-20811000D02*
X90940000Y-20811000D01*
X88060000Y-20811000D02*
X82242000Y-20811000D01*
X96739000Y-20851000D02*
X90940000Y-20851000D01*
X88060000Y-20851000D02*
X82261000Y-20851000D01*
X96719000Y-20891000D02*
X90940000Y-20891000D01*
X88060000Y-20891000D02*
X82281000Y-20891000D01*
X96699000Y-20931000D02*
X90940000Y-20931000D01*
X88060000Y-20931000D02*
X82301000Y-20931000D01*
X96678000Y-20971000D02*
X90940000Y-20971000D01*
X88060000Y-20971000D02*
X82322000Y-20971000D01*
X96657000Y-21011000D02*
X90940000Y-21011000D01*
X88060000Y-21011000D02*
X82343000Y-21011000D01*
X96636000Y-21051000D02*
X90940000Y-21051000D01*
X88060000Y-21051000D02*
X82364000Y-21051000D01*
X96615000Y-21091000D02*
X90940000Y-21091000D01*
X88060000Y-21091000D02*
X82385000Y-21091000D01*
X96594000Y-21131000D02*
X90940000Y-21131000D01*
X88060000Y-21131000D02*
X82406000Y-21131000D01*
X96572000Y-21171000D02*
X90940000Y-21171000D01*
X88060000Y-21171000D02*
X82428000Y-21171000D01*
X96549000Y-21211000D02*
X90940000Y-21211000D01*
X88060000Y-21211000D02*
X82451000Y-21211000D01*
X96527000Y-21251000D02*
X90940000Y-21251000D01*
X88060000Y-21251000D02*
X82473000Y-21251000D01*
X96504000Y-21291000D02*
X90940000Y-21291000D01*
X88060000Y-21291000D02*
X82496000Y-21291000D01*
X96481000Y-21331000D02*
X90940000Y-21331000D01*
X88060000Y-21331000D02*
X82519000Y-21331000D01*
X96458000Y-21371000D02*
X90940000Y-21371000D01*
X88060000Y-21371000D02*
X82542000Y-21371000D01*
X96434000Y-21411000D02*
X90940000Y-21411000D01*
X88060000Y-21411000D02*
X82566000Y-21411000D01*
X96410000Y-21451000D02*
X90940000Y-21451000D01*
X88060000Y-21451000D02*
X82590000Y-21451000D01*
X96386000Y-21491000D02*
X90940000Y-21491000D01*
X88060000Y-21491000D02*
X82614000Y-21491000D01*
X96361000Y-21531000D02*
X90940000Y-21531000D01*
X88060000Y-21531000D02*
X82639000Y-21531000D01*
X96336000Y-21571000D02*
X90940000Y-21571000D01*
X88060000Y-21571000D02*
X82664000Y-21571000D01*
X96311000Y-21611000D02*
X90940000Y-21611000D01*
X88060000Y-21611000D02*
X82689000Y-21611000D01*
X96285000Y-21651000D02*
X90940000Y-21651000D01*
X88060000Y-21651000D02*
X82715000Y-21651000D01*
X96259000Y-21691000D02*
X90940000Y-21691000D01*
X88060000Y-21691000D02*
X82741000Y-21691000D01*
X96233000Y-21731000D02*
X90940000Y-21731000D01*
X88060000Y-21731000D02*
X82767000Y-21731000D01*
X96206000Y-21771000D02*
X90940000Y-21771000D01*
X88060000Y-21771000D02*
X82794000Y-21771000D01*
X96179000Y-21811000D02*
X90940000Y-21811000D01*
X88060000Y-21811000D02*
X82821000Y-21811000D01*
X96152000Y-21851000D02*
X90940000Y-21851000D01*
X88060000Y-21851000D02*
X82848000Y-21851000D01*
X96124000Y-21891000D02*
X90940000Y-21891000D01*
X88060000Y-21891000D02*
X82876000Y-21891000D01*
X96096000Y-21931000D02*
X90940000Y-21931000D01*
X88060000Y-21931000D02*
X82904000Y-21931000D01*
X96068000Y-21971000D02*
X90940000Y-21971000D01*
X88060000Y-21971000D02*
X82932000Y-21971000D01*
X96039000Y-22011000D02*
X90940000Y-22011000D01*
X88060000Y-22011000D02*
X82961000Y-22011000D01*
X96010000Y-22051000D02*
X90940000Y-22051000D01*
X88060000Y-22051000D02*
X82990000Y-22051000D01*
X95980000Y-22091000D02*
X90940000Y-22091000D01*
X88060000Y-22091000D02*
X83020000Y-22091000D01*
X95950000Y-22131000D02*
X90940000Y-22131000D01*
X88060000Y-22131000D02*
X83050000Y-22131000D01*
X95920000Y-22171000D02*
X90940000Y-22171000D01*
X88060000Y-22171000D02*
X83080000Y-22171000D01*
X95890000Y-22211000D02*
X90940000Y-22211000D01*
X88060000Y-22211000D02*
X83110000Y-22211000D01*
X95858000Y-22251000D02*
X90940000Y-22251000D01*
X88060000Y-22251000D02*
X83142000Y-22251000D01*
X95827000Y-22291000D02*
X90940000Y-22291000D01*
X88060000Y-22291000D02*
X83173000Y-22291000D01*
X95795000Y-22331000D02*
X90940000Y-22331000D01*
X88060000Y-22331000D02*
X83205000Y-22331000D01*
X95763000Y-22371000D02*
X90940000Y-22371000D01*
X88060000Y-22371000D02*
X83237000Y-22371000D01*
X95730000Y-22411000D02*
X90940000Y-22411000D01*
X88060000Y-22411000D02*
X83270000Y-22411000D01*
X95697000Y-22451000D02*
X83303000Y-22451000D01*
X95663000Y-22491000D02*
X83337000Y-22491000D01*
X95629000Y-22531000D02*
X83371000Y-22531000D01*
X95595000Y-22571000D02*
X83405000Y-22571000D01*
X95560000Y-22611000D02*
X83440000Y-22611000D01*
X95525000Y-22651000D02*
X83475000Y-22651000D01*
X95489000Y-22691000D02*
X83511000Y-22691000D01*
X95452000Y-22731000D02*
X83548000Y-22731000D01*
X95416000Y-22771000D02*
X83584000Y-22771000D01*
X95378000Y-22811000D02*
X83622000Y-22811000D01*
X95340000Y-22851000D02*
X83660000Y-22851000D01*
X95302000Y-22891000D02*
X83698000Y-22891000D01*
X95263000Y-22931000D02*
X83737000Y-22931000D01*
X95224000Y-22971000D02*
X83776000Y-22971000D01*
X95184000Y-23011000D02*
X83816000Y-23011000D01*
X95143000Y-23051000D02*
X83857000Y-23051000D01*
X95102000Y-23091000D02*
X83898000Y-23091000D01*
X95060000Y-23131000D02*
X83940000Y-23131000D01*
X95018000Y-23171000D02*
X83982000Y-23171000D01*
X94975000Y-23211000D02*
X84025000Y-23211000D01*
X94932000Y-23251000D02*
X84068000Y-23251000D01*
X94888000Y-23291000D02*
X84112000Y-23291000D01*
X94843000Y-23331000D02*
X84157000Y-23331000D01*
X94797000Y-23371000D02*
X84203000Y-23371000D01*
X94751000Y-23411000D02*
X84249000Y-23411000D01*
X94704000Y-23451000D02*
X84296000Y-23451000D01*
X94656000Y-23491000D02*
X84344000Y-23491000D01*
X94608000Y-23531000D02*
X84392000Y-23531000D01*
X94559000Y-23571000D02*
X84441000Y-23571000D01*
X94509000Y-23611000D02*
X84491000Y-23611000D01*
X94458000Y-23651000D02*
X84542000Y-23651000D01*
X94406000Y-23691000D02*
X84594000Y-23691000D01*
X94354000Y-23731000D02*
X84646000Y-23731000D01*
X94300000Y-23771000D02*
X84700000Y-23771000D01*
X94246000Y-23811000D02*
X84754000Y-23811000D01*
X94191000Y-23851000D02*
X84809000Y-23851000D01*
X94134000Y-23891000D02*
X84866000Y-23891000D01*
X94077000Y-23931000D02*
X84923000Y-23931000D01*
X94019000Y-23971000D02*
X84981000Y-23971000D01*
X93959000Y-24011000D02*
X85041000Y-24011000D01*
X93898000Y-24051000D02*
X85102000Y-24051000D01*
X93836000Y-24091000D02*
X85164000Y-24091000D01*
X93773000Y-24131000D02*
X85227000Y-24131000D01*
X93709000Y-24171000D02*
X85291000Y-24171000D01*
X93643000Y-24211000D02*
X85357000Y-24211000D01*
X93576000Y-24251000D02*
X85424000Y-24251000D01*
X93507000Y-24291000D02*
X85493000Y-24291000D01*
X93436000Y-24331000D02*
X85564000Y-24331000D01*
X93364000Y-24371000D02*
X85636000Y-24371000D01*
X93290000Y-24411000D02*
X85710000Y-24411000D01*
X93215000Y-24451000D02*
X85785000Y-24451000D01*
X93137000Y-24491000D02*
X85863000Y-24491000D01*
X93057000Y-24531000D02*
X85943000Y-24531000D01*
X92975000Y-24571000D02*
X86025000Y-24571000D01*
X92890000Y-24611000D02*
X86110000Y-24611000D01*
X92803000Y-24651000D02*
X86197000Y-24651000D01*
X92713000Y-24691000D02*
X86287000Y-24691000D01*
X92620000Y-24731000D02*
X86380000Y-24731000D01*
X92524000Y-24771000D02*
X86476000Y-24771000D01*
X92424000Y-24811000D02*
X86576000Y-24811000D01*
X92320000Y-24851000D02*
X86680000Y-24851000D01*
X92211000Y-24891000D02*
X86789000Y-24891000D01*
X92097000Y-24931000D02*
X86903000Y-24931000D01*
X91978000Y-24971000D02*
X87022000Y-24971000D01*
X91851000Y-25011000D02*
X87149000Y-25011000D01*
X91718000Y-25051000D02*
X87282000Y-25051000D01*
X91574000Y-25091000D02*
X87426000Y-25091000D01*
X91420000Y-25131000D02*
X87580000Y-25131000D01*
X91252000Y-25171000D02*
X87748000Y-25171000D01*
X91064000Y-25211000D02*
X87936000Y-25211000D01*
X90851000Y-25251000D02*
X88149000Y-25251000D01*
X90598000Y-25291000D02*
X88402000Y-25291000D01*
X90265000Y-25331000D02*
X88735000Y-25331000D01*
X97620000Y-17250000D02*
G75*
G03*
X97620000Y-17250000I-8120000J0D01*
G01*
%TO.C,J1*%
X7840000Y-16700000D02*
X6100000Y-16700000D01*
X6100000Y-16700000D02*
X6100000Y-18569000D01*
X15620000Y-17000000D02*
X6340000Y-17000000D01*
X15620000Y-17000000D02*
X15620000Y-29000000D01*
X7900000Y-17000000D02*
X7900000Y-29000000D01*
X6340000Y-17000000D02*
X6340000Y-29000000D01*
X15620000Y-29000000D02*
X6340000Y-29000000D01*
%TO.C,D7*%
X35180000Y-60653821D02*
X33880000Y-60653821D01*
X33880000Y-63438821D02*
X33880000Y-57868821D01*
X33880000Y-57868821D02*
X24120000Y-57868821D01*
X32452000Y-63438821D02*
X32452000Y-57868821D01*
X32332000Y-63438821D02*
X32332000Y-57868821D01*
X32212000Y-63438821D02*
X32212000Y-57868821D01*
X24120000Y-63438821D02*
X33880000Y-63438821D01*
X24120000Y-57868821D02*
X24120000Y-63438821D01*
X22820000Y-60653821D02*
X24120000Y-60653821D01*
%TO.C,U1*%
X77250000Y-55400000D02*
X77250000Y-64890000D01*
X77250000Y-55400000D02*
X87490000Y-55400000D01*
X77250000Y-64890000D02*
X87490000Y-64890000D01*
X77250000Y-65130000D02*
X77250000Y-66330000D01*
X77250000Y-67530000D02*
X77250000Y-68730000D01*
X77250000Y-69930000D02*
X77250000Y-71130000D01*
X77250000Y-71290000D02*
X78450000Y-71290000D01*
X79649000Y-71290000D02*
X80850000Y-71290000D01*
X79830000Y-52860000D02*
X79830000Y-55400000D01*
X82050000Y-71290000D02*
X83250000Y-71290000D01*
X82370000Y-52860000D02*
X82370000Y-55400000D01*
X84450000Y-71290000D02*
X85650000Y-71290000D01*
X84910000Y-52860000D02*
X84910000Y-55400000D01*
X86850000Y-71290000D02*
X87490000Y-71290000D01*
X87490000Y-55400000D02*
X87490000Y-64890000D01*
X87490000Y-65130000D02*
X87490000Y-66330000D01*
X87490000Y-67530000D02*
X87490000Y-68730000D01*
X87490000Y-69930000D02*
X87490000Y-71130000D01*
%TO.C,D3*%
X19840000Y-32477780D02*
X23330000Y-32477780D01*
X23330000Y-27807780D02*
X23330000Y-37147780D01*
X23330000Y-37147780D02*
X32670000Y-37147780D01*
X24695000Y-27807780D02*
X24695000Y-37147780D01*
X24815000Y-27807780D02*
X24815000Y-37147780D01*
X24935000Y-27807780D02*
X24935000Y-37147780D01*
X32670000Y-27807780D02*
X23330000Y-27807780D01*
X32670000Y-37147780D02*
X32670000Y-27807780D01*
X36160000Y-32477780D02*
X32670000Y-32477780D01*
%TO.C,J5*%
X101200000Y-34700000D02*
X103800000Y-34700000D01*
X101200000Y-37300000D02*
X101200000Y-34700000D01*
X101200000Y-37300000D02*
X103800000Y-37300000D01*
X103800000Y-34700000D02*
X103800000Y-37300000D01*
%TO.C,C7*%
X50215000Y-49069252D02*
X50215000Y-50369252D01*
X50865000Y-49719252D02*
X49565000Y-49719252D01*
X53080000Y-56153821D02*
X39920000Y-56153821D01*
X53080000Y-56193821D02*
X39920000Y-56193821D01*
X53080000Y-56233821D02*
X39920000Y-56233821D01*
X53079000Y-56273821D02*
X39921000Y-56273821D01*
X53079000Y-56313821D02*
X39921000Y-56313821D01*
X53077000Y-56353821D02*
X39923000Y-56353821D01*
X53076000Y-56393821D02*
X39924000Y-56393821D01*
X53075000Y-56433821D02*
X39925000Y-56433821D01*
X53073000Y-56473821D02*
X39927000Y-56473821D01*
X53071000Y-56513821D02*
X39929000Y-56513821D01*
X53068000Y-56553821D02*
X39932000Y-56553821D01*
X53066000Y-56593821D02*
X39934000Y-56593821D01*
X53063000Y-56633821D02*
X39937000Y-56633821D01*
X53060000Y-56673821D02*
X39940000Y-56673821D01*
X53057000Y-56713821D02*
X39943000Y-56713821D01*
X53053000Y-56753821D02*
X39947000Y-56753821D01*
X53049000Y-56793821D02*
X39951000Y-56793821D01*
X53045000Y-56833821D02*
X39955000Y-56833821D01*
X53041000Y-56874821D02*
X39959000Y-56874821D01*
X53037000Y-56914821D02*
X39963000Y-56914821D01*
X53032000Y-56954821D02*
X39968000Y-56954821D01*
X53027000Y-56994821D02*
X39973000Y-56994821D01*
X53022000Y-57034821D02*
X39978000Y-57034821D01*
X53016000Y-57074821D02*
X39984000Y-57074821D01*
X53011000Y-57114821D02*
X39989000Y-57114821D01*
X53005000Y-57154821D02*
X39995000Y-57154821D01*
X52998000Y-57194821D02*
X40002000Y-57194821D01*
X52992000Y-57234821D02*
X47940000Y-57234821D01*
X45060000Y-57234821D02*
X40008000Y-57234821D01*
X52985000Y-57274821D02*
X47940000Y-57274821D01*
X45060000Y-57274821D02*
X40015000Y-57274821D01*
X52978000Y-57314821D02*
X47940000Y-57314821D01*
X45060000Y-57314821D02*
X40022000Y-57314821D01*
X52971000Y-57354821D02*
X47940000Y-57354821D01*
X45060000Y-57354821D02*
X40029000Y-57354821D01*
X52963000Y-57394821D02*
X47940000Y-57394821D01*
X45060000Y-57394821D02*
X40037000Y-57394821D01*
X52956000Y-57434821D02*
X47940000Y-57434821D01*
X45060000Y-57434821D02*
X40044000Y-57434821D01*
X52948000Y-57474821D02*
X47940000Y-57474821D01*
X45060000Y-57474821D02*
X40052000Y-57474821D01*
X52939000Y-57514821D02*
X47940000Y-57514821D01*
X45060000Y-57514821D02*
X40061000Y-57514821D01*
X52931000Y-57554821D02*
X47940000Y-57554821D01*
X45060000Y-57554821D02*
X40069000Y-57554821D01*
X52922000Y-57594821D02*
X47940000Y-57594821D01*
X45060000Y-57594821D02*
X40078000Y-57594821D01*
X52913000Y-57634821D02*
X47940000Y-57634821D01*
X45060000Y-57634821D02*
X40087000Y-57634821D01*
X52904000Y-57674821D02*
X47940000Y-57674821D01*
X45060000Y-57674821D02*
X40096000Y-57674821D01*
X52894000Y-57714821D02*
X47940000Y-57714821D01*
X45060000Y-57714821D02*
X40106000Y-57714821D01*
X52884000Y-57754821D02*
X47940000Y-57754821D01*
X45060000Y-57754821D02*
X40116000Y-57754821D01*
X52874000Y-57794821D02*
X47940000Y-57794821D01*
X45060000Y-57794821D02*
X40126000Y-57794821D01*
X52864000Y-57834821D02*
X47940000Y-57834821D01*
X45060000Y-57834821D02*
X40136000Y-57834821D01*
X52853000Y-57874821D02*
X47940000Y-57874821D01*
X45060000Y-57874821D02*
X40147000Y-57874821D01*
X52842000Y-57914821D02*
X47940000Y-57914821D01*
X45060000Y-57914821D02*
X40158000Y-57914821D01*
X52831000Y-57954821D02*
X47940000Y-57954821D01*
X45060000Y-57954821D02*
X40169000Y-57954821D01*
X52820000Y-57994821D02*
X47940000Y-57994821D01*
X45060000Y-57994821D02*
X40180000Y-57994821D01*
X52808000Y-58034821D02*
X47940000Y-58034821D01*
X45060000Y-58034821D02*
X40192000Y-58034821D01*
X52796000Y-58074821D02*
X47940000Y-58074821D01*
X45060000Y-58074821D02*
X40204000Y-58074821D01*
X52784000Y-58114821D02*
X47940000Y-58114821D01*
X45060000Y-58114821D02*
X40216000Y-58114821D01*
X52771000Y-58154821D02*
X47940000Y-58154821D01*
X45060000Y-58154821D02*
X40229000Y-58154821D01*
X52758000Y-58194821D02*
X47940000Y-58194821D01*
X45060000Y-58194821D02*
X40242000Y-58194821D01*
X52745000Y-58234821D02*
X47940000Y-58234821D01*
X45060000Y-58234821D02*
X40255000Y-58234821D01*
X52732000Y-58274821D02*
X47940000Y-58274821D01*
X45060000Y-58274821D02*
X40268000Y-58274821D01*
X52718000Y-58314821D02*
X47940000Y-58314821D01*
X45060000Y-58314821D02*
X40282000Y-58314821D01*
X52704000Y-58354821D02*
X47940000Y-58354821D01*
X45060000Y-58354821D02*
X40296000Y-58354821D01*
X52690000Y-58394821D02*
X47940000Y-58394821D01*
X45060000Y-58394821D02*
X40310000Y-58394821D01*
X52675000Y-58434821D02*
X47940000Y-58434821D01*
X45060000Y-58434821D02*
X40325000Y-58434821D01*
X52661000Y-58474821D02*
X47940000Y-58474821D01*
X45060000Y-58474821D02*
X40339000Y-58474821D01*
X52646000Y-58514821D02*
X47940000Y-58514821D01*
X45060000Y-58514821D02*
X40354000Y-58514821D01*
X52630000Y-58554821D02*
X47940000Y-58554821D01*
X45060000Y-58554821D02*
X40370000Y-58554821D01*
X52614000Y-58594821D02*
X47940000Y-58594821D01*
X45060000Y-58594821D02*
X40386000Y-58594821D01*
X52598000Y-58634821D02*
X47940000Y-58634821D01*
X45060000Y-58634821D02*
X40402000Y-58634821D01*
X52582000Y-58674821D02*
X47940000Y-58674821D01*
X45060000Y-58674821D02*
X40418000Y-58674821D01*
X52565000Y-58714821D02*
X47940000Y-58714821D01*
X45060000Y-58714821D02*
X40435000Y-58714821D01*
X52549000Y-58754821D02*
X47940000Y-58754821D01*
X45060000Y-58754821D02*
X40451000Y-58754821D01*
X52531000Y-58794821D02*
X47940000Y-58794821D01*
X45060000Y-58794821D02*
X40469000Y-58794821D01*
X52514000Y-58834821D02*
X47940000Y-58834821D01*
X45060000Y-58834821D02*
X40486000Y-58834821D01*
X52496000Y-58874821D02*
X47940000Y-58874821D01*
X45060000Y-58874821D02*
X40504000Y-58874821D01*
X52478000Y-58914821D02*
X47940000Y-58914821D01*
X45060000Y-58914821D02*
X40522000Y-58914821D01*
X52459000Y-58954821D02*
X47940000Y-58954821D01*
X45060000Y-58954821D02*
X40541000Y-58954821D01*
X52440000Y-58994821D02*
X47940000Y-58994821D01*
X45060000Y-58994821D02*
X40560000Y-58994821D01*
X52421000Y-59034821D02*
X47940000Y-59034821D01*
X45060000Y-59034821D02*
X40579000Y-59034821D01*
X52402000Y-59074821D02*
X47940000Y-59074821D01*
X45060000Y-59074821D02*
X40598000Y-59074821D01*
X52382000Y-59114821D02*
X47940000Y-59114821D01*
X45060000Y-59114821D02*
X40618000Y-59114821D01*
X52362000Y-59154821D02*
X47940000Y-59154821D01*
X45060000Y-59154821D02*
X40638000Y-59154821D01*
X52341000Y-59194821D02*
X47940000Y-59194821D01*
X45060000Y-59194821D02*
X40659000Y-59194821D01*
X52320000Y-59234821D02*
X47940000Y-59234821D01*
X45060000Y-59234821D02*
X40680000Y-59234821D01*
X52299000Y-59274821D02*
X47940000Y-59274821D01*
X45060000Y-59274821D02*
X40701000Y-59274821D01*
X52278000Y-59314821D02*
X47940000Y-59314821D01*
X45060000Y-59314821D02*
X40722000Y-59314821D01*
X52256000Y-59354821D02*
X47940000Y-59354821D01*
X45060000Y-59354821D02*
X40744000Y-59354821D01*
X52233000Y-59394821D02*
X47940000Y-59394821D01*
X45060000Y-59394821D02*
X40767000Y-59394821D01*
X52211000Y-59434821D02*
X47940000Y-59434821D01*
X45060000Y-59434821D02*
X40789000Y-59434821D01*
X52188000Y-59474821D02*
X47940000Y-59474821D01*
X45060000Y-59474821D02*
X40812000Y-59474821D01*
X52164000Y-59514821D02*
X47940000Y-59514821D01*
X45060000Y-59514821D02*
X40836000Y-59514821D01*
X52141000Y-59554821D02*
X47940000Y-59554821D01*
X45060000Y-59554821D02*
X40859000Y-59554821D01*
X52117000Y-59594821D02*
X47940000Y-59594821D01*
X45060000Y-59594821D02*
X40883000Y-59594821D01*
X52092000Y-59634821D02*
X47940000Y-59634821D01*
X45060000Y-59634821D02*
X40908000Y-59634821D01*
X52067000Y-59674821D02*
X47940000Y-59674821D01*
X45060000Y-59674821D02*
X40933000Y-59674821D01*
X52042000Y-59714821D02*
X47940000Y-59714821D01*
X45060000Y-59714821D02*
X40958000Y-59714821D01*
X52016000Y-59754821D02*
X47940000Y-59754821D01*
X45060000Y-59754821D02*
X40984000Y-59754821D01*
X51990000Y-59794821D02*
X47940000Y-59794821D01*
X45060000Y-59794821D02*
X41010000Y-59794821D01*
X51963000Y-59834821D02*
X47940000Y-59834821D01*
X45060000Y-59834821D02*
X41037000Y-59834821D01*
X51936000Y-59874821D02*
X47940000Y-59874821D01*
X45060000Y-59874821D02*
X41064000Y-59874821D01*
X51909000Y-59914821D02*
X47940000Y-59914821D01*
X45060000Y-59914821D02*
X41091000Y-59914821D01*
X51881000Y-59954821D02*
X47940000Y-59954821D01*
X45060000Y-59954821D02*
X41119000Y-59954821D01*
X51853000Y-59994821D02*
X47940000Y-59994821D01*
X45060000Y-59994821D02*
X41147000Y-59994821D01*
X51824000Y-60034821D02*
X47940000Y-60034821D01*
X45060000Y-60034821D02*
X41176000Y-60034821D01*
X51795000Y-60074821D02*
X47940000Y-60074821D01*
X45060000Y-60074821D02*
X41205000Y-60074821D01*
X51765000Y-60114821D02*
X41235000Y-60114821D01*
X51735000Y-60154821D02*
X41265000Y-60154821D01*
X51705000Y-60194821D02*
X41295000Y-60194821D01*
X51674000Y-60234821D02*
X41326000Y-60234821D01*
X51642000Y-60274821D02*
X41358000Y-60274821D01*
X51610000Y-60314821D02*
X41390000Y-60314821D01*
X51578000Y-60354821D02*
X41422000Y-60354821D01*
X51544000Y-60394821D02*
X41456000Y-60394821D01*
X51511000Y-60434821D02*
X41489000Y-60434821D01*
X51477000Y-60474821D02*
X41523000Y-60474821D01*
X51442000Y-60514821D02*
X41558000Y-60514821D01*
X51407000Y-60554821D02*
X41593000Y-60554821D01*
X51371000Y-60594821D02*
X41629000Y-60594821D01*
X51334000Y-60634821D02*
X41666000Y-60634821D01*
X51297000Y-60674821D02*
X41703000Y-60674821D01*
X51260000Y-60714821D02*
X41740000Y-60714821D01*
X51221000Y-60754821D02*
X41779000Y-60754821D01*
X51182000Y-60794821D02*
X41818000Y-60794821D01*
X51143000Y-60834821D02*
X41857000Y-60834821D01*
X51102000Y-60874821D02*
X41898000Y-60874821D01*
X51061000Y-60914821D02*
X41939000Y-60914821D01*
X51019000Y-60954821D02*
X41981000Y-60954821D01*
X50977000Y-60994821D02*
X42023000Y-60994821D01*
X50934000Y-61034821D02*
X42066000Y-61034821D01*
X50890000Y-61074821D02*
X42110000Y-61074821D01*
X50845000Y-61114821D02*
X42155000Y-61114821D01*
X50799000Y-61154821D02*
X42201000Y-61154821D01*
X50753000Y-61194821D02*
X42247000Y-61194821D01*
X50705000Y-61234821D02*
X42295000Y-61234821D01*
X50657000Y-61274821D02*
X42343000Y-61274821D01*
X50608000Y-61314821D02*
X42392000Y-61314821D01*
X50557000Y-61354821D02*
X42443000Y-61354821D01*
X50506000Y-61394821D02*
X42494000Y-61394821D01*
X50454000Y-61434821D02*
X42546000Y-61434821D01*
X50400000Y-61474821D02*
X42600000Y-61474821D01*
X50346000Y-61514821D02*
X42654000Y-61514821D01*
X50290000Y-61554821D02*
X42710000Y-61554821D01*
X50233000Y-61594821D02*
X42767000Y-61594821D01*
X50175000Y-61634821D02*
X42825000Y-61634821D01*
X50115000Y-61674821D02*
X42885000Y-61674821D01*
X50054000Y-61714821D02*
X42946000Y-61714821D01*
X49991000Y-61754821D02*
X43009000Y-61754821D01*
X49927000Y-61794821D02*
X43073000Y-61794821D01*
X49861000Y-61834821D02*
X43139000Y-61834821D01*
X49793000Y-61874821D02*
X43207000Y-61874821D01*
X49723000Y-61914821D02*
X43277000Y-61914821D01*
X49652000Y-61954821D02*
X43348000Y-61954821D01*
X49578000Y-61994821D02*
X43422000Y-61994821D01*
X49502000Y-62034821D02*
X43498000Y-62034821D01*
X49423000Y-62074821D02*
X43577000Y-62074821D01*
X49342000Y-62114821D02*
X43658000Y-62114821D01*
X49258000Y-62154821D02*
X43742000Y-62154821D01*
X49170000Y-62194821D02*
X43830000Y-62194821D01*
X49079000Y-62234821D02*
X43921000Y-62234821D01*
X48984000Y-62274821D02*
X44016000Y-62274821D01*
X48885000Y-62314821D02*
X44115000Y-62314821D01*
X48781000Y-62354821D02*
X44219000Y-62354821D01*
X48671000Y-62394821D02*
X44329000Y-62394821D01*
X48555000Y-62434821D02*
X44445000Y-62434821D01*
X48431000Y-62474821D02*
X44569000Y-62474821D01*
X48298000Y-62514821D02*
X44702000Y-62514821D01*
X48153000Y-62554821D02*
X44847000Y-62554821D01*
X47994000Y-62594821D02*
X45006000Y-62594821D01*
X47815000Y-62634821D02*
X45185000Y-62634821D01*
X47607000Y-62674821D02*
X45393000Y-62674821D01*
X47350000Y-62714821D02*
X45650000Y-62714821D01*
X46975000Y-62754821D02*
X46025000Y-62754821D01*
X53120000Y-56153821D02*
G75*
G03*
X53120000Y-56153821I-6620000J0D01*
G01*
%TO.C,J3*%
X101200000Y-16700000D02*
X103800000Y-16700000D01*
X101200000Y-19300000D02*
X101200000Y-16700000D01*
X101200000Y-19300000D02*
X103800000Y-19300000D01*
X103800000Y-16700000D02*
X103800000Y-19300000D01*
%TO.C,J7*%
X100700000Y-54700000D02*
X103300000Y-54700000D01*
X100700000Y-57300000D02*
X100700000Y-54700000D01*
X100700000Y-57300000D02*
X103300000Y-57300000D01*
X103300000Y-54700000D02*
X103300000Y-57300000D01*
%TO.C,D5*%
X35180000Y-54653821D02*
X33880000Y-54653821D01*
X33880000Y-57438821D02*
X33880000Y-51868821D01*
X33880000Y-51868821D02*
X24120000Y-51868821D01*
X32452000Y-57438821D02*
X32452000Y-51868821D01*
X32332000Y-57438821D02*
X32332000Y-51868821D01*
X32212000Y-57438821D02*
X32212000Y-51868821D01*
X24120000Y-57438821D02*
X33880000Y-57438821D01*
X24120000Y-51868821D02*
X24120000Y-57438821D01*
X22820000Y-54653821D02*
X24120000Y-54653821D01*
%TO.C,C12*%
X93090000Y-50920000D02*
X92645000Y-50920000D01*
X93090000Y-50920000D02*
X93090000Y-57160000D01*
X90795000Y-50920000D02*
X90350000Y-50920000D01*
X90350000Y-50920000D02*
X90350000Y-57160000D01*
X93090000Y-57160000D02*
X92645000Y-57160000D01*
X90795000Y-57160000D02*
X90350000Y-57160000D01*
%TD*%
M02*
