M48
; DRILL file {KiCad 7.0.2-6a45011f42~172~ubuntu22.04.1} date dom 07 may 2023 16:07:08
; FORMAT={-:-/ absolute / metric / decimal}
; #@! TF.CreationDate,2023-05-07T16:07:08-05:00
; #@! TF.GenerationSoftware,Kicad,Pcbnew,7.0.2-6a45011f42~172~ubuntu22.04.1
; #@! TF.FileFunction,Plated,1,2,PTH
FMAT,2
METRIC
; #@! TA.AperFunction,Plated,PTH,ComponentDrill
T1C0.800
; #@! TA.AperFunction,Plated,PTH,ComponentDrill
T2C1.000
; #@! TA.AperFunction,Plated,PTH,ComponentDrill
T3C1.100
; #@! TA.AperFunction,Plated,PTH,ComponentDrill
T4C1.200
; #@! TA.AperFunction,Plated,PTH,ComponentDrill
T5C1.500
; #@! TA.AperFunction,Plated,PTH,ComponentDrill
T6C1.600
%
G90
G05
T1
X162.0Y-113.0
X162.0Y-115.5
X181.72Y-109.54
X181.72Y-114.54
T2
X183.0Y-121.325
X183.0Y-123.865
T3
X169.83Y-109.71
X172.37Y-109.71
X174.91Y-109.71
X192.0Y-106.0
X192.0Y-114.0
X192.0Y-122.2
X192.5Y-76.0
X192.5Y-84.978
X192.5Y-94.0
T4
X111.38Y-112.654
X111.38Y-118.654
X111.38Y-124.654
X111.38Y-130.654
X126.62Y-112.654
X126.62Y-118.654
X126.62Y-124.654
X126.62Y-130.654
X136.5Y-111.654
X136.5Y-116.654
X136.5Y-126.0
X136.5Y-131.0
X141.5Y-71.478
X141.5Y-78.978
X141.5Y-91.5
X141.5Y-99.0
X151.0Y-111.654
X151.0Y-116.654
X151.0Y-126.0
X151.0Y-131.0
X160.5Y-71.478
X160.5Y-78.978
X160.5Y-91.5
X160.5Y-99.0
X179.5Y-71.5
X179.5Y-79.0
X179.5Y-90.5
X179.5Y-98.0
T5
X100.0Y-77.5
X100.0Y-81.0
X100.0Y-84.5
X100.0Y-113.5
X100.0Y-117.0
X100.0Y-120.5
T6
X108.0Y-70.478
X108.0Y-80.478
X108.0Y-90.478
X108.0Y-100.478
X128.0Y-70.478
X128.0Y-80.478
X128.0Y-90.478
X128.0Y-100.478
T0
M30
