M48
; DRILL file {KiCad 7.0.2-6a45011f42~172~ubuntu22.04.1} date dom 07 may 2023 16:17:07
; FORMAT={-:-/ absolute / metric / decimal}
; #@! TF.CreationDate,2023-05-07T16:17:07-05:00
; #@! TF.GenerationSoftware,Kicad,Pcbnew,7.0.2-6a45011f42~172~ubuntu22.04.1
; #@! TF.FileFunction,Plated,1,2,PTH
FMAT,2
METRIC
; #@! TA.AperFunction,Plated,PTH,ComponentDrill
T1C0.800
; #@! TA.AperFunction,Plated,PTH,ComponentDrill
T2C1.000
; #@! TA.AperFunction,Plated,PTH,ComponentDrill
T3C1.100
; #@! TA.AperFunction,Plated,PTH,ComponentDrill
T4C1.200
; #@! TA.AperFunction,Plated,PTH,ComponentDrill
T5C1.500
; #@! TA.AperFunction,Plated,PTH,ComponentDrill
T6C1.600
%
G90
G05
T1
X72.0Y-55.0
X72.0Y-57.5
X91.72Y-51.54
X91.72Y-56.54
T2
X93.0Y-63.325
X93.0Y-65.865
T3
X79.83Y-51.71
X82.37Y-51.71
X84.91Y-51.71
X102.0Y-48.0
X102.0Y-56.0
X102.0Y-64.2
X102.5Y-18.0
X102.5Y-26.978
X102.5Y-36.0
T4
X21.38Y-54.654
X21.38Y-60.654
X21.38Y-66.654
X21.38Y-72.654
X36.62Y-54.654
X36.62Y-60.654
X36.62Y-66.654
X36.62Y-72.654
X46.5Y-53.654
X46.5Y-58.654
X46.5Y-68.0
X46.5Y-73.0
X51.5Y-13.478
X51.5Y-20.978
X51.5Y-33.5
X51.5Y-41.0
X61.0Y-53.654
X61.0Y-58.654
X61.0Y-68.0
X61.0Y-73.0
X70.5Y-13.478
X70.5Y-20.978
X70.5Y-33.5
X70.5Y-41.0
X89.5Y-13.5
X89.5Y-21.0
X89.5Y-32.5
X89.5Y-40.0
T5
X10.0Y-19.5
X10.0Y-23.0
X10.0Y-26.5
X10.0Y-55.5
X10.0Y-59.0
X10.0Y-62.5
T6
X18.0Y-12.478
X18.0Y-22.478
X18.0Y-32.478
X18.0Y-42.478
X38.0Y-12.478
X38.0Y-22.478
X38.0Y-32.478
X38.0Y-42.478
T0
M30
