<?xml version="1.0" standalone="no"?>
 <!DOCTYPE svg PUBLIC "-//W3C//DTD SVG 1.1//EN" 
 "http://www.w3.org/Graphics/SVG/1.1/DTD/svg11.dtd"> 
<svg
  xmlns:svg="http://www.w3.org/2000/svg"
  xmlns="http://www.w3.org/2000/svg"
  xmlns:xlink="http://www.w3.org/1999/xlink"
  version="1.1"
  width="297.002200mm" height="210.007200mm" viewBox="0.000000 0.000000 297.002200 210.007200">
<title>SVG Image created as fuente-lineal-F_Fab.svg date 2023/05/07 16:06:54 </title>
  <desc>Image generated by PCBNEW </desc>
<g style="fill:#000000; fill-opacity:1.000000;stroke:#000000; stroke-opacity:1.000000;
stroke-linecap:round; stroke-linejoin:round;"
 transform="translate(0 0) scale(1 1)">
</g>
<g style="fill:#000000; fill-opacity:0.0; 
stroke:#000000; stroke-width:0.000000; stroke-opacity:1; 
stroke-linecap:round; stroke-linejoin:round;">
</g>
<g style="fill:#000000; fill-opacity:1.000000; 
stroke:#000000; stroke-width:0.021200; stroke-opacity:1; 
stroke-linecap:round; stroke-linejoin:round;">
<rect x="88.888690" y="51.162500" width="120.858335" height="91.837500" rx="0.000000" />
</g>
<g style="fill:#FFFFFF; fill-opacity:1.000000; 
stroke:#FFFFFF; stroke-width:0.021200; stroke-opacity:1; 
stroke-linecap:round; stroke-linejoin:round;">
</g>
<g style="fill:#FFFFFF; fill-opacity:1.000000; 
stroke:#FFFFFF; stroke-width:0.150000; stroke-opacity:1; 
stroke-linecap:round; stroke-linejoin:round;">
</g>
<g style="fill:#FFFFFF; fill-opacity:0.0; 
stroke:#FFFFFF; stroke-width:0.150000; stroke-opacity:1; 
stroke-linecap:round; stroke-linejoin:round;">
<g transform="rotate(-90.000000 151.000000 114.153821)">
<text x="151.000000" y="114.653821"
textLength="2.127381" font-size="1.333333" lengthAdjust="spacingAndGlyphs"
text-anchor="middle" opacity="0">C9</text>
</g>
<g class="stroked-text"><desc>C9</desc>
<path d="M151.367380 114.320487
L151.415000 114.368106
" />
<path d="M151.415000 114.368106
L151.462619 114.510963
" />
<path d="M151.462619 114.510963
L151.462619 114.606201
" />
<path d="M151.462619 114.606201
L151.415000 114.749058
" />
<path d="M151.415000 114.749058
L151.319761 114.844296
" />
<path d="M151.319761 114.844296
L151.224523 114.891915
" />
<path d="M151.224523 114.891915
L151.034047 114.939534
" />
<path d="M151.034047 114.939534
L150.891190 114.939534
" />
<path d="M150.891190 114.939534
L150.700714 114.891915
" />
<path d="M150.700714 114.891915
L150.605476 114.844296
" />
<path d="M150.605476 114.844296
L150.510238 114.749058
" />
<path d="M150.510238 114.749058
L150.462619 114.606201
" />
<path d="M150.462619 114.606201
L150.462619 114.510963
" />
<path d="M150.462619 114.510963
L150.510238 114.368106
" />
<path d="M150.510238 114.368106
L150.557857 114.320487
" />
<path d="M151.462619 113.844296
L151.462619 113.653820
" />
<path d="M151.462619 113.653820
L151.415000 113.558582
" />
<path d="M151.415000 113.558582
L151.367380 113.510963
" />
<path d="M151.367380 113.510963
L151.224523 113.415725
" />
<path d="M151.224523 113.415725
L151.034047 113.368106
" />
<path d="M151.034047 113.368106
L150.653095 113.368106
" />
<path d="M150.653095 113.368106
L150.557857 113.415725
" />
<path d="M150.557857 113.415725
L150.510238 113.463344
" />
<path d="M150.510238 113.463344
L150.462619 113.558582
" />
<path d="M150.462619 113.558582
L150.462619 113.749058
" />
<path d="M150.462619 113.749058
L150.510238 113.844296
" />
<path d="M150.510238 113.844296
L150.557857 113.891915
" />
<path d="M150.557857 113.891915
L150.653095 113.939534
" />
<path d="M150.653095 113.939534
L150.891190 113.939534
" />
<path d="M150.891190 113.939534
L150.986428 113.891915
" />
<path d="M150.986428 113.891915
L151.034047 113.844296
" />
<path d="M151.034047 113.844296
L151.081666 113.749058
" />
<path d="M151.081666 113.749058
L151.081666 113.558582
" />
<path d="M151.081666 113.558582
L151.034047 113.463344
" />
<path d="M151.034047 113.463344
L150.986428 113.415725
" />
<path d="M150.986428 113.415725
L150.891190 113.368106
" />
</g><text x="191.000000" y="133.500000"
textLength="2.175000" font-size="1.333333" lengthAdjust="spacingAndGlyphs"
text-anchor="middle" opacity="0">H4</text>
<g class="stroked-text"><desc>H4</desc>
<path d="M190.238095 133.462619
L190.238095 132.462619
" />
<path d="M190.238095 132.938809
L190.809523 132.938809
" />
<path d="M190.809523 133.462619
L190.809523 132.462619
" />
<path d="M191.714285 132.795952
L191.714285 133.462619
" />
<path d="M191.476190 132.415000
L191.238095 133.129285
" />
<path d="M191.238095 133.129285
L191.857142 133.129285
" />
</g><g transform="rotate(-90.000000 160.500000 75.227780)">
<text x="160.500000" y="75.727780"
textLength="2.127381" font-size="1.333333" lengthAdjust="spacingAndGlyphs"
text-anchor="middle" opacity="0">C3</text>
</g>
<g class="stroked-text"><desc>C3</desc>
<path d="M160.867380 75.394446
L160.915000 75.442065
" />
<path d="M160.915000 75.442065
L160.962619 75.584922
" />
<path d="M160.962619 75.584922
L160.962619 75.680160
" />
<path d="M160.962619 75.680160
L160.915000 75.823017
" />
<path d="M160.915000 75.823017
L160.819761 75.918255
" />
<path d="M160.819761 75.918255
L160.724523 75.965874
" />
<path d="M160.724523 75.965874
L160.534047 76.013493
" />
<path d="M160.534047 76.013493
L160.391190 76.013493
" />
<path d="M160.391190 76.013493
L160.200714 75.965874
" />
<path d="M160.200714 75.965874
L160.105476 75.918255
" />
<path d="M160.105476 75.918255
L160.010238 75.823017
" />
<path d="M160.010238 75.823017
L159.962619 75.680160
" />
<path d="M159.962619 75.680160
L159.962619 75.584922
" />
<path d="M159.962619 75.584922
L160.010238 75.442065
" />
<path d="M160.010238 75.442065
L160.057857 75.394446
" />
<path d="M159.962619 75.061112
L159.962619 74.442065
" />
<path d="M159.962619 74.442065
L160.343571 74.775398
" />
<path d="M160.343571 74.775398
L160.343571 74.632541
" />
<path d="M160.343571 74.632541
L160.391190 74.537303
" />
<path d="M160.391190 74.537303
L160.438809 74.489684
" />
<path d="M160.438809 74.489684
L160.534047 74.442065
" />
<path d="M160.534047 74.442065
L160.772142 74.442065
" />
<path d="M160.772142 74.442065
L160.867380 74.489684
" />
<path d="M160.867380 74.489684
L160.915000 74.537303
" />
<path d="M160.915000 74.537303
L160.962619 74.632541
" />
<path d="M160.962619 74.632541
L160.962619 74.918255
" />
<path d="M160.962619 74.918255
L160.915000 75.013493
" />
<path d="M160.915000 75.013493
L160.867380 75.061112
" />
</g><text x="192.500000" y="87.577780"
textLength="1.889286" font-size="1.333333" lengthAdjust="spacingAndGlyphs"
text-anchor="middle" opacity="0">J4</text>
<g class="stroked-text"><desc>J4</desc>
<path d="M192.166666 86.540399
L192.166666 87.254684
" />
<path d="M192.166666 87.254684
L192.119047 87.397541
" />
<path d="M192.119047 87.397541
L192.023809 87.492780
" />
<path d="M192.023809 87.492780
L191.880952 87.540399
" />
<path d="M191.880952 87.540399
L191.785714 87.540399
" />
<path d="M193.071428 86.873732
L193.071428 87.540399
" />
<path d="M192.833333 86.492780
L192.595238 87.207065
" />
<path d="M192.595238 87.207065
L193.214285 87.207065
" />
</g><g transform="rotate(-90.000000 103.200000 117.000000)">
<text x="103.200000" y="117.500000"
textLength="1.889286" font-size="1.333333" lengthAdjust="spacingAndGlyphs"
text-anchor="middle" opacity="0">J2</text>
</g>
<g class="stroked-text"><desc>J2</desc>
<path d="M102.662619 117.333333
L103.376904 117.333333
" />
<path d="M103.376904 117.333333
L103.519761 117.380952
" />
<path d="M103.519761 117.380952
L103.615000 117.476190
" />
<path d="M103.615000 117.476190
L103.662619 117.619047
" />
<path d="M103.662619 117.619047
L103.662619 117.714285
" />
<path d="M102.757857 116.904761
L102.710238 116.857142
" />
<path d="M102.710238 116.857142
L102.662619 116.761904
" />
<path d="M102.662619 116.761904
L102.662619 116.523809
" />
<path d="M102.662619 116.523809
L102.710238 116.428571
" />
<path d="M102.710238 116.428571
L102.757857 116.380952
" />
<path d="M102.757857 116.380952
L102.853095 116.333333
" />
<path d="M102.853095 116.333333
L102.948333 116.333333
" />
<path d="M102.948333 116.333333
L103.091190 116.380952
" />
<path d="M103.091190 116.380952
L103.662619 116.952380
" />
<path d="M103.662619 116.952380
L103.662619 116.333333
" />
</g><g transform="rotate(-90.000000 162.000000 114.250000)">
<text x="162.000000" y="114.750000"
textLength="3.079762" font-size="1.333333" lengthAdjust="spacingAndGlyphs"
text-anchor="middle" opacity="0">C11</text>
</g>
<g class="stroked-text"><desc>C11</desc>
<path d="M162.367380 114.892857
L162.415000 114.940476
" />
<path d="M162.415000 114.940476
L162.462619 115.083333
" />
<path d="M162.462619 115.083333
L162.462619 115.178571
" />
<path d="M162.462619 115.178571
L162.415000 115.321428
" />
<path d="M162.415000 115.321428
L162.319761 115.416666
" />
<path d="M162.319761 115.416666
L162.224523 115.464285
" />
<path d="M162.224523 115.464285
L162.034047 115.511904
" />
<path d="M162.034047 115.511904
L161.891190 115.511904
" />
<path d="M161.891190 115.511904
L161.700714 115.464285
" />
<path d="M161.700714 115.464285
L161.605476 115.416666
" />
<path d="M161.605476 115.416666
L161.510238 115.321428
" />
<path d="M161.510238 115.321428
L161.462619 115.178571
" />
<path d="M161.462619 115.178571
L161.462619 115.083333
" />
<path d="M161.462619 115.083333
L161.510238 114.940476
" />
<path d="M161.510238 114.940476
L161.557857 114.892857
" />
<path d="M162.462619 113.940476
L162.462619 114.511904
" />
<path d="M162.462619 114.226190
L161.462619 114.226190
" />
<path d="M161.462619 114.226190
L161.605476 114.321428
" />
<path d="M161.605476 114.321428
L161.700714 114.416666
" />
<path d="M161.700714 114.416666
L161.748333 114.511904
" />
<path d="M162.462619 112.988095
L162.462619 113.559523
" />
<path d="M162.462619 113.273809
L161.462619 113.273809
" />
<path d="M161.462619 113.273809
L161.605476 113.369047
" />
<path d="M161.605476 113.369047
L161.700714 113.464285
" />
<path d="M161.700714 113.464285
L161.748333 113.559523
" />
</g><text x="99.000000" y="67.500000"
textLength="2.175000" font-size="1.333333" lengthAdjust="spacingAndGlyphs"
text-anchor="middle" opacity="0">H1</text>
<g class="stroked-text"><desc>H1</desc>
<path d="M98.238095 67.462619
L98.238095 66.462619
" />
<path d="M98.238095 66.938809
L98.809523 66.938809
" />
<path d="M98.809523 67.462619
L98.809523 66.462619
" />
<path d="M99.809523 67.462619
L99.238095 67.462619
" />
<path d="M99.523809 67.462619
L99.523809 66.462619
" />
<path d="M99.523809 66.462619
L99.428571 66.605476
" />
<path d="M99.428571 66.605476
L99.333333 66.700714
" />
<path d="M99.333333 66.700714
L99.238095 66.748333
" />
</g><text x="128.000000" y="83.577780"
textLength="1.175000" font-size="1.333333" lengthAdjust="spacingAndGlyphs"
text-anchor="middle" opacity="0">K</text>
<g class="stroked-text"><desc>K</desc>
<path d="M127.738095 83.540399
L127.738095 82.540399
" />
<path d="M128.309523 83.540399
L127.880952 82.968970
" />
<path d="M128.309523 82.540399
L127.738095 83.111827
" />
</g><text x="117.317500" y="80.977780"
textLength="2.127381" font-size="1.333333" lengthAdjust="spacingAndGlyphs"
text-anchor="middle" opacity="0">D2</text>
<g class="stroked-text"><desc>D2</desc>
<path d="M116.579405 80.940399
L116.579405 79.940399
" />
<path d="M116.579405 79.940399
L116.817500 79.940399
" />
<path d="M116.817500 79.940399
L116.960357 79.988018
" />
<path d="M116.960357 79.988018
L117.055595 80.083256
" />
<path d="M117.055595 80.083256
L117.103214 80.178494
" />
<path d="M117.103214 80.178494
L117.150833 80.368970
" />
<path d="M117.150833 80.368970
L117.150833 80.511827
" />
<path d="M117.150833 80.511827
L117.103214 80.702303
" />
<path d="M117.103214 80.702303
L117.055595 80.797541
" />
<path d="M117.055595 80.797541
L116.960357 80.892780
" />
<path d="M116.960357 80.892780
L116.817500 80.940399
" />
<path d="M116.817500 80.940399
L116.579405 80.940399
" />
<path d="M117.531786 80.035637
L117.579405 79.988018
" />
<path d="M117.579405 79.988018
L117.674643 79.940399
" />
<path d="M117.674643 79.940399
L117.912738 79.940399
" />
<path d="M117.912738 79.940399
L118.007976 79.988018
" />
<path d="M118.007976 79.988018
L118.055595 80.035637
" />
<path d="M118.055595 80.035637
L118.103214 80.130875
" />
<path d="M118.103214 80.130875
L118.103214 80.226113
" />
<path d="M118.103214 80.226113
L118.055595 80.368970
" />
<path d="M118.055595 80.368970
L117.484167 80.940399
" />
<path d="M117.484167 80.940399
L118.103214 80.940399
" />
</g><text x="192.000000" y="108.600000"
textLength="1.889286" font-size="1.333333" lengthAdjust="spacingAndGlyphs"
text-anchor="middle" opacity="0">J6</text>
<g class="stroked-text"><desc>J6</desc>
<path d="M191.666666 107.562619
L191.666666 108.276904
" />
<path d="M191.666666 108.276904
L191.619047 108.419761
" />
<path d="M191.619047 108.419761
L191.523809 108.515000
" />
<path d="M191.523809 108.515000
L191.380952 108.562619
" />
<path d="M191.380952 108.562619
L191.285714 108.562619
" />
<path d="M192.571428 107.562619
L192.380952 107.562619
" />
<path d="M192.380952 107.562619
L192.285714 107.610238
" />
<path d="M192.285714 107.610238
L192.238095 107.657857
" />
<path d="M192.238095 107.657857
L192.142857 107.800714
" />
<path d="M192.142857 107.800714
L192.095238 107.991190
" />
<path d="M192.095238 107.991190
L192.095238 108.372142
" />
<path d="M192.095238 108.372142
L192.142857 108.467380
" />
<path d="M192.142857 108.467380
L192.190476 108.515000
" />
<path d="M192.190476 108.515000
L192.285714 108.562619
" />
<path d="M192.285714 108.562619
L192.476190 108.562619
" />
<path d="M192.476190 108.562619
L192.571428 108.515000
" />
<path d="M192.571428 108.515000
L192.619047 108.467380
" />
<path d="M192.619047 108.467380
L192.666666 108.372142
" />
<path d="M192.666666 108.372142
L192.666666 108.134047
" />
<path d="M192.666666 108.134047
L192.619047 108.038809
" />
<path d="M192.619047 108.038809
L192.571428 107.991190
" />
<path d="M192.571428 107.991190
L192.476190 107.943571
" />
<path d="M192.476190 107.943571
L192.285714 107.943571
" />
<path d="M192.285714 107.943571
L192.190476 107.991190
" />
<path d="M192.190476 107.991190
L192.142857 108.038809
" />
<path d="M192.142857 108.038809
L192.095238 108.134047
" />
</g><text x="191.000000" y="67.500000"
textLength="2.175000" font-size="1.333333" lengthAdjust="spacingAndGlyphs"
text-anchor="middle" opacity="0">H2</text>
<g class="stroked-text"><desc>H2</desc>
<path d="M190.238095 67.462619
L190.238095 66.462619
" />
<path d="M190.238095 66.938809
L190.809523 66.938809
" />
<path d="M190.809523 67.462619
L190.809523 66.462619
" />
<path d="M191.238095 66.557857
L191.285714 66.510238
" />
<path d="M191.285714 66.510238
L191.380952 66.462619
" />
<path d="M191.380952 66.462619
L191.619047 66.462619
" />
<path d="M191.619047 66.462619
L191.714285 66.510238
" />
<path d="M191.714285 66.510238
L191.761904 66.557857
" />
<path d="M191.761904 66.557857
L191.809523 66.653095
" />
<path d="M191.809523 66.653095
L191.809523 66.748333
" />
<path d="M191.809523 66.748333
L191.761904 66.891190
" />
<path d="M191.761904 66.891190
L191.190476 67.462619
" />
<path d="M191.190476 67.462619
L191.809523 67.462619
" />
</g><g transform="rotate(-90.000000 136.500000 128.500000)">
<text x="136.500000" y="129.000000"
textLength="2.127381" font-size="1.333333" lengthAdjust="spacingAndGlyphs"
text-anchor="middle" opacity="0">C8</text>
</g>
<g class="stroked-text"><desc>C8</desc>
<path d="M136.867380 128.666666
L136.915000 128.714285
" />
<path d="M136.915000 128.714285
L136.962619 128.857142
" />
<path d="M136.962619 128.857142
L136.962619 128.952380
" />
<path d="M136.962619 128.952380
L136.915000 129.095237
" />
<path d="M136.915000 129.095237
L136.819761 129.190475
" />
<path d="M136.819761 129.190475
L136.724523 129.238094
" />
<path d="M136.724523 129.238094
L136.534047 129.285713
" />
<path d="M136.534047 129.285713
L136.391190 129.285713
" />
<path d="M136.391190 129.285713
L136.200714 129.238094
" />
<path d="M136.200714 129.238094
L136.105476 129.190475
" />
<path d="M136.105476 129.190475
L136.010238 129.095237
" />
<path d="M136.010238 129.095237
L135.962619 128.952380
" />
<path d="M135.962619 128.952380
L135.962619 128.857142
" />
<path d="M135.962619 128.857142
L136.010238 128.714285
" />
<path d="M136.010238 128.714285
L136.057857 128.666666
" />
<path d="M136.391190 128.095237
L136.343571 128.190475
" />
<path d="M136.343571 128.190475
L136.295952 128.238094
" />
<path d="M136.295952 128.238094
L136.200714 128.285713
" />
<path d="M136.200714 128.285713
L136.153095 128.285713
" />
<path d="M136.153095 128.285713
L136.057857 128.238094
" />
<path d="M136.057857 128.238094
L136.010238 128.190475
" />
<path d="M136.010238 128.190475
L135.962619 128.095237
" />
<path d="M135.962619 128.095237
L135.962619 127.904761
" />
<path d="M135.962619 127.904761
L136.010238 127.809523
" />
<path d="M136.010238 127.809523
L136.057857 127.761904
" />
<path d="M136.057857 127.761904
L136.153095 127.714285
" />
<path d="M136.153095 127.714285
L136.200714 127.714285
" />
<path d="M136.200714 127.714285
L136.295952 127.761904
" />
<path d="M136.295952 127.761904
L136.343571 127.809523
" />
<path d="M136.343571 127.809523
L136.391190 127.904761
" />
<path d="M136.391190 127.904761
L136.391190 128.095237
" />
<path d="M136.391190 128.095237
L136.438809 128.190475
" />
<path d="M136.438809 128.190475
L136.486428 128.238094
" />
<path d="M136.486428 128.238094
L136.581666 128.285713
" />
<path d="M136.581666 128.285713
L136.772142 128.285713
" />
<path d="M136.772142 128.285713
L136.867380 128.238094
" />
<path d="M136.867380 128.238094
L136.915000 128.190475
" />
<path d="M136.915000 128.190475
L136.962619 128.095237
" />
<path d="M136.962619 128.095237
L136.962619 127.904761
" />
<path d="M136.962619 127.904761
L136.915000 127.809523
" />
<path d="M136.915000 127.809523
L136.867380 127.761904
" />
<path d="M136.867380 127.761904
L136.772142 127.714285
" />
<path d="M136.772142 127.714285
L136.581666 127.714285
" />
<path d="M136.581666 127.714285
L136.486428 127.761904
" />
<path d="M136.486428 127.761904
L136.438809 127.809523
" />
<path d="M136.438809 127.809523
L136.391190 127.904761
" />
</g><g transform="rotate(-90.000000 183.000000 122.595000)">
<text x="183.000000" y="123.095000"
textLength="1.889286" font-size="1.333333" lengthAdjust="spacingAndGlyphs"
text-anchor="middle" opacity="0">J9</text>
</g>
<g class="stroked-text"><desc>J9</desc>
<path d="M182.462619 122.928333
L183.176904 122.928333
" />
<path d="M183.176904 122.928333
L183.319761 122.975952
" />
<path d="M183.319761 122.975952
L183.415000 123.071190
" />
<path d="M183.415000 123.071190
L183.462619 123.214047
" />
<path d="M183.462619 123.214047
L183.462619 123.309285
" />
<path d="M183.462619 122.404523
L183.462619 122.214047
" />
<path d="M183.462619 122.214047
L183.415000 122.118809
" />
<path d="M183.415000 122.118809
L183.367380 122.071190
" />
<path d="M183.367380 122.071190
L183.224523 121.975952
" />
<path d="M183.224523 121.975952
L183.034047 121.928333
" />
<path d="M183.034047 121.928333
L182.653095 121.928333
" />
<path d="M182.653095 121.928333
L182.557857 121.975952
" />
<path d="M182.557857 121.975952
L182.510238 122.023571
" />
<path d="M182.510238 122.023571
L182.462619 122.118809
" />
<path d="M182.462619 122.118809
L182.462619 122.309285
" />
<path d="M182.462619 122.309285
L182.510238 122.404523
" />
<path d="M182.510238 122.404523
L182.557857 122.452142
" />
<path d="M182.557857 122.452142
L182.653095 122.499761
" />
<path d="M182.653095 122.499761
L182.891190 122.499761
" />
<path d="M182.891190 122.499761
L182.986428 122.452142
" />
<path d="M182.986428 122.452142
L183.034047 122.404523
" />
<path d="M183.034047 122.404523
L183.081666 122.309285
" />
<path d="M183.081666 122.309285
L183.081666 122.118809
" />
<path d="M183.081666 122.118809
L183.034047 122.023571
" />
<path d="M183.034047 122.023571
L182.986428 121.975952
" />
<path d="M182.986428 121.975952
L182.891190 121.928333
" />
</g><g transform="rotate(-90.000000 151.000000 128.500000)">
<text x="151.000000" y="129.000000"
textLength="3.079762" font-size="1.333333" lengthAdjust="spacingAndGlyphs"
text-anchor="middle" opacity="0">C10</text>
</g>
<g class="stroked-text"><desc>C10</desc>
<path d="M151.367380 129.142857
L151.415000 129.190476
" />
<path d="M151.415000 129.190476
L151.462619 129.333333
" />
<path d="M151.462619 129.333333
L151.462619 129.428571
" />
<path d="M151.462619 129.428571
L151.415000 129.571428
" />
<path d="M151.415000 129.571428
L151.319761 129.666666
" />
<path d="M151.319761 129.666666
L151.224523 129.714285
" />
<path d="M151.224523 129.714285
L151.034047 129.761904
" />
<path d="M151.034047 129.761904
L150.891190 129.761904
" />
<path d="M150.891190 129.761904
L150.700714 129.714285
" />
<path d="M150.700714 129.714285
L150.605476 129.666666
" />
<path d="M150.605476 129.666666
L150.510238 129.571428
" />
<path d="M150.510238 129.571428
L150.462619 129.428571
" />
<path d="M150.462619 129.428571
L150.462619 129.333333
" />
<path d="M150.462619 129.333333
L150.510238 129.190476
" />
<path d="M150.510238 129.190476
L150.557857 129.142857
" />
<path d="M151.462619 128.190476
L151.462619 128.761904
" />
<path d="M151.462619 128.476190
L150.462619 128.476190
" />
<path d="M150.462619 128.476190
L150.605476 128.571428
" />
<path d="M150.605476 128.571428
L150.700714 128.666666
" />
<path d="M150.700714 128.666666
L150.748333 128.761904
" />
<path d="M150.462619 127.571428
L150.462619 127.476190
" />
<path d="M150.462619 127.476190
L150.510238 127.380952
" />
<path d="M150.510238 127.380952
L150.557857 127.333333
" />
<path d="M150.557857 127.333333
L150.653095 127.285714
" />
<path d="M150.653095 127.285714
L150.843571 127.238095
" />
<path d="M150.843571 127.238095
L151.081666 127.238095
" />
<path d="M151.081666 127.238095
L151.272142 127.285714
" />
<path d="M151.272142 127.285714
L151.367380 127.333333
" />
<path d="M151.367380 127.333333
L151.415000 127.380952
" />
<path d="M151.415000 127.380952
L151.462619 127.476190
" />
<path d="M151.462619 127.476190
L151.462619 127.571428
" />
<path d="M151.462619 127.571428
L151.415000 127.666666
" />
<path d="M151.415000 127.666666
L151.367380 127.714285
" />
<path d="M151.367380 127.714285
L151.272142 127.761904
" />
<path d="M151.272142 127.761904
L151.081666 127.809523
" />
<path d="M151.081666 127.809523
L150.843571 127.809523
" />
<path d="M150.843571 127.809523
L150.653095 127.761904
" />
<path d="M150.653095 127.761904
L150.557857 127.714285
" />
<path d="M150.557857 127.714285
L150.510238 127.666666
" />
<path d="M150.510238 127.666666
L150.462619 127.571428
" />
</g><text x="119.714000" y="125.153821"
textLength="2.127381" font-size="1.333333" lengthAdjust="spacingAndGlyphs"
text-anchor="middle" opacity="0">D6</text>
<g class="stroked-text"><desc>D6</desc>
<path d="M118.975905 125.116440
L118.975905 124.116440
" />
<path d="M118.975905 124.116440
L119.214000 124.116440
" />
<path d="M119.214000 124.116440
L119.356857 124.164059
" />
<path d="M119.356857 124.164059
L119.452095 124.259297
" />
<path d="M119.452095 124.259297
L119.499714 124.354535
" />
<path d="M119.499714 124.354535
L119.547333 124.545011
" />
<path d="M119.547333 124.545011
L119.547333 124.687868
" />
<path d="M119.547333 124.687868
L119.499714 124.878344
" />
<path d="M119.499714 124.878344
L119.452095 124.973582
" />
<path d="M119.452095 124.973582
L119.356857 125.068821
" />
<path d="M119.356857 125.068821
L119.214000 125.116440
" />
<path d="M119.214000 125.116440
L118.975905 125.116440
" />
<path d="M120.404476 124.116440
L120.214000 124.116440
" />
<path d="M120.214000 124.116440
L120.118762 124.164059
" />
<path d="M120.118762 124.164059
L120.071143 124.211678
" />
<path d="M120.071143 124.211678
L119.975905 124.354535
" />
<path d="M119.975905 124.354535
L119.928286 124.545011
" />
<path d="M119.928286 124.545011
L119.928286 124.925963
" />
<path d="M119.928286 124.925963
L119.975905 125.021201
" />
<path d="M119.975905 125.021201
L120.023524 125.068821
" />
<path d="M120.023524 125.068821
L120.118762 125.116440
" />
<path d="M120.118762 125.116440
L120.309238 125.116440
" />
<path d="M120.309238 125.116440
L120.404476 125.068821
" />
<path d="M120.404476 125.068821
L120.452095 125.021201
" />
<path d="M120.452095 125.021201
L120.499714 124.925963
" />
<path d="M120.499714 124.925963
L120.499714 124.687868
" />
<path d="M120.499714 124.687868
L120.452095 124.592630
" />
<path d="M120.452095 124.592630
L120.404476 124.545011
" />
<path d="M120.404476 124.545011
L120.309238 124.497392
" />
<path d="M120.309238 124.497392
L120.118762 124.497392
" />
<path d="M120.118762 124.497392
L120.023524 124.545011
" />
<path d="M120.023524 124.545011
L119.975905 124.592630
" />
<path d="M119.975905 124.592630
L119.928286 124.687868
" />
</g><text x="111.380000" y="122.953821"
textLength="1.175000" font-size="1.333333" lengthAdjust="spacingAndGlyphs"
text-anchor="middle" opacity="0">K</text>
<g class="stroked-text"><desc>K</desc>
<path d="M111.118095 122.916440
L111.118095 121.916440
" />
<path d="M111.689523 122.916440
L111.260952 122.345011
" />
<path d="M111.689523 121.916440
L111.118095 122.487868
" />
</g><g transform="rotate(-90.000000 179.500000 94.250000)">
<text x="179.500000" y="94.750000"
textLength="2.127381" font-size="1.333333" lengthAdjust="spacingAndGlyphs"
text-anchor="middle" opacity="0">C6</text>
</g>
<g class="stroked-text"><desc>C6</desc>
<path d="M179.867380 94.416666
L179.915000 94.464285
" />
<path d="M179.915000 94.464285
L179.962619 94.607142
" />
<path d="M179.962619 94.607142
L179.962619 94.702380
" />
<path d="M179.962619 94.702380
L179.915000 94.845237
" />
<path d="M179.915000 94.845237
L179.819761 94.940475
" />
<path d="M179.819761 94.940475
L179.724523 94.988094
" />
<path d="M179.724523 94.988094
L179.534047 95.035713
" />
<path d="M179.534047 95.035713
L179.391190 95.035713
" />
<path d="M179.391190 95.035713
L179.200714 94.988094
" />
<path d="M179.200714 94.988094
L179.105476 94.940475
" />
<path d="M179.105476 94.940475
L179.010238 94.845237
" />
<path d="M179.010238 94.845237
L178.962619 94.702380
" />
<path d="M178.962619 94.702380
L178.962619 94.607142
" />
<path d="M178.962619 94.607142
L179.010238 94.464285
" />
<path d="M179.010238 94.464285
L179.057857 94.416666
" />
<path d="M178.962619 93.559523
L178.962619 93.749999
" />
<path d="M178.962619 93.749999
L179.010238 93.845237
" />
<path d="M179.010238 93.845237
L179.057857 93.892856
" />
<path d="M179.057857 93.892856
L179.200714 93.988094
" />
<path d="M179.200714 93.988094
L179.391190 94.035713
" />
<path d="M179.391190 94.035713
L179.772142 94.035713
" />
<path d="M179.772142 94.035713
L179.867380 93.988094
" />
<path d="M179.867380 93.988094
L179.915000 93.940475
" />
<path d="M179.915000 93.940475
L179.962619 93.845237
" />
<path d="M179.962619 93.845237
L179.962619 93.654761
" />
<path d="M179.962619 93.654761
L179.915000 93.559523
" />
<path d="M179.915000 93.559523
L179.867380 93.511904
" />
<path d="M179.867380 93.511904
L179.772142 93.464285
" />
<path d="M179.772142 93.464285
L179.534047 93.464285
" />
<path d="M179.534047 93.464285
L179.438809 93.511904
" />
<path d="M179.438809 93.511904
L179.391190 93.559523
" />
<path d="M179.391190 93.559523
L179.343571 93.654761
" />
<path d="M179.343571 93.654761
L179.343571 93.845237
" />
<path d="M179.343571 93.845237
L179.391190 93.940475
" />
<path d="M179.391190 93.940475
L179.438809 93.988094
" />
<path d="M179.438809 93.988094
L179.534047 94.035713
" />
</g><text x="119.714000" y="131.153821"
textLength="2.127381" font-size="1.333333" lengthAdjust="spacingAndGlyphs"
text-anchor="middle" opacity="0">D8</text>
<g class="stroked-text"><desc>D8</desc>
<path d="M118.975905 131.116440
L118.975905 130.116440
" />
<path d="M118.975905 130.116440
L119.214000 130.116440
" />
<path d="M119.214000 130.116440
L119.356857 130.164059
" />
<path d="M119.356857 130.164059
L119.452095 130.259297
" />
<path d="M119.452095 130.259297
L119.499714 130.354535
" />
<path d="M119.499714 130.354535
L119.547333 130.545011
" />
<path d="M119.547333 130.545011
L119.547333 130.687868
" />
<path d="M119.547333 130.687868
L119.499714 130.878344
" />
<path d="M119.499714 130.878344
L119.452095 130.973582
" />
<path d="M119.452095 130.973582
L119.356857 131.068821
" />
<path d="M119.356857 131.068821
L119.214000 131.116440
" />
<path d="M119.214000 131.116440
L118.975905 131.116440
" />
<path d="M120.118762 130.545011
L120.023524 130.497392
" />
<path d="M120.023524 130.497392
L119.975905 130.449773
" />
<path d="M119.975905 130.449773
L119.928286 130.354535
" />
<path d="M119.928286 130.354535
L119.928286 130.306916
" />
<path d="M119.928286 130.306916
L119.975905 130.211678
" />
<path d="M119.975905 130.211678
L120.023524 130.164059
" />
<path d="M120.023524 130.164059
L120.118762 130.116440
" />
<path d="M120.118762 130.116440
L120.309238 130.116440
" />
<path d="M120.309238 130.116440
L120.404476 130.164059
" />
<path d="M120.404476 130.164059
L120.452095 130.211678
" />
<path d="M120.452095 130.211678
L120.499714 130.306916
" />
<path d="M120.499714 130.306916
L120.499714 130.354535
" />
<path d="M120.499714 130.354535
L120.452095 130.449773
" />
<path d="M120.452095 130.449773
L120.404476 130.497392
" />
<path d="M120.404476 130.497392
L120.309238 130.545011
" />
<path d="M120.309238 130.545011
L120.118762 130.545011
" />
<path d="M120.118762 130.545011
L120.023524 130.592630
" />
<path d="M120.023524 130.592630
L119.975905 130.640249
" />
<path d="M119.975905 130.640249
L119.928286 130.735487
" />
<path d="M119.928286 130.735487
L119.928286 130.925963
" />
<path d="M119.928286 130.925963
L119.975905 131.021201
" />
<path d="M119.975905 131.021201
L120.023524 131.068821
" />
<path d="M120.023524 131.068821
L120.118762 131.116440
" />
<path d="M120.118762 131.116440
L120.309238 131.116440
" />
<path d="M120.309238 131.116440
L120.404476 131.068821
" />
<path d="M120.404476 131.068821
L120.452095 131.021201
" />
<path d="M120.452095 131.021201
L120.499714 130.925963
" />
<path d="M120.499714 130.925963
L120.499714 130.735487
" />
<path d="M120.499714 130.735487
L120.452095 130.640249
" />
<path d="M120.452095 130.640249
L120.404476 130.592630
" />
<path d="M120.404476 130.592630
L120.309238 130.545011
" />
</g><text x="111.380000" y="128.953821"
textLength="1.175000" font-size="1.333333" lengthAdjust="spacingAndGlyphs"
text-anchor="middle" opacity="0">K</text>
<g class="stroked-text"><desc>K</desc>
<path d="M111.118095 128.916440
L111.118095 127.916440
" />
<path d="M111.689523 128.916440
L111.260952 128.345011
" />
<path d="M111.689523 127.916440
L111.118095 128.487868
" />
</g><g transform="rotate(-90.000000 141.500000 95.250000)">
<text x="141.500000" y="95.750000"
textLength="2.127381" font-size="1.333333" lengthAdjust="spacingAndGlyphs"
text-anchor="middle" opacity="0">C2</text>
</g>
<g class="stroked-text"><desc>C2</desc>
<path d="M141.867380 95.416666
L141.915000 95.464285
" />
<path d="M141.915000 95.464285
L141.962619 95.607142
" />
<path d="M141.962619 95.607142
L141.962619 95.702380
" />
<path d="M141.962619 95.702380
L141.915000 95.845237
" />
<path d="M141.915000 95.845237
L141.819761 95.940475
" />
<path d="M141.819761 95.940475
L141.724523 95.988094
" />
<path d="M141.724523 95.988094
L141.534047 96.035713
" />
<path d="M141.534047 96.035713
L141.391190 96.035713
" />
<path d="M141.391190 96.035713
L141.200714 95.988094
" />
<path d="M141.200714 95.988094
L141.105476 95.940475
" />
<path d="M141.105476 95.940475
L141.010238 95.845237
" />
<path d="M141.010238 95.845237
L140.962619 95.702380
" />
<path d="M140.962619 95.702380
L140.962619 95.607142
" />
<path d="M140.962619 95.607142
L141.010238 95.464285
" />
<path d="M141.010238 95.464285
L141.057857 95.416666
" />
<path d="M141.057857 95.035713
L141.010238 94.988094
" />
<path d="M141.010238 94.988094
L140.962619 94.892856
" />
<path d="M140.962619 94.892856
L140.962619 94.654761
" />
<path d="M140.962619 94.654761
L141.010238 94.559523
" />
<path d="M141.010238 94.559523
L141.057857 94.511904
" />
<path d="M141.057857 94.511904
L141.153095 94.464285
" />
<path d="M141.153095 94.464285
L141.248333 94.464285
" />
<path d="M141.248333 94.464285
L141.391190 94.511904
" />
<path d="M141.391190 94.511904
L141.962619 95.083332
" />
<path d="M141.962619 95.083332
L141.962619 94.464285
" />
</g><text x="192.000000" y="124.800000"
textLength="1.889286" font-size="1.333333" lengthAdjust="spacingAndGlyphs"
text-anchor="middle" opacity="0">J8</text>
<g class="stroked-text"><desc>J8</desc>
<path d="M191.666666 123.762619
L191.666666 124.476904
" />
<path d="M191.666666 124.476904
L191.619047 124.619761
" />
<path d="M191.619047 124.619761
L191.523809 124.715000
" />
<path d="M191.523809 124.715000
L191.380952 124.762619
" />
<path d="M191.380952 124.762619
L191.285714 124.762619
" />
<path d="M192.285714 124.191190
L192.190476 124.143571
" />
<path d="M192.190476 124.143571
L192.142857 124.095952
" />
<path d="M192.142857 124.095952
L192.095238 124.000714
" />
<path d="M192.095238 124.000714
L192.095238 123.953095
" />
<path d="M192.095238 123.953095
L192.142857 123.857857
" />
<path d="M192.142857 123.857857
L192.190476 123.810238
" />
<path d="M192.190476 123.810238
L192.285714 123.762619
" />
<path d="M192.285714 123.762619
L192.476190 123.762619
" />
<path d="M192.476190 123.762619
L192.571428 123.810238
" />
<path d="M192.571428 123.810238
L192.619047 123.857857
" />
<path d="M192.619047 123.857857
L192.666666 123.953095
" />
<path d="M192.666666 123.953095
L192.666666 124.000714
" />
<path d="M192.666666 124.000714
L192.619047 124.095952
" />
<path d="M192.619047 124.095952
L192.571428 124.143571
" />
<path d="M192.571428 124.143571
L192.476190 124.191190
" />
<path d="M192.476190 124.191190
L192.285714 124.191190
" />
<path d="M192.285714 124.191190
L192.190476 124.238809
" />
<path d="M192.190476 124.238809
L192.142857 124.286428
" />
<path d="M192.142857 124.286428
L192.095238 124.381666
" />
<path d="M192.095238 124.381666
L192.095238 124.572142
" />
<path d="M192.095238 124.572142
L192.142857 124.667380
" />
<path d="M192.142857 124.667380
L192.190476 124.715000
" />
<path d="M192.190476 124.715000
L192.285714 124.762619
" />
<path d="M192.285714 124.762619
L192.476190 124.762619
" />
<path d="M192.476190 124.762619
L192.571428 124.715000
" />
<path d="M192.571428 124.715000
L192.619047 124.667380
" />
<path d="M192.619047 124.667380
L192.666666 124.572142
" />
<path d="M192.666666 124.572142
L192.666666 124.381666
" />
<path d="M192.666666 124.381666
L192.619047 124.286428
" />
<path d="M192.619047 124.286428
L192.571428 124.238809
" />
<path d="M192.571428 124.238809
L192.476190 124.191190
" />
</g><g transform="rotate(-90.000000 160.500000 95.250000)">
<text x="160.500000" y="95.750000"
textLength="2.127381" font-size="1.333333" lengthAdjust="spacingAndGlyphs"
text-anchor="middle" opacity="0">C4</text>
</g>
<g class="stroked-text"><desc>C4</desc>
<path d="M160.867380 95.416666
L160.915000 95.464285
" />
<path d="M160.915000 95.464285
L160.962619 95.607142
" />
<path d="M160.962619 95.607142
L160.962619 95.702380
" />
<path d="M160.962619 95.702380
L160.915000 95.845237
" />
<path d="M160.915000 95.845237
L160.819761 95.940475
" />
<path d="M160.819761 95.940475
L160.724523 95.988094
" />
<path d="M160.724523 95.988094
L160.534047 96.035713
" />
<path d="M160.534047 96.035713
L160.391190 96.035713
" />
<path d="M160.391190 96.035713
L160.200714 95.988094
" />
<path d="M160.200714 95.988094
L160.105476 95.940475
" />
<path d="M160.105476 95.940475
L160.010238 95.845237
" />
<path d="M160.010238 95.845237
L159.962619 95.702380
" />
<path d="M159.962619 95.702380
L159.962619 95.607142
" />
<path d="M159.962619 95.607142
L160.010238 95.464285
" />
<path d="M160.010238 95.464285
L160.057857 95.416666
" />
<path d="M160.295952 94.559523
L160.962619 94.559523
" />
<path d="M159.915000 94.797618
L160.629285 95.035713
" />
<path d="M160.629285 95.035713
L160.629285 94.416666
" />
</g><text x="118.682500" y="100.977780"
textLength="2.127381" font-size="1.333333" lengthAdjust="spacingAndGlyphs"
text-anchor="middle" opacity="0">D1</text>
<g class="stroked-text"><desc>D1</desc>
<path d="M117.944405 100.940399
L117.944405 99.940399
" />
<path d="M117.944405 99.940399
L118.182500 99.940399
" />
<path d="M118.182500 99.940399
L118.325357 99.988018
" />
<path d="M118.325357 99.988018
L118.420595 100.083256
" />
<path d="M118.420595 100.083256
L118.468214 100.178494
" />
<path d="M118.468214 100.178494
L118.515833 100.368970
" />
<path d="M118.515833 100.368970
L118.515833 100.511827
" />
<path d="M118.515833 100.511827
L118.468214 100.702303
" />
<path d="M118.468214 100.702303
L118.420595 100.797541
" />
<path d="M118.420595 100.797541
L118.325357 100.892780
" />
<path d="M118.325357 100.892780
L118.182500 100.940399
" />
<path d="M118.182500 100.940399
L117.944405 100.940399
" />
<path d="M119.468214 100.940399
L118.896786 100.940399
" />
<path d="M119.182500 100.940399
L119.182500 99.940399
" />
<path d="M119.182500 99.940399
L119.087262 100.083256
" />
<path d="M119.087262 100.083256
L118.992024 100.178494
" />
<path d="M118.992024 100.178494
L118.896786 100.226113
" />
</g><text x="108.000000" y="98.377780"
textLength="1.175000" font-size="1.333333" lengthAdjust="spacingAndGlyphs"
text-anchor="middle" opacity="0">K</text>
<g class="stroked-text"><desc>K</desc>
<path d="M107.738095 98.340399
L107.738095 97.340399
" />
<path d="M108.309523 98.340399
L107.880952 97.768970
" />
<path d="M108.309523 97.340399
L107.738095 97.911827
" />
</g><text x="117.317500" y="70.977780"
textLength="2.127381" font-size="1.333333" lengthAdjust="spacingAndGlyphs"
text-anchor="middle" opacity="0">D4</text>
<g class="stroked-text"><desc>D4</desc>
<path d="M116.579405 70.940399
L116.579405 69.940399
" />
<path d="M116.579405 69.940399
L116.817500 69.940399
" />
<path d="M116.817500 69.940399
L116.960357 69.988018
" />
<path d="M116.960357 69.988018
L117.055595 70.083256
" />
<path d="M117.055595 70.083256
L117.103214 70.178494
" />
<path d="M117.103214 70.178494
L117.150833 70.368970
" />
<path d="M117.150833 70.368970
L117.150833 70.511827
" />
<path d="M117.150833 70.511827
L117.103214 70.702303
" />
<path d="M117.103214 70.702303
L117.055595 70.797541
" />
<path d="M117.055595 70.797541
L116.960357 70.892780
" />
<path d="M116.960357 70.892780
L116.817500 70.940399
" />
<path d="M116.817500 70.940399
L116.579405 70.940399
" />
<path d="M118.007976 70.273732
L118.007976 70.940399
" />
<path d="M117.769881 69.892780
L117.531786 70.607065
" />
<path d="M117.531786 70.607065
L118.150833 70.607065
" />
</g><text x="128.000000" y="73.577780"
textLength="1.175000" font-size="1.333333" lengthAdjust="spacingAndGlyphs"
text-anchor="middle" opacity="0">K</text>
<g class="stroked-text"><desc>K</desc>
<path d="M127.738095 73.540399
L127.738095 72.540399
" />
<path d="M128.309523 73.540399
L127.880952 72.968970
" />
<path d="M128.309523 72.540399
L127.738095 73.111827
" />
</g><g transform="rotate(-90.000000 141.500000 75.227780)">
<text x="141.500000" y="75.727780"
textLength="2.127381" font-size="1.333333" lengthAdjust="spacingAndGlyphs"
text-anchor="middle" opacity="0">C1</text>
</g>
<g class="stroked-text"><desc>C1</desc>
<path d="M141.867380 75.394446
L141.915000 75.442065
" />
<path d="M141.915000 75.442065
L141.962619 75.584922
" />
<path d="M141.962619 75.584922
L141.962619 75.680160
" />
<path d="M141.962619 75.680160
L141.915000 75.823017
" />
<path d="M141.915000 75.823017
L141.819761 75.918255
" />
<path d="M141.819761 75.918255
L141.724523 75.965874
" />
<path d="M141.724523 75.965874
L141.534047 76.013493
" />
<path d="M141.534047 76.013493
L141.391190 76.013493
" />
<path d="M141.391190 76.013493
L141.200714 75.965874
" />
<path d="M141.200714 75.965874
L141.105476 75.918255
" />
<path d="M141.105476 75.918255
L141.010238 75.823017
" />
<path d="M141.010238 75.823017
L140.962619 75.680160
" />
<path d="M140.962619 75.680160
L140.962619 75.584922
" />
<path d="M140.962619 75.584922
L141.010238 75.442065
" />
<path d="M141.010238 75.442065
L141.057857 75.394446
" />
<path d="M141.962619 74.442065
L141.962619 75.013493
" />
<path d="M141.962619 74.727779
L140.962619 74.727779
" />
<path d="M140.962619 74.727779
L141.105476 74.823017
" />
<path d="M141.105476 74.823017
L141.200714 74.918255
" />
<path d="M141.200714 74.918255
L141.248333 75.013493
" />
</g><g transform="rotate(-90.000000 179.500000 75.250000)">
<text x="179.500000" y="75.750000"
textLength="2.127381" font-size="1.333333" lengthAdjust="spacingAndGlyphs"
text-anchor="middle" opacity="0">C5</text>
</g>
<g class="stroked-text"><desc>C5</desc>
<path d="M179.867380 75.416666
L179.915000 75.464285
" />
<path d="M179.915000 75.464285
L179.962619 75.607142
" />
<path d="M179.962619 75.607142
L179.962619 75.702380
" />
<path d="M179.962619 75.702380
L179.915000 75.845237
" />
<path d="M179.915000 75.845237
L179.819761 75.940475
" />
<path d="M179.819761 75.940475
L179.724523 75.988094
" />
<path d="M179.724523 75.988094
L179.534047 76.035713
" />
<path d="M179.534047 76.035713
L179.391190 76.035713
" />
<path d="M179.391190 76.035713
L179.200714 75.988094
" />
<path d="M179.200714 75.988094
L179.105476 75.940475
" />
<path d="M179.105476 75.940475
L179.010238 75.845237
" />
<path d="M179.010238 75.845237
L178.962619 75.702380
" />
<path d="M178.962619 75.702380
L178.962619 75.607142
" />
<path d="M178.962619 75.607142
L179.010238 75.464285
" />
<path d="M179.010238 75.464285
L179.057857 75.416666
" />
<path d="M178.962619 74.511904
L178.962619 74.988094
" />
<path d="M178.962619 74.988094
L179.438809 75.035713
" />
<path d="M179.438809 75.035713
L179.391190 74.988094
" />
<path d="M179.391190 74.988094
L179.343571 74.892856
" />
<path d="M179.343571 74.892856
L179.343571 74.654761
" />
<path d="M179.343571 74.654761
L179.391190 74.559523
" />
<path d="M179.391190 74.559523
L179.438809 74.511904
" />
<path d="M179.438809 74.511904
L179.534047 74.464285
" />
<path d="M179.534047 74.464285
L179.772142 74.464285
" />
<path d="M179.772142 74.464285
L179.867380 74.511904
" />
<path d="M179.867380 74.511904
L179.915000 74.559523
" />
<path d="M179.915000 74.559523
L179.962619 74.654761
" />
<path d="M179.962619 74.654761
L179.962619 74.892856
" />
<path d="M179.962619 74.892856
L179.915000 74.988094
" />
<path d="M179.915000 74.988094
L179.867380 75.035713
" />
</g><g transform="rotate(-90.000000 103.200000 81.000000)">
<text x="103.200000" y="81.500000"
textLength="1.889286" font-size="1.333333" lengthAdjust="spacingAndGlyphs"
text-anchor="middle" opacity="0">J1</text>
</g>
<g class="stroked-text"><desc>J1</desc>
<path d="M102.662619 81.333333
L103.376904 81.333333
" />
<path d="M103.376904 81.333333
L103.519761 81.380952
" />
<path d="M103.519761 81.380952
L103.615000 81.476190
" />
<path d="M103.615000 81.476190
L103.662619 81.619047
" />
<path d="M103.662619 81.619047
L103.662619 81.714285
" />
<path d="M103.662619 80.333333
L103.662619 80.904761
" />
<path d="M103.662619 80.619047
L102.662619 80.619047
" />
<path d="M102.662619 80.619047
L102.805476 80.714285
" />
<path d="M102.805476 80.714285
L102.900714 80.809523
" />
<path d="M102.900714 80.809523
L102.948333 80.904761
" />
</g><text x="126.620000" y="121.353821"
textLength="1.175000" font-size="1.333333" lengthAdjust="spacingAndGlyphs"
text-anchor="middle" opacity="0">K</text>
<g class="stroked-text"><desc>K</desc>
<path d="M126.358095 121.316440
L126.358095 120.316440
" />
<path d="M126.929523 121.316440
L126.500952 120.745011
" />
<path d="M126.929523 120.316440
L126.358095 120.887868
" />
</g><text x="118.286000" y="119.153821"
textLength="2.127381" font-size="1.333333" lengthAdjust="spacingAndGlyphs"
text-anchor="middle" opacity="0">D7</text>
<g class="stroked-text"><desc>D7</desc>
<path d="M117.547905 119.116440
L117.547905 118.116440
" />
<path d="M117.547905 118.116440
L117.786000 118.116440
" />
<path d="M117.786000 118.116440
L117.928857 118.164059
" />
<path d="M117.928857 118.164059
L118.024095 118.259297
" />
<path d="M118.024095 118.259297
L118.071714 118.354535
" />
<path d="M118.071714 118.354535
L118.119333 118.545011
" />
<path d="M118.119333 118.545011
L118.119333 118.687868
" />
<path d="M118.119333 118.687868
L118.071714 118.878344
" />
<path d="M118.071714 118.878344
L118.024095 118.973582
" />
<path d="M118.024095 118.973582
L117.928857 119.068821
" />
<path d="M117.928857 119.068821
L117.786000 119.116440
" />
<path d="M117.786000 119.116440
L117.547905 119.116440
" />
<path d="M118.452667 118.116440
L119.119333 118.116440
" />
<path d="M119.119333 118.116440
L118.690762 119.116440
" />
</g><text x="172.370000" y="130.790000"
textLength="2.175000" font-size="1.333333" lengthAdjust="spacingAndGlyphs"
text-anchor="middle" opacity="0">U1</text>
<g class="stroked-text"><desc>U1</desc>
<path d="M171.608095 129.752619
L171.608095 130.562142
" />
<path d="M171.608095 130.562142
L171.655714 130.657380
" />
<path d="M171.655714 130.657380
L171.703333 130.705000
" />
<path d="M171.703333 130.705000
L171.798571 130.752619
" />
<path d="M171.798571 130.752619
L171.989047 130.752619
" />
<path d="M171.989047 130.752619
L172.084285 130.705000
" />
<path d="M172.084285 130.705000
L172.131904 130.657380
" />
<path d="M172.131904 130.657380
L172.179523 130.562142
" />
<path d="M172.179523 130.562142
L172.179523 129.752619
" />
<path d="M173.179523 130.752619
L172.608095 130.752619
" />
<path d="M172.893809 130.752619
L172.893809 129.752619
" />
<path d="M172.893809 129.752619
L172.798571 129.895476
" />
<path d="M172.798571 129.895476
L172.703333 129.990714
" />
<path d="M172.703333 129.990714
L172.608095 130.038333
" />
</g><text x="108.000000" y="88.377780"
textLength="1.175000" font-size="1.333333" lengthAdjust="spacingAndGlyphs"
text-anchor="middle" opacity="0">K</text>
<g class="stroked-text"><desc>K</desc>
<path d="M107.738095 88.340399
L107.738095 87.340399
" />
<path d="M108.309523 88.340399
L107.880952 87.768970
" />
<path d="M108.309523 87.340399
L107.738095 87.911827
" />
</g><text x="118.682500" y="90.977780"
textLength="2.127381" font-size="1.333333" lengthAdjust="spacingAndGlyphs"
text-anchor="middle" opacity="0">D3</text>
<g class="stroked-text"><desc>D3</desc>
<path d="M117.944405 90.940399
L117.944405 89.940399
" />
<path d="M117.944405 89.940399
L118.182500 89.940399
" />
<path d="M118.182500 89.940399
L118.325357 89.988018
" />
<path d="M118.325357 89.988018
L118.420595 90.083256
" />
<path d="M118.420595 90.083256
L118.468214 90.178494
" />
<path d="M118.468214 90.178494
L118.515833 90.368970
" />
<path d="M118.515833 90.368970
L118.515833 90.511827
" />
<path d="M118.515833 90.511827
L118.468214 90.702303
" />
<path d="M118.468214 90.702303
L118.420595 90.797541
" />
<path d="M118.420595 90.797541
L118.325357 90.892780
" />
<path d="M118.325357 90.892780
L118.182500 90.940399
" />
<path d="M118.182500 90.940399
L117.944405 90.940399
" />
<path d="M118.849167 89.940399
L119.468214 89.940399
" />
<path d="M119.468214 89.940399
L119.134881 90.321351
" />
<path d="M119.134881 90.321351
L119.277738 90.321351
" />
<path d="M119.277738 90.321351
L119.372976 90.368970
" />
<path d="M119.372976 90.368970
L119.420595 90.416589
" />
<path d="M119.420595 90.416589
L119.468214 90.511827
" />
<path d="M119.468214 90.511827
L119.468214 90.749922
" />
<path d="M119.468214 90.749922
L119.420595 90.845160
" />
<path d="M119.420595 90.845160
L119.372976 90.892780
" />
<path d="M119.372976 90.892780
L119.277738 90.940399
" />
<path d="M119.277738 90.940399
L118.992024 90.940399
" />
<path d="M118.992024 90.940399
L118.896786 90.892780
" />
<path d="M118.896786 90.892780
L118.849167 90.845160
" />
</g><text x="192.500000" y="96.600000"
textLength="1.889286" font-size="1.333333" lengthAdjust="spacingAndGlyphs"
text-anchor="middle" opacity="0">J5</text>
<g class="stroked-text"><desc>J5</desc>
<path d="M192.166666 95.562619
L192.166666 96.276904
" />
<path d="M192.166666 96.276904
L192.119047 96.419761
" />
<path d="M192.119047 96.419761
L192.023809 96.515000
" />
<path d="M192.023809 96.515000
L191.880952 96.562619
" />
<path d="M191.880952 96.562619
L191.785714 96.562619
" />
<path d="M193.119047 95.562619
L192.642857 95.562619
" />
<path d="M192.642857 95.562619
L192.595238 96.038809
" />
<path d="M192.595238 96.038809
L192.642857 95.991190
" />
<path d="M192.642857 95.991190
L192.738095 95.943571
" />
<path d="M192.738095 95.943571
L192.976190 95.943571
" />
<path d="M192.976190 95.943571
L193.071428 95.991190
" />
<path d="M193.071428 95.991190
L193.119047 96.038809
" />
<path d="M193.119047 96.038809
L193.166666 96.134047
" />
<path d="M193.166666 96.134047
L193.166666 96.372142
" />
<path d="M193.166666 96.372142
L193.119047 96.467380
" />
<path d="M193.119047 96.467380
L193.071428 96.515000
" />
<path d="M193.071428 96.515000
L192.976190 96.562619
" />
<path d="M192.976190 96.562619
L192.738095 96.562619
" />
<path d="M192.738095 96.562619
L192.642857 96.515000
" />
<path d="M192.642857 96.515000
L192.595238 96.467380
" />
</g><g transform="rotate(-90.000000 136.500000 114.153821)">
<text x="136.500000" y="114.653821"
textLength="2.127381" font-size="1.333333" lengthAdjust="spacingAndGlyphs"
text-anchor="middle" opacity="0">C7</text>
</g>
<g class="stroked-text"><desc>C7</desc>
<path d="M136.867380 114.320487
L136.915000 114.368106
" />
<path d="M136.915000 114.368106
L136.962619 114.510963
" />
<path d="M136.962619 114.510963
L136.962619 114.606201
" />
<path d="M136.962619 114.606201
L136.915000 114.749058
" />
<path d="M136.915000 114.749058
L136.819761 114.844296
" />
<path d="M136.819761 114.844296
L136.724523 114.891915
" />
<path d="M136.724523 114.891915
L136.534047 114.939534
" />
<path d="M136.534047 114.939534
L136.391190 114.939534
" />
<path d="M136.391190 114.939534
L136.200714 114.891915
" />
<path d="M136.200714 114.891915
L136.105476 114.844296
" />
<path d="M136.105476 114.844296
L136.010238 114.749058
" />
<path d="M136.010238 114.749058
L135.962619 114.606201
" />
<path d="M135.962619 114.606201
L135.962619 114.510963
" />
<path d="M135.962619 114.510963
L136.010238 114.368106
" />
<path d="M136.010238 114.368106
L136.057857 114.320487
" />
<path d="M135.962619 113.987153
L135.962619 113.320487
" />
<path d="M135.962619 113.320487
L136.962619 113.749058
" />
</g><text x="192.500000" y="78.600000"
textLength="1.889286" font-size="1.333333" lengthAdjust="spacingAndGlyphs"
text-anchor="middle" opacity="0">J3</text>
<g class="stroked-text"><desc>J3</desc>
<path d="M192.166666 77.562619
L192.166666 78.276904
" />
<path d="M192.166666 78.276904
L192.119047 78.419761
" />
<path d="M192.119047 78.419761
L192.023809 78.515000
" />
<path d="M192.023809 78.515000
L191.880952 78.562619
" />
<path d="M191.880952 78.562619
L191.785714 78.562619
" />
<path d="M192.547619 77.562619
L193.166666 77.562619
" />
<path d="M193.166666 77.562619
L192.833333 77.943571
" />
<path d="M192.833333 77.943571
L192.976190 77.943571
" />
<path d="M192.976190 77.943571
L193.071428 77.991190
" />
<path d="M193.071428 77.991190
L193.119047 78.038809
" />
<path d="M193.119047 78.038809
L193.166666 78.134047
" />
<path d="M193.166666 78.134047
L193.166666 78.372142
" />
<path d="M193.166666 78.372142
L193.119047 78.467380
" />
<path d="M193.119047 78.467380
L193.071428 78.515000
" />
<path d="M193.071428 78.515000
L192.976190 78.562619
" />
<path d="M192.976190 78.562619
L192.690476 78.562619
" />
<path d="M192.690476 78.562619
L192.595238 78.515000
" />
<path d="M192.595238 78.515000
L192.547619 78.467380
" />
</g><text x="192.000000" y="116.600000"
textLength="1.889286" font-size="1.333333" lengthAdjust="spacingAndGlyphs"
text-anchor="middle" opacity="0">J7</text>
<g class="stroked-text"><desc>J7</desc>
<path d="M191.666666 115.562619
L191.666666 116.276904
" />
<path d="M191.666666 116.276904
L191.619047 116.419761
" />
<path d="M191.619047 116.419761
L191.523809 116.515000
" />
<path d="M191.523809 116.515000
L191.380952 116.562619
" />
<path d="M191.380952 116.562619
L191.285714 116.562619
" />
<path d="M192.047619 115.562619
L192.714285 115.562619
" />
<path d="M192.714285 115.562619
L192.285714 116.562619
" />
</g><text x="99.000000" y="133.500000"
textLength="2.175000" font-size="1.333333" lengthAdjust="spacingAndGlyphs"
text-anchor="middle" opacity="0">H3</text>
<g class="stroked-text"><desc>H3</desc>
<path d="M98.238095 133.462619
L98.238095 132.462619
" />
<path d="M98.238095 132.938809
L98.809523 132.938809
" />
<path d="M98.809523 133.462619
L98.809523 132.462619
" />
<path d="M99.190476 132.462619
L99.809523 132.462619
" />
<path d="M99.809523 132.462619
L99.476190 132.843571
" />
<path d="M99.476190 132.843571
L99.619047 132.843571
" />
<path d="M99.619047 132.843571
L99.714285 132.891190
" />
<path d="M99.714285 132.891190
L99.761904 132.938809
" />
<path d="M99.761904 132.938809
L99.809523 133.034047
" />
<path d="M99.809523 133.034047
L99.809523 133.272142
" />
<path d="M99.809523 133.272142
L99.761904 133.367380
" />
<path d="M99.761904 133.367380
L99.714285 133.415000
" />
<path d="M99.714285 133.415000
L99.619047 133.462619
" />
<path d="M99.619047 133.462619
L99.333333 133.462619
" />
<path d="M99.333333 133.462619
L99.238095 133.415000
" />
<path d="M99.238095 133.415000
L99.190476 133.367380
" />
</g><text x="126.620000" y="115.353821"
textLength="1.175000" font-size="1.333333" lengthAdjust="spacingAndGlyphs"
text-anchor="middle" opacity="0">K</text>
<g class="stroked-text"><desc>K</desc>
<path d="M126.358095 115.316440
L126.358095 114.316440
" />
<path d="M126.929523 115.316440
L126.500952 114.745011
" />
<path d="M126.929523 114.316440
L126.358095 114.887868
" />
</g><text x="118.286000" y="113.153821"
textLength="2.127381" font-size="1.333333" lengthAdjust="spacingAndGlyphs"
text-anchor="middle" opacity="0">D5</text>
<g class="stroked-text"><desc>D5</desc>
<path d="M117.547905 113.116440
L117.547905 112.116440
" />
<path d="M117.547905 112.116440
L117.786000 112.116440
" />
<path d="M117.786000 112.116440
L117.928857 112.164059
" />
<path d="M117.928857 112.164059
L118.024095 112.259297
" />
<path d="M118.024095 112.259297
L118.071714 112.354535
" />
<path d="M118.071714 112.354535
L118.119333 112.545011
" />
<path d="M118.119333 112.545011
L118.119333 112.687868
" />
<path d="M118.119333 112.687868
L118.071714 112.878344
" />
<path d="M118.071714 112.878344
L118.024095 112.973582
" />
<path d="M118.024095 112.973582
L117.928857 113.068821
" />
<path d="M117.928857 113.068821
L117.786000 113.116440
" />
<path d="M117.786000 113.116440
L117.547905 113.116440
" />
<path d="M119.024095 112.116440
L118.547905 112.116440
" />
<path d="M118.547905 112.116440
L118.500286 112.592630
" />
<path d="M118.500286 112.592630
L118.547905 112.545011
" />
<path d="M118.547905 112.545011
L118.643143 112.497392
" />
<path d="M118.643143 112.497392
L118.881238 112.497392
" />
<path d="M118.881238 112.497392
L118.976476 112.545011
" />
<path d="M118.976476 112.545011
L119.024095 112.592630
" />
<path d="M119.024095 112.592630
L119.071714 112.687868
" />
<path d="M119.071714 112.687868
L119.071714 112.925963
" />
<path d="M119.071714 112.925963
L119.024095 113.021201
" />
<path d="M119.024095 113.021201
L118.976476 113.068821
" />
<path d="M118.976476 113.068821
L118.881238 113.116440
" />
<path d="M118.881238 113.116440
L118.643143 113.116440
" />
<path d="M118.643143 113.116440
L118.547905 113.068821
" />
<path d="M118.547905 113.068821
L118.500286 113.021201
" />
</g><g transform="rotate(-90.000000 181.720000 112.040000)">
<text x="181.720000" y="112.540000"
textLength="3.079762" font-size="1.333333" lengthAdjust="spacingAndGlyphs"
text-anchor="middle" opacity="0">C12</text>
</g>
<g class="stroked-text"><desc>C12</desc>
<path d="M182.087380 112.682857
L182.135000 112.730476
" />
<path d="M182.135000 112.730476
L182.182619 112.873333
" />
<path d="M182.182619 112.873333
L182.182619 112.968571
" />
<path d="M182.182619 112.968571
L182.135000 113.111428
" />
<path d="M182.135000 113.111428
L182.039761 113.206666
" />
<path d="M182.039761 113.206666
L181.944523 113.254285
" />
<path d="M181.944523 113.254285
L181.754047 113.301904
" />
<path d="M181.754047 113.301904
L181.611190 113.301904
" />
<path d="M181.611190 113.301904
L181.420714 113.254285
" />
<path d="M181.420714 113.254285
L181.325476 113.206666
" />
<path d="M181.325476 113.206666
L181.230238 113.111428
" />
<path d="M181.230238 113.111428
L181.182619 112.968571
" />
<path d="M181.182619 112.968571
L181.182619 112.873333
" />
<path d="M181.182619 112.873333
L181.230238 112.730476
" />
<path d="M181.230238 112.730476
L181.277857 112.682857
" />
<path d="M182.182619 111.730476
L182.182619 112.301904
" />
<path d="M182.182619 112.016190
L181.182619 112.016190
" />
<path d="M181.182619 112.016190
L181.325476 112.111428
" />
<path d="M181.325476 112.111428
L181.420714 112.206666
" />
<path d="M181.420714 112.206666
L181.468333 112.301904
" />
<path d="M181.277857 111.349523
L181.230238 111.301904
" />
<path d="M181.230238 111.301904
L181.182619 111.206666
" />
<path d="M181.182619 111.206666
L181.182619 110.968571
" />
<path d="M181.182619 110.968571
L181.230238 110.873333
" />
<path d="M181.230238 110.873333
L181.277857 110.825714
" />
<path d="M181.277857 110.825714
L181.373095 110.778095
" />
<path d="M181.373095 110.778095
L181.468333 110.778095
" />
<path d="M181.468333 110.778095
L181.611190 110.825714
" />
<path d="M181.611190 110.825714
L182.182619 111.397142
" />
<path d="M182.182619 111.397142
L182.182619 110.778095
" />
</g></g>
<g style="fill:#FFFFFF; fill-opacity:0.0; 
stroke:#FFFFFF; stroke-width:0.100000; stroke-opacity:1; 
stroke-linecap:round; stroke-linejoin:round;">
<path d="M153.847500 108.571806
L153.847500 109.871806
" />
<path d="M154.497500 109.221806
L153.197500 109.221806
" />
<circle cx="151.000000" cy="114.153821" r="6.500000" /> 
<path d="M164.007500 68.352612
L164.007500 69.952612
" />
<path d="M164.807500 69.152612
L163.207500 69.152612
" />
<circle cx="160.500000" cy="75.227780" r="8.000000" /> 
</g>
<g style="fill:#FFFFFF; fill-opacity:0.0; 
stroke:#FFFFFF; stroke-width:0.120000; stroke-opacity:1; 
stroke-linecap:round; stroke-linejoin:round;">
<path d="M191.250000 84.727780
L191.250000 85.227780
" />
<path d="M191.250000 85.227780
L193.750000 85.227780
" />
<path d="M193.750000 84.727780
L191.250000 84.727780
" />
<path d="M193.750000 85.227780
L193.750000 84.727780
" />
</g>
<g style="fill:#FFFFFF; fill-opacity:0.0; 
stroke:#FFFFFF; stroke-width:0.100000; stroke-opacity:1; 
stroke-linecap:round; stroke-linejoin:round;">
<path d="M98.400000 110.800000
L96.100000 110.800000
" />
<path d="M96.100000 110.800000
L96.100000 113.100000
" />
<path d="M100.069000 112.369000
L100.069000 113.400000
" />
<path d="M99.931000 112.369000
L100.069000 112.369000
" />
<path d="M96.100000 113.100000
L98.400000 110.800000
" />
<path d="M101.100000 113.400000
L101.100000 113.538000
" />
<path d="M100.069000 113.400000
L101.100000 113.400000
" />
<path d="M99.931000 113.400000
L99.931000 112.369000
" />
<path d="M98.900000 113.400000
L99.931000 113.400000
" />
<path d="M101.100000 113.538000
L100.069000 113.538000
" />
<path d="M100.069000 113.538000
L100.069000 114.569000
" />
<path d="M99.931000 113.538000
L98.900000 113.538000
" />
<path d="M98.900000 113.538000
L98.900000 113.400000
" />
<path d="M100.069000 114.569000
L99.931000 114.569000
" />
<path d="M99.931000 114.569000
L99.931000 113.538000
" />
<path d="M100.069000 115.869000
L100.069000 116.900000
" />
<path d="M99.931000 115.869000
L100.069000 115.869000
" />
<path d="M101.100000 116.900000
L101.100000 117.038000
" />
<path d="M100.069000 116.900000
L101.100000 116.900000
" />
<path d="M99.931000 116.900000
L99.931000 115.869000
" />
<path d="M98.900000 116.900000
L99.931000 116.900000
" />
<path d="M101.100000 117.038000
L100.069000 117.038000
" />
<path d="M100.069000 117.038000
L100.069000 118.069000
" />
<path d="M99.931000 117.038000
L98.900000 117.038000
" />
<path d="M98.900000 117.038000
L98.900000 116.900000
" />
<path d="M100.069000 118.069000
L99.931000 118.069000
" />
<path d="M99.931000 118.069000
L99.931000 117.038000
" />
<path d="M100.069000 119.369000
L100.069000 120.400000
" />
<path d="M99.931000 119.369000
L100.069000 119.369000
" />
<path d="M101.100000 120.400000
L101.100000 120.538000
" />
<path d="M100.069000 120.400000
L101.100000 120.400000
" />
<path d="M99.931000 120.400000
L99.931000 119.369000
" />
<path d="M98.900000 120.400000
L99.931000 120.400000
" />
<path d="M101.100000 120.538000
L100.069000 120.538000
" />
<path d="M100.069000 120.538000
L100.069000 121.569000
" />
<path d="M99.931000 120.538000
L98.900000 120.538000
" />
<path d="M98.900000 120.538000
L98.900000 120.400000
" />
<path d="M100.069000 121.569000
L99.931000 121.569000
" />
<path d="M99.931000 121.569000
L99.931000 120.538000
" />
<path d="M105.900000 110.800000
L96.100000 110.800000
" />
<path d="M96.100000 110.800000
L96.100000 123.200000
" />
<path d="M96.100000 123.200000
L105.900000 123.200000
" />
<path d="M105.900000 123.200000
L105.900000 110.800000
" />
<path d="M163.373500 111.556028
L163.373500 112.186028
" />
<path d="M163.688500 111.871028
L163.058500 111.871028
" />
<circle cx="162.000000" cy="114.250000" r="3.150000" /> 
<path d="M128.000000 80.477780
L122.550000 80.477780
" />
<path d="M122.550000 85.027780
L122.550000 75.927780
" />
<path d="M122.550000 75.927780
L113.450000 75.927780
" />
<path d="M121.285000 85.027780
L121.285000 75.927780
" />
<path d="M121.185000 85.027780
L121.185000 75.927780
" />
<path d="M121.085000 85.027780
L121.085000 75.927780
" />
<path d="M113.450000 85.027780
L122.550000 85.027780
" />
<path d="M113.450000 75.927780
L113.450000 85.027780
" />
<path d="M108.000000 80.477780
L113.450000 80.477780
" />
</g>
<g style="fill:#FFFFFF; fill-opacity:0.0; 
stroke:#FFFFFF; stroke-width:0.120000; stroke-opacity:1; 
stroke-linecap:round; stroke-linejoin:round;">
<path d="M190.750000 105.750000
L190.750000 106.250000
" />
<path d="M190.750000 106.250000
L193.250000 106.250000
" />
<path d="M193.250000 105.750000
L190.750000 105.750000
" />
<path d="M193.250000 106.250000
L193.250000 105.750000
" />
</g>
<g style="fill:#FFFFFF; fill-opacity:0.0; 
stroke:#FFFFFF; stroke-width:0.100000; stroke-opacity:1; 
stroke-linecap:round; stroke-linejoin:round;">
<path d="M139.347500 122.917985
L139.347500 124.217985
" />
<path d="M139.997500 123.567985
L138.697500 123.567985
" />
<circle cx="136.500000" cy="128.500000" r="6.500000" /> 
<path d="M181.730000 120.690000
L182.365000 120.055000
" />
<path d="M181.730000 125.135000
L181.730000 120.690000
" />
<path d="M182.365000 120.055000
L184.270000 120.055000
" />
<path d="M184.270000 120.055000
L184.270000 125.135000
" />
<path d="M184.270000 125.135000
L181.730000 125.135000
" />
<path d="M153.847500 122.917985
L153.847500 124.217985
" />
<path d="M154.497500 123.567985
L153.197500 123.567985
" />
<circle cx="151.000000" cy="128.500000" r="6.500000" /> 
<path d="M111.380000 124.653821
L114.240000 124.653821
" />
<path d="M114.240000 121.988821
L114.240000 127.318821
" />
<path d="M114.240000 127.318821
L123.760000 127.318821
" />
<path d="M115.568000 121.988821
L115.568000 127.318821
" />
<path d="M115.668000 121.988821
L115.668000 127.318821
" />
<path d="M115.768000 121.988821
L115.768000 127.318821
" />
<path d="M123.760000 121.988821
L114.240000 121.988821
" />
<path d="M123.760000 127.318821
L123.760000 121.988821
" />
<path d="M126.620000 124.653821
L123.760000 124.653821
" />
<path d="M183.007500 87.374832
L183.007500 88.974832
" />
<path d="M183.807500 88.174832
L182.207500 88.174832
" />
<circle cx="179.500000" cy="94.250000" r="8.000000" /> 
<path d="M111.380000 130.653821
L114.240000 130.653821
" />
<path d="M114.240000 127.988821
L114.240000 133.318821
" />
<path d="M114.240000 133.318821
L123.760000 133.318821
" />
<path d="M115.568000 127.988821
L115.568000 133.318821
" />
<path d="M115.668000 127.988821
L115.668000 133.318821
" />
<path d="M115.768000 127.988821
L115.768000 133.318821
" />
<path d="M123.760000 127.988821
L114.240000 127.988821
" />
<path d="M123.760000 133.318821
L123.760000 127.988821
" />
<path d="M126.620000 130.653821
L123.760000 130.653821
" />
<path d="M145.007500 88.374832
L145.007500 89.974832
" />
<path d="M145.807500 89.174832
L144.207500 89.174832
" />
<circle cx="141.500000" cy="95.250000" r="8.000000" /> 
</g>
<g style="fill:#FFFFFF; fill-opacity:0.0; 
stroke:#FFFFFF; stroke-width:0.120000; stroke-opacity:1; 
stroke-linecap:round; stroke-linejoin:round;">
<path d="M190.750000 121.950000
L190.750000 122.450000
" />
<path d="M190.750000 122.450000
L193.250000 122.450000
" />
<path d="M193.250000 121.950000
L190.750000 121.950000
" />
<path d="M193.250000 122.450000
L193.250000 121.950000
" />
</g>
<g style="fill:#FFFFFF; fill-opacity:0.0; 
stroke:#FFFFFF; stroke-width:0.100000; stroke-opacity:1; 
stroke-linecap:round; stroke-linejoin:round;">
<path d="M164.007500 88.374832
L164.007500 89.974832
" />
<path d="M164.807500 89.174832
L163.207500 89.174832
" />
<circle cx="160.500000" cy="95.250000" r="8.000000" /> 
<path d="M108.000000 100.477780
L113.450000 100.477780
" />
<path d="M113.450000 95.927780
L113.450000 105.027780
" />
<path d="M113.450000 105.027780
L122.550000 105.027780
" />
<path d="M114.715000 95.927780
L114.715000 105.027780
" />
<path d="M114.815000 95.927780
L114.815000 105.027780
" />
<path d="M114.915000 95.927780
L114.915000 105.027780
" />
<path d="M122.550000 95.927780
L113.450000 95.927780
" />
<path d="M122.550000 105.027780
L122.550000 95.927780
" />
<path d="M128.000000 100.477780
L122.550000 100.477780
" />
<path d="M128.000000 70.477780
L122.550000 70.477780
" />
<path d="M122.550000 75.027780
L122.550000 65.927780
" />
<path d="M122.550000 65.927780
L113.450000 65.927780
" />
<path d="M121.285000 75.027780
L121.285000 65.927780
" />
<path d="M121.185000 75.027780
L121.185000 65.927780
" />
<path d="M121.085000 75.027780
L121.085000 65.927780
" />
<path d="M113.450000 75.027780
L122.550000 75.027780
" />
<path d="M113.450000 65.927780
L113.450000 75.027780
" />
<path d="M108.000000 70.477780
L113.450000 70.477780
" />
<path d="M145.007500 68.352612
L145.007500 69.952612
" />
<path d="M145.807500 69.152612
L144.207500 69.152612
" />
<circle cx="141.500000" cy="75.227780" r="8.000000" /> 
<path d="M183.007500 68.374832
L183.007500 69.974832
" />
<path d="M183.807500 69.174832
L182.207500 69.174832
" />
<circle cx="179.500000" cy="75.250000" r="8.000000" /> 
<path d="M98.400000 74.800000
L96.100000 74.800000
" />
<path d="M96.100000 74.800000
L96.100000 77.100000
" />
<path d="M100.069000 76.369000
L100.069000 77.400000
" />
<path d="M99.931000 76.369000
L100.069000 76.369000
" />
<path d="M96.100000 77.100000
L98.400000 74.800000
" />
<path d="M101.100000 77.400000
L101.100000 77.538000
" />
<path d="M100.069000 77.400000
L101.100000 77.400000
" />
<path d="M99.931000 77.400000
L99.931000 76.369000
" />
<path d="M98.900000 77.400000
L99.931000 77.400000
" />
<path d="M101.100000 77.538000
L100.069000 77.538000
" />
<path d="M100.069000 77.538000
L100.069000 78.569000
" />
<path d="M99.931000 77.538000
L98.900000 77.538000
" />
<path d="M98.900000 77.538000
L98.900000 77.400000
" />
<path d="M100.069000 78.569000
L99.931000 78.569000
" />
<path d="M99.931000 78.569000
L99.931000 77.538000
" />
<path d="M100.069000 79.869000
L100.069000 80.900000
" />
<path d="M99.931000 79.869000
L100.069000 79.869000
" />
<path d="M101.100000 80.900000
L101.100000 81.038000
" />
<path d="M100.069000 80.900000
L101.100000 80.900000
" />
<path d="M99.931000 80.900000
L99.931000 79.869000
" />
<path d="M98.900000 80.900000
L99.931000 80.900000
" />
<path d="M101.100000 81.038000
L100.069000 81.038000
" />
<path d="M100.069000 81.038000
L100.069000 82.069000
" />
<path d="M99.931000 81.038000
L98.900000 81.038000
" />
<path d="M98.900000 81.038000
L98.900000 80.900000
" />
<path d="M100.069000 82.069000
L99.931000 82.069000
" />
<path d="M99.931000 82.069000
L99.931000 81.038000
" />
<path d="M100.069000 83.369000
L100.069000 84.400000
" />
<path d="M99.931000 83.369000
L100.069000 83.369000
" />
<path d="M101.100000 84.400000
L101.100000 84.538000
" />
<path d="M100.069000 84.400000
L101.100000 84.400000
" />
<path d="M99.931000 84.400000
L99.931000 83.369000
" />
<path d="M98.900000 84.400000
L99.931000 84.400000
" />
<path d="M101.100000 84.538000
L100.069000 84.538000
" />
<path d="M100.069000 84.538000
L100.069000 85.569000
" />
<path d="M99.931000 84.538000
L98.900000 84.538000
" />
<path d="M98.900000 84.538000
L98.900000 84.400000
" />
<path d="M100.069000 85.569000
L99.931000 85.569000
" />
<path d="M99.931000 85.569000
L99.931000 84.538000
" />
<path d="M105.900000 74.800000
L96.100000 74.800000
" />
<path d="M96.100000 74.800000
L96.100000 87.200000
" />
<path d="M96.100000 87.200000
L105.900000 87.200000
" />
<path d="M105.900000 87.200000
L105.900000 74.800000
" />
<path d="M126.620000 118.653821
L123.760000 118.653821
" />
<path d="M123.760000 121.318821
L123.760000 115.988821
" />
<path d="M123.760000 115.988821
L114.240000 115.988821
" />
<path d="M122.432000 121.318821
L122.432000 115.988821
" />
<path d="M122.332000 121.318821
L122.332000 115.988821
" />
<path d="M122.232000 121.318821
L122.232000 115.988821
" />
<path d="M114.240000 121.318821
L123.760000 121.318821
" />
<path d="M114.240000 115.988821
L114.240000 121.318821
" />
<path d="M111.380000 118.653821
L114.240000 118.653821
" />
<path d="M167.370000 113.520000
L167.370000 122.770000
" />
<path d="M167.370000 122.770000
L167.370000 129.170000
" />
<path d="M167.370000 122.770000
L177.370000 122.770000
" />
<path d="M167.370000 129.170000
L177.370000 129.170000
" />
<path d="M169.830000 113.520000
L169.830000 109.710000
" />
<path d="M172.370000 113.520000
L172.370000 109.710000
" />
<path d="M174.910000 113.520000
L174.910000 109.710000
" />
<path d="M177.370000 113.520000
L167.370000 113.520000
" />
<path d="M177.370000 122.770000
L167.370000 122.770000
" />
<path d="M177.370000 122.770000
L177.370000 113.520000
" />
<path d="M177.370000 129.170000
L177.370000 122.770000
" />
<circle cx="172.370000" cy="126.370000" r="1.850000" /> 
<path d="M108.000000 90.477780
L113.450000 90.477780
" />
<path d="M113.450000 85.927780
L113.450000 95.027780
" />
<path d="M113.450000 95.027780
L122.550000 95.027780
" />
<path d="M114.715000 85.927780
L114.715000 95.027780
" />
<path d="M114.815000 85.927780
L114.815000 95.027780
" />
<path d="M114.915000 85.927780
L114.915000 95.027780
" />
<path d="M122.550000 85.927780
L113.450000 85.927780
" />
<path d="M122.550000 95.027780
L122.550000 85.927780
" />
<path d="M128.000000 90.477780
L122.550000 90.477780
" />
</g>
<g style="fill:#FFFFFF; fill-opacity:0.0; 
stroke:#FFFFFF; stroke-width:0.120000; stroke-opacity:1; 
stroke-linecap:round; stroke-linejoin:round;">
<path d="M191.250000 93.750000
L191.250000 94.250000
" />
<path d="M191.250000 94.250000
L193.750000 94.250000
" />
<path d="M193.750000 93.750000
L191.250000 93.750000
" />
<path d="M193.750000 94.250000
L193.750000 93.750000
" />
</g>
<g style="fill:#FFFFFF; fill-opacity:0.0; 
stroke:#FFFFFF; stroke-width:0.100000; stroke-opacity:1; 
stroke-linecap:round; stroke-linejoin:round;">
<path d="M139.347500 108.571806
L139.347500 109.871806
" />
<path d="M139.997500 109.221806
L138.697500 109.221806
" />
<circle cx="136.500000" cy="114.153821" r="6.500000" /> 
</g>
<g style="fill:#FFFFFF; fill-opacity:0.0; 
stroke:#FFFFFF; stroke-width:0.120000; stroke-opacity:1; 
stroke-linecap:round; stroke-linejoin:round;">
<path d="M191.250000 75.750000
L191.250000 76.250000
" />
<path d="M191.250000 76.250000
L193.750000 76.250000
" />
<path d="M193.750000 75.750000
L191.250000 75.750000
" />
<path d="M193.750000 76.250000
L193.750000 75.750000
" />
<path d="M190.750000 113.750000
L190.750000 114.250000
" />
<path d="M190.750000 114.250000
L193.250000 114.250000
" />
<path d="M193.250000 113.750000
L190.750000 113.750000
" />
<path d="M193.250000 114.250000
L193.250000 113.750000
" />
</g>
<g style="fill:#FFFFFF; fill-opacity:0.0; 
stroke:#FFFFFF; stroke-width:0.100000; stroke-opacity:1; 
stroke-linecap:round; stroke-linejoin:round;">
<path d="M126.620000 112.653821
L123.760000 112.653821
" />
<path d="M123.760000 115.318821
L123.760000 109.988821
" />
<path d="M123.760000 109.988821
L114.240000 109.988821
" />
<path d="M122.432000 115.318821
L122.432000 109.988821
" />
<path d="M122.332000 115.318821
L122.332000 109.988821
" />
<path d="M122.232000 115.318821
L122.232000 109.988821
" />
<path d="M114.240000 115.318821
L123.760000 115.318821
" />
<path d="M114.240000 109.988821
L114.240000 115.318821
" />
<path d="M111.380000 112.653821
L114.240000 112.653821
" />
<path d="M182.970000 109.040000
L180.470000 109.040000
" />
<path d="M180.470000 109.040000
L180.470000 115.040000
" />
<path d="M182.970000 115.040000
L182.970000 109.040000
" />
<path d="M180.470000 115.040000
L182.970000 115.040000
" />
<g >
</g>
<g >
</g>
<g >
</g>
<g >
</g>
<g >
</g>
<g >
</g>
<g >
</g>
<g >
</g>
<g >
</g>
<g >
</g>
<g >
</g>
<g >
</g>
<g >
</g>
<g >
</g>
<g >
</g>
<g >
</g>
<g >
</g>
<g >
</g>
<g >
</g>
<g >
</g>
<g >
</g>
<g >
</g>
<g >
</g>
<g >
</g>
<g >
</g>
<g >
</g>
<g >
</g>
<g >
</g>
<g >
</g>
<g >
</g>
<g >
</g>
<g >
</g>
<g >
</g>
<g >
</g>
<g >
</g>
<g >
</g>
<g >
</g>
</g>
<g style="fill:#FFFFFF; fill-opacity:0.0; 
stroke:#FFFFFF; stroke-width:0.100000; stroke-opacity:1; 
stroke-linecap:round; stroke-linejoin:round;">
</g>
<g style="fill:#FFFFFF; fill-opacity:0.0; 
stroke:#FFFFFF; stroke-width:0.050000; stroke-opacity:1; 
stroke-linecap:round; stroke-linejoin:round;">
<path d="M95.000000 137.000000
L195.000000 137.000000
" />
<path d="M95.000000 63.000000
L95.000000 137.000000
" />
<path d="M195.000000 63.000000
L95.000000 63.000000
" />
<path d="M195.000000 137.000000
L195.000000 63.000000
" />
<g >
</g>
<g >
</g>
<g >
</g>
<g >
</g>
<g >
</g>
<g >
</g>
<g >
</g>
<g >
</g>
<g >
</g>
<g >
</g>
<g >
</g>
<g >
</g>
<g >
</g>
<g >
</g>
<g >
</g>
<g >
</g>
<g >
</g>
<g >
</g>
<g >
</g>
<g >
</g>
<g >
</g>
<g >
</g>
<g >
</g>
<g >
</g>
<g >
</g>
<g >
</g>
<g >
</g>
<g >
</g>
<g >
</g>
<g >
</g>
<g >
</g>
<g >
</g>
<g >
</g>
<g >
</g>
<g >
</g>
<g >
</g>
<g >
</g>
</g> 
</svg>
